<svg xmlns="http://www.w3.org/2000/svg" viewBox="0 0 164.91 128.92"><g id="レイヤー_2" data-name="レイヤー 2"><g id="レイヤー_1-2" data-name="レイヤー 1"><path d="M21.39,125.12H18.45v-9.26c0-.86.21-1.82-1.22-1.81s-1.48.82-1.48,1.84c0,3,0,6,0,9.18H13V111.79l3.6.42c1.34-.75,2.92-.63,4.56.71a7.56,7.56,0,0,1,1.57-1c2.5-.75,4.18.4,4.23,3,.08,3.37,0,6.73,0,10.17H24.06v-5.54c0-1.32,0-2.64,0-4,0-.8.05-1.55-1.16-1.56s-1.49.59-1.48,1.63c0,2.64,0,5.29,0,7.93Z" style="fill:#194866"/><path d="M129.68,125.12h-2.79v-5.59c0-1.37,0-2.73,0-4.1,0-.84-.16-1.39-1.2-1.38s-1.45.42-1.45,1.37c0,2.75,0,5.49,0,8.23v1.48h-2.93v-6.38c0-1.12,0-2.25,0-3.37,0-.79-.16-1.31-1.11-1.32s-1.55.28-1.57,1.28c0,2,0,4.1,0,6.15v3.59h-2.78V111.8l3.6.44a3.65,3.65,0,0,1,4.18.34,28,28,0,0,1,4-.64,1.85,1.85,0,0,1,2,1.88C129.7,117.57,129.68,121.31,129.68,125.12Z" style="fill:#194866"/><path d="M156.52,125.31V107.06c.44,0,.9-.06,1.36-.12,1.06-.14,1.52.25,1.45,1.37-.08,1.36,0,2.72,0,4a29.78,29.78,0,0,1,3.32-.39,2,2,0,0,1,2.22,2c.07,3.08.1,6.17,0,9.25-.07,1.67-2.26,2.56-4.16,1.84-.35-.13-.67-.37-1-.17Zm5.49-6.92a24.54,24.54,0,0,0,0-3.21c-.05-.4-.63-1.07-.93-1.05-.56,0-1.54.48-1.56.78a68,68,0,0,0,.06,7.28c0,.29,1,.68,1.58.72.27,0,.82-.63.86-1C162.08,120.74,162,119.56,162,118.39Z" style="fill:#194866"/><path d="M11,125.19a11.16,11.16,0,0,0-1.56,0c-1.09.19-1.42-.39-1.59-1.34-.14-.77-.3-2-.76-2.16A8.38,8.38,0,0,0,4,121.6c-.2,0-.46.44-.56.72a4.11,4.11,0,0,0-.27,1.42c.06,1.28-.59,1.61-1.72,1.46-.42-.06-.86,0-1.4-.07,1.09-5.48,2.15-10.86,3.28-16.22a1.51,1.51,0,0,1,1.09-.84c3.11-.3,3.09-.26,3.73,2.8.87,4.24,1.78,8.47,2.66,12.71C10.86,124,10.92,124.52,11,125.19ZM5.66,111.54H5.27c-.34,1.87-.71,3.74-1,5.62-.4,2.38-.25,2.52,2.2,2.27a4.49,4.49,0,0,0,.6-.22C6.59,116.67,6.13,114.1,5.66,111.54Z" style="fill:#194866"/><path d="M75.41,112.85H72.55a5.86,5.86,0,0,1-.14-1c.08-1.06-.21-1.6-1.45-1.59s-1.4.65-1.41,1.66c0,3.31,0,3.31,3.18,3.53,2,.13,2.68.9,2.69,2.86,0,1.46,0,2.93,0,4.39,0,1.28-.6,2.25-1.91,2.36a28.5,28.5,0,0,1-4.8,0,2,2,0,0,1-2-2.3c0-.72,0-1.44,0-2.28h2.74a5.55,5.55,0,0,1,.09,1c-.07,1.15.46,1.53,1.58,1.53s1.4-.64,1.38-1.59v-.14c.1-3.47.1-3.47-3.3-3.72-1.72-.13-2.47-.85-2.53-2.57-.06-1.46-.06-2.93,0-4.39.06-1.8.79-2.49,2.65-2.55,1.08,0,2.15,0,3.22,0,2,.07,2.79.86,2.83,2.9C75.42,111.54,75.41,112.11,75.41,112.85Z" style="fill:#194866"/><path d="M34.51,112.26l3-.53v13.54l-3.18-.39.07-.12a16.41,16.41,0,0,1-2.67.4c-1.74,0-2.5-.79-2.54-2.52-.06-2.59-.05-5.18,0-7.76s2.3-3.9,4.65-2.7a5.71,5.71,0,0,1,.72.49Zm-2.46,6.18c0,1.12,0,2.24,0,3.36,0,.79.32,1.31,1.09,1.14.55-.12,1.44-.57,1.46-.92.14-2.32.15-4.66.08-7,0-1-.94-1.11-1.65-.9a1.61,1.61,0,0,0-.93,1.11A26.26,26.26,0,0,0,32.05,118.44Z" style="fill:#194866"/><path d="M150.83,112.26l3-.52v13.53l-3.56-.44a11.59,11.59,0,0,1-2.23.33c-1.74,0-2.5-.79-2.54-2.53-.06-2.58-.05-5.17,0-7.76s2.31-3.89,4.66-2.69c.26.14.48.33.72.49Zm-2.47,6.13c0,1.12,0,2.24,0,3.36,0,.75.2,1.2,1,1.24s1.55-.09,1.58-1.06c.06-2.28.08-4.57,0-6.85,0-1-.89-1.18-1.61-1a1.77,1.77,0,0,0-1,1.21A20.66,20.66,0,0,0,148.36,118.39Z" style="fill:#194866"/><path d="M51.23,118.53c0-1.36,0-2.73,0-4.09a2.25,2.25,0,0,1,2.38-2.54,37,37,0,0,1,3.94,0,2.25,2.25,0,0,1,2.33,2.44c0,2.78,0,5.55,0,8.33a2.13,2.13,0,0,1-2,2.4,30.52,30.52,0,0,1-4.78-.07,2,2,0,0,1-1.84-2.23C51.22,121.35,51.23,119.94,51.23,118.53Zm5.88-.08c0-1,0-2,0-3.07S56.6,114,55.6,114s-1.63.08-1.59,1.31c.06,2.14.05,4.29,0,6.43,0,1.09.49,1.33,1.43,1.3s1.71,0,1.68-1.23S57.11,119.57,57.11,118.45Z" style="fill:#194866"/><path d="M113.43,119.35h-5.81c.23,1.29-.76,2.78.67,3.59,1.24.7,2.12,0,2.59-1.61h2.29c.71,2,0,3.53-2,3.74a22.54,22.54,0,0,1-4.64-.12,1.87,1.87,0,0,1-1.67-2.07q0-4.3,0-8.63a2.15,2.15,0,0,1,2.14-2.32,27.15,27.15,0,0,1,4.23,0,2.17,2.17,0,0,1,2.19,2.14C113.5,115.76,113.43,117.46,113.43,119.35Zm-6-2.12.51.46c.9-.23,2.21-.19,2.61-.77a3.26,3.26,0,0,0-.27-2.69,2.5,2.5,0,0,0-2.08-.13A12.7,12.7,0,0,0,107.42,117.23Z" style="fill:#194866"/><path d="M48.67,125.12h-3c0-3.13,0-6.19,0-9.24,0-.85.25-1.83-1.19-1.82s-1.5.77-1.5,1.81c0,2.53,0,5.07,0,7.6,0,.52-.06,1-.09,1.64H40.25V111.65c1,.28,2,.57,2.89.77.22,0,.51-.13.75-.24,2.59-1.18,4.74.12,4.77,2.93C48.69,118.42,48.67,121.73,48.67,125.12Z" style="fill:#194866"/><path d="M86.7,112c-.47,2.39-.92,4.71-1.4,7-.44,2.09-.91,4.18-1.36,6.27-.66,3.05-2.06,4-5.35,3.57V127c2.63-.75,2.63-.75,2.73-2.24-1.24.06-1.49-.75-1.72-1.8-.79-3.64-1.7-7.26-2.62-11.1a8,8,0,0,1,2,0,1.67,1.67,0,0,1,1.1.92c.57,2.61,1,5.25,1.51,7.87a1.49,1.49,0,0,0,.6.92c.56-3.2,1.13-6.4,1.7-9.67Z" style="fill:#194866"/><path d="M88.1,121.56c1.19,0,2.55-.66,2.87,1.24,0,.16.47.33.74.35.84.09,1.54-.19,1.41-1.17s.71-2.36-1-2.36c-4.66,0-4.25-1.58-4.21-4.81,0-2.09.84-2.89,2.94-2.93h1.75c2.59,0,3.35.88,3.11,3.6H93.3c-.08-.25-.09-.7-.3-.84a10.28,10.28,0,0,0-1.65-.75,11.82,11.82,0,0,0-.63,2.49c0,.39.58.82.92,1.21,0,0,.18,0,.28,0,1.29.08,3-.38,3.55,1s.31,3,.4,4.57a1.36,1.36,0,0,1-.13.42c-.52,1.75-3.24,1.8-5.94,1.35C88.27,124.76,87.78,123.62,88.1,121.56Z" style="fill:#194866"/><path d="M144.18,125.12h-7.32v-17h2.76v2.61c0,3.56,0,7.13,0,10.69,0,1.24.41,1.65,1.61,1.55,1-.08,1.93,0,3,0Z" style="fill:#194866"/><path d="M98.63,109.55h2.49c.38,1-.27,3,2,2.27V114l-1.76.19c0,2.64,0,5.25,0,7.85,0,.27.33.73.53.75,1.64.12,1.28,1.19,1.17,2.18-3.25.82-4.66-.26-4.67-3.5,0-2.09,0-4.19,0-6.28,0-.38-.56-.72-.69-1.13a15.11,15.11,0,0,1-.36-2C99,111.89,98.23,110.52,98.63,109.55Z" style="fill:#194866"/><path d="M125.49,49.52c0,7.88,0,15.76,0,23.64a1.72,1.72,0,0,1-1,1.71Q104.31,86.5,84.11,98.21a2.84,2.84,0,0,1-3.31,0Q60.62,86.47,40.37,74.87a1.7,1.7,0,0,1-1-1.71q0-23.77,0-47.54a1.69,1.69,0,0,1,1-1.7Q60.65,12.25,80.91.52a2.57,2.57,0,0,1,3-.08q20.28,11.81,40.64,23.5a1.65,1.65,0,0,1,1,1.69C125.47,33.59,125.49,41.56,125.49,49.52ZM43,49.4c0,6.94.05,13.88,0,20.82a2.86,2.86,0,0,0,1.68,2.89C57,80.19,69.3,87.34,81.65,94.43a1.85,1.85,0,0,0,1.56,0C95.64,87.32,108,80.13,120.46,73a2.59,2.59,0,0,0,1.5-2.6c-.06-11.63,0-23.25,0-34.88,0-2.6,0-5.2,0-7.79a1.56,1.56,0,0,0-.94-1.62c-1.13-.59-2.21-1.27-3.32-1.91Q100.52,14.29,83.33,4.37a1.9,1.9,0,0,0-1.58-.07Q62.9,15.11,44.07,26A2.05,2.05,0,0,0,43,28.06C43,35.17,43,42.28,43,49.4Z" style="fill:#194866"/><path d="M61.4,56.62a5.78,5.78,0,0,0,0-1c-.46-2.55.36-4.33,2.93-5.22.35-.12.68-.83.7-1.28.07-2.12,0-4.26.08-6.38a2.39,2.39,0,0,1,1-1.68c2.32-1.42,4.7-2.74,7.11-4a1.64,1.64,0,0,0,1.06-1.91c-.32-1.76.42-2.82,2-3.55,1.78-.81,3.41-1.93,5.18-2.76a2.57,2.57,0,0,1,2,0c2.3,1.1,4.54,2.32,6.75,3.57a1.33,1.33,0,0,1,.48,1.12c-.43,2.1.27,3.39,2.3,4.26S96.84,39.91,98.8,41a1.78,1.78,0,0,1,1.07,1.82c-.05,2,0,4.09,0,6.13,0,.85.21,1.46,1,1.69,2.44.69,3.12,2.24,2.72,4.66a23.24,23.24,0,0,0,0,4.72,1.77,1.77,0,0,1-1,1.84c-2.14,1.15-4.21,2.41-6.38,3.5a2.24,2.24,0,0,1-1.82-.14,1.94,1.94,0,0,0-2.21,0c-2.84,1.63-5.69,3.23-8.6,4.73a2.62,2.62,0,0,1-2.09,0c-2.91-1.5-5.76-3.11-8.61-4.73-.72-.41-1.36-.65-2.08,0a1.81,1.81,0,0,1-2.32,0c-2-1.17-4-2.27-6-3.36a1.67,1.67,0,0,1-1-1.73C61.45,58.92,61.4,57.77,61.4,56.62ZM74.14,38.36c-2.49,1.39-4.78,2.67-7.06,4a.79.79,0,0,0-.35.5c0,2,0,4,0,6.19a7.1,7.1,0,0,0,1.15-.57c1.18-.93,2.24-.73,3.47,0,2,1.19,4,2.18,6,3.31a1.18,1.18,0,0,1,.52.86c0,2.5-.14,5-.15,7.5a1.72,1.72,0,0,1-1,1.71c-1,.52-2,1.12-3.26,1.8,1.79,1,3.33,1.88,4.88,2.73,1.38.75,2.79,2.06,4.16,2s2.86-1.34,4.27-2.12,3-1.7,4.72-2.67c-1.25-.69-2.27-1.27-3.31-1.81a1.61,1.61,0,0,1-1-1.61c0-2.33.06-4.67,0-7a1.77,1.77,0,0,1,1.12-1.79c1.69-.89,3.4-1.76,5-2.79,1.35-.86,2.58-1.21,3.91,0a4,4,0,0,0,1,.39,21.49,21.49,0,0,1,0-2.91c.41-2.59-.39-4.33-3-5.27a33,33,0,0,1-4.57-2.46,19.16,19.16,0,0,0,0,2,2,2,0,0,1-1.32,2.31c-2,1-3.89,2.09-5.79,3.21a2,2,0,0,1-2.25,0,40.67,40.67,0,0,0-4.57-2.52c-1.87-.8-2.92-1.93-2.49-4.06A3.87,3.87,0,0,0,74.14,38.36ZM70.37,63.45c1.95-1.09,3.58-2,5.19-2.92.23-.14.53-.42.54-.64,0-1.88,0-3.77,0-5.92-2,1.05-3.62,1.94-5.27,2.87a1,1,0,0,0-.46.71C70.36,59.4,70.37,61.25,70.37,63.45Zm24.16,0c0-2.2,0-4.06,0-5.92a.85.85,0,0,0-.36-.62C92.46,56,90.76,55,88.79,54c0,2.17,0,4.06,0,6,0,.19.26.44.45.56C90.91,61.42,92.57,62.35,94.53,63.45ZM81.62,44.12c0-2.21,0-4.08,0-5.94a.83.83,0,0,0-.34-.62c-1.68-1-3.38-1.88-5.34-3,0,2.19,0,4.08,0,6a.85.85,0,0,0,.4.59C78,42.11,79.66,43,81.62,44.12ZM89,34.58c-2,1.1-3.68,2-5.36,3a.69.69,0,0,0-.32.49c0,1.92,0,3.85,0,6.05,1.94-1.08,3.64-2,5.31-3a1,1,0,0,0,.38-.73C89,38.58,89,36.76,89,34.58ZM68.78,63.43c0-2.15,0-3.93,0-5.7a1,1,0,0,0-.32-.77c-1.7-1-3.44-1.91-5.4-3,0,2.13,0,4,0,5.76a.84.84,0,0,0,.28.65C65.06,61.38,66.79,62.32,68.78,63.43Zm27.34-.35c.21,0,.36.1.44.06,1.64-.89,3.28-1.77,4.9-2.69a.82.82,0,0,0,.37-.6c0-1.85,0-3.71,0-5.87-2,1.08-3.7,2-5.4,3a1,1,0,0,0-.31.78C96.11,59.51,96.12,61.29,96.12,63.08ZM89.66,52.6c2,1,3.64,1.94,5.33,2.81a.85.85,0,0,0,.7,0c1.7-.88,3.39-1.8,5.3-2.83-1.91-1.08-3.56-2-5.23-2.93a1,1,0,0,0-.83,0C93.26,50.56,91.61,51.5,89.66,52.6Zm-25.73,0,5.18,2.77c.18.09.45.2.59.13,1.77-.91,3.53-1.86,5.53-2.92-2-1.1-3.6-2-5.27-2.94a1,1,0,0,0-.83,0C67.46,50.57,65.82,51.53,63.93,52.61ZM88.12,33.22c-1.93-1-3.58-2-5.26-2.85a1,1,0,0,0-.81,0c-1.67.88-3.33,1.8-5.27,2.85,2,1.05,3.67,2,5.38,2.86a.74.74,0,0,0,.6,0C84.47,35.18,86.17,34.27,88.12,33.22Z" style="fill:#194866"/></g></g></svg>