<svg xmlns="http://www.w3.org/2000/svg" xmlns:xlink="http://www.w3.org/1999/xlink" viewBox="0 0 635 374.44"><defs><clipPath id="clip-path"><path d="M338,310.64l-29.69-17.88q1-8,3.18-19.89t4-19.29l29.68,17.87c-1.18,4.92-2.51,11.35-4,19.31S338.7,305.32,338,310.64Z" style="fill:none"/></clipPath><clipPath id="clip-path-2"><path d="M302.13,262.64l-29.69-17.89q-1.1-4.16-3.74-17.07c-1.76-8.63-2.79-14.43-3.05-17.4l29.69,17.87c.26,3,1.29,8.79,3.05,17.42S301.4,259.87,302.13,262.64Z" style="fill:none"/></clipPath><clipPath id="clip-path-3"><path d="M253,314.07l-29.69-17.89c.4-3.87,1.29-9.88,2.73-18s2.74-14.49,4-19L259.72,277q-1.87,6.76-4,19T253,314.07Z" style="fill:none"/></clipPath></defs><g id="レイヤー_2" data-name="レイヤー 2"><g id="レイヤー_1-2" data-name="レイヤー 1"><rect x="285.1" y="44.62" width="349.9" height="328.56" style="fill:#fff"/><rect x="299.65" y="91.55" width="319.55" height="179.2" style="fill:#e45471"/><rect x="299.64" y="271.95" width="319.55" height="87.55" style="fill:#e5e8ec"/><path d="M628.33,0H291.69a6.4,6.4,0,0,0-6.59,6.18V44.85H634.93V6.18A6.41,6.41,0,0,0,628.33,0Z" style="fill:#cdd5d7"/><path d="M299.11,12.07a4,4,0,1,1-4-4A4,4,0,0,1,299.11,12.07Z" style="fill:#b7bec0"/><path d="M310.85,12.07a4,4,0,1,1-4-4A4,4,0,0,1,310.85,12.07Z" style="fill:#b7bec0"/><path d="M322.59,12.07a4,4,0,1,1-4-4A4,4,0,0,1,322.59,12.07Z" style="fill:#b7bec0"/><rect x="339.49" y="21.67" width="205.65" height="17.36" style="fill:#fff"/><polygon points="296.56 35.89 290.28 29.6 296.56 23.32 298.9 25.65 294.95 29.6 298.9 33.56 296.56 35.89" style="fill:#b7bec0"/><rect x="294" y="27.95" width="11.62" height="3.3" style="fill:#b7bec0"/><polygon points="323.2 35.89 320.87 33.56 324.82 29.6 320.87 25.65 323.2 23.32 329.5 29.6 323.2 35.89" style="fill:#b7bec0"/><rect x="314.14" y="27.95" width="11.62" height="3.3" style="fill:#b7bec0"/><rect x="551.88" y="21.67" width="50.69" height="15.48" style="fill:#596273"/><rect x="366" y="65.06" width="51.27" height="5.55" style="fill:gray"/><rect x="424.82" y="65.06" width="51.26" height="5.55" style="fill:gray"/><rect x="483.63" y="65.06" width="51.26" height="5.55" style="fill:gray"/><rect x="542.45" y="65.06" width="51.26" height="5.55" style="fill:gray"/><rect x="567.61" y="65.06" width="51.26" height="5.55" style="fill:gray"/><rect x="299.65" y="60.43" width="54.19" height="14.82" style="fill:#e45471"/><rect x="314.67" y="284.2" width="115.62" height="5.76" style="fill:gray"/><rect x="314.67" y="296.54" width="280.53" height="4.32" style="fill:#b0aca3"/><rect x="313.47" y="306.63" width="244.96" height="4.32" style="fill:#b0aca3"/><rect x="312.49" y="323.66" width="56.24" height="15.38" style="fill:gray"/><rect x="325.21" y="329.18" width="30.8" height="4.33" style="fill:#fff"/><path d="M480.72,186.87V182.4a2.51,2.51,0,0,0-2.51-2.52h-35.9a2.52,2.52,0,0,0-2.52,2.52v22.92a2.52,2.52,0,0,0,2.52,2.52h35.9a2.51,2.51,0,0,0,2.51-2.52v-4.48l13.56,6.74V180.13Z" style="fill:#f1fafc"/><path d="M449.62,178.91a8.61,8.61,0,1,0-8.61-8.6A8.59,8.59,0,0,0,449.62,178.91Z" style="fill:#f1fafc"/><path d="M468.09,178.91a8.61,8.61,0,1,0-8.61-8.6A8.6,8.6,0,0,0,468.09,178.91Z" style="fill:#f1fafc"/><path d="M14.59,212.32,67,272.25l-6.74,18a114.67,114.67,0,0,1-36.76-25.46C6.79,247.2,14.59,212.32,14.59,212.32Z" style="fill:#163f59"/><rect x="82.05" y="350.59" width="7.81" height="14.7" transform="translate(-55.88 18.25) rotate(-9.16)" style="fill:#593446"/><path d="M80.44,363c-7-14.31-20.47-38.89-23.27-48.53a142.07,142.07,0,0,1-5.69-31.11l16.22-11,23.5,87.79Z" style="fill:#163f59"/><path d="M97.61,366.4l-3.29,3.45-2.13,0-3.11-2.07,0,2.14-7,.16c-1.12-2.27-.61-6.57-.61-6.57s6.48,1.45,7.06.61c2.22-3.27,3.79-1.93,3.79-1.93S94.55,366.34,97.61,366.4Z" style="fill:#081832"/><path d="M91,365.21a5.49,5.49,0,0,0,4.13.91c11.55-3.12,12.7-.43,12.7-.43l-15.2,4.74Z" style="fill:#081832"/><path d="M119.62,231.85s18.54,10.39,26.59-6.92c2.4-5.15,2,.93,1.1,6.67s-9.5,18.32-21.47,18.43-16.69-.89-19.63-5.48S119.62,231.85,119.62,231.85Z" style="fill:#dee7ec"/><path d="M82.83,193.53s-8.39,2.92,3.72,30.1,17.33,24.19,17.33,24.19l6.92-.39L122,231.18l-8.15-7-1.39.55a4.73,4.73,0,0,1-2.45-2.76c-.46-1.85-4.9-9.71-9.59-25.57C98.24,189.05,84.45,193,82.83,193.53Z" style="fill:#d1dbea"/><path d="M104.54,226.43l4-2.82,1.69-1a5,5,0,0,0,2.2,2.1L109,226.13l-3.66,2.54-3.44,5.09Z" style="fill:#b0bfde"/><g style="isolation:isolate"><g style="isolation:isolate"><g style="clip-path:url(#clip-path)"><g style="isolation:isolate"><path d="M338,310.64l-29.69-17.88q1-8,3.18-19.89t4-19.29l29.68,17.87c-1.18,4.92-2.51,11.35-4,19.31s-2.51,14.56-3.18,19.88" style="fill:#afc7d7"/></g></g></g><polygon points="363.63 189.67 333.94 171.79 364.3 170.56 394 188.44 363.63 189.67" style="fill:#bedae8"/><polygon points="345.17 271.45 315.48 253.58 333.94 171.79 363.63 189.67 345.17 271.45" style="fill:#abc1d2"/><polygon points="321.93 339.83 292.24 321.95 272.44 244.75 302.13 262.64 321.93 339.83" style="fill:#abc1d2"/><g style="isolation:isolate"><g style="clip-path:url(#clip-path-2)"><g style="isolation:isolate"><path d="M302.13,262.64l-29.69-17.89q-1.1-4.16-3.74-17.07c-1.76-8.63-2.79-14.43-3.05-17.4l29.69,17.87c.26,3,1.29,8.79,3.05,17.42s3,14.3,3.74,17.07" style="fill:#afc7d7"/></g></g></g><g style="isolation:isolate"><g style="clip-path:url(#clip-path-3)"><g style="isolation:isolate"><path d="M253,314.07l-29.69-17.89c.4-3.87,1.29-9.88,2.73-18s2.74-14.49,4-19L259.72,277q-1.87,6.76-4,19t-2.72,18" style="fill:#afc7d7"/></g></g></g><polygon points="259.72 277.04 230.03 259.15 251.16 175.12 280.85 193 259.72 277.04" style="fill:#abc1d2"/><polygon points="280.85 193 251.16 175.12 280.34 173.94 310.03 191.83 280.85 193" style="fill:#bedae8"/><path d="M394,188.45l-36.91,150-35.16,1.42-19.8-77.19q-1.1-4.15-3.74-17.07c-1.76-8.63-2.79-14.44-3.05-17.42-.39,3.69-1.39,9.59-3,17.75s-2.81,14-3.67,17.46L269.16,342l-35.06,1.41-37.29-147,30.37-1.22,18.71,80.29q4.89,22.23,7.11,38.61.58-5.82,2.72-18t4-19l21.13-84L310,191.83l21.29,82.32c.95,3.67,2.1,9.32,3.51,16.9s2.46,14.13,3.2,19.59c.67-5.32,1.73-11.93,3.18-19.88s2.77-14.39,4-19.31l18.46-81.78Z" style="fill:#dbe4e9"/><polygon points="196.81 196.39 167.12 178.51 197.49 177.28 227.18 195.17 196.81 196.39" style="fill:#bedae8"/><polygon points="234.1 343.37 204.41 325.49 167.12 178.51 196.81 196.39 234.1 343.37" style="fill:#abc1d2"/></g><path d="M195.09,64.92a15.78,15.78,0,0,0,21.84,4.51L216.11,61c7.28-4.79,6-19.63,1.18-26.91L214,29.16a15.75,15.75,0,0,0-21.83-4.51l-3.3,2.16a15.77,15.77,0,0,0-4.51,21.84Z" style="fill:#282723"/><path d="M211.16,30.49a24.42,24.42,0,0,1,2.58-2,26.23,26.23,0,0,0,2.44,3.3,26.51,26.51,0,0,0,35,3.91A26.7,26.7,0,0,1,246,69.93c-11.12,9.83-27.94,9-37.57-1.91S200,40.32,211.16,30.49Z" style="fill:#282723"/><path d="M184.29,37a29.92,29.92,0,0,0,2.76,3.51c6.89,7.59,16.26,10.63,22.4,7.73,2.69,3.71,6.23,6.15,8.58,9,5.09,6.17,12.92,2,12.92,2,4.83,5.28-13,28.75-13.18,27.48s.24-11.48-2.34-18.93a15.57,15.57,0,0,0-9-9.33,12.89,12.89,0,0,0-10.09,1.42,1.81,1.81,0,0,1-1.44.24,11.2,11.2,0,0,1-2.22-2.47L185.51,46.8A11.12,11.12,0,0,1,184.29,37Z" style="fill:#fff"/><path d="M187.78,165.38a1.8,1.8,0,0,1-.06-.22c.05,0,.08-.11.13-.17a118.1,118.1,0,0,1,10.56-31.83c3.59-6.93,10.83-13.5,14-16.81,8.22,4.48,16.35,2.4,24,8.21a71,71,0,0,1,2.39,10.35c1.17,6.71,2.17,13,3,18.79,11.92,1.12,41.34,3.38,52.41,5.55,6.56,1.52,6.95,4.07,8,4.89-.58,10.71-9.27,16.76-14.53,25.33-.93,1.53-71.35.21-83.44.82C198.17,189.11,184.58,184.14,187.78,165.38Z" style="fill:#194866"/><path d="M297.74,179.32c1.93-2.23,3-5,4.44-7.52,1.12-4.78,1.1-8-.27-9.14-5.2-4.29-23,4.66-67.62,71.61-9.72,14.58-31.26,45.38-26.3,40.24C282,198,288,190.61,297.74,179.32Z" style="fill:#dbe4e9"/><path d="M208,271.15l7.92-12.67a3.59,3.59,0,0,1,3.2-1.82l-6.1,9.75a4.44,4.44,0,0,0,.65,5.68,3,3,0,0,0,1.72.66l-1.82,2.91c-1.18,1.89-3.38,2.41-4.92,1.17A4.47,4.47,0,0,1,208,271.15Z" style="fill:#163f59"/><path d="M206.45,105.59l-12.29-21.8c-4.55-6.48-2.27-14.8,5.06-16.65l38.44-8.94c4.62-.77,12.33,5.6,11,13.56l-7.85,26.18Z" style="fill:#fff"/><path d="M243.77,62.79c-5.12,23.79,7.68,66.16,7.68,66.16s7.37,1.51,8.76-2.51c1.78-5.09-2.79-17.26-5.65-50.41C252.78,55.51,244.63,58.81,243.77,62.79Z" style="fill:#163f59"/><path d="M191.8,72.53c-3.28,29-11.29,66.32-11.29,66.32s8,6.43,10.53,2.84c3.27-4.56,6.31-21.45,9.85-53.51C203.09,68.32,192.27,68.44,191.8,72.53Z" style="fill:#163f59"/><path d="M237.82,113.94c.07,3-1.32,9.94-3.59,10L210.68,122c-2.27,0-5.39-2.13-5.45-5.13L202.55,107c-.06-3,1.73-5.46,4-5.5l28.24-7.9C237.07,93.56,239,96,239,99Z" style="fill:#89dbf0"/><path d="M236.06,124.12c0,.33-1.61.5-3.54.38l-21.87-1.36c-1.93-.12-3.48-.48-3.46-.82l.08-1.24c0-.33,1.6-.5,3.53-.38l21.87,1.36c1.93.12,3.48.49,3.46.82Z" style="fill:#15100c"/><path d="M243.81,69.32a17.52,17.52,0,0,0-1.71-3.89c-19.74,15.2-34.34,9.64-44.79,7.6a17,17,0,0,0-.14,1.91c-.11,7.18.68,14.32.66,21.49-.05,5.7,8.16,10.37,12,10.38,14.37.06,17.59-.92,31.25-5.18,3.66-1.15,10.29-7.44,8.65-12.62Q246.71,79.18,243.81,69.32Z" style="fill:#89dbf0"/><path d="M207.78,65.18s-13.51.12-15.86,7.41,2.93,17.51,2.93,17.51,4.34,13.17,5.67,20.36-2.35,12.28-1.64,12.76c.34.23,3.78.5,9.09-2.24s1.83-13.09,1.18-16.25-3.92-18.68-3.42-21.29S207.78,65.18,207.78,65.18Z" style="fill:#194866"/><path d="M251.49,68s1.07-6.05-1.85-8.33c-4.29-3.35-14.27-2.5-17.47-1.54a42.81,42.81,0,0,0-5.36,2s11.48,3.58,11.88,24.16a90.15,90.15,0,0,1-1.81,16.24c-1.14,5.52-1.17,16.21-1.17,16.21s6.81,1,7.15,1.83.47-6.37,4.8-13.43S251.49,68,251.49,68Z" style="fill:#194866"/><path d="M238,57.42c5.71,4.39,9.21,8.19,9.3,32.14,0,3.88-1,11-1.53,17.64.3-.69,2.46-4.19,2.83-4.89,3.78-7,2.93-34.29,2.93-34.29s.49-5.43-2.08-7.72C246.71,57.86,241.8,57,238,57.42Z" style="fill:#163f59"/><path d="M285.33,184.28c1.54-2.44,2-5.36,3-8,.22-4.83-.61-7.63-1.94-8.83-6-5.45-19.18,4.64-40.54,48.57-10.76,22.15-19.37,42.75-33.92,54.6-2.12,1.73-2.68,2-3.37,4-2.11,6.23-1.17,14-.91,13.76C217.8,279,256.88,229.25,285.33,184.28Z" style="fill:#fff"/><path d="M203.44,283.77l6.86-13.27a3.61,3.61,0,0,1,3-2.08l-5.29,10.23a4.44,4.44,0,0,0,1.11,5.6,2.89,2.89,0,0,0,1.77.51l-1.58,3.05c-1,2-3.17,2.68-4.81,1.56A4.42,4.42,0,0,1,203.44,283.77Z" style="fill:#194866"/><path d="M148.58,185.13s-2.34,2.3-2.64,3.91c-.21,1.13-.3,6.58-.3,6.58A6.42,6.42,0,0,0,147,191.9,21.62,21.62,0,0,1,148.58,185.13Z" style="fill:#dee7ec"/><path d="M147.3,188.64c-1.61,1.28-2.17,3.6-2.18,6.48a4.7,4.7,0,0,1-1.43,3.79,33.15,33.15,0,0,1,.28-6c.12-1.19.31-2.4.53-3.56C145.2,185.48,151.44,185.34,147.3,188.64Z" style="fill:#dee7ec"/><path d="M150.84,182.73c.26,1.42-1.11,3.79-.69,4.58a9.75,9.75,0,0,0,2.56,3.19c-2.9.89-4.59-3.07-6.23-3.94S150.15,179.07,150.84,182.73Z" style="fill:#fff"/><path d="M162,170c-4.25,3.35-9.19,7.11-10.72,9.85-2.17,3.92-1.57,6.89-4,8.83a8.15,8.15,0,0,0-.72.72c-.63.66-1.46,1.27-1.69,1.58s-.87,1.4-.8.88c.67-4.62,1.86-9.72,2.55-10.61,1.41-1.84,9.69-11.65,13.51-14.66C164.46,163.15,167.74,165.43,162,170Z" style="fill:#fff"/><path d="M147,188.27s-.7-.87-1.41-.36c-1.15.84-2.59,3.34-3.07,4.24s-2.22,6.2-2.22,6.2a6.38,6.38,0,0,0,2.41-3.15C143.75,192.15,147,188.27,147,188.27Z" style="fill:#fff"/><path d="M165.3,160.18c3.71-.13,12.56-5.69,13.38-3.91C172.49,165,148,179.55,148,179.55Z" style="fill:#fff"/><path d="M163.21,165.21a3.45,3.45,0,0,1,2.14,3.49c6.47-4.95,24.51-18.8,26.14-27.95.49-2.77-4.84-9.76-13.21.25-10.25,12.29-15.17,19.34-17.08,23.66A4.46,4.46,0,0,1,163.21,165.21Z" style="fill:#163f59"/><path d="M273.13,80s1,.42,1.41-.36a15.78,15.78,0,0,0,.7-5.22c0-1.15-1-6.55-1-6.55a6.47,6.47,0,0,0-.63,3.94C274.18,75,273.13,80,273.13,80Z" style="fill:#dee7ec"/><path d="M273.19,79.29c.81-1.91.21-4.22-1.16-6.78a4.7,4.7,0,0,1-.54-4,33.15,33.15,0,0,1,2.62,5.45,10.38,10.38,0,0,1,.9,3.56C275.07,81.08,271.1,84.18,273.19,79.29Z" style="fill:#dee7ec"/><path d="M254.51,124.13c-.52-8.2,13.24-29.85,13.24-29.85s7.57-6.53-4.86,25.26C259.15,129.08,254.64,126.15,254.51,124.13Z" style="fill:#fff"/><path d="M273,77l.91.5.78,3.49s-1.25,6.31-2.57,8.52-3,11.95-3.5,13-6.21,1.36-6.21,1.36,4.07-9.38,5.35-13.23,1.25-10,1.7-11.52c.77-2.61,1-4,1-4s1.34.6.37,4.77c-.25,1.1,1.11.8,1.11.8Z" style="fill:#fff"/><path d="M273.53,81.47s.82-3.19.23-4.74c-.4-1.06-3.17-5.8-3.17-5.8a6.43,6.43,0,0,0,.76,3.91A21.68,21.68,0,0,1,273.53,81.47Z" style="fill:#fff"/><path d="M272,80.8s-.9.26-1.22,0a4.86,4.86,0,0,0,.14.85c.09.54,0,4.24,0,4.24a31.42,31.42,0,0,1,.92-3.39,15,15,0,0,0,.58-2.51c0-.12,0-.31,0-.53Z" style="fill:#dee7ec"/><path d="M270.87,80c.65-2.8.26-4-.06-4.47-.16.65-.42,1.72-.85,3.19a19,19,0,0,0-.37,3,4.81,4.81,0,0,1,1.46,2.64c.1.4.7-2,.74-3.52C271.43,80.86,270.68,80.84,270.87,80Z" style="fill:#dee7ec"/><path d="M264.93,113.5c0-1.14-6.21-2.64-7.28-.78l-1,1.33s-8,11.77-1.58,15.34C255.08,129.39,262.6,130.16,264.93,113.5Z" style="fill:#163f59"/><rect x="224.25" y="158.13" width="67.17" height="1.38" style="fill:#cdd5d7"/><path d="M253.89,158.05a1.85,1.85,0,0,0,1.7,1.94H290c.93,0,2.21-.68,3.35-3.4l17-31.09a1.78,1.78,0,0,0-2-2l-35.34,1.07a3.26,3.26,0,0,0-2.23,2.35Z" style="fill:#cdd5d7"/><path d="M258.06,159.51h-34a12.47,12.47,0,0,0,5.49,1.06h56.61a12.55,12.55,0,0,0,5.5-1.06Z" style="fill:#b7bec0"/><path d="M179.31,370.31l5.52-165.1a3.53,3.53,0,0,0-3.42-3.65l-26.58-.89a3.55,3.55,0,0,0-3.66,3.42l-5.52,165.09a3.55,3.55,0,0,0,3.42,3.65l26.59.89A3.53,3.53,0,0,0,179.31,370.31ZM165.78,211.46a2,2,0,1,1,4,.14,2,2,0,0,1-4-.14Z" style="fill:#cfd8cd"/><path d="M171.39,211.64a3.62,3.62,0,1,0-3.74,3.49A3.62,3.62,0,0,0,171.39,211.64Zm-5.61-.18a2,2,0,1,1,4,.14,2,2,0,0,1-4-.14Z" style="fill:#7e7e7e"/><path d="M177.55,371.05,184,206a3.53,3.53,0,0,0-3.39-3.67l-26.59-1a3.53,3.53,0,0,0-3.66,3.39l-6.42,165.07a3.52,3.52,0,0,0,3.38,3.66l26.6,1A3.53,3.53,0,0,0,177.55,371.05ZM164.89,212.13a2,2,0,1,1,1.91,2.07A2,2,0,0,1,164.89,212.13Z" style="fill:#fff"/><polygon points="144.87 344.87 143.89 370.19 177.53 371.5 178.51 346.17 144.87 344.87" style="fill:#f6f1f6"/><polygon points="145.85 319.73 144.86 345.05 178.52 346.36 179.5 321.03 145.85 319.73" style="fill:#dee7dc"/><rect x="150.49" y="291.06" width="25.35" height="33.67" transform="translate(-150.85 458.94) rotate(-87.77)" style="fill:#cfd8cd"/><polygon points="147.81 269.44 146.82 294.76 180.47 296.07 181.45 270.75 147.81 269.44" style="fill:#c3cbc1"/><polygon points="148.78 244.29 147.81 269.62 181.45 270.92 182.43 245.59 148.78 244.29" style="fill:#acb2aa"/><rect x="153.42" y="215.62" width="25.34" height="33.67" transform="translate(-72.65 389.39) rotate(-87.77)" style="fill:#8f938d"/><path d="M170.51,212.35a3.63,3.63,0,1,0-3.77,3.46A3.63,3.63,0,0,0,170.51,212.35Zm-5.62-.22a2,2,0,1,1,1.91,2.07A2,2,0,0,1,164.89,212.13Z" style="fill:#999"/><path d="M159.89,371l24.62-163.35a3.54,3.54,0,0,0-3-4l-26.31-4a3.53,3.53,0,0,0-4,3L126.59,366a3.54,3.54,0,0,0,3,4l26.33,4A3.51,3.51,0,0,0,159.89,371Zm5-159.36a2,2,0,0,1,2.27-1.67,2,2,0,0,1,1.66,2.26,2,2,0,1,1-3.93-.59Z" style="fill:#fff"/><polygon points="130.3 341.37 126.53 366.43 159.83 371.44 163.6 346.4 130.3 341.37" style="fill:#9ea4cb"/><rect x="136.14" y="314.69" width="25.35" height="33.67" transform="translate(-201.22 429.18) rotate(-81.41)" style="fill:#8a8fb2"/><polygon points="137.81 291.6 134.02 316.67 167.32 321.69 171.1 296.62 137.81 291.6" style="fill:#757997"/><rect x="143.64" y="264.93" width="25.35" height="33.67" transform="translate(-145.61 394.31) rotate(-81.42)" style="fill:#595c73"/><polygon points="145.3 241.84 141.52 266.9 174.83 271.92 178.59 246.86 145.3 241.84" style="fill:#474a59"/><rect x="151.14" y="215.16" width="25.34" height="33.67" transform="translate(-90 359.41) rotate(-81.43)" style="fill:#30333d"/><path d="M170.42,212.49a3.63,3.63,0,1,0-4.13,3A3.63,3.63,0,0,0,170.42,212.49Zm-5.56-.84a2,2,0,1,1,1.68,2.27A2,2,0,0,1,164.86,211.65Z" style="fill:#7e7e7e"/><path d="M129.93,366.82l55-155.76a3.52,3.52,0,0,0-2.15-4.51l-25.08-8.86a3.53,3.53,0,0,0-4.51,2.16l-55,155.75a3.53,3.53,0,0,0,2.15,4.5L125.42,369A3.52,3.52,0,0,0,129.93,366.82Zm35-155.55a2,2,0,1,1,1.22,2.54A2,2,0,0,1,164.91,211.27Z" style="fill:#fff"/><polygon points="106.47 332.13 98.03 356.02 129.78 367.24 138.23 343.35 106.47 332.13" style="fill:#ed7476"/><polygon points="114.86 308.4 106.41 332.31 138.16 343.51 146.6 319.62 114.86 308.4" style="fill:#ed585b"/><rect x="122.22" y="285.4" width="25.35" height="33.68" transform="translate(-195.02 328.72) rotate(-70.54)" style="fill:#da5154"/><polygon points="131.61 260.95 123.17 284.85 154.92 296.06 163.37 272.17 131.61 260.95" style="fill:#c23c3c"/><polygon points="140.01 237.22 131.56 261.13 163.31 272.34 171.75 248.43 140.01 237.22" style="fill:#ab3535"/><polygon points="148.39 213.49 139.94 237.4 171.69 248.61 180.13 224.71 148.39 213.49" style="fill:#982f2f"/><path d="M170.21,213.15a3.62,3.62,0,1,0-4.62,2.2A3.62,3.62,0,0,0,170.21,213.15Zm-5.3-1.88a2,2,0,0,1,2.54-1.2,2,2,0,1,1-2.54,1.2Z" style="fill:#797979"/><path d="M84,347.62,184.55,216.55a3.54,3.54,0,0,0-.65-5l-21.11-16.19a3.54,3.54,0,0,0-5,.65L57.28,327.12a3.53,3.53,0,0,0,.65,4.95L79,348.26A3.54,3.54,0,0,0,84,347.62Zm81.43-137.06a2,2,0,1,1,.37,2.78A2,2,0,0,1,165.42,210.56Z" style="fill:#fff"/><polygon points="72.42 307.37 57.01 327.48 83.72 347.98 99.14 327.87 72.42 307.37" style="fill:#ffe18b"/><polygon points="87.75 287.41 72.32 307.52 99.03 328 114.46 307.91 87.75 287.41" style="fill:#ffdb6f"/><polygon points="103.07 267.44 87.64 287.55 114.35 308.05 129.78 287.94 103.07 267.44" style="fill:#f2d06a"/><rect x="111.35" y="250.95" width="25.34" height="33.67" transform="translate(-163.93 203.19) rotate(-52.51)" style="fill:#e6c664"/><polygon points="133.7 227.51 118.27 247.63 144.99 268.12 160.41 248.01 133.7 227.51" style="fill:#d1b45b"/><rect x="141.99" y="211.02" width="25.35" height="33.67" transform="translate(-120.26 211.86) rotate(-52.5)" style="fill:#bca45d"/><path d="M169.88,214a3.63,3.63,0,1,0-5.08.65A3.64,3.64,0,0,0,169.88,214Zm-4.46-3.42a2,2,0,1,1,.37,2.78A2,2,0,0,1,165.42,210.56Z" style="fill:#b7aac6"/><path d="M22.88,234.12,6.38,195.58,51,164.66s25.09-21.59,33-3.92,16.61,38.2,16.61,38.2S95.25,215.36,22.88,234.12Z" style="fill:#b0bfde"/><path d="M128.33,169.19s-17.49,20.41-23.93,18.22c-.28-.09-3.39-3.06-6.4-3.29-2.85-.21-4.47,1.21-5.6,1.25a10,10,0,0,0-1.75,0,3.64,3.64,0,0,1-4.34-3.91c.34-1.69-.23-6.18.4-7.45.43-.87.48-1.68,1.82-1.95,2.86-.57,7.7-2.28,9-3.79,3.9-4.4,7.35-16.47,19.19-13.63C120.21,155.52,129.08,167.47,128.33,169.19Z" style="fill:#edeef0"/><polygon points="87.03 183.72 80.72 185.39 85.18 170.59 87.94 170.91 87.03 183.72" style="fill:#d1dbea"/><polygon points="92.23 185.31 94.1 184.14 91.51 187.61 85.25 190.37 87.18 184.45 92.23 185.31" style="fill:#d1dbea"/><path d="M104.73,187.18s-.25-.92-.57-2.69a14.47,14.47,0,0,0-.82-3.08c-1.7-3.39-1.88-3.07-2.51-5.34a60.82,60.82,0,0,1-1.14-8.3s-1,2.93-1.39,4.1a7.52,7.52,0,0,0,.17,5.45c2.39,6.26,1.78,6.29,2.34,6.92A32.08,32.08,0,0,1,104.73,187.18Z" style="fill:#dee7ec"/><path d="M120.19,176.52a52.9,52.9,0,0,0-2.62,5.32c-.35.78-.77,1.79-1.07,1.88a8.18,8.18,0,0,1-1.92,0c-.46-.06-2.3-.22-1-1.8S120.19,176.52,120.19,176.52Z" style="fill:#edeef0"/><path d="M117.27,153.58c6.24.89,12.39,8.84,12.38,18.26,0,0-1.34.9-3.9.09,0,0,1-6.41-4-10.57-5.24-4.36-4.39,1.27-6.68,1.27-1.91,0-3.62-.08-3.62-.08L108,164.41l-1.37-1.15s2.27-3.48.79-3.31c-1.81.21-3.67,2.66-4,3s-.77.85-1,.78A48,48,0,0,1,97.73,168c-.59-.59-.47-2.13,1-4.22C102,159.06,109.65,152.48,117.27,153.58Z" style="fill:#163f59"/><path d="M107.85,160a2.76,2.76,0,0,0-4.15,3.63" style="fill:#edeef0"/><path d="M113.18,180.12a29.4,29.4,0,0,1,2.95,2.08c.17.3.65,1,.43,1.21s-1.17.45-2.91-.09C113.22,183.18,114,182.78,113.18,180.12Z" style="fill:#dee7ec"/><rect x="34.69" y="351.68" width="9.64" height="14.7" style="fill:#593446"/><path d="M35.15,370.67h7v-2.14l3.06,2.14H63s-.3-2.91-12.24-3.37c-3.07-.12-5.21-4.28-5.21-4.28s-1.53-1.38-3.83,1.83c-.6.84-7-.77-7-.77S34.08,368.37,35.15,370.67Z" style="fill:#081832"/><path d="M72.59,187.8l-6.46,39.52-2.54,1.56,1.92,2.25-15,5.3-8.76-11.16,9.82-53.81s5.24-11.82,20.48-16.11C83.11,152.24,73,184.54,72.59,187.8Z" style="fill:#d1dbea"/><path d="M64.24,230.36l33.1,34.74s-2.8,2.42-5.41,1.57c-7.09-2.28-21.41-10.69-27.49-16.08a126.06,126.06,0,0,1-15-16.33Z" style="fill:#fff"/><path d="M48.17,227.88s10.86.35,16.53.32l-1.11.68,1.92,2.25-5.2,1.79-7.76,1.44-1.69-2.8,2.17-1Z" style="fill:#b0bfde"/><path d="M88.61,265.33l3.89,4.39a20.4,20.4,0,0,0,4.64,4c2.88,1.78,5.62.68,7.84-1.76a8.7,8.7,0,0,0,2.44-4.23s-1.79-3.82-5.22-3.26S91.1,261.68,90.58,263A6,6,0,0,1,88.61,265.33Z" style="fill:#fff"/><polygon points="106.7 266.05 111.59 270.4 115.95 274.65 114.71 275.23 111.2 272.65 103.93 271.38 104.86 269.6 106.7 266.05" style="fill:#fff"/><polygon points="109.45 274.21 112.05 278.94 111.02 279.83 107.61 275.63 102.68 272.63 104.86 269.6 109.45 274.21" style="fill:#fff"/><polygon points="108.87 280.78 107.04 276.88 106.17 274.13 103.59 272.27 101.09 274.1 103.95 276.01 107.23 280.74 108.87 280.78" style="fill:#fff"/><polygon points="104.66 281.74 102.57 274.25 100.65 273.06 98.87 274.22 101.05 277.23 103.4 281.23 104.66 281.74" style="fill:#fff"/><path d="M88.62,260.82a7.89,7.89,0,0,0,6.18,1.78s9.17-1.29,10.72,0S111,264.7,111,264.7s1.48,1.12-2.22,1.69a15.19,15.19,0,0,1-4.61-.05s-5,2.59-6.6,2.44c-3.36-.32-9.37-6.23-9.37-6.23S88.29,260.52,88.62,260.82Z" style="fill:#fff"/><path d="M9.05,197.43l35.2,71.41L33.1,284.5A114.47,114.47,0,0,1,4.15,250.43C-7.48,229.12,9.05,197.43,9.05,197.43Z" style="fill:#194866"/><path d="M33.83,360c-3-15.62-9.75-42.85-10-52.89a141.74,141.74,0,0,1,2.53-31.52l18.51-6.47L45,360Z" style="fill:#194866"/></g></g></svg>