<svg xmlns="http://www.w3.org/2000/svg" xmlns:xlink="http://www.w3.org/1999/xlink" viewBox="0 0 890.07 492.17"><defs><clipPath id="clip-path"><path d="M214.07,451.76l-18.81-11.32c.43-3.37,1.1-7.56,2-12.6s1.75-9.1,2.51-12.21L218.58,427q-1.12,4.67-2.5,12.22C215.16,444.21,214.49,448.39,214.07,451.76Z" style="fill:none"/></clipPath><clipPath id="clip-path-2"><path d="M191.33,421.36,172.53,410c-.47-1.76-1.25-5.36-2.37-10.81s-1.77-9.14-1.93-11L187,399.52c.16,1.89.82,5.57,1.93,11S190.87,419.61,191.33,421.36Z" style="fill:none"/></clipPath><clipPath id="clip-path-3"><path d="M160.22,453.93l-18.8-11.32c.25-2.46.81-6.26,1.72-11.42s1.74-9.18,2.53-12l18.8,11.32c-.79,2.86-1.63,6.88-2.53,12S160.47,451.48,160.22,453.93Z" style="fill:none"/></clipPath></defs><g id="レイヤー_2" data-name="レイヤー 2"><g id="レイヤー_1-2" data-name="レイヤー 1"><path d="M568.54,177.28s26.26.05,36.4.21c7,.1,7.66-9.9,4.89-11.4-8.4-4.58-34.61-6.92-34.61-6.92l-17.83,16.37S558.39,175.51,568.54,177.28Z" style="fill:#3c463b"/><path d="M593.3,123.68s6.75-1.89,9.69,6.93c4.51,13.53,4.11,25.94,3.49,28.59-.29,1.22-1.16,5.42-8.71,5.58-3,.07-1.83-6.49-1.83-6.49a142.48,142.48,0,0,1-4.05-15C589.8,133.88,593.3,123.68,593.3,123.68Z" style="fill:#cd4c66"/><path d="M598.64,124.44l-17.32-5.6L568.21,118l-14.36,4.35s-4.7,3.23-.34,13.65,2.69,26.73,2.69,26.73l37.06,1.18a302.3,302.3,0,0,1,3.15-30.16C597,130.34,597,126.37,598.64,124.44Z" style="fill:#e45471"/><path d="M573.22,163.14h1.89a157,157,0,0,0-.29-44.1l-1.71,1C573.59,134.9,572.77,149.74,573.22,163.14Z" style="fill:#cd4c66"/><path d="M580.59,122.92a4.31,4.31,0,0,1-3.62,3.82h-4.89a4.29,4.29,0,0,1-3.61-3.82q-.6-5-1.21-9.91c-.26-2,.91-6,3.52-7.13a9.38,9.38,0,0,1,7.49,0c2.61,1.18,3.79,5.15,3.52,7.13Z" style="fill:#edeef0"/><polygon points="574.33 126.99 571.22 132.09 565.53 124.96 566.42 121.22 568.27 119.7 568.29 122.52 574.33 126.99" style="fill:#cd4c66"/><polygon points="574.71 126.99 577.82 132.09 583.12 125.45 582.25 121.38 580.92 119.67 580.38 123 574.71 126.99" style="fill:#cd4c66"/><path d="M573.78,99.6a3.89,3.89,0,0,0-3.27,1.77h-1.35a3,3,0,0,0-3,3v7.5h2.13v-3.05a2.13,2.13,0,0,1,2.14-2.13H571a3.92,3.92,0,0,0,3.91-3.92V99.6Z" style="fill:#163f59"/><path d="M570,114.7a1.85,1.85,0,0,1-1.86,1.85H568a1.85,1.85,0,0,1-1.86-1.85v-2.26a1.86,1.86,0,0,1,1.86-1.86h.15a1.86,1.86,0,0,1,1.7,1.11" style="fill:#e4eef3"/><path d="M572.12,102.58v-3h6.43a3.91,3.91,0,0,1,3.92,3.92v3H576A3.91,3.91,0,0,1,572.12,102.58Z" style="fill:#163f59"/><path d="M581.92,117.54c0,1.56-1.2,4.2-3.17,5a11.34,11.34,0,0,1-8.53,0c-2-.83-3.16-3.47-3.17-5V104.28c0-1.57,1.55-2.88,3.48-2.92h7.91c1.92,0,3.49,1.35,3.48,2.92Z" style="fill:#fff"/><path d="M576,99.6a3.89,3.89,0,0,1,3.27,1.77h1.35a3,3,0,0,1,3,3v7.5h-2.13v-3.05a2.13,2.13,0,0,0-2.14-2.13h-2.73a3.93,3.93,0,0,1-3.92-3.92V99.6Z" style="fill:#163f59"/><path d="M579.82,112.44a1.86,1.86,0,0,1,1.86-1.86h.15a1.86,1.86,0,0,1,1.86,1.86v2.25a1.86,1.86,0,0,1-1.86,1.86h-.15a1.85,1.85,0,0,1-1.7-1.1" style="fill:#fff"/><path d="M572.74,103.35a3.94,3.94,0,0,0,.08-.77v-3h-2.77a3.91,3.91,0,0,0-3.92,3.92v3h2.77a4.28,4.28,0,0,0,.81-.08A3.88,3.88,0,0,1,572.74,103.35Z" style="fill:#163f59"/><path d="M538.35,227.5c-.4.49-.1,1.78-.1,1.78s7.07.79,9.34.25a12.47,12.47,0,0,0,2.53-1.18c.16-.1.44-.64.59-.73s.44.11.68,0a6.52,6.52,0,0,0,1.08-.75c.62-3.24-.21-4.54-.21-4.54s-6-2-7.14-.61C542.46,225,539.24,226.43,538.35,227.5Z" style="fill:#161711"/><path d="M604.43,224l.5,5.34,5.34.53s.37-.72.82-.67.8.83,1.32.88l2.88.28,10.73,1s.35-1.08.09-1.49a5.12,5.12,0,0,0-1.58-.86c-2.68-1.05-10.35-4.25-11.47-7C611.71,218.64,604.43,224,604.43,224Z" style="fill:#161711"/><path d="M596.35,156.36l-18.08,7.38s12.82,1.83,20.84.2C604.53,162.83,596.6,156.12,596.35,156.36Z" style="fill:#fff"/><path d="M555.31,167.6s-1.74,16.51-1.49,25.24c.18,6.58.2,19.2-1.36,30-.1.65-8.51.16-8.51.16s-3-40.93-3.91-47.67S541.75,163.68,555.31,167.6Z" style="fill:#3c463b"/><path d="M608.2,171.58s-2.71,4.28-10.14,5.3c-2.69.36,4.33,47.91,4.33,47.91l11-3.52-2.12-52.58Z" style="fill:#323b31"/><path d="M577.9,176.88s-14.35,2-23.94,3.05c-3.51.37-6.55-9.47-7-9.89a7.28,7.28,0,0,0-5-2.45c2.08-2.24,12.83-4.33,24.07-7s12.94-1,12.94-1Z" style="fill:#323b31"/><path d="M566.06,160.63c-11.24,2.63-22,4.72-24.07,7a7.28,7.28,0,0,1,5,2.45c.11.11.76,3.27,1.22,4.39-1.83-3.3,24.57-12.6,30.28-15C577.44,159.08,574.33,158.69,566.06,160.63Z" style="fill:#3c463b"/><polygon points="553.72 176.75 552.62 208.88 551.52 216.33 551.4 208.88 551.64 204.24 549.08 197.03 547.73 180.3 549.69 181.03 549.44 173.7 553.72 176.75" style="fill:#323b31"/><path d="M607.83,167.59l2.69.74,1,38.59-5.62,13.81,2.68-9.41-1.1-19.42s-3.9,9.41-3.9,8.92,3.29-20.4,3.29-20.4a41.23,41.23,0,0,0-3.29,2.93C603.92,183.23,605.75,169.42,607.83,167.59Z" style="fill:#3c463b"/><path d="M561.79,122.46s-5.77-4.52-11.42,3.87c-8.28,12.3-11.87,25.38-13.18,29.17-1,2.9-.46,11.11,2.93,14.5.81.81,5.7.16,5.7.16l3.21-2.22-1.35-2.58-.07-2s4.1-9.89,9.14-19.25S561.79,122.46,561.79,122.46Z" style="fill:#e45471"/><path d="M547.68,160.06l18.73,1s-18,8.28-18.64,6.86C544.39,159.81,547.68,160.06,547.68,160.06Z" style="fill:#fff"/><path d="M558,159.49c1.09-.53,1-.54,1-.54a4.47,4.47,0,0,0,2.45,1.41c.72.11,3.05.14,3.05.14l3.45.09,1.6-.09a3,3,0,0,1,1.14,0c.7.45.1.81.1.81l-6.18.88,5.94.74s.75.21.78.62-.21.36-.21.36l-6.9.74,3,.72s.73.24.78.63.09.55.09.55l-6.35-.63S556.89,160,558,159.49Z" style="fill:#fff"/><path d="M564.84,163.31l4.16.76a3.56,3.56,0,0,1,1.37.37.57.57,0,0,1,.2.78l-6.37-.54Z" style="fill:#fff"/><path d="M590.89,166.58s0,0,0,0l0-1.18H554v1.18a0,0,0,0,0,0,0l.12.22c.63,1,1.76,1.21,3,1.21h30.57c1.29,0,2.41-.18,3-1.21Z" style="fill:#b6c2c9"/><rect x="560.22" y="165.63" width="24.44" height="0.83" style="fill:#879ba6"/><path d="M590.87,165.49l.1-24.21a1.15,1.15,0,0,0-1.15-1.15H555.26a1.17,1.17,0,0,0-1.16,1.15l-.1,24.21Z" style="fill:#e4eef3"/><path d="M574.73,152.81a2.25,2.25,0,0,1-2.25,2.23,2.23,2.23,0,0,1-2.23-2.23,2.24,2.24,0,1,1,4.48,0Z" style="fill:#b6c2c9"/><polygon points="545.25 169.42 543.96 161.21 546.1 159.01 550.83 159.77 549.86 168.86 545.25 169.42" style="fill:#cd4c66"/><polygon points="602.7 163.53 603.19 160.51 597.2 155.13 593.97 156.6 598.2 164.7 602.7 163.53" style="fill:#e45471"/><path d="M492.17,127.72A9.64,9.64,0,1,0,496.7,115,9.53,9.53,0,0,0,492.17,127.72Z" style="fill:#282723"/><path d="M487.33,139.76a12.17,12.17,0,1,0,5.72-16A12,12,0,0,0,487.33,139.76Z" style="fill:#282723"/><path d="M497.46,152.83s.35,1.58-7.25,3.51S471,159.22,471,159.22l17.14-6.1S494.75,151.11,497.46,152.83Z" style="fill:#dee7ec"/><path d="M477.08,158.26c-3.59,1-4.61,3.27-5.87,4.23a27.25,27.25,0,0,0-2.45,2.21c.36-1.76,1.51-2.13,1.95-2.8s.35-.37-.95-.1c-.74.16-1.65,1.8-2.37,2.78a3,3,0,0,1-1.1,1,16,16,0,0,1,1.44-2.94,18.73,18.73,0,0,1,2.91-3.51,14.48,14.48,0,0,1,4.83-1.56C477.47,157.31,479.67,157.52,477.08,158.26Z" style="fill:#dee7ec"/><path d="M470.85,159.17a20.6,20.6,0,0,0-2.93,2c-.26.34-1.24,2.22-1.24,2.22a3.68,3.68,0,0,0,1.41-1.19A33.9,33.9,0,0,1,470.85,159.17Z" style="fill:#dee7ec"/><path d="M493.21,150.51s7.07-1.58,7.78,2.68c.41,2.42-.94,3.69-3.08,4.12-4,.82-8.57,1.53-8.57,1.53L485.51,153Z" style="fill:#b0bfde"/><path d="M492.81,147l2-19.32s-.14-5.06,1.68-5c2.63.15,3.13,4.51,3.36,6.08a52,52,0,0,1,1.08,12.48c0,5,.32,10.55,0,13.9-.21,2.3-2.46-.26-4.8-.48C491.75,154.3,492.81,147,492.81,147Z" style="fill:#b0bfde"/><polygon points="450.42 201.12 443.96 215.11 435.01 215.31 430.49 214.39 440.22 212.08 445.43 199.09 450.42 201.12" style="fill:#fff"/><path d="M443,217.32l-1.18-.28-.67-1.45-7.22.32-5.81-1.08a1,1,0,0,1,.39-.59c1-.55,5.54-.82,5.54-.82s-.47,1.26,0,1.52,6.08-.08,7.42-.27c2.3-.33,3.49-.91,3.39-.6S443,217.32,443,217.32Z" style="fill:#e45471"/><path d="M486.15,172.66l-21.1-.56-15.72,34.41-6.51-2.57,15.34-41.4s1.21-2.62,7.59-2.62c6.2,0,31.22-.68,34.07.11C506.56,161.9,485,167,486.15,172.66Z" style="fill:#cd4c66"/><path d="M501.16,115.47a9.64,9.64,0,1,0,4.52-12.71A9.54,9.54,0,0,0,501.16,115.47Z" style="fill:#282723"/><path d="M491.32,112.43a7.24,7.24,0,0,0,9.68,3.34l.13-3.89a7.23,7.23,0,0,0,3.33-9.68l-1.18-2.45a7.25,7.25,0,0,0-9.69-3.34l-1.63.8a7.23,7.23,0,0,0-3.34,9.68Z" style="fill:#282723"/><path d="M489.25,101.58a13.85,13.85,0,0,0,1.05,1.76c2.7,3.87,6.79,5.8,9.76,4.84a22.28,22.28,0,0,0,3.38,4.6,11.11,11.11,0,0,0,4.1,2.2c1.9,2.69.83,10.44-6,11.23-4.07.48-3.24-3.81-1.81-6.48.66-1.26,1.3-2.71,1.16-3.41-.52-2.47-1.42-2.81-2.87-3.65a6,6,0,0,0-4.69,0,.8.8,0,0,1-.66,0,5.33,5.33,0,0,1-.87-1.26l-2.62-5.38A5.15,5.15,0,0,1,489.25,101.58Z" style="fill:#fff"/><path d="M510.5,165.85s-3.09.64-3.95,1c-1.15.43-4.5-.11-4.5-.11s-.43-16.58-1.24-22.37-2.32-7.35-2.3-9.16a19.73,19.73,0,0,1,.76-5.81c.51-2.25-1-5.23-.47-4.66.81.92,3.88,2.35,6.74-.81C506,123.34,510.5,165.85,510.5,165.85Z" style="fill:#194866"/><path d="M499.53,118s-4.21,4.24-4,5.63-.26,7.25.71,13.48,1.74,7.77,1.9,12.32-.89,5.56-.51,11.14c.3,4.38,1,8.23,1,8.23a3.65,3.65,0,0,0,3.49-1.06c1.49-1.63.95-16.83.4-20.58s-2.75-13.56-2.62-16.17,1-8.84,1.44-9.66C502.43,119.27,499.86,118.19,499.53,118Z" style="fill:#d1dbea"/><path d="M499.51,117.59a2.43,2.43,0,0,0,.52.57,9.06,9.06,0,0,1,1.24,1.12s-.84-.41-1.16.32a14,14,0,0,0-.64,2.91s-1.56-2.57-1.19-3.39C499,117.64,499.51,117.59,499.51,117.59Z" style="fill:#b0bfde"/><path d="M505.28,127.69a10.07,10.07,0,1,0,6.69-12.4A10,10,0,0,0,505.28,127.69Z" style="fill:#282723"/><polygon points="471.23 204.17 470.91 213.97 468.91 216.32 463.59 219.39 459.65 218.67 466.6 213.49 467.11 203.21 471.23 204.17" style="fill:#fff"/><path d="M470.61,216.12l-1.79,1.27-.55-.43-4.93,3.12s-4.49,1.18-5.36.16c-.28-.33.44-.88,1.44-1.62a8.36,8.36,0,0,1,1.28-.82s.2.77,2,1.06c.57.09,4.09-2.24,5.3-2.84a13.78,13.78,0,0,0,3.14-2.46C471.4,213.93,470.61,216.12,470.61,216.12Z" style="fill:#e45471"/><path d="M513,152.5l-2.55,6-4.37.53-35.31,2.25s-3.16-1-5.17,4c-2.86,7.1.88,42.67.88,42.67l5.23-.08,2.82-33.54s33.94,5.94,43.71,2.94c3.75-1.15,6.61-7.77,6.08-14.47-.42-5.24-3.92-10.06-3.92-10.06Z" style="fill:#e45471"/><path d="M508.18,165.12s-1.63-14.8-2.56-21.8-.73-18.76-.94-20.45a24.55,24.55,0,0,0-1.1-4.11s1.71-3.82,3.93-3.7c2,.11,8.15,2.18,11.14,3.4,2.07.84,1,24.43,1.17,25.68.67,4.48,2.87,9.61,4.3,13.16a51.82,51.82,0,0,1,2,7S514.82,163,508.18,165.12Z" style="fill:#d1dbea"/><path d="M507.1,113.9l-1.67,1.87s-2.32,3.21-1.56,2.76c.95-.57,2.05,2.78,2.05,2.78L509,115Z" style="fill:#b0bfde"/><path d="M520.63,149.87s2.58,1.83-7.17,2.83-24.32.28-24.32.28l22.32-4.23S517.61,147.51,520.63,149.87Z" style="fill:#fff"/><path d="M496.88,152.85c-4.63.61-6.32,3-8.06,3.86a33.61,33.61,0,0,0-3.44,2.12c.78-1.93,2.27-2.18,2.94-2.86s.51-.36-1.15-.26c-.95.06-2.39,1.78-3.46,2.76a4.07,4.07,0,0,1-1.56,1,19.21,19.21,0,0,1,2.35-3.1,23.94,23.94,0,0,1,4.26-3.51,20,20,0,0,1,6.26-1C497.55,151.83,500.22,152.41,496.88,152.85Z" style="fill:#fff"/><path d="M489,152.91a27.13,27.13,0,0,0-4,1.79c-.39.35-2,2.32-2,2.32a4.82,4.82,0,0,0,2-1.13A41.7,41.7,0,0,1,489,152.91Z" style="fill:#edeef0"/><path d="M514.86,147.1l-3.18-21.5s.79-4.43,2.16-5.94c1.63-1.8,4.74-1.27,4.74-1.27s3.63,3,3.89,20c.18,11.65,1.25,16.44-3.77,17-4.69.47-10,.76-10,.76l-3.56-7Z" style="fill:#b0bfde"/><rect x="457.56" y="158.73" width="30.8" height="0.63" style="fill:#cdd5d7"/><path d="M474.77,158.69a.84.84,0,0,1-.78.89h-15.8c-.43,0-1-.31-1.53-1.56l-7.81-14.26a.81.81,0,0,1,.91-.89l16.21.49a1.5,1.5,0,0,1,1,1.08Z" style="fill:#cdd5d7"/><path d="M472.86,159.36h15.58a5.79,5.79,0,0,1-2.52.49H460a5.76,5.76,0,0,1-2.52-.49Z" style="fill:#b7bec0"/><path d="M731.19,431.47a24.62,24.62,0,1,0,24.61-24.61A24.62,24.62,0,0,0,731.19,431.47Z" style="fill:#265dde"/><path d="M620.94,458.3a22.61,22.61,0,1,1,40.68,0Z" style="fill:#265dde"/><path d="M714.45,55.07A346.54,346.54,0,0,0,653,180c-19.37,87.58-7.46,185.84,43.1,278l18.34-30,18.33-30c-43.27-57.2-64.26-131.76-55.6-210C680,145.05,691.77,99.75,714.45,55.07Z" style="fill:#5280eb"/><path d="M713.61,58.25A337.9,337.9,0,0,0,656,181.38c-18,85.63-5.17,181.08,44.85,269.94l12.78-26.64L726.39,398c-42.21-57.9-61.78-132.33-52.17-209.66C678,146.12,690.55,101.75,713.61,58.25Z" style="fill:#265dde"/><path d="M712.25,63.37a323.73,323.73,0,0,0-51.48,120.31c-15.64,82.5-1.46,173.4,47.7,257l3.78-21.11Q714.14,409,716,398.39c-40.49-59-57.75-133.25-46.61-209.16C674.77,147.85,688.59,105,712.25,63.37Z" style="fill:#5280eb"/><path d="M652.5,435.81a25.75,25.75,0,0,1-.18-2.93,24.56,24.56,0,0,1,35.31-22.13,30.82,30.82,0,0,1,60,3.65,33,33,0,0,1,19.72,11.46,16.36,16.36,0,0,1,5.13-.82,16.63,16.63,0,0,1,.34,33.25h-119l0-.08c-.32,0-.61.08-.93.08a11.25,11.25,0,0,1-.35-22.49Z" style="fill:#5280eb"/><path d="M749.38,441.67A23.74,23.74,0,0,1,762,445.31a36.34,36.34,0,0,1,70.45-12.23,36.25,36.25,0,0,1,46.34,21.13,19.58,19.58,0,0,1-11.56,4.08H726.92a.42.42,0,0,0,0-.1l-.25,0A23.92,23.92,0,0,1,749.38,441.67Z" style="fill:#265dde"/><path d="M877.33,451.91a6.37,6.37,0,1,0,6.37-6.38A6.37,6.37,0,0,0,877.33,451.91Z" style="fill:#5280eb"/><path d="M860.17,458.3a12.43,12.43,0,0,1-.81-4.38,12.64,12.64,0,1,1,25.27,0,12.51,12.51,0,0,1-.79,4.38Z" style="fill:#5280eb"/><path d="M830.27,416.26a6.36,6.36,0,1,0,6.35-6.35A6.35,6.35,0,0,0,830.27,416.26Z" style="fill:#5280eb"/><path d="M705.54,70.87c-5.12-3.28-13.7,1-19.14,9.47a28.82,28.82,0,0,0-1.82,3.27l18.17,11.64a31.89,31.89,0,0,0,2.21-3C710.41,83.71,710.67,74.15,705.54,70.87Z" style="fill:#30363d"/><path d="M703.13,69.32c-3.79-2.42-11.29,2.51-16.73,11-.7,1.08-1.32,2.17-1.88,3.24L698,92.18c.74-1,1.46-2,2.15-3.05C705.57,80.62,706.92,71.75,703.13,69.32Z" style="fill:#484f59"/><path d="M720.42,28.33c-10.51,16.42-28.07,25.33-45.22,24.78l-1.75.32c-3.63.62-9.22,11-9.22,11l23.59,15.1,36.63-57.23a36.24,36.24,0,0,1-2.31,3.15C721.59,26.41,721,27.38,720.42,28.33Z" style="fill:#484f59"/><path d="M708.27,47.57A52.06,52.06,0,0,1,674,57.26l-1.85.25c-2.35.29-5.31,4.27-7.27,7.33l22.93,14.68Z" style="fill:#e5e8ec"/><path d="M667.71,65a4,4,0,0,0-1.67.57l21.78,13.94,12.12-18.94a56.52,56.52,0,0,1-30.22,4.29Z" style="fill:#f1fafc"/><path d="M737.94,39.55C727.43,56,726.7,75.64,734.37,91c.15.59.3,1.16.45,1.72.95,3.56-6.13,13-6.13,13l-23.58-15.1,36.63-57.22a35.88,35.88,0,0,0-1.89,3.42C739.19,37.68,738.55,38.6,737.94,39.55Z" style="fill:#484f59"/><path d="M725.56,58.64a52.12,52.12,0,0,0,5.54,35.17l.56,1.78c.71,2.25-1.66,6.61-3.62,9.67L705.11,90.58Z" style="fill:#e5e8ec"/><path d="M726.71,102.78a3.92,3.92,0,0,1,.18,1.74L705.11,90.58l12.12-18.93A56.53,56.53,0,0,0,726,100.89C726.23,101.53,726.47,102.17,726.71,102.78Z" style="fill:#f1fafc"/><path d="M705.71,91l37.87-59.16C747,26.39,754.26,6.24,750.9,0c-7.07-.45-22.34,14.55-25.81,20L687.22,79.14Z" style="fill:#f1fafc"/><path d="M750.9,0h-.22L696.31,85l9.4,6,37.87-59.16C747,26.39,754.26,6.24,750.9,0Z" style="fill:#e5e8ec"/><path d="M736.56,7.86l13.21,8.46C751.61,9.79,752.59,3.14,750.9,0,747.34-.22,741.72,3.46,736.56,7.86Z" style="fill:#484f59"/><path d="M743,12l6.76,4.33C751.61,9.79,752.59,3.14,750.9,0h-.22Z" style="fill:#30363d"/><path d="M742.58,25.53c-.93.62-2-.51-3.1-2a8.61,8.61,0,0,0-5.26-3.37c-1.82-.39-3.29-.87-3.12-2h0c.15-1.09,2.38-2.54,4.77-2.06a10.75,10.75,0,0,1,6.58,4.22c1.45,2,1.06,4.59.13,5.19Z" style="fill:#484f59"/><path d="M686.69,58.8c-2.24-1.43-8.47,4.3-13.92,12.82-.7,1.08-1.34,2.15-1.93,3.2l7.95,5.09c.7-1,1.41-2,2.1-3.09C686.34,68.3,688.93,60.24,686.69,58.8Z" style="fill:#484f59"/><path d="M686.69,58.8a2.6,2.6,0,0,0-2.49.27c1.2,2.19-1.22,9.1-5.88,16.38-.65,1-1.31,2-2,2.9l2.44,1.56c.7-1,1.41-2,2.1-3.09C686.34,68.3,688.93,60.24,686.69,58.8Z" style="fill:#30363d"/><path d="M724.39,82.93c-2.24-1.43-8.47,4.31-13.92,12.82-.69,1.08-1.34,2.15-1.93,3.2l8,5.09c.7-1,1.41-2,2.1-3.09C724,92.44,726.64,84.37,724.39,82.93Z" style="fill:#484f59"/><path d="M724.39,82.93a2.58,2.58,0,0,0-2.49.28c1.2,2.18-1.22,9.09-5.88,16.37-.65,1-1.31,2-2,2.9l2.44,1.56c.7-1,1.41-2,2.1-3.09C724,92.44,726.64,84.37,724.39,82.93Z" style="fill:#30363d"/><rect x="227.88" y="212.08" width="511.88" height="254.74" style="fill:#fff"/><rect x="239.16" y="248.46" width="247.76" height="138.94" style="fill:#e45471"/><rect x="239.15" y="388.33" width="247.76" height="67.88" style="fill:#e5e8ec"/><rect x="491.95" y="248.46" width="238.16" height="65.3" style="fill:#194866"/><path d="M734.59,177.48H233a5,5,0,0,0-5.11,4.79v30H739.7v-30A5,5,0,0,0,734.59,177.48Z" style="fill:#cdd5d7"/><path d="M238.74,186.84a3.1,3.1,0,1,1-3.1-3.11A3.1,3.1,0,0,1,238.74,186.84Z" style="fill:#b7bec0"/><path d="M247.85,186.84a3.1,3.1,0,1,1-3.11-3.11A3.1,3.1,0,0,1,247.85,186.84Z" style="fill:#b7bec0"/><path d="M257,186.84a3.1,3.1,0,1,1-3.1-3.11A3.1,3.1,0,0,1,257,186.84Z" style="fill:#b7bec0"/><rect x="270.05" y="194.28" width="400.04" height="13.46" style="fill:#fff"/><polygon points="236.77 205.31 231.89 200.43 236.77 195.56 238.58 197.37 235.52 200.43 238.58 203.5 236.77 205.31" style="fill:#b7bec0"/><rect x="234.78" y="199.15" width="9.01" height="2.56" style="fill:#b7bec0"/><polygon points="257.42 205.31 255.61 203.5 258.67 200.43 255.61 197.37 257.42 195.56 262.3 200.43 257.42 205.31" style="fill:#b7bec0"/><rect x="250.39" y="199.15" width="9.01" height="2.56" style="fill:#b7bec0"/><rect x="675.32" y="194.28" width="39.3" height="12.01" style="fill:#596273"/><rect x="290.61" y="227.92" width="39.75" height="4.31" style="fill:gray"/><rect x="336.21" y="227.92" width="39.74" height="4.31" style="fill:gray"/><rect x="381.81" y="227.92" width="39.75" height="4.31" style="fill:gray"/><rect x="427.41" y="227.92" width="39.74" height="4.31" style="fill:gray"/><rect x="473.01" y="227.92" width="39.74" height="4.31" style="fill:gray"/><rect x="663.89" y="220.72" width="64.18" height="3.23" style="fill:#b0aca3"/><rect x="677.49" y="228.46" width="50.58" height="3.23" style="fill:#b0aca3"/><rect x="239.16" y="224.33" width="42.01" height="11.49" style="fill:#e45471"/><rect x="250.8" y="397.83" width="89.64" height="4.46" style="fill:gray"/><rect x="250.8" y="407.4" width="217.51" height="3.35" style="fill:#b0aca3"/><rect x="249.88" y="415.22" width="189.93" height="3.35" style="fill:#b0aca3"/><rect x="249.12" y="428.42" width="43.6" height="11.92" style="fill:gray"/><rect x="258.98" y="432.7" width="23.88" height="3.35" style="fill:#fff"/><rect x="501.69" y="261.68" width="91.33" height="4.46" style="fill:#fff"/><rect x="501.69" y="271.25" width="219.19" height="3.35" style="fill:#cdd5d7"/><rect x="501.69" y="279.07" width="190.69" height="3.36" style="fill:#cdd5d7"/><rect x="501.69" y="292.27" width="43.6" height="11.92" style="fill:#fff"/><rect x="511.55" y="296.55" width="23.87" height="3.35" style="fill:#484f59"/><rect x="491.72" y="388.33" width="116.58" height="67.88" style="fill:#e5e8ec"/><rect x="502.77" y="397.83" width="66.87" height="4.46" style="fill:gray"/><rect x="502.77" y="407.4" width="76.28" height="3.35" style="fill:#b0aca3"/><rect x="502.45" y="415.22" width="66.61" height="3.35" style="fill:#b0aca3"/><rect x="501.69" y="428.42" width="43.6" height="11.92" style="fill:gray"/><rect x="511.55" y="432.7" width="23.87" height="3.35" style="fill:#fff"/><rect x="491.72" y="319.41" width="116.58" height="67.98" style="fill:#d67aaf"/><rect x="613.78" y="388.33" width="116.58" height="67.88" style="fill:#e5e8ec"/><rect x="624.83" y="397.83" width="66.87" height="4.46" style="fill:gray"/><rect x="624.83" y="407.4" width="76.29" height="3.35" style="fill:#b0aca3"/><rect x="624.5" y="415.22" width="66.61" height="3.35" style="fill:#b0aca3"/><rect x="623.74" y="428.42" width="43.6" height="11.92" style="fill:gray"/><rect x="633.61" y="432.7" width="23.87" height="3.35" style="fill:#fff"/><rect x="613.78" y="319.41" width="116.58" height="67.98" style="fill:#a84db0"/><path d="M533.61,339v31.46h39.6V339Zm36.82,28.69h-34V341.77h34Z" style="fill:#fff"/><path d="M550.08,348.15a3.24,3.24,0,1,1-3.24-3.24A3.24,3.24,0,0,1,550.08,348.15Z" style="fill:#fff"/><polygon points="568.77 355.6 561 349.54 550.64 358.05 543.23 355.09 538.05 357.44 538.05 366.01 568.77 366.01 568.77 355.6" style="fill:#fff"/><path d="M655.3,339v31.46h39.61V339Zm36.83,28.69h-34V341.77h34Z" style="fill:#fff"/><path d="M671.77,348.15a3.24,3.24,0,1,1-3.24-3.24A3.24,3.24,0,0,1,671.77,348.15Z" style="fill:#fff"/><polygon points="690.46 355.6 682.69 349.54 672.33 358.05 664.92 355.09 659.75 357.44 659.75 366.01 690.46 366.01 690.46 355.6" style="fill:#fff"/><path d="M379.55,322.37V318.9a2,2,0,0,0-1.95-2H349.77a2,2,0,0,0-2,2v17.77a2,2,0,0,0,2,2H377.6a2,2,0,0,0,1.95-2V333.2l10.51,5.22V317.14Z" style="fill:#f1fafc"/><path d="M355.44,316.2a6.68,6.68,0,1,0-6.68-6.68A6.68,6.68,0,0,0,355.44,316.2Z" style="fill:#f1fafc"/><path d="M369.76,316.2a6.68,6.68,0,1,0-6.68-6.68A6.67,6.67,0,0,0,369.76,316.2Z" style="fill:#f1fafc"/><path d="M9.24,389.5l33.19,37.95-4.26,11.4a72.63,72.63,0,0,1-23.28-16.12C4.3,411.59,9.24,389.5,9.24,389.5Z" style="fill:#163f59"/><rect x="51.96" y="477.06" width="4.94" height="9.31" transform="translate(-75.99 14.81) rotate(-9.16)" style="fill:#593446"/><path d="M50.94,485c-4.41-9.06-13-24.63-14.74-30.74a89.94,89.94,0,0,1-3.6-19.7l10.27-7,14.88,55.6Z" style="fill:#163f59"/><path d="M61.82,487.08l-2.09,2.18-1.35,0-2-1.31,0,1.35-4.45.11a9.55,9.55,0,0,1-.39-4.16s4.1.92,4.47.38c1.41-2.07,2.4-1.22,2.4-1.22S59.88,487,61.82,487.08Z" style="fill:#081832"/><path d="M57.63,486.32a3.48,3.48,0,0,0,2.62.58c7.31-2,8-.28,8-.28l-9.63,3Z" style="fill:#081832"/><path d="M75.75,401.87s11.74,6.58,16.84-4.38c1.52-3.27,1.24.58.7,4.22s-6,11.6-13.6,11.67-10.57-.57-12.43-3.47S75.75,401.87,75.75,401.87Z" style="fill:#dee7ec"/><path d="M52.46,377.6s-5.32,1.85,2.35,19.06,11,15.32,11,15.32l4.39-.25,7.08-10.29L72.09,397l-.88.35a3,3,0,0,1-1.55-1.74c-.29-1.18-3.1-6.16-6.08-16.2C62.21,374.76,53.48,377.23,52.46,377.6Z" style="fill:#d1dbea"/><path d="M66.2,398.43l2.55-1.78,1.07-.65a3.12,3.12,0,0,0,1.39,1.33l-2.2.91-2.31,1.62-2.18,3.22Z" style="fill:#b0bfde"/><g style="isolation:isolate"><g style="isolation:isolate"><g style="clip-path:url(#clip-path)"><g style="isolation:isolate"><path d="M214.07,451.76l-18.81-11.32c.43-3.37,1.1-7.56,2-12.6s1.75-9.1,2.51-12.21L218.58,427q-1.12,4.67-2.5,12.22c-.92,5-1.59,9.22-2,12.59" style="fill:#afc7d7"/></g></g></g><polygon points="230.27 375.15 211.47 363.83 230.7 363.05 249.51 374.38 230.27 375.15" style="fill:#bedae8"/><polygon points="218.58 426.95 199.78 415.63 211.47 363.83 230.27 375.15 218.58 426.95" style="fill:#abc1d2"/><polygon points="203.87 470.25 185.07 458.92 172.53 410.04 191.33 421.36 203.87 470.25" style="fill:#abc1d2"/><g style="isolation:isolate"><g style="clip-path:url(#clip-path-2)"><g style="isolation:isolate"><path d="M191.33,421.36,172.53,410c-.47-1.76-1.25-5.36-2.37-10.81s-1.77-9.14-1.93-11L187,399.52c.16,1.89.82,5.57,1.93,11s1.91,9.05,2.37,10.8" style="fill:#afc7d7"/></g></g></g><g style="isolation:isolate"><g style="clip-path:url(#clip-path-3)"><g style="isolation:isolate"><path d="M160.22,453.93l-18.8-11.32c.25-2.46.81-6.26,1.72-11.42s1.74-9.18,2.53-12l18.8,11.32c-.79,2.86-1.63,6.88-2.53,12s-1.47,9-1.72,11.42" style="fill:#afc7d7"/></g></g></g><polygon points="164.47 430.48 145.67 419.16 159.06 365.94 177.86 377.27 164.47 430.48" style="fill:#abc1d2"/><polygon points="177.86 377.27 159.06 365.94 177.53 365.19 196.33 376.52 177.86 377.27" style="fill:#bedae8"/><path d="M249.51,374.38l-23.37,95-22.27.9-12.54-48.89q-.69-2.62-2.37-10.8c-1.11-5.47-1.77-9.15-1.93-11q-.37,3.51-1.88,11.24c-1,5.18-1.78,8.85-2.32,11.06L170.45,471.6l-22.2.89-23.62-93.08,19.24-.77,11.85,50.85q3.09,14.07,4.5,24.44c.25-2.45.81-6.26,1.72-11.42s1.74-9.17,2.53-12l13.39-53.21,18.47-.75,13.49,52.14c.6,2.32,1.33,5.9,2.22,10.7s1.56,8.95,2,12.4c.42-3.37,1.09-7.55,2-12.59s1.75-9.11,2.5-12.22l11.69-51.8Z" style="fill:#dbe4e9"/><polygon points="124.63 379.41 105.83 368.09 125.07 367.31 143.87 378.64 124.63 379.41" style="fill:#bedae8"/><polygon points="148.25 472.49 129.45 461.17 105.83 368.09 124.63 379.41 148.25 472.49" style="fill:#abc1d2"/></g><path d="M123.55,296.15A10,10,0,0,0,137.38,299l-.52-5.33c4.61-3,3.78-12.44.75-17l-2.06-3.13a10,10,0,0,0-13.83-2.86L119.63,272a10,10,0,0,0-2.86,13.83Z" style="fill:#282723"/><path d="M133.72,274.35a16.36,16.36,0,0,1,1.64-1.27,15.4,15.4,0,0,0,1.54,2.09,16.79,16.79,0,0,0,22.16,2.48,17,17,0,1,1-25.34-3.3Z" style="fill:#282723"/><path d="M116.71,278.48a18.83,18.83,0,0,0,1.74,2.22c4.37,4.81,10.3,6.73,14.19,4.9,1.7,2.35,3.94,3.89,5.43,5.68,3.23,3.9,8.18,1.29,8.18,1.29,3.07,3.34-8.24,18.2-8.34,17.4s.15-7.27-1.49-12a9.81,9.81,0,0,0-5.71-5.9,8.15,8.15,0,0,0-6.4.9,1.15,1.15,0,0,1-.9.15,7.33,7.33,0,0,1-1.41-1.57l-4.52-6.88A7,7,0,0,1,116.71,278.48Z" style="fill:#fff"/><path d="M118.91,359.78l0-.14a1,1,0,0,1,.08-.11,74.7,74.7,0,0,1,6.69-20.16c2.27-4.39,6.85-8.55,8.87-10.65,5.21,2.84,10.36,1.52,15.22,5.2a44.89,44.89,0,0,1,1.52,6.56c.74,4.25,1.37,8.2,1.92,11.9,7.55.71,26.19,2.14,33.19,3.51,4.16,1,4.4,2.58,5,3.1-.37,6.78-5.87,10.61-9.2,16-.59,1-45.18.13-52.84.52C125.5,374.8,116.89,371.66,118.91,359.78Z" style="fill:#194866"/><path d="M188.55,368.6a28.89,28.89,0,0,0,2.81-4.76c.71-3,.7-5.07-.17-5.79-3.29-2.72-14.54,2.95-42.82,45.35-6.16,9.23-19.8,28.74-16.65,25.48C178.56,380.43,182.38,375.75,188.55,368.6Z" style="fill:#dbe4e9"/><path d="M131.7,426.76l5-8a2.25,2.25,0,0,1,2-1.15l-3.86,6.17a2.83,2.83,0,0,0,.41,3.6,1.92,1.92,0,0,0,1.09.42l-1.15,1.84a2.08,2.08,0,0,1-3.11.74A2.81,2.81,0,0,1,131.7,426.76Z" style="fill:#163f59"/><path d="M130.74,321.91,123,308.11c-2.89-4.11-1.44-9.38,3.2-10.55l24.35-5.66c2.92-.49,7.8,3.54,6.94,8.59l-5,16.57Z" style="fill:#fff"/><path d="M154.37,294.81c-3.24,15.06,4.87,41.89,4.87,41.89s4.66,1,5.55-1.59c1.12-3.22-1.78-10.93-3.59-31.92C160.08,290.2,154.92,292.29,154.37,294.81Z" style="fill:#163f59"/><path d="M121.46,301c-2.08,18.38-7.15,42-7.15,42s5,4.08,6.67,1.8c2.07-2.89,4-13.58,6.24-33.89C128.61,298.31,121.76,298.38,121.46,301Z" style="fill:#163f59"/><path d="M150.61,327.2c0,1.89-.84,6.29-2.28,6.32l-14.91-1.23a3.6,3.6,0,0,1-3.46-3.24l-1.69-6.24c0-1.9,1.1-3.46,2.53-3.49l17.89-5c1.44,0,2.64,1.49,2.68,3.38Z" style="fill:#89dbf0"/><path d="M149.49,333.65c0,.21-1,.31-2.24.24L133.4,333c-1.22-.07-2.2-.3-2.19-.51l0-.79c0-.21,1-.32,2.24-.24l13.84.86c1.23.08,2.21.31,2.2.52Z" style="fill:#15100c"/><path d="M154.4,298.94a11.08,11.08,0,0,0-1.08-2.46c-12.5,9.62-21.75,6.11-28.37,4.81a11.87,11.87,0,0,0-.09,1.21c-.06,4.54.43,9.07.42,13.61,0,3.61,5.17,6.57,7.61,6.57,9.09,0,11.14-.58,19.78-3.28,2.32-.73,6.52-4.71,5.49-8Q156.24,305.2,154.4,298.94Z" style="fill:#89dbf0"/><path d="M131.58,296.32s-8.55.07-10,4.69,1.86,11.09,1.86,11.09,2.74,8.34,3.58,12.9-1.48,7.77-1,8.08c.21.14,2.39.31,5.75-1.43s1.16-8.28.75-10.28-2.48-11.83-2.17-13.49S131.58,296.32,131.58,296.32Z" style="fill:#194866"/><path d="M159.26,298.12s.68-3.83-1.17-5.27c-2.71-2.12-9-1.59-11.07-1a26.23,26.23,0,0,0-3.39,1.24s7.27,2.27,7.53,15.3A57.64,57.64,0,0,1,150,318.69a70.8,70.8,0,0,0-.74,10.27s4.31.61,4.53,1.16.29-4,3-8.51S159.26,298.12,159.26,298.12Z" style="fill:#194866"/><path d="M150.71,291.41c3.62,2.77,5.83,5.18,5.89,20.35,0,2.45-.65,7-1,11.17.19-.44,1.56-2.65,1.8-3.1,2.39-4.45,1.85-21.71,1.85-21.71s.31-3.44-1.32-4.89S153.12,291.15,150.71,291.41Z" style="fill:#163f59"/><path d="M180.69,371.74c1-1.54,1.28-3.39,1.88-5.07.14-3.05-.39-4.83-1.23-5.59-3.79-3.45-12.15,2.95-25.67,30.76-6.82,14-12.27,27.08-21.48,34.58-1.35,1.1-1.7,1.25-2.14,2.52-1.34,3.95-.74,8.87-.58,8.71C137.93,431.74,162.68,400.22,180.69,371.74Z" style="fill:#fff"/><path d="M128.83,434.75l4.35-8.41A2.27,2.27,0,0,1,135.1,425l-3.34,6.47a2.81,2.81,0,0,0,.69,3.55,1.86,1.86,0,0,0,1.12.32l-1,1.94a2.1,2.1,0,0,1-3.05,1A2.82,2.82,0,0,1,128.83,434.75Z" style="fill:#194866"/><path d="M94.09,372.28a6.9,6.9,0,0,0-1.67,2.48c-.13.71-.19,4.16-.19,4.16a4,4,0,0,0,.87-2.35A13.8,13.8,0,0,1,94.09,372.28Z" style="fill:#dee7ec"/><path d="M93.28,374.5c-1,.82-1.37,2.28-1.38,4.11A3,3,0,0,1,91,381a20.56,20.56,0,0,1,.17-3.81c.08-.75.2-1.52.33-2.26C92,372.5,95.9,372.41,93.28,374.5Z" style="fill:#dee7ec"/><path d="M95.52,370.76c.17.9-.7,2.4-.43,2.9a6.21,6.21,0,0,0,1.62,2c-1.84.57-2.91-1.94-3.95-2.5S95.09,368.44,95.52,370.76Z" style="fill:#fff"/><path d="M102.6,362.67c-2.69,2.13-5.81,4.5-6.78,6.24-1.38,2.48-1,4.37-2.54,5.59-.17.14-.3.31-.45.46-.4.41-.93.8-1.07,1s-.56.88-.51.55c.42-2.92,1.18-6.15,1.61-6.72.9-1.16,6.14-7.37,8.56-9.28C104.15,358.36,106.23,359.8,102.6,362.67Z" style="fill:#fff"/><path d="M93.12,374.27s-.45-.55-.89-.23a9.8,9.8,0,0,0-2,2.69c-.33.64-1.41,3.92-1.41,3.92a4,4,0,0,0,1.53-2A17.44,17.44,0,0,1,93.12,374.27Z" style="fill:#fff"/><path d="M104.68,356.48c2.35-.08,8-3.6,8.47-2.48-3.92,5.56-19.42,14.75-19.42,14.75Z" style="fill:#fff"/><path d="M103.36,359.66a2.19,2.19,0,0,1,1.35,2.21c4.1-3.13,15.53-11.9,16.55-17.7.31-1.75-3.06-6.18-8.36.16-6.49,7.79-9.61,12.25-10.82,15A3,3,0,0,1,103.36,359.66Z" style="fill:#163f59"/><path d="M173,305.73s.65.27.89-.23a9.92,9.92,0,0,0,.44-3.3c0-.73-.62-4.15-.62-4.15a4.09,4.09,0,0,0-.4,2.5A17.69,17.69,0,0,1,173,305.73Z" style="fill:#dee7ec"/><path d="M173,305.25c.52-1.2.13-2.67-.73-4.29a3,3,0,0,1-.34-2.55,21.34,21.34,0,0,1,1.66,3.45,6.66,6.66,0,0,1,.57,2.25C174.19,306.39,171.68,308.35,173,305.25Z" style="fill:#dee7ec"/><path d="M161.17,333.65c-.32-5.19,8.39-18.9,8.39-18.9s4.79-4.14-3.08,16C164.12,336.79,161.26,334.93,161.17,333.65Z" style="fill:#fff"/><path d="M172.9,303.82l.58.32.49,2.21a25.87,25.87,0,0,1-1.62,5.4c-.84,1.4-1.89,7.56-2.22,8.26s-3.93.86-3.93.86,2.57-5.94,3.39-8.38.78-6.32,1.07-7.29a24.72,24.72,0,0,0,.64-2.52s.85.39.24,3c-.16.7.7.51.7.51Z" style="fill:#fff"/><path d="M173.22,306.63a6.81,6.81,0,0,0,.15-3c-.26-.68-2-3.68-2-3.68a4.05,4.05,0,0,0,.48,2.48A13.83,13.83,0,0,1,173.22,306.63Z" style="fill:#fff"/><path d="M172.24,306.21s-.57.17-.77,0a3.65,3.65,0,0,0,.08.54c.06.35,0,2.69,0,2.69a20.6,20.6,0,0,1,.59-2.15,9,9,0,0,0,.37-1.59c0-.07,0-.2,0-.33Z" style="fill:#dee7ec"/><path d="M171.54,305.7c.41-1.77.16-2.53,0-2.83-.09.42-.26,1.09-.53,2a12.54,12.54,0,0,0-.23,1.89,3.13,3.13,0,0,1,.92,1.67c.06.26.44-1.29.47-2.22C171.89,306.25,171.41,306.24,171.54,305.7Z" style="fill:#dee7ec"/><path d="M167.78,326.92c0-.72-3.94-1.67-4.62-.49l-.63.84s-5.08,7.45-1,9.71C161.54,337,166.3,337.47,167.78,326.92Z" style="fill:#163f59"/><rect x="142.01" y="355.18" width="42.53" height="0.87" style="fill:#cdd5d7"/><path d="M160.78,355.13a1.17,1.17,0,0,0,1.08,1.23h21.81c.6,0,1.4-.43,2.13-2.15l10.78-19.69a1.13,1.13,0,0,0-1.26-1.24l-22.38.68a2.07,2.07,0,0,0-1.41,1.49Z" style="fill:#cdd5d7"/><path d="M163.42,356.06H141.91a8,8,0,0,0,3.48.67h35.85a8,8,0,0,0,3.48-.67Z" style="fill:#b7bec0"/><path d="M113.55,489.55,117.05,385a2.26,2.26,0,0,0-2.17-2.32l-16.83-.56a2.24,2.24,0,0,0-2.32,2.16L92.24,488.84a2.24,2.24,0,0,0,2.16,2.31l16.84.56A2.23,2.23,0,0,0,113.55,489.55ZM105,389a1.27,1.27,0,0,1,2.53.09A1.27,1.27,0,0,1,105,389Z" style="fill:#cfd8cd"/><path d="M108.54,389.07a2.3,2.3,0,1,0-2.37,2.21A2.3,2.3,0,0,0,108.54,389.07ZM105,389a1.27,1.27,0,0,1,2.53.09A1.27,1.27,0,0,1,105,389Z" style="fill:#7e7e7e"/><path d="M112.44,490l4.06-104.53a2.22,2.22,0,0,0-2.14-2.32l-16.84-.66a2.22,2.22,0,0,0-2.32,2.15L91.13,489.19a2.24,2.24,0,0,0,2.15,2.32l16.84.65A2.23,2.23,0,0,0,112.44,490Zm-8-100.64a1.27,1.27,0,0,1,1.31-1.22,1.26,1.26,0,0,1,1.21,1.31,1.26,1.26,0,1,1-2.52-.09Z" style="fill:#fff"/><polygon points="91.74 473.44 91.12 489.47 112.43 490.31 113.05 474.26 91.74 473.44" style="fill:#f6f1f6"/><polygon points="92.36 457.52 91.74 473.55 113.05 474.38 113.67 458.34 92.36 457.52" style="fill:#dee7dc"/><rect x="95.3" y="439.36" width="16.05" height="21.32" transform="translate(-350.38 535.75) rotate(-87.77)" style="fill:#cfd8cd"/><rect x="95.92" y="423.44" width="16.05" height="21.32" transform="translate(-333.88 521.06) rotate(-87.77)" style="fill:#c3cbc1"/><rect x="96.54" y="407.52" width="16.05" height="21.32" transform="translate(-317.32 506.61) rotate(-87.8)" style="fill:#acb2aa"/><rect x="97.16" y="391.59" width="16.05" height="21.33" transform="translate(-300.86 491.72) rotate(-87.77)" style="fill:#8f938d"/><path d="M108,389.52a2.3,2.3,0,1,0-2.39,2.19A2.3,2.3,0,0,0,108,389.52Zm-3.56-.14a1.27,1.27,0,0,1,1.31-1.22,1.26,1.26,0,0,1,1.21,1.31,1.26,1.26,0,1,1-2.52-.09Z" style="fill:#999"/><path d="M101.25,490l15.59-103.44A2.23,2.23,0,0,0,115,384L98.3,381.49a2.24,2.24,0,0,0-2.54,1.87L80.17,486.81A2.23,2.23,0,0,0,82,489.35l16.67,2.51A2.22,2.22,0,0,0,101.25,490Zm3.15-100.92a1.26,1.26,0,0,1,1.44-1.05,1.26,1.26,0,0,1-.38,2.49A1.27,1.27,0,0,1,104.4,389.07Z" style="fill:#fff"/><polygon points="82.51 471.22 80.13 487.09 101.21 490.26 103.61 474.41 82.51 471.22" style="fill:#9ea4cb"/><rect x="86.21" y="454.33" width="16.05" height="21.32" transform="matrix(0.15, -0.99, 0.99, 0.15, -379.61, 488.75)" style="fill:#8a8fb2"/><rect x="88.59" y="438.57" width="16.05" height="21.32" transform="translate(-362.01 477.66) rotate(-81.41)" style="fill:#757997"/><rect x="90.96" y="422.81" width="16.05" height="21.32" transform="matrix(0.15, -0.99, 0.99, 0.15, -344.4, 466.72)" style="fill:#595c73"/><rect x="93.34" y="407.05" width="16.05" height="21.33" transform="translate(-326.79 455.75) rotate(-81.44)" style="fill:#474a59"/><rect x="95.71" y="391.3" width="16.05" height="21.32" transform="translate(-309.19 444.65) rotate(-81.43)" style="fill:#30333d"/><path d="M107.92,389.61a2.3,2.3,0,1,0-2.61,1.92A2.29,2.29,0,0,0,107.92,389.61Zm-3.52-.54a1.26,1.26,0,0,1,1.44-1.05,1.26,1.26,0,0,1-.38,2.49A1.27,1.27,0,0,1,104.4,389.07Z" style="fill:#7e7e7e"/><path d="M82.28,487.34l34.85-98.64a2.24,2.24,0,0,0-1.36-2.85l-15.89-5.62A2.25,2.25,0,0,0,97,381.6L62.17,480.24a2.23,2.23,0,0,0,1.37,2.85l15.89,5.61A2.24,2.24,0,0,0,82.28,487.34Zm22.15-98.51a1.27,1.27,0,0,1,1.61-.76,1.24,1.24,0,0,1,.77,1.61,1.26,1.26,0,1,1-2.38-.85Z" style="fill:#fff"/><rect x="66.78" y="465.82" width="16.05" height="21.33" transform="translate(-399.4 388.38) rotate(-70.55)" style="fill:#ed7476"/><rect x="72.09" y="450.8" width="16.05" height="21.32" transform="translate(-381.69 383.32) rotate(-70.55)" style="fill:#ed585b"/><rect x="77.4" y="435.78" width="16.05" height="21.33" transform="translate(-363.97 378.24) rotate(-70.54)" style="fill:#da5154"/><polygon points="83.35 420.3 78 435.43 98.11 442.53 103.46 427.4 83.35 420.3" style="fill:#c23c3c"/><rect x="88.01" y="405.73" width="16.05" height="21.32" transform="translate(-328.55 368.19) rotate(-70.54)" style="fill:#ab3535"/><rect x="93.32" y="390.7" width="16.05" height="21.32" transform="translate(-310.85 363.21) rotate(-70.54)" style="fill:#982f2f"/><path d="M107.79,390a2.29,2.29,0,1,0-2.93,1.4A2.31,2.31,0,0,0,107.79,390Zm-3.36-1.19a1.27,1.27,0,0,1,1.61-.76,1.24,1.24,0,0,1,.77,1.61,1.26,1.26,0,1,1-2.38-.85Z" style="fill:#797979"/><path d="M53.19,475.18l63.68-83a2.24,2.24,0,0,0-.41-3.14l-13.37-10.25a2.23,2.23,0,0,0-3.14.42l-63.68,83a2.24,2.24,0,0,0,.41,3.13l13.37,10.26A2.24,2.24,0,0,0,53.19,475.18Zm51.57-86.8a1.26,1.26,0,1,1,.23,1.77A1.26,1.26,0,0,1,104.76,388.38Z" style="fill:#fff"/><rect x="41.42" y="451.89" width="16.05" height="21.33" transform="translate(-347.69 220.3) rotate(-52.52)" style="fill:#ffe18b"/><rect x="51.12" y="439.24" width="16.05" height="21.32" transform="translate(-333.81 222.96) rotate(-52.5)" style="fill:#ffdb6f"/><rect x="60.82" y="426.6" width="16.05" height="21.32" transform="translate(-320.02 225.79) rotate(-52.51)" style="fill:#f2d06a"/><rect x="70.52" y="413.96" width="16.05" height="21.33" transform="translate(-306.17 228.48) rotate(-52.51)" style="fill:#e6c664"/><polygon points="84.67 399.12 74.9 411.86 91.82 424.83 101.58 412.1 84.67 399.12" style="fill:#d1b45b"/><rect x="89.92" y="388.67" width="16.05" height="21.32" transform="translate(-278.5 233.96) rotate(-52.5)" style="fill:#bca45d"/><path d="M107.58,390.55a2.3,2.3,0,1,0-3.22.42A2.3,2.3,0,0,0,107.58,390.55Zm-2.82-2.17a1.26,1.26,0,1,1,.23,1.77A1.26,1.26,0,0,1,104.76,388.38Z" style="fill:#b7aac6"/><path d="M14.49,403.31,4,378.9l28.23-19.58s15.89-13.67,20.91-2.49S63.69,381,63.69,381,60.32,391.43,14.49,403.31Z" style="fill:#b0bfde"/><path d="M81.27,362.18s-11.08,12.93-15.16,11.55c-.18-.06-2.14-2-4-2.09s-2.83.76-3.54.79a6.29,6.29,0,0,0-1.11,0A2.3,2.3,0,0,1,54.66,370c.21-1.07-.15-3.92.25-4.72.27-.55.3-1.06,1.15-1.24,1.81-.36,4.88-1.44,5.72-2.39,2.47-2.79,4.66-10.44,12.15-8.64C76.12,353.53,81.74,361.1,81.27,362.18Z" style="fill:#edeef0"/><polygon points="55.11 371.39 51.12 372.44 53.94 363.07 55.69 363.28 55.11 371.39" style="fill:#d1dbea"/><polygon points="58.41 372.39 59.59 371.66 57.95 373.85 53.98 375.6 55.21 371.85 58.41 372.39" style="fill:#d1dbea"/><path d="M66.32,373.58s-.16-.58-.36-1.71a8.67,8.67,0,0,0-.52-1.94c-1.07-2.15-1.19-1.95-1.59-3.38a39.71,39.71,0,0,1-.72-5.26s-.62,1.85-.88,2.59a4.85,4.85,0,0,0,.11,3.46c1.51,4,1.13,4,1.48,4.38A18.94,18.94,0,0,1,66.32,373.58Z" style="fill:#dee7ec"/><path d="M76.11,366.83a36.37,36.37,0,0,0-1.66,3.36c-.22.5-.48,1.14-.67,1.2a5.56,5.56,0,0,1-1.22,0c-.29,0-1.46-.13-.62-1.13A36.92,36.92,0,0,1,76.11,366.83Z" style="fill:#edeef0"/><path d="M74.26,352.3c4,.57,7.85,5.6,7.85,11.57a3,3,0,0,1-2.48.05,7.79,7.79,0,0,0-2.54-6.69c-3.32-2.76-2.78.8-4.23.8-1.21,0-2.29,0-2.29,0l-2.18,1.18-.86-.73s1.44-2.21.49-2.1c-1.14.14-2.32,1.69-2.5,1.89s-.49.54-.64.5a29.06,29.06,0,0,1-3,2.69c-.37-.37-.3-1.35.63-2.67C64.6,355.77,69.44,351.6,74.26,352.3Z" style="fill:#163f59"/><path d="M68.3,356.39a1.75,1.75,0,0,0-2.63,2.3" style="fill:#edeef0"/><path d="M71.67,369.11a19.24,19.24,0,0,1,1.87,1.31c.11.2.42.62.28.77s-.74.29-1.85-.06C71.7,371.05,72.18,370.79,71.67,369.11Z" style="fill:#dee7ec"/><rect x="21.97" y="477.76" width="6.11" height="9.31" style="fill:#593446"/><path d="M22.26,489.78h4.46v-1.36l1.94,1.36H39.9s-.19-1.84-7.75-2.14c-1.94-.07-3.3-2.71-3.3-2.71s-1-.87-2.42,1.16c-.38.53-4.46-.48-4.46-.48A9.48,9.48,0,0,0,22.26,489.78Z" style="fill:#081832"/><path d="M46,374l-4.09,25-1.61,1,1.22,1.42L32,404.76l-5.54-7.06,6.21-34.08a20.56,20.56,0,0,1,13-10.2C52.63,351.45,46.22,371.9,46,374Z" style="fill:#d1dbea"/><path d="M40.68,400.93l21,22s-1.77,1.53-3.42,1c-4.5-1.44-13.56-6.77-17.41-10.18a80.1,80.1,0,0,1-9.52-10.35Z" style="fill:#fff"/><path d="M30.51,399.35s6.88.22,10.46.21l-.7.43,1.22,1.42-3.3,1.13-4.91.92-1.07-1.78,1.37-.61Z" style="fill:#b0bfde"/><path d="M56.12,423.07l2.46,2.78a12.66,12.66,0,0,0,2.94,2.51c1.82,1.13,3.55.42,5-1.12A5.42,5.42,0,0,0,68,424.56s-1.12-2.41-3.3-2.06-7-1.74-7.36-.9A3.85,3.85,0,0,1,56.12,423.07Z" style="fill:#fff"/><polygon points="67.57 423.53 70.67 426.28 73.43 428.97 72.64 429.34 70.42 427.7 65.82 426.9 66.4 425.77 67.57 423.53" style="fill:#fff"/><polygon points="69.31 428.7 70.96 431.69 70.3 432.25 68.14 429.59 65.02 427.69 66.4 425.77 69.31 428.7" style="fill:#fff"/><polygon points="68.94 432.85 67.78 430.39 67.24 428.64 65.6 427.46 64.02 428.62 65.83 429.83 67.91 432.83 68.94 432.85" style="fill:#fff"/><polygon points="66.28 433.46 64.96 428.72 63.74 427.96 62.61 428.7 63.99 430.6 65.48 433.13 66.28 433.46" style="fill:#fff"/><path d="M56.12,420.21A5,5,0,0,0,60,421.34s5.8-.82,6.78,0a10,10,0,0,0,3.48,1.32s.94.71-1.41,1.07a9.85,9.85,0,0,1-2.92,0s-3.14,1.64-4.17,1.54c-2.13-.2-5.94-3.94-5.94-3.94S55.91,420,56.12,420.21Z" style="fill:#fff"/><path d="M5.73,380.07,28,425.29,21,435.21A72.6,72.6,0,0,1,2.63,413.63C-4.74,400.14,5.73,380.07,5.73,380.07Z" style="fill:#194866"/><path d="M21.42,483c-1.92-9.89-6.17-27.14-6.31-33.49a90,90,0,0,1,1.59-20l11.73-4.09L28.48,483Z" style="fill:#194866"/><path d="M792.62,269.78l-1.41-11.2a8.56,8.56,0,0,0-7.3-3.06c-5.17.66-8.65,6.77-7.78,13.67s5.77,11.95,10.93,11.3c3.62-.46,6.41-3.59,7.46-7.79A4.09,4.09,0,0,1,792.62,269.78Z" style="fill:#f80"/><path d="M772,275.86c-.23,1.79,1.62,3.49,4.13,3.81l5.73.74c2.52.32,4.74-.86,5-2.64L789,261.51c.23-1.78-1.62-3.48-4.13-3.81l-5.73-.73c-2.51-.33-4.74.86-5,2.64Z" style="fill:#f80"/><path d="M786.88,283.13c3.38,1.53.55,1.68.33,1.93-1.27,1.51-15.08-.69-15.92-2.69-.13-.34,6.37-1.17,6.41-1.42a20.65,20.65,0,0,0-.09-8.53A.48.48,0,0,1,778,272c1.21.06,2.43.09,3.65.15.2,0,2.57.58,2,1.71C783.39,277,783.31,281.5,786.88,283.13Z" style="fill:#fff"/><path d="M785.11,274.52l.22-.32a.86.86,0,0,0,.07-.1q.14-.19.27-.42a.75.75,0,0,0,.07-.12,2.59,2.59,0,0,0,.19-.33L786,273l.15-.28a2,2,0,0,0,.1-.21c.07-.13.13-.26.19-.39l.14-.3.12-.28c0-.09.07-.19.11-.28a1.86,1.86,0,0,0,.1-.25c0-.06,0-.13.08-.2h0a33.47,33.47,0,0,0,.77-9.7.84.84,0,0,0-.8-.7c-2.82-.24-11.13-2.35-10.53,6.1h0s0,.73,0,1.06a.28.28,0,0,1,0,.09c0,.33,0,.66,0,1a.13.13,0,0,1,0,.06c0,.33,0,.65.08,1v0c.46,4,2.07,6.94,4.33,7.23,1.32.16,2.65-.59,3.82-2h0l0,0a2.91,2.91,0,0,0,.26-.33Z" style="fill:#fff"/><path d="M782.88,261.33c-.57-.75-3.16-1.53-3.16-1.53-.1-.91.51-1.21,1.28-1.89a4.64,4.64,0,0,1,5.78.14c1.7,1.38,1.87,3.55.37,4.86a4.39,4.39,0,0,1-4,.75A1.94,1.94,0,0,0,782.88,261.33Z" style="fill:#f80"/><path d="M824,293.93s.44.49.85.16a9.38,9.38,0,0,0,1.69-2.62c.28-.61,1.12-3.75,1.12-3.75a3.77,3.77,0,0,0-1.33,1.95A16.34,16.34,0,0,1,824,293.93Z" style="fill:#dee7ec"/><path d="M824.18,293.54c.91-.81,1.18-2.21,1.09-3.92a2.77,2.77,0,0,1,.73-2.29,20.14,20.14,0,0,1,0,3.57,6.07,6.07,0,0,1-.42,2.13C824.73,295,821.83,295.63,824.18,293.54Z" style="fill:#dee7ec"/><path d="M795.75,465.21a26.28,26.28,0,0,0-4.85-1c-2.07-.29-3.63-.2-4.41-.94-1.28-1.21-.69-5.26-1.28-5.1-2.88.81-3.64,7.77-1.9,8.53s11.3,0,12.08-.09S796,465,795.75,465.21Z" style="fill:#ececec"/><path d="M770.72,397.6q.24-2.64.51-5.19c1-2.62,2-4.08,3-4.06,3.53.11,8.52,13.14,2.19,47.29-.32,1.72-3.52,31.07-3.73,30.41C770.11,457.84,768.4,423.61,770.72,397.6Z" style="fill:#ececec"/><path d="M772.17,339.23c2.76-.59,2.86,1,5,4.93,4.12,7.68,6.66,19.19,5.64,31.59-1.19,14.53-4.55,27.28-8.83,35.39-3-6.66-4.64-14.75-6.07-23.73C763.41,359.46,763.72,341,772.17,339.23Z" style="fill:#ececec"/><path d="M776.51,371.28a41.22,41.22,0,0,0-10.84-.72c.44,4.72,1.12,9.9,2,15.46,3.92-4.62,12-2.58,14-.46.49-3.15.89-6.43,1.17-9.81.08-1,.13-1.94.17-2.9C780.87,372.26,778.72,371.73,776.51,371.28Z" style="fill:#dee7ec"/><path d="M754.31,302.6c4.3,3.56,8.84,20.49,8.84,20.49s-.16,6.8-10.33-14.18C749.77,302.61,753.25,301.73,754.31,302.6Z" style="fill:#fff"/><path d="M796.7,297.65c3.35,4.82,1.69,22.28,1.69,22.28s-2.87,6.33-5.83-16.86C791.67,296.1,795.87,296.46,796.7,297.65Z" style="fill:#fff"/><path d="M796,318.52c2.6-6.29,20.63-18.33,20.63-18.33s8-2.61-12.77,17.43C797.65,323.63,795.38,320.07,796,318.52Z" style="fill:#fff"/><path d="M824.66,292.29l.36.5-.46,2.06a24,24,0,0,1-3.52,3.92c-1.27.85-4.61,5.65-5.17,6.1s-3.66-.84-3.66-.84,4.53-4,6.2-5.73,3.18-5,3.81-5.74c1.07-1.2,1.55-1.87,1.55-1.87s.56.66-1,2.65c-.41.52.39.71.39.71Z" style="fill:#fff"/><path d="M793.42,344.82c-2.07-.51-2.15,1-3.74,4.68-3.13,7.23-5.07,18-4.34,29.59.86,13.56,3.35,25.43,6.55,33,2.27-6.26,3.53-13.85,4.64-22.26C800,363.61,799.79,346.38,793.42,344.82Z" style="fill:#ececec"/><path d="M793.18,376.17c.17-4.6.24-8.76.19-12.45-.7-.79-1.07-.32-2.25.15-2.29.92-4.53,3.38-6,7.25,0,2.59,0,5.25.2,8,.17,3,.39,5.92.66,8.73a36.34,36.34,0,0,0,2.6-3.53A55.33,55.33,0,0,0,793.18,376.17Z" style="fill:#dee7ec"/><path d="M790.87,390.75c-1.39-.63-3.78,1.2-5.33,4.69-3,6.84-3.65,16.05-3.71,27.4-.06,12,.35,20.92.87,28.3s-2.07,17.6,3.38,16.37c-1.13-10-.17-24.92,2.4-32.84C797.26,407.61,795.13,392.68,790.87,390.75Z" style="fill:#ececec"/><polygon points="790.36 306.59 769.03 306.07 766.81 281.63 793.43 284.48 790.36 306.59" style="fill:#59c7e3"/><path d="M763.09,379.55q18.13-2.39,36.27-4.74c6.53-22,.83-46.7-9-68.49l-21.5-.73C761.59,329,755,355.93,763.09,379.55Z" style="fill:#bb51b1"/><path d="M756.52,306l14.23-22a3.36,3.36,0,0,0-1.29-1.54l-.41-.26a3.4,3.4,0,0,0-4.7,1l-12.43,19.26Z" style="fill:#59c7e3"/><path d="M793.72,311.32l-3.59-26a3.4,3.4,0,0,1,1.83-.86l.48-.06a3.4,3.4,0,0,1,3.83,2.9L799.4,310Z" style="fill:#59c7e3"/><rect x="759.9" y="324.01" width="5.82" height="2.43" rx="0.73" transform="matrix(0.25, -0.97, 0.97, 0.25, 254.26, 980.23)" style="fill:#fff"/><path d="M772.7,468.94c-1.5,4.84-3.77,8.45-5.05,8.05s-1.09-4.65.42-9.49,3.77-8.44,5-8S774.21,464.1,772.7,468.94Z" style="fill:#e45471"/><path d="M773,466.18c-.58,3.69-2.59,6.61-3.87,6.21s-1.33-3.48-.05-7c1.61-4.45,2.28-5.75,2-8.72C770.79,453.89,775.15,452.29,773,466.18Z" style="fill:#ececec"/><path d="M783.44,461.85a.12.12,0,0,0,.13.12l.24,0a.12.12,0,0,0,.12-.12h0a.13.13,0,0,0-.13-.12h-.24a.13.13,0,0,0-.12.13Z" style="fill:#fff"/><path d="M793.72,464.68c.65,2.27-6.42,1.68-8.26,1.17a21.93,21.93,0,0,0-2.89-.61h-.21a.88.88,0,0,0,0,.17c.06,1.25-.42,2.95,1.59,2.85l12.61-.6C806.83,467.17,793.71,464.63,793.72,464.68Z" style="fill:#e45471"/><path d="M823.81,294.79a6.24,6.24,0,0,0,1.32-2.47c0-.68-.23-3.91-.23-3.91a3.81,3.81,0,0,0-.58,2.29A12.87,12.87,0,0,1,823.81,294.79Z" style="fill:#fff"/><path d="M823.15,294.05s-.55-.09-.65-.32a4.19,4.19,0,0,0-.14.49c-.09.31-1.08,2.27-1.08,2.27a17.77,17.77,0,0,1,1.35-1.58,8.48,8.48,0,0,0,1-1.2c0-.06.06-.18.11-.29Z" style="fill:#dee7ec"/><path d="M822.76,293.34c1.06-1.34,1.15-2.07,1.09-2.41-.24.31-.65.81-1.26,1.49a13.81,13.81,0,0,0-.94,1.5,3,3,0,0,1,.11,1.79c0,.24.89-.92,1.29-1.7C822.84,293.94,822.44,293.74,822.76,293.34Z" style="fill:#dee7ec"/><path d="M850.73,461l-.74-5.79-10.23,1.32.74,5.78a1.12,1.12,0,0,0,1.26,1l8-1A1.11,1.11,0,0,0,850.73,461Z" style="fill:#ff876c"/><path d="M849.33,461.05l-.74-5.68-4.34.56.73,5.68a.55.55,0,0,0,.62.47l3.24-.42A.55.55,0,0,0,849.33,461.05Z" style="fill:#ffa38f"/><path d="M842.15,456.2l-2.39.31.74,5.78a1.12,1.12,0,0,0,1.26,1l1.28-.16Z" style="fill:#e36e54"/><path d="M847.6,435.62,824.09,261a2.81,2.81,0,0,0-2.1,2.63l23.21,172.3Z" style="fill:#cd4c66"/><path d="M839.51,436.66l5.69-.73L822,263.63h0v0a2.91,2.91,0,0,0-5.67.74,0,0,0,0,1,0,0s0,0,0,0h0Z" style="fill:#e45471"/><path d="M816.29,264.37a2.8,2.8,0,0,0-2.69-2L837.11,437l2.4-.31Z" style="fill:#cd4c66"/><path d="M813.59,262.35a2.8,2.8,0,0,1,2.7,2h0s0,0,0,0a0,0,0,0,0,0,0,2.91,2.91,0,0,1,5.67-.74v0h0A2.8,2.8,0,0,1,824.1,261l-8-20.86Z" style="fill:#e5e8ec"/><path d="M813.59,262.35a2.8,2.8,0,0,1,2.7,2h0s0,0,0,0a0,0,0,0,0,0,0c0-1.36-.24-24.23-.24-24.23Z" style="fill:#cdd5d7"/><rect x="838.4" y="436.21" width="10.47" height="19.93" transform="translate(-50.15 111.6) rotate(-7.35)" style="fill:#f0ca67"/><rect x="843.25" y="436.12" width="2.14" height="19.92" transform="matrix(0.99, -0.13, 0.13, 0.99, -50.03, 111.42)" style="fill:#f4da80"/><path d="M815.32,246.83a9.42,9.42,0,0,0,1.5-.07,10,10,0,0,0,1.66-.36l-2.41-6.26Z" style="fill:#30363d"/><rect x="847.06" y="437.76" width="0.67" height="2.87" transform="translate(-49.01 111.44) rotate(-7.31)" style="fill:#f4da80"/><rect x="845.53" y="437.95" width="0.67" height="2.87" transform="translate(-49.21 111.69) rotate(-7.34)" style="fill:#f4da80"/><rect x="844.01" y="438.15" width="0.67" height="2.87" transform="translate(-49.24 111.46) rotate(-7.34)" style="fill:#f0ca67"/><rect x="842.48" y="438.35" width="0.67" height="2.87" transform="translate(-49.35 111.47) rotate(-7.35)" style="fill:#f0ca67"/><rect x="840.96" y="438.55" width="0.67" height="2.87" transform="translate(-49.32 111.11) rotate(-7.34)" style="fill:#f4da80"/><rect x="839.43" y="438.74" width="0.67" height="2.87" transform="translate(-49.26 110.64) rotate(-7.32)" style="fill:#f4da80"/><rect x="837.9" y="438.94" width="0.67" height="2.87" transform="translate(-49.55 111.11) rotate(-7.37)" style="fill:#f4da80"/><rect x="848.62" y="449.87" width="0.67" height="2.87" transform="translate(-50.64 112) rotate(-7.33)" style="fill:#f4da80"/><rect x="847.09" y="450.07" width="0.68" height="2.87" transform="translate(-50.67 111.78) rotate(-7.33)" style="fill:#f4da80"/><rect x="845.57" y="450.27" width="0.67" height="2.87" transform="translate(-50.77 111.76) rotate(-7.34)" style="fill:#f0ca67"/><rect x="844.04" y="450.46" width="0.67" height="2.87" transform="matrix(0.99, -0.13, 0.13, 0.99, -50.85, 111.66)" style="fill:#f0ca67"/><rect x="842.52" y="450.66" width="0.67" height="2.87" transform="translate(-50.83 111.33) rotate(-7.34)" style="fill:#f4da80"/><polygon points="841.17 453.76 840.81 450.91 841.48 450.82 841.84 453.67 841.17 453.76" style="fill:#f4da80"/><polygon points="839.65 453.95 839.28 451.11 839.95 451.02 840.32 453.87 839.65 453.95" style="fill:#f4da80"/></g></g></svg>