<svg xmlns="http://www.w3.org/2000/svg" viewBox="0 0 100.3 20"><g id="レイヤー_2" data-name="レイヤー 2"><g id="レイヤー_1-2" data-name="レイヤー 1"><path d="M18.32,19.87h-1C14.11,19.7,13,19,12,17.52s-2.09-3.43-3.08-5.11c-.5-.86-.91-1-2-1H6.11v4.46c0,2.45.31,2.63,2.59,2.89v1H0v-1c2.34-.25,2.58-.44,2.58-2.89V4.18c0-2.41-.31-2.66-2.58-2.87v-1H8.26c2.48,0,4,.28,5.16,1.08a4.51,4.51,0,0,1,2,4c0,2.61-1.71,4.08-3.75,4.92.47.9,1.67,2.85,2.57,4.21a25.34,25.34,0,0,0,2.29,3.08,3.9,3.9,0,0,0,2,1.33ZM7.13,10.13a4.46,4.46,0,0,0,3-.81,4.16,4.16,0,0,0,1.53-3.54c0-3.16-1.91-4.3-3.8-4.3a2.2,2.2,0,0,0-1.44.3c-.23.19-.3.52-.3,1.18v7.17Z" style="fill:#fff"/><path d="M30.08,16.87A6.75,6.75,0,0,1,24.82,20c-3.86,0-6.1-2.95-6.1-6.44a7.75,7.75,0,0,1,2.13-5.3,6.43,6.43,0,0,1,4.56-2.12,4.79,4.79,0,0,1,4.78,4.73c0,.53-.06,1-.46,1.05-.58.14-4.63.37-7.74.49,0,3.44,2,5.06,4.17,5.06a5.1,5.1,0,0,0,3.41-1.4ZM24.77,7.31c-1.25,0-2.37,1.36-2.63,3.73,1.37,0,2.69,0,4.11-.09.46,0,.64-.11.64-.6C26.92,8.87,26.11,7.31,24.77,7.31Z" style="fill:#fff"/><path d="M48.2,19.63v-1c1.39-.18,1.6-.3,1.6-2.21v-5c0-2.34-1-3.1-2.25-3.1A4.15,4.15,0,0,0,45,9.46c0,.36.07.78.07,1.26v5.92c0,1.74.15,1.89,1.61,2.07v1H40.08v-1c1.49-.18,1.66-.28,1.66-2.09v-5.3c0-2.14-.78-3-2.13-3A4.43,4.43,0,0,0,37,9.44v7.19c0,1.77.19,1.91,1.5,2.09v1H31.82v-1c1.74-.2,1.87-.32,1.87-2.16V10.27c0-1.75-.07-2-1.56-2.21V7.19A26.12,26.12,0,0,0,37,6V8.33A22.48,22.48,0,0,1,39,7a4.47,4.47,0,0,1,2.46-.87,3.45,3.45,0,0,1,3.22,2.33c.75-.58,1.41-1,2.16-1.53a4.54,4.54,0,0,1,2.36-.8c2.48,0,3.91,1.75,3.91,4.75v5.75c0,1.76.16,1.87,1.7,2.09v1Z" style="fill:#fff"/><path d="M65.57.31c3.94,0,6.68.81,8.56,2.58a8.49,8.49,0,0,1,2.63,6.44A9.48,9.48,0,0,1,73,17.18a13.78,13.78,0,0,1-8.55,2.45H56.75v-1c2.36-.2,2.57-.45,2.57-2.9V4.23c0-2.52-.33-2.72-2.57-2.92v-1ZM62.92,15.5c0,2.15.68,2.83,2.87,2.83,4.48,0,6.94-3.09,6.94-8.56,0-3-.89-5.44-2.6-6.77a7.08,7.08,0,0,0-4.89-1.5,3.18,3.18,0,0,0-2,.42c-.26.23-.34.68-.34,1.64Z" style="fill:#fff"/><path d="M78.94,19.63v-1c1.7-.2,1.89-.33,1.89-2.41V10.36c0-1.94-.13-2.06-1.66-2.28V7.2a27.6,27.6,0,0,0,5-1.12V16.27c0,2,.15,2.21,2,2.41v1ZM82.28,3.87a2,2,0,0,1-1.94-1.93,2,2,0,0,1,2-1.94,1.9,1.9,0,0,1,1.92,1.87V2a1.93,1.93,0,0,1-2,1.92Z" style="fill:#fff"/><path d="M97.31,20a2.54,2.54,0,0,1-1.69-.6,2.94,2.94,0,0,1-.75-1.18C93.72,19,92.27,20,91.58,20a3.81,3.81,0,0,1-3.92-3.7h0v-.07c0-1.53.74-2.33,2.34-2.93,1.78-.65,4.08-1.38,4.76-1.95V10.27c0-1.74-.75-2.73-2.12-2.73a1.6,1.6,0,0,0-1.26.62,6,6,0,0,0-.75,2,1,1,0,0,1-1.1.89h0a1.66,1.66,0,0,1-1.59-1.46c0-.49.36-.87,1-1.33a14.17,14.17,0,0,1,4.59-2.1A4.81,4.81,0,0,1,96.4,7,4,4,0,0,1,98,10.59v5.28c0,1.41.49,1.78,1,1.78a2.33,2.33,0,0,0,1-.27l.31.95Zm-2.53-7.5c-.58.31-1.43.72-2,1-1,.48-1.59,1-1.59,2.07a2.06,2.06,0,0,0,1.76,2.32h.17a2.46,2.46,0,0,0,1.71-.68Z" style="fill:#fff"/></g></g></svg>