<svg xmlns="http://www.w3.org/2000/svg" xmlns:xlink="http://www.w3.org/1999/xlink" viewBox="0 0 281.37 235.13"><defs><linearGradient id="_裼隯澵_胙琅韃炅_2" x1="-42.82" y1="46.12" x2="-22.59" y2="46.12" gradientTransform="matrix(-1, 0, 0, 1, -19.28, 0)" gradientUnits="userSpaceOnUse"><stop offset="0" stop-color="#f1f8f7"/><stop offset="1" stop-color="#bfe3ee"/></linearGradient><linearGradient id="_裼隯澵_胙琅韃炅_2-2" x1="-42.82" y1="52.24" x2="-26.51" y2="52.24" xlink:href="#_裼隯澵_胙琅韃炅_2"/><linearGradient id="_裼隯澵_胙琅韃炅_2-3" x1="-143.52" y1="101.28" x2="-118.51" y2="101.28" gradientTransform="matrix(-1, 0, 0, 1, 70.41, 0)" xlink:href="#_裼隯澵_胙琅韃炅_2"/><linearGradient id="_裼隯澵_胙琅韃炅_2-4" x1="-148.63" y1="101.96" x2="-118.67" y2="101.96" gradientTransform="matrix(-1, 0, 0, 1, 70.41, 0)" xlink:href="#_裼隯澵_胙琅韃炅_2"/></defs><g id="レイヤー_2" data-name="レイヤー 2"><g id="レイヤー_1-2" data-name="レイヤー 1"><polygon points="4.73 48.3 2.46 52.76 7.23 51.67 23.54 46.53 4.73 48.3" style="fill:#afd8c7"/><polygon points="2.46 52.76 10.56 52.26 8.58 51.25 2.46 52.76" style="fill:#63c0c4"/><polygon points="4.73 48.3 3.31 43.95 23.54 46.53 4.73 48.3" style="fill:url(#_裼隯澵_胙琅韃炅_2)"/><polygon points="23.54 46.53 7.23 51.67 9.66 57.94 23.54 46.53" style="fill:url(#_裼隯澵_胙琅韃炅_2-2)"/><path d="M4.25,57.26l-.11-.09a.38.38,0,0,1,0-.54,10.11,10.11,0,0,1,1.61-1.16.38.38,0,1,1,.38.66A11,11,0,0,0,4.67,57.2.39.39,0,0,1,4.25,57.26Z" style="fill:#63c0c4"/><path d="M9.68,99h0a11.61,11.61,0,0,1-3-2.59.39.39,0,0,1,0-.54.38.38,0,0,1,.54,0A10.73,10.73,0,0,0,10,98.37a.38.38,0,0,1,.14.52A.38.38,0,0,1,9.68,99Zm-4.2-4.41a.33.33,0,0,1-.16-.15,14.29,14.29,0,0,1-1.46-3.66.37.37,0,0,1,.28-.46.38.38,0,0,1,.46.27A13.38,13.38,0,0,0,6,94.1a.38.38,0,0,1-.14.52A.36.36,0,0,1,5.48,94.63ZM3.7,88.79a.38.38,0,0,1-.21-.32v-.18a18.26,18.26,0,0,1,.19-3.74.38.38,0,1,1,.76.12,17.42,17.42,0,0,0-.19,3.58v.17a.39.39,0,0,1-.35.41A.42.42,0,0,1,3.7,88.79Zm.65-6.1a.38.38,0,0,1-.2-.43,28.89,28.89,0,0,1,1.27-3.69.38.38,0,0,1,.5-.2.38.38,0,0,1,.21.49,26.94,26.94,0,0,0-1.24,3.59.38.38,0,0,1-.47.27ZM6.56,77a.39.39,0,0,1-.17-.51c0-.09.09-.17.13-.25a12.94,12.94,0,0,1-1.67-.93.38.38,0,0,1-.1-.53.38.38,0,0,1,.53-.11,11.65,11.65,0,0,0,1.58.89c.41-.79.86-1.6,1.37-2.48a.39.39,0,0,1,.52-.14.37.37,0,0,1,.14.52c-.49.85-.93,1.64-1.32,2.39a9.93,9.93,0,0,0,1.09.36.38.38,0,0,1,.26.47.39.39,0,0,1-.47.27c-.42-.12-.83-.26-1.23-.41,0,.09-.1.19-.14.28a.39.39,0,0,1-.51.18ZM3.12,73.82a.25.25,0,0,1-.1-.08A10.1,10.1,0,0,1,.84,70.43a.38.38,0,0,1,.21-.5.37.37,0,0,1,.49.21,11.54,11.54,0,0,0,.63,1.27,10.43,10.43,0,0,0,1.39,1.8.38.38,0,0,1-.44.61Zm7.53,3.47a.39.39,0,0,1-.21-.37.39.39,0,0,1,.42-.35,11.06,11.06,0,0,0,3.69-.29.38.38,0,0,1,.19.74,12.09,12.09,0,0,1-4,.31ZM.38,68.41a.37.37,0,0,1-.2-.28,12.16,12.16,0,0,1,0-3.95.38.38,0,0,1,.43-.32.37.37,0,0,1,.32.43A11.82,11.82,0,0,0,.93,68a.37.37,0,0,1-.31.44A.39.39,0,0,1,.38,68.41Zm16.25,7.77a.37.37,0,0,1-.17-.16.39.39,0,0,1,.17-.52,6.75,6.75,0,0,0,.82-.48,7.19,7.19,0,0,0,1.95-1.86.38.38,0,0,1,.53-.09.39.39,0,0,1,.09.54,8.06,8.06,0,0,1-2.15,2,10,10,0,0,1-.9.52A.37.37,0,0,1,16.63,76.18Zm-7-4.59h0a.39.39,0,0,1-.11-.53A15,15,0,0,1,11.92,68a.38.38,0,1,1,.51.57,14.38,14.38,0,0,0-2.35,2.9A.37.37,0,0,1,9.59,71.59ZM.89,62.33a.39.39,0,0,1-.19-.46,13.58,13.58,0,0,1,.71-1.66,12.21,12.21,0,0,1,1.14-1.83.37.37,0,0,1,.53-.08.38.38,0,0,1,.08.53,12.67,12.67,0,0,0-1.07,1.72,11.34,11.34,0,0,0-.66,1.57.4.4,0,0,1-.49.24Zm19.64,9.32a.39.39,0,0,1-.2-.43,3.44,3.44,0,0,0-.24-2.5,3.66,3.66,0,0,0-.52-.72.38.38,0,0,1,0-.54.39.39,0,0,1,.54,0,3.82,3.82,0,0,1,.65.9,4.21,4.21,0,0,1,.31,3,.38.38,0,0,1-.46.27A.13.13,0,0,1,20.53,71.65Zm-6.62-4.33a.3.3,0,0,1-.17-.18.37.37,0,0,1,.18-.5,6.19,6.19,0,0,1,4-.38.38.38,0,0,1-.19.74,5.51,5.51,0,0,0-3.51.33A.35.35,0,0,1,13.91,67.32Z" style="fill:#63c0c4"/><path d="M11.83,100a.38.38,0,0,1,.27-.71,8.48,8.48,0,0,0,1.8.31.38.38,0,0,1,.36.4.4.4,0,0,1-.41.36A9.14,9.14,0,0,1,11.9,100Z" style="fill:#63c0c4"/><polygon points="188.93 105.59 202.11 98.31 208.85 96.96 213.93 97.71 188.93 105.59" style="fill:url(#_裼隯澵_胙琅韃炅_2-3)"/><polyline points="188.93 105.59 213.62 99.24 213.93 97.71" style="fill:#afd8c7"/><polygon points="214.32 103.48 214.29 103.53 213.26 107.36 188.99 105.59 214.32 103.48" style="fill:#63c0c4"/><polygon points="219.04 101.23 215.52 98.37 189.09 105.55 211.84 104.87 219.04 101.23" style="fill:url(#_裼隯澵_胙琅韃炅_2-4)"/><path d="M274.59,150.16a19.27,19.27,0,0,1-2.38-1,.36.36,0,0,0-.33.64,17.89,17.89,0,0,0,2.47,1.07c.3.11.61.21.91.3a.36.36,0,0,0,.32,0,.37.37,0,0,0-.11-.64Z" style="fill:#63c0c4"/><path d="M226.26,98.56c-1.12.14-2.29.32-3.57.56a.36.36,0,0,0-.28.42.36.36,0,0,0,.41.29c1.27-.24,2.42-.42,3.53-.56a.36.36,0,0,0,.17-.07.37.37,0,0,0,.14-.33A.36.36,0,0,0,226.26,98.56Z" style="fill:#63c0c4"/><path d="M232.24,98.83a.36.36,0,0,0-.21-.65c-1.15,0-2.37,0-3.62.15a.36.36,0,0,0,.06.71c1.23-.1,2.42-.15,3.55-.14A.34.34,0,0,0,232.24,98.83Z" style="fill:#63c0c4"/><path d="M267.66,145.83a.34.34,0,0,0-.5,0,.35.35,0,0,0,0,.5,19.49,19.49,0,0,0,2.83,2.3.36.36,0,0,0,.42,0,.3.3,0,0,0,.08-.08.36.36,0,0,0-.1-.5A19.33,19.33,0,0,1,267.66,145.83Z" style="fill:#63c0c4"/><path d="M266.18,144.78a.35.35,0,0,0,.05-.51c-.2-.24-.4-.49-.59-.75a18.25,18.25,0,0,1-1.37-2.16.36.36,0,0,0-.49-.14.36.36,0,0,0-.14.49,19.7,19.7,0,0,0,1.43,2.24c.19.26.4.52.61.78a.36.36,0,0,0,.49.06Z" style="fill:#63c0c4"/><path d="M263.16,139.92a.2.2,0,0,0,.08,0,.37.37,0,0,0,.12-.43,23.94,23.94,0,0,1-1.09-3.35.36.36,0,0,0-.44-.26.35.35,0,0,0-.26.43,25.53,25.53,0,0,0,1.13,3.46A.35.35,0,0,0,263.16,139.92Z" style="fill:#63c0c4"/><path d="M253.65,109.31c.3.37.59.74.87,1.12.42.57.83,1.16,1.2,1.75a.37.37,0,0,0,.5.12l0,0a.36.36,0,0,0,.09-.48c-.38-.61-.8-1.22-1.23-1.8-.29-.39-.59-.77-.89-1.14a.34.34,0,0,0-.51,0A.36.36,0,0,0,253.65,109.31Z" style="fill:#63c0c4"/><path d="M256.78,114a24.94,24.94,0,0,1,1.42,3.23.36.36,0,0,0,.46.22l.09,0a.36.36,0,0,0,.13-.41,26.55,26.55,0,0,0-1.47-3.33.36.36,0,0,0-.48-.15A.37.37,0,0,0,256.78,114Z" style="fill:#63c0c4"/><path d="M249.65,105.31a29.55,29.55,0,0,1,2.59,2.41.37.37,0,0,0,.48,0l0,0a.36.36,0,0,0,0-.51,28.18,28.18,0,0,0-2.66-2.46.36.36,0,0,0-.45.55Z" style="fill:#63c0c4"/><path d="M243,101.23a.38.38,0,0,0,.36,0,.36.36,0,0,0,.11-.14.36.36,0,0,0-.18-.48,28.47,28.47,0,0,0-3.41-1.25.35.35,0,0,0-.44.24.36.36,0,0,0,.24.45A27,27,0,0,1,243,101.23Z" style="fill:#63c0c4"/><path d="M260.71,128.75a.36.36,0,0,0,.17-.07.34.34,0,0,0,.14-.33l0-.45c-.12-1-.23-2.08-.37-3.12a.36.36,0,0,0-.4-.3.35.35,0,0,0-.31.4c.13,1,.25,2.07.37,3.1l.05.46A.36.36,0,0,0,260.71,128.75Z" style="fill:#63c0c4"/><path d="M248,104a.36.36,0,0,0,.42,0,.3.3,0,0,0,.08-.08.35.35,0,0,0-.08-.5,29.87,29.87,0,0,0-3.09-1.91.36.36,0,1,0-.34.63A29,29,0,0,1,248,104Z" style="fill:#63c0c4"/><path d="M260.88,130.18a.35.35,0,0,0-.31.4c.17,1.4.35,2.53.54,3.57a.36.36,0,0,0,.42.28l.15-.06a.4.4,0,0,0,.14-.36c-.2-1-.37-2.14-.54-3.52A.36.36,0,0,0,260.88,130.18Z" style="fill:#63c0c4"/><path d="M277.52,151a.36.36,0,1,0-.13.7,28.45,28.45,0,0,0,3.59.47.38.38,0,0,0,.24-.07.39.39,0,0,0,.15-.26.37.37,0,0,0-.33-.39A29.32,29.32,0,0,1,277.52,151Z" style="fill:#63c0c4"/><path d="M259.09,118.85a.37.37,0,0,0-.26.44,33.21,33.21,0,0,1,.74,3.47.37.37,0,0,0,.42.3.41.41,0,0,0,.15-.07.36.36,0,0,0,.14-.35c-.22-1.3-.46-2.46-.75-3.54A.36.36,0,0,0,259.09,118.85Z" style="fill:#63c0c4"/><path d="M235.46,98.4l-1.26-.13a.37.37,0,0,0-.38.34.35.35,0,0,0,.33.38q.61,0,1.23.12c.75.09,1.52.22,2.27.37a.33.33,0,0,0,.29-.06.34.34,0,0,0,.14-.21.37.37,0,0,0-.28-.43C237,98.62,236.24,98.49,235.46,98.4Z" style="fill:#63c0c4"/><path d="M98.05,55.07s2.14,3.25,5.42,12.56,7.46,24,7.46,24a34.15,34.15,0,0,1,5.45,6.51c1.69,3,7.43,12.81,9.81,16.3s9.48,7.14,10.16,9.37-6.93,4.28-9.79,2-.93-3.42-4.21-8.45S104.82,99,104.75,94.3C100,86.9,90.58,69.59,88.42,62.92S94.69,51.18,98.05,55.07Z" style="fill:#f6b690"/><path d="M100.35,28.86s1.2,3.76,0,5.64-3.94,2.23-3.94,2.23L95.21,28.4Z" style="fill:#222954"/><path d="M75,36.08c-.18,9.69-8.69,12.44-12.84,24.27S64.93,89,79.58,88.4s15.52-7.67,16.94-18C98.73,54.28,93.73,51.55,93.24,43c-.51-9.05-12.34-9.1-12.34-9.1Z" style="fill:#0a3c5f"/><path d="M81.61,40.72a93.87,93.87,0,0,1,0,10.83,58.66,58.66,0,0,0,7.61-.34l-.56-8.79Z" style="fill:#f4a086"/><path d="M97,27.9s1.91,9,0,15.35-4.58,6.16-6.21,6a11,11,0,0,1-8.28-7.91c-3.46-2.46-5.14-4.84-4.2-9.4,1.21-5.88,6.16-8.38,11.61-8C94,24.24,97,27.9,97,27.9Z" style="fill:#f6b690"/><path d="M123.19,146.61s-1.52,18-39,20.07S54.3,143.62,54.3,143.62Z" style="fill:#018a89"/><path d="M86.11,50.8c-12,.54-16.83,4.88-16.83,4.88S66,60.54,69.1,68.38c1.39,3.51,9.84,18.89,4.68,25.1H97.1a114.06,114.06,0,0,1,1.22-21.79c1.78-10,1.92-16.4-2.5-18.57A24.72,24.72,0,0,0,86.11,50.8Z" style="fill:#20afab"/><path d="M97.1,93.48c2.25,20.18,14.49,65.5,14.49,65.5s-1,24.36,4.45,60.55c-1.85,5.66-5,2.61-5,2.61s-2.07-.52-2.23-3.44c-1-22.24-14.34-48-11.09-56.16-2.48-7.54-34.46-47-21.43-69.06Z" style="fill:#f6b690"/><path d="M94.13,93.48s.26,28.22-14.75,70.17c.2,18.2-11.53,43.55-10.24,54.08-4.07-.59-4.31,6.05-4.07-.59.79-22.07-4.58-34.43.79-54.6-1.49-25.63-6.76-49,7.92-69.06Z" style="fill:#f6b690"/><path d="M97.1,93.48s6.14,44.35,26.09,53.13c-7.15,25.45-47.47,1.16-59.75.6-10.54-.48-8.93,7.07-8.93,7.07a13.7,13.7,0,0,1-.86-3.38A54.07,54.07,0,0,1,55,130.3c3.37-12.4,18.77-36.82,18.77-36.82Z" style="fill:#20afab"/><path d="M115.77,217.67c1.38-.34,2.26,4.47,9.35,5.29a4.69,4.69,0,0,1,4.12,4.25H105.61l2.57-10.05s.9-.32,1.19-.08,2.2,2.72,3.93,2.85S115.77,217.67,115.77,217.67Z" style="fill:#d1eaed"/><path d="M128.92,225.92a4.89,4.89,0,0,1,.32,1.29H105.61l.33-1.29Z" style="fill:#b7dddf"/><path d="M68.91,215.71c-.28-.92-3.43-1.39-3.8,0-1.17,4.4-3.72,5-4,11.5H73.71C73.81,220.85,70.73,221.81,68.91,215.71Z" style="fill:#d1eaed"/><path d="M73.68,225.78c0,.44,0,.91,0,1.43H61.16c0-.51.05-1,.09-1.43Z" style="fill:#b7dddf"/><path d="M68.81,56c-5.32,4.26-19,17.71-22.66,27.11A1.85,1.85,0,0,0,46.43,85c7.35,9.31,16.9,11,25,15.56,1.79,1,4.49,3.58,7.94,1.69,2.13-1.16,6.09-5.18,4.71-9.41-3.54-.89-6,1.68-7.89,2.8a5.13,5.13,0,0,1-3.23,1c-5.5-1.38-15.5-13-15.5-13S68.89,77.1,74.2,69.8C80,61.87,74.85,51.21,68.81,56Z" style="fill:#f6b690"/><path d="M91.38,27.82c1.78,2.58,10.88.37,9,6.68,3.17-3.88.94-10.83-5-13.23s-12.3.16-12.91,4.3c-3.64-1.68-6.23-.2-7.14,2.26-1,2.65.35,9.25-1,15.11s6.33-.16,6.33-.16L82,39.2S91.2,36.9,91.38,27.82Z" style="fill:#0a3c5f"/><path d="M83.18,39S83,36.4,81.83,36.43,79.88,37.56,80,39s1.42,3.1,2.54,2.93C83.3,41.83,83.18,39,83.18,39Z" style="fill:#f6b690"/><path d="M127,116.53s3.81.11,4.55.74,1.43,5.24,1.43,5.24Z" style="fill:#f6b690"/><path d="M141.48,38.37a31.42,31.42,0,0,0-10.68,3.07C125.11,44.2,108,56,102.84,62.08,95.26,71.08,115,92.77,115,92.77l5.67-7.33S111.42,72.08,114.1,68s18-12.94,18-12.94C139.14,44.2,141.48,38.37,141.48,38.37Z" style="fill:#d1eaed"/><polygon points="132.32 212.66 131.26 221.4 127.95 225.51 118.93 221.6 119.66 220.21 121.75 192.31 132.32 212.66" style="fill:#f6b690"/><path d="M131.77,220.36l1.15,10.32H96.56s-.47-3.36,2.07-5.16,6.48-.3,9.76-1.83,7.18-6.7,11.14-6.2,2,5.87,5.66,6c3.07.11,3-2,4.68-2.87a2.9,2.9,0,0,1,1.69-.3Z" style="fill:#0a3c5f"/><polygon points="165.02 212.66 166.66 226.03 169.4 225.51 177.35 221.6 176.62 220.21 174.54 192.31 165.02 212.66" style="fill:#f6b690"/><path d="M174.88,45.1s-1.34-4.05-13.77-5.55c-10.16-1-11.23-.82-11.23-.82s-7-.61-8.8-.24c-2.31.47-7.8,4-10.29,15.9s-4.4,35.94-4.4,35.94,17,4.89,41.61,1.61c-.25-6.51.2-11.43,1.31-19.63C170.91,60.63,177.64,51.48,174.88,45.1Z" style="fill:#b7dddf"/><path d="M119,86.13a15.59,15.59,0,0,0,2.48,2.14c1.25.79,5.82.27,5.82.27L137,92.25c0,2.13-4.49,3.87-10.61,2.68a74,74,0,0,1-8.79-2.19l-7.46-7.61Z" style="fill:#f6b690"/><polygon points="126.39 90.33 124.53 94.55 121.55 157.28 119.16 213.35 134.67 213.35 144.02 155.2 156.02 97.66 150.55 91.79 126.39 90.33" style="fill:#018a89"/><path d="M141.48,91.79s2.54,19.66,6.6,50c3.29,24.47,8.64,52.2,14.46,72.12H179S171.21,100.33,170.71,97a7.93,7.93,0,0,0-2.71-5Z" style="fill:#20afab"/><path d="M132.64,228.11l.28,2.57H96.56a6.8,6.8,0,0,1,.25-2.57Z" style="fill:#222954"/><path d="M189.87,230.68H164.63l1-10.25h1.06s1,4.07,2.84,4.07,3-5.31,6.27-5.35,1.78,2.75,5.77,4.78S189.87,225.49,189.87,230.68Z" style="fill:#0a3c5f"/><path d="M189.15,228a4.52,4.52,0,0,1,.72,2.68H164.63l.29-2.68Z" style="fill:#222954"/><path d="M181.87,225.33c3.18-.08,5,.55,6,1.17a4.47,4.47,0,0,1,2,4.18H175.18S175.75,225.48,181.87,225.33Z" style="fill:#222954"/><path d="M162,26.08a126,126,0,0,0-.69,14.32c-2.79,2.53-9,2.09-11.88-.7a47.67,47.67,0,0,0,.35-11.88s9.34-3.13,9.54-3.13S162,26.08,162,26.08Z" style="fill:#f4a086"/><path d="M160.39,20.12s-.15,8.45-.74,9.89-7.06,7.56-12.63,7.26S142.25,20.52,143,17c6.41-1.64,15.85-1.69,15.85-1.69Z" style="fill:#f6b690"/><path d="M153.47,16.18S146,22.31,141,17.67s.47-8.22.47-8.22S140.05,4.72,144,4.12a5,5,0,0,1,5.43,2.45s.9-7.19,6.13-6.53,4.8,5.07,4.8,5.07,6-4.5,9-.26-.73,8.45-.73,8.45,2.85.79,2.78,4.94-4.64,3.57-4.64,3.57,3.22,3.44.4,5.62-5.93-1.77-5.93-1.77a5.09,5.09,0,0,1-4.18-2,3,3,0,0,1,.13-3.83,4.08,4.08,0,0,1-3.31-1.16A2,2,0,0,1,153.47,16.18Z" style="fill:#222954"/><path d="M160.48,22.27c.18-.44,1.22-1.78,2.45-1.05s1.2,1.86.76,3.19-2,3.38-3.09,3S159.53,24.64,160.48,22.27Z" style="fill:#f6b690"/><polygon points="119.46 40.8 119.66 50.29 126.39 50.49 126 41.27 119.46 40.8" style="fill:#f4a086"/><path d="M121.15,36.82s-1.12,8.55,3.73,11.36,7.93,1.22,8.8-.22,2.78-5,2.48-6.32-.84-2.28-.69-2.81,2-4.39,0-6.86-10.06-3.85-12.25-1.71S121.15,36.82,121.15,36.82Z" style="fill:#f6b690"/><path d="M133.43,110l-2.32,5.16a19,19,0,0,0,.11,2c.06,0,3,.55,3,.55l-.25-1,4.71-8Z" style="fill:#f6b690"/><path d="M133.28,75.5s.45-14.78-.19-18.55-4-7-10-7.22-9.27,6.54-10.42,10.9S111,76.2,111,76.2Z" style="fill:#fcc40c"/><path d="M120.09,107.83l-2.08,6a19,19,0,0,0,.11,2c.06,0,3,.55,3,.55l-.26-1,4.71-8Z" style="fill:#f6b690"/><path d="M148.16,50.66l3.09,5.06-13.19,7-13.6-.11s-4.31-2.7-3.32-7.53,6.73-4.37,6.73-4.37l8.94,4.44Z" style="fill:#fdd247"/><path d="M111,76.2s-1.42,5.92,1.5,10.43,9.7,9.27,9.7,9.27a117.47,117.47,0,0,0-3.48,14.52,35.14,35.14,0,0,0,5.18,2s9.31-16.53,9.49-19.33-10.21-15-10.21-15l-3.46-2.2Z" style="fill:#222954"/><path d="M147.36,52l2.7-1.19A7.3,7.3,0,0,0,153,46.34c1.45.83.13,2.49.7,2.62s5.13-2.47,5.76-2-1.1,5.77-2.63,6.45-5.4.55-5.4.55l-3,1.53Z" style="fill:#f6b690"/><path d="M114.81,76.08s-2.19,13,16.47,14.89c7.39.87,8.12.63,8.12.63s-3.14,4.6-7.08,19.08l4.47,2.92s15-18.3,13.49-25.7-17-12.4-17-12.4Z" style="fill:#0a3c5f"/><path d="M140.34,123.78a4.94,4.94,0,0,0,.23-2.19c-.21-.83-5.76-6.39-5.76-6.39s-1.88.76-2.39.57-.8-1.8-.8-1.8l-.68.28-2.34,3.4Z" style="fill:#222954"/><path d="M126,121.46a4.91,4.91,0,0,0,.23-2.18c-.21-.84-4.48-5.32-4.48-5.32s-1.88.76-2.39.57-.89-1.89-.89-1.89l-.74.34-2.18,3.43Z" style="fill:#222954"/><path d="M114.74,28.27s-1.43-4.15,1.4-5.1,3.62,1.34,3.62,1.34.69-3.44,3.81-3.82c2.69-.33,3,3.12,3,3.12s3.42-2.38,5.66-.94a2.27,2.27,0,0,1,.67,3.44s4.54-.64,4.7,4.07c.15,4.86-4.6,5.31-7.35,3,0,2.34-4.68,3.68-5.91.75,1.23,3-1.43,3.51-1.43,3.51s1.66,2.82-.87,3.51a2.93,2.93,0,0,1-4.13,2.32c-2.09-.76-1.64-3.25-1.64-3.25s-3.4,1.49-4.52-1.45a3.39,3.39,0,0,1,1-3.57s-3.12-1.89-2.3-5S114.74,28.27,114.74,28.27Z" style="fill:#222954"/><ellipse cx="121.49" cy="40.92" rx="1.73" ry="2.08" style="fill:#f6b690"/><path d="M142.44,82.74l-6.15.31-4.92-4s-9-1.54-9.9-.71,0,8.36,1.66,8.67,8.16,1.15,8.16,1.15l4.21-1A84.73,84.73,0,0,0,149,88.53C157.7,88.81,142.44,82.74,142.44,82.74Z" style="fill:#f6b690"/><path d="M128.91,76.2l3.6,3.87-2.26.66a12.13,12.13,0,0,1-2.11-3A1.1,1.1,0,0,1,128.91,76.2Z" style="fill:#f6b690"/><path d="M173.5,43.48c-7.79-.64-10.17,18.76-8.35,32-9.35,3.24-25.23,6.15-25.23,6.15l-.2,8s29.52,2.14,36.11-4.87S183.19,44.28,173.5,43.48Z" style="fill:#d1eaed"/><path d="M119,86.13a15.59,15.59,0,0,0,2.48,2.14c1.25.79,5.82.27,5.82.27L137,92.25c0,2.13-4.49,3.87-10.61,2.68a74,74,0,0,1-8.79-2.19l-7.46-7.61Z" style="fill:#f6b690"/><path d="M115.48,78.29a74.16,74.16,0,0,1-5-8.28,45.7,45.7,0,0,1-4.09-11.45,35.39,35.39,0,0,0-3.53,3.52C95.26,71.08,115,92.77,115,92.77l5.67-7.33s-.66-1-1.59-2.45A28.55,28.55,0,0,1,115.48,78.29Z" style="fill:#d1eaed"/><path d="M25.79,218.68l2.79,13.13,4.31-.34s-.37-13.79-.52-13.79S25.79,218.68,25.79,218.68Z" style="fill:#f6b690"/><path d="M27.21,233.12H39.84l-.16-1.3a1.12,1.12,0,0,0-.94-1l-2.47-.39L33,228.19a7,7,0,0,1-2.9,1.13,8.85,8.85,0,0,1-2.35-.27Z" style="fill:#0a3c5f"/><polygon points="27.36 232.04 27.21 233.12 39.84 233.12 39.71 232.04 27.36 232.04" style="fill:#222954"/><path d="M7.12,223l-.5,8.85,4.31-.34s2.06-12.62,1.9-12.62S7.12,223,7.12,223Z" style="fill:#f6b690"/><path d="M5.26,233.12H17.89l-.16-1.3a1.15,1.15,0,0,0-.95-1l-2.47-.39-2.74-2.26a11,11,0,0,1-3.4,1.13,8.73,8.73,0,0,1-2.34-.27Z" style="fill:#0a3c5f"/><polygon points="5.41 232.04 5.26 233.12 17.89 233.12 17.75 232.04 5.41 232.04" style="fill:#222954"/><path d="M32.66,174.92s.4,11.4,1,26.09l-.44,25.56H26.85s-4.9-18.19-4.77-25.11c-3.21-9.56-12.89-17.2-7.18-30.08C21,172.68,32.66,174.92,32.66,174.92Z" style="fill:#018a89"/><path d="M26.33,173.65l-7.49,28.08-6.5,25.19H6.28S5.83,208,7.77,201c.87-10-2.43-20.06,1.75-30.69Z" style="fill:#20afab"/><polygon points="25.05 130.69 23.32 141.62 31.14 143 32.1 137.01 26.84 130.35 25.05 130.69" style="fill:#f4a086"/><path d="M25.88,131.05a18.61,18.61,0,0,0,1,4.78c.84,1.95,2.51,4.85,7.51,5.31s6.45-3.83,6.58-5.79a17,17,0,0,0-.74-4.76,33.2,33.2,0,0,0,2-6c.37-2.32-14.52-1.73-14.52-1.73Z" style="fill:#f6b690"/><path d="M32.81,143.6c5,3.15,4.43,7.17,8.59,12.34a78.24,78.24,0,0,0,12.09,5.64l-2,6.21s-12.17-3.25-15.9-5.64L23.32,150.37S27.78,140.46,32.81,143.6Z" style="fill:#d1eaed"/><path d="M33.67,123.52,44,125.58s3.92-10.17-6.42-13.24-11.28,4.58-11.28,4.58a7,7,0,0,0-6.7,5.33c-1.47,5.46,1.28,9.22,5.32,10.43l.29-3.74,4.15.83.51-3.54A3.24,3.24,0,0,1,33.67,123.52Z" style="fill:#222954"/><path d="M53,161.76s7.18,1.74,8.16,2.12a12.25,12.25,0,0,1-.53,1.7s-1.34,2.39-3,2.48-3.72-1.79-3.72-1.79l-3.8-.61Z" style="fill:#f6b690"/><path d="M27.45,141.83c5.64.92,7.42,2.88,8.55,6.22s.5,15.43-3.33,26.87L9.52,170.3s3.72-17.07,5.28-21S18.12,140.3,27.45,141.83Z" style="fill:#b7dddf"/><path d="M65.42,178.63a4.23,4.23,0,0,0-2.36-1,.35.35,0,0,1-.24-.57l6.65-8.49L61.05,162a.35.35,0,0,1,.08-.6,4.33,4.33,0,1,0-5-6.72,4.21,4.21,0,0,0-.89,2.13.35.35,0,0,1-.57.23l-8.42-6.61-6.94,8.85a.35.35,0,0,0,.29.57,4.29,4.29,0,0,1,3.09,1,4.33,4.33,0,0,1-5.47,6.71,4.3,4.3,0,0,1-1.59-2.66.35.35,0,0,0-.62-.15l-6.94,8.85,8.61,6.75a.35.35,0,0,0,.57-.27,4.33,4.33,0,1,1,5.53,4.33.35.35,0,0,0-.13.62l8.61,6.75,6.66-8.5a.35.35,0,0,1,.61.1,4.32,4.32,0,0,0,7.62,1.09A4.37,4.37,0,0,0,65.42,178.63Z" style="fill:#0a3c5f"/><path d="M35,174.87l1.44,1.37s.81,3,1.45,3.47,6.84.75,7.36-.49-3-4.5-6.12-5.72A26.6,26.6,0,0,1,34.44,169Z" style="fill:#f6b690"/><path d="M17.93,143.87c2.92-1.94,10,5.15,10.68,16.28,4.46,5.62,9.72,12.2,9.72,12.2l-3.56,3.78s-11.32-9.94-12.31-11.38S12.47,147.51,17.93,143.87Z" style="fill:#d1eaed"/><path d="M27.7,130.38c.34-1.11.22-2.92-.95-3.33s-1.88,1.14-2,2.4A2.32,2.32,0,0,0,26,131.92C26.72,132.12,27.3,131.71,27.7,130.38Z" style="fill:#f6b690"/><path d="M63,218.48A3.38,3.38,0,0,0,61,219a.27.27,0,0,1-.42-.23v-8.48H52.19a.28.28,0,0,1-.24-.42,3.31,3.31,0,0,0,.46-2.12,3.4,3.4,0,0,0-6.78.38,3.32,3.32,0,0,0,.48,1.74.28.28,0,0,1-.24.42H37.46v8.83a.28.28,0,0,0,.46.21,3.34,3.34,0,0,1,2.4-.87,3.4,3.4,0,0,1-.13,6.8,3.37,3.37,0,0,1-2.27-.87.28.28,0,0,0-.46.21v8.83h8.59a.28.28,0,0,0,.22-.45,3.4,3.4,0,1,1,5.52,0,.27.27,0,0,0,.22.44H60.6V225a.28.28,0,0,1,.43-.23,3.4,3.4,0,0,0,5.23-3A3.42,3.42,0,0,0,63,218.48Z" style="fill:#fdac47"/><rect x="78.45" y="224.46" width="15.63" height="10.67" style="fill:#60c2c5"/><polygon points="111.18 202.05 112.8 219.31 116.24 218.89 116.53 201.73 111.18 202.05" style="fill:#f6b690"/><path d="M113.32,185.23c3.14.27,5.33,6.16,3.68,18.68-2.34-.22-7.14-.38-7.14-.38s-.33-11.8.08-14.51C110.57,184.91,113.32,185.23,113.32,185.23Z" style="fill:#018a89"/><path d="M142.8,194.87s2.67.9,4,6.41-.94,9.69-4.24,12.64S139,207.1,139,207.1l1.59-10.89Z" style="fill:#fdac47"/><path d="M100.92,200.05l-8.11,19.51a10.62,10.62,0,0,1-4.88,3.29c-3.24,1.06-3.75,3.44-2,4.63s6.31,1.87,8-1.54,1.61-3.87,1.61-3.87l11.66-19.63Z" style="fill:#f6b690"/><path d="M86.21,176.71a8.62,8.62,0,0,1,2.18,3.77c.42,2-.74,9.74-.74,9.74s6,2.94,18.26.3a8.66,8.66,0,0,0,4.92-3.28l-.67-12-16.23-5.89Z" style="fill:#222954"/><path d="M110.38,226.81c1.44,3.6,8.53,3.43,15.78,1.66s21.34-5.12,21.34-5.12l-1.09-4.7-28,3S108.86,223,110.38,226.81Z" style="fill:#f4a086"/><path d="M143.22,218.23l.12.75s2.68.63,2.88,2.21-3.29,3.25-3.29,3.25l2.35,1.29.16,1.35-.86,1.14s-2.84-.4-2.84,2.86h6.6l1.9-2.48-1.51-11.95Z" style="fill:#018a89"/><path d="M150.24,228.6l-1.51-11.95-1.17.34,1.26,11-1.32,1.74H142a3.87,3.87,0,0,0-.23,1.39h6.6Z" style="fill:#018a89"/><path d="M88,174.65c-.36,1.58,1.28,6,2.57,6.63s1.9.55,2.74.94,3.51,5.6,6.28,6.28,7-1.42,8-5.61-6-9.17-6-9.17Z" style="fill:#f6b690"/><polygon points="102.56 180.13 108.61 185.69 113.83 181.17 109.45 176.71 102.56 180.13" style="fill:#f4a086"/><path d="M91.81,176.23s-4.16,2.51-5.6.48-1.71-10.33,5.92-13.62,12.62-.25,15.23,1.87,4.8,9.49,3.36,13a9,9,0,0,1-6.4,3.74,20.81,20.81,0,0,1-3.53-1.56l-1.74-.87S97.12,182,91.81,176.23Z" style="fill:#0a3c5f"/><path d="M97.41,177.07c-.52.74,1.71,3.6,3.38,3.54s.71-3.25-.9-4.15A1.76,1.76,0,0,0,97.41,177.07Z" style="fill:#f6b690"/><path d="M108.61,187.11a6.73,6.73,0,0,1,2.57-7.08c3.84-3,7.16,2.06,7.16,2.06Z" style="fill:#60c2c5"/><path d="M110.83,182.77c-4.06,3.27-3.09,6.6-1.83,9.78s9,10.59,15.55,12.94c8.43-3.67,18.25-10.62,18.25-10.62S121.61,174.09,110.83,182.77Z" style="fill:#20afab"/><path d="M112.22,186.05c3.48,1.83,3.44,8.11-3.8,18.25-2.58-1.38-8-4-8-4s4.67-10.52,6.31-12.68C109.22,184.37,112.22,186.05,112.22,186.05Z" style="fill:#60c2c5"/><path d="M141.4,195.84s-21.78,9.46-29.25,20.34c5,4.54,11.59,10.18,11.59,10.18s18-9.28,20-14.1S146,198.77,141.4,195.84Z" style="fill:#fdd247"/><path d="M112.15,216.18s-8.53,9.47-5.63,14.14,19.41-5.48,19.41-5.48C123.23,222.07,112.15,216.18,112.15,216.18Z" style="fill:#f6b690"/><path d="M106.42,230.14c1.44,3.6,8.53,3.43,15.78,1.66s21.34-5.12,21.34-5.12l-1.09-4.7-28,3S104.9,226.35,106.42,230.14Z" style="fill:#f6b690"/><path d="M139.26,221.56l.12.75s2.68.63,2.88,2.21-3.29,3.25-3.29,3.25l2.35,1.29.16,1.35-.86,1.13s-2.84-.39-2.84,2.86h6.6l1.9-2.47-1.51-12Z" style="fill:#20afab"/><path d="M146.28,231.93l-1.51-12-1.17.34,1.26,11L143.54,233H138a3.87,3.87,0,0,0-.23,1.39h6.6Z" style="fill:#60c2c5"/><path d="M232.83,178.52l.79,1.64,3,3.13s.37,5.46-1.72,5.83-3.39-7.09-3.39-7.09l-1.13-2.56Z" style="fill:#f6b690"/><path d="M213.21,140.8a13.38,13.38,0,0,0,0,7.85c2.14,6.76,10.8,7.89,10,18.63s-8.92,13.09-19,12.6-3.88-9.68-1.53-15.76-2.19-6.31-2.88-13.32C199.32,146.58,213.21,140.8,213.21,140.8Z" style="fill:#222954"/><polygon points="207.36 148.47 207.88 160.27 202.25 159.12 201.66 151.75 207.36 148.47" style="fill:#f4a086"/><path d="M206.39,143.41c.5,3.26.3,8.18-1.56,10s-4,3.68-7.24,3.3-4.27-4.12-4.06-6.21.79-2.82.71-3.94-1.51-2.48-.74-4.22S205.26,136.2,206.39,143.41Z" style="fill:#f6b690"/><path d="M208.66,137.81a4.19,4.19,0,0,1,4.55,3c1.13,3.58-1.38,7.44-4.73,6.68a19.28,19.28,0,0,0-2.27-.8s-1.36,2.28-3,.62-.77-4.27-.77-4.27-1.23,1.37-3.22-.18c-2.56,2.17-11.28.28-11.35-5.37S195,130,199,134.82C202.07,131.37,208.84,133.59,208.66,137.81Z" style="fill:#222954"/><path d="M224,172.08s-7.6-1.85-10.67-2.83-5.8-12.24-1.91-11.53,14.21,7.44,14.21,7.44l8,13.56-3.45,2Z" style="fill:#afd8c7"/><path d="M200.58,157.72h-2.42s-8.21-1.39-12-4.08c-2.49-4.85-5.11-10.58-5.11-10.58L175.94,145l6.78,15.65s7.57,7.12,15.31,7.94C201.88,161.64,200.58,157.72,200.58,157.72Z" style="fill:#afd8c7"/><path d="M200.5,180.42s8.66,21.75,15.17,26.83c9.88.24,24.27.72,24.27.72a7.83,7.83,0,0,1,3.54,3.61c1.37-.13.62-1.84.62-1.84l-3-5.69a14.34,14.34,0,0,1-2.11.89c-7-1.23-14.69-5.12-17.63-4.06-3.08-6-3.23-18.89-6.3-20.46C202.81,180.36,200.5,180.42,200.5,180.42Z" style="fill:#f6b690"/><path d="M195.81,180.39l4.69,0,8.66,0c1.33,12.27-2.46,23.39-2.66,27.55,1.63,1.67.61,17.48,1.12,19.19a5.77,5.77,0,0,0,.85,2l-5.76,3.48-2.21-.2v-1.09l2.14-.58,1.91-2.94s-2-13.16-4.56-19.22C197.16,198.46,196.15,185.54,195.81,180.39Z" style="fill:#f6b690"/><path d="M239.26,204.2l.38.89s1.77.48,2.05,1.06-1.66,2-1.66,2l1.19,1.05s1.61-.59,2.16.47-.74,1.74-.74,1.74a6.75,6.75,0,0,0,1.23,1.09c.62.39,3-.81,3-.81l-3.45-8.85Z" style="fill:#60c2c5"/><path d="M243.38,202.86l3.45,8.85s-.39.2-.89.41l-3.58-8.93Z" style="fill:#11858a"/><path d="M208.08,227l-.74.15s.25,1.56-.73,2.2-2.88-.65-2.88-.65l-.62.83s1,1.17.06,1.91-1.53-.61-1.53-.61a3.36,3.36,0,0,1-1.2.34c-2,0-1.31,3.34-1.31,3.34h5.6l5.64-4Z" style="fill:#60c2c5"/><path d="M199,233.62h5.5l5.23-4.12.62.94-5.64,4h-5.6A6.35,6.35,0,0,1,199,233.62Z" style="fill:#11858a"/><path d="M180.47,143.74l-.61-1.71,1.69-4.1s-.61-.71-1.1,0-.52,1.18-.91,1.12.09-5.92-1.33-6.33-3.91,4.58-3.93,5.79,2.24,4.42,2.24,4.42l1.08,2.71Z" style="fill:#f6b690"/><path d="M207.77,144.61c1.52.41,2,2.94.53,4.25s-2.24-.08-2.45-1C205.59,146.68,205.57,144,207.77,144.61Z" style="fill:#f6b690"/><path d="M211.46,157.72s-8.08-.58-10.88,0-6.3,10.71-5,22.67h20.18a93.91,93.91,0,0,1-.85-13.87C214.46,161,214.66,158.34,211.46,157.72Z" style="fill:#afd8c7"/><path d="M215.75,180.39s6.65,13.9,7.48,17.29c-5.22,8.38-17.59,11.24-26.86,10-5-18.21-.8-27.34-.8-27.34Z" style="fill:#01888b"/></g></g></svg>