<svg xmlns="http://www.w3.org/2000/svg" xmlns:xlink="http://www.w3.org/1999/xlink" viewBox="0 0 294.49 249.44"><defs><linearGradient id="_裼隯澵_胙琅韃炅_2" x1="2869.73" y1="201.4" x2="2889.49" y2="201.4" gradientTransform="matrix(-0.99, -0.12, -0.12, 0.99, 2915.28, 229.34)" gradientUnits="userSpaceOnUse"><stop offset="0" stop-color="#f1f8f7"/><stop offset="1" stop-color="#bfe3ee"/></linearGradient><linearGradient id="_裼隯澵_胙琅韃炅_2-2" x1="2869.73" y1="207.37" x2="2885.66" y2="207.37" xlink:href="#_裼隯澵_胙琅韃炅_2"/><linearGradient id="_裼隯澵_胙琅韃炅_2-3" x1="3991.32" y1="762.28" x2="4015.75" y2="762.28" gradientTransform="matrix(-0.93, -0.38, -0.38, 0.93, 4229.15, 808.84)" xlink:href="#_裼隯澵_胙琅韃炅_2"/><linearGradient id="_裼隯澵_胙琅韃炅_2-4" x1="3986.33" y1="762.95" x2="4015.59" y2="762.95" gradientTransform="matrix(-0.93, -0.38, -0.38, 0.93, 4229.15, 808.84)" xlink:href="#_裼隯澵_胙琅韃炅_2"/><clipPath id="clip-path"><circle cx="162.55" cy="108.55" r="84.07" transform="translate(-29.15 146.73) rotate(-45)" style="fill:none"/></clipPath><linearGradient id="_裼隯澵_胙琅韃炅_3" x1="95.62" y1="195.59" x2="96.46" y2="195.59" gradientUnits="userSpaceOnUse"><stop offset="0" stop-color="#dfefea"/><stop offset="1" stop-color="#bfe3ee"/></linearGradient></defs><g id="レイヤー_2" data-name="レイヤー 2"><g id="レイヤー_1-2" data-name="レイヤー 1"><polygon points="223.13 166.72 228.04 179.57 231.14 177.27 224.22 165.59 223.13 166.72" style="fill:#f39f85"/><path d="M223.73,162.84a2,2,0,0,1,.45,1.36l.22,1.85-.26.29-.87.77c0-.38.08,0,.08,0l-1.4-2.44s-1.69-1.08.44-2.68a.62.62,0,0,1,.7-.05A1.58,1.58,0,0,1,223.73,162.84Z" style="fill:#f39f85"/><path d="M234,188.86a81,81,0,0,1-5.94-9.29l2.67-3,3.27,3.81Z" style="fill:#00666b"/><path d="M293.86,146.42c3.27,14.23-30.28,16.05-44.11,16.21a54.61,54.61,0,0,1-11.41-1.08c-11.69-2.38-37.28-8.6-33.69-17.07,4.63-10.92,18.54-3.31,18.54-3.31s-1.75-8.24,21.93-13.69,23.58,12.7,23.58,12.7S289.74,128.54,293.86,146.42Z" style="fill:#fff"/><path d="M41.1,53.93H187.27a11.06,11.06,0,0,0,11.1-12.31,10.74,10.74,0,0,0-3.94-6.92c-5-4.26-10.9-3.83-15.2-2.58A4.93,4.93,0,0,1,173,28.36c-1-4.75-4.09-11-13.21-14.72-8.87-3.6-14.49,1.89-17.73,7.53a2.52,2.52,0,0,1-4.56-.46C134.71,11.8,124.91,0,92.7,0,51.7,0,56.3,21.82,60,30.85a2.08,2.08,0,0,1-2.37,2.82c-6.31-1.35-18.05-3.1-23.31,1l-.54.45C26.34,41.65,31.25,53.93,41.1,53.93Z" style="fill:#fff"/><polygon points="23.26 92.97 20.54 97.04 25.29 96.53 41.71 93.42 23.26 92.97" style="fill:#afd8c7"/><polygon points="20.54 97.04 28.46 97.48 26.65 96.28 20.54 97.04" style="fill:#63c0c4"/><polygon points="23.26 92.97 22.38 88.59 41.71 93.42 23.26 92.97" style="fill:url(#_裼隯澵_胙琅韃炅_2)"/><polygon points="41.71 93.42 25.29 96.53 26.93 102.9 41.71 93.42" style="fill:url(#_裼隯澵_胙琅韃炅_2-2)"/><path d="M21.76,101.61a.47.47,0,0,1-.1-.1.37.37,0,0,1,.1-.52,10,10,0,0,1,1.69-.94.39.39,0,0,1,.49.19.38.38,0,0,1-.19.49,9.69,9.69,0,0,0-1.57.88A.4.4,0,0,1,21.76,101.61Z" style="fill:#63c0c4"/><path d="M22.24,142.77h0a11.41,11.41,0,0,1-2.61-2.86.38.38,0,0,1,.11-.52.37.37,0,0,1,.52.12,10.78,10.78,0,0,0,2.43,2.67.36.36,0,0,1,.07.52A.37.37,0,0,1,22.24,142.77ZM18.67,138a.36.36,0,0,1-.14-.16,14.11,14.11,0,0,1-1-3.72.37.37,0,1,1,.73-.1,13.46,13.46,0,0,0,.95,3.53.37.37,0,0,1-.2.49A.36.36,0,0,1,18.67,138Zm-1.06-5.87a.37.37,0,0,1-.16-.33v-.18a17.72,17.72,0,0,1,.61-3.6.37.37,0,0,1,.46-.26.37.37,0,0,1,.26.46,17,17,0,0,0-.59,3.45v.17a.37.37,0,0,1-.39.35A.33.33,0,0,1,17.61,132.14Zm1.33-5.84a.38.38,0,0,1-.14-.45,28.17,28.17,0,0,1,1.66-3.43.37.37,0,0,1,.51-.14.38.38,0,0,1,.14.51,26.63,26.63,0,0,0-1.61,3.34.38.38,0,0,1-.49.21ZM21.75,121a.37.37,0,0,1-.11-.51l.15-.23a12.68,12.68,0,0,1-1.51-1.1.38.38,0,0,1,0-.52.37.37,0,0,1,.53,0,10.78,10.78,0,0,0,1.44,1c.48-.72,1-1.46,1.61-2.25a.37.37,0,1,1,.59.44c-.57.77-1.08,1.49-1.55,2.18a10.39,10.39,0,0,0,1,.47.36.36,0,0,1,.2.48.38.38,0,0,1-.48.21,11,11,0,0,1-1.15-.54,2.33,2.33,0,0,0-.17.26.38.38,0,0,1-.52.11Zm-3-3.44a.24.24,0,0,1-.09-.08,9.92,9.92,0,0,1-1.23-2.07,11.12,11.12,0,0,1-.51-1.4.37.37,0,0,1,.72-.2,8.78,8.78,0,0,0,.47,1.3A9.1,9.1,0,0,0,19.27,117a.37.37,0,0,1-.5.54Zm6.91,4.23a.37.37,0,0,1-.16-.39.38.38,0,0,1,.44-.29,10.8,10.8,0,0,0,3.62.15.36.36,0,0,1,.41.32.37.37,0,0,1-.32.42,11.7,11.7,0,0,1-3.86-.16ZM16.73,112a.42.42,0,0,1-.17-.29,12,12,0,0,1,.42-3.84.38.38,0,0,1,.46-.27.38.38,0,0,1,.26.46,11.09,11.09,0,0,0-.39,3.6.38.38,0,0,1-.35.4A.44.44,0,0,1,16.73,112Zm14.87,9.4a.42.42,0,0,1-.14-.18.38.38,0,0,1,.22-.48,9.28,9.28,0,0,0,.86-.37,7.21,7.21,0,0,0,2.1-1.58.37.37,0,0,1,.53,0,.38.38,0,0,1,0,.53A8.06,8.06,0,0,1,32.87,121a9.64,9.64,0,0,1-.93.4A.4.4,0,0,1,31.6,121.39Zm-6.3-5.26,0,0a.38.38,0,0,1-.05-.53A14.52,14.52,0,0,1,28,112.9a.39.39,0,0,1,.52.09.38.38,0,0,1-.09.52,13.69,13.69,0,0,0-2.62,2.55A.36.36,0,0,1,25.3,116.13Zm-7.38-10a.37.37,0,0,1-.13-.47,12.15,12.15,0,0,1,.88-1.53A11.72,11.72,0,0,1,20,102.5a.37.37,0,0,1,.54.51,12.39,12.39,0,0,0-1.24,1.55,12.74,12.74,0,0,0-.82,1.44.36.36,0,0,1-.49.18Zm18,11.29a.37.37,0,0,1-.14-.44,3.4,3.4,0,0,0,0-2.45,3.17,3.17,0,0,0-.43-.76.38.38,0,0,1,.07-.52.36.36,0,0,1,.52.07,3.79,3.79,0,0,1,.53.94,4.09,4.09,0,0,1,0,3,.37.37,0,0,1-.48.22Zm-5.93-5a.36.36,0,0,1-.15-.19.38.38,0,0,1,.24-.47,6,6,0,0,1,3.94.09.38.38,0,0,1,.22.48.37.37,0,0,1-.48.22,5.3,5.3,0,0,0-3.45-.08A.33.33,0,0,1,30,112.48Z" style="fill:#63c0c4"/><path d="M24.22,143.92a.37.37,0,0,1,.35-.65,8.49,8.49,0,0,0,1.7.5.37.37,0,0,1,.31.43.38.38,0,0,1-.43.3,8.7,8.7,0,0,1-1.87-.54Z" style="fill:#63c0c4"/><polygon points="219.54 11.31 234.15 9.56 240.74 10.81 245.07 13.36 219.54 11.31" style="fill:url(#_裼隯澵_胙琅韃炅_2-3)"/><polyline points="219.54 11.31 244.23 14.63 245.07 13.36" style="fill:#afd8c7"/><polygon points="243.31 18.72 243.26 18.76 240.92 21.85 219.59 11.34 243.31 18.72" style="fill:#63c0c4"/><polygon points="248.41 18.42 246.26 14.54 219.7 11.34 240.55 19.07 248.41 18.42" style="fill:url(#_裼隯澵_胙琅韃炅_2-4)"/><path d="M280.75,83.1A17.83,17.83,0,0,1,279,81.29a.36.36,0,0,0-.49,0,.35.35,0,0,0,0,.5,18.06,18.06,0,0,0,1.84,1.87c.23.21.47.41.72.61a.38.38,0,0,0,.31.07.36.36,0,0,0,.13-.62C281.21,83.5,281,83.3,280.75,83.1Z" style="fill:#afd8c8"/><path d="M255.92,18.64c-1.07-.28-2.19-.54-3.43-.79a.35.35,0,1,0-.14.68c1.23.26,2.34.51,3.39.79a.28.28,0,0,0,.18,0,.34.34,0,0,0,.25-.25A.35.35,0,0,0,255.92,18.64Z" style="fill:#afd8c8"/><path d="M261.24,21.09a.34.34,0,0,0,.23-.21.35.35,0,0,0-.19-.46c-1-.43-2.15-.83-3.32-1.19a.34.34,0,0,0-.44.23.35.35,0,0,0,.23.44c1.15.35,2.25.75,3.27,1.17A.34.34,0,0,0,261.24,21.09Z" style="fill:#afd8c8"/><path d="M276.07,76.64a.35.35,0,0,0-.46-.18.35.35,0,0,0-.18.46,19.85,19.85,0,0,0,1.72,3.13.37.37,0,0,0,.38.14l.11,0a.35.35,0,0,0,.09-.49A19.17,19.17,0,0,1,276.07,76.64Z" style="fill:#afd8c8"/><path d="M275.12,75.15a.36.36,0,0,0,.23-.44c-.09-.3-.18-.6-.26-.9a19,19,0,0,1-.46-2.46.35.35,0,0,0-.38-.31.36.36,0,0,0-.31.39,17.31,17.31,0,0,0,.47,2.55c.08.32.17.63.27.94a.34.34,0,0,0,.42.23Z" style="fill:#afd8c8"/><path d="M274.17,69.64h.08a.35.35,0,0,0,.26-.34,24.77,24.77,0,0,1,.25-3.44.35.35,0,1,0-.7-.1,26.29,26.29,0,0,0-.25,3.54A.35.35,0,0,0,274.17,69.64Z" style="fill:#afd8c8"/><path d="M276.78,38.43c.14.44.27.89.38,1.33.17.67.32,1.36.44,2a.37.37,0,0,0,.41.29h0a.35.35,0,0,0,.25-.4c-.12-.69-.27-1.39-.45-2.08-.12-.46-.25-.92-.39-1.37A.34.34,0,0,0,277,38,.36.36,0,0,0,276.78,38.43Z" style="fill:#afd8c8"/><path d="M277.88,43.85a24.9,24.9,0,0,1,.1,3.45.36.36,0,0,0,.34.37h.1a.34.34,0,0,0,.26-.33,24.85,24.85,0,0,0-.1-3.55.35.35,0,0,0-.7.07Z" style="fill:#afd8c8"/><path d="M274.62,33.34a28,28,0,0,1,1.47,3.14.36.36,0,0,0,.41.21l0,0a.35.35,0,0,0,.2-.45,28.42,28.42,0,0,0-1.5-3.21.35.35,0,0,0-.62.33Z" style="fill:#afd8c8"/><path d="M270.13,27.22a.36.36,0,0,0,.34.09.29.29,0,0,0,.16-.09.34.34,0,0,0,0-.49A28.1,28.1,0,0,0,268,24.34a.35.35,0,0,0-.49.06.34.34,0,0,0,.05.49A28,28,0,0,1,270.13,27.22Z" style="fill:#afd8c8"/><path d="M276,58.63h.18a.34.34,0,0,0,.25-.25l.12-.43c.27-1,.55-2,.8-3a.35.35,0,1,0-.67-.17c-.26,1-.53,2-.81,3l-.11.42A.35.35,0,0,0,276,58.63Z" style="fill:#afd8c8"/><path d="M273.56,31.55a.36.36,0,0,0,.39.15l.1,0a.35.35,0,0,0,.1-.49,30.78,30.78,0,0,0-2.09-2.86.37.37,0,0,0-.5,0,.34.34,0,0,0,0,.49A28.08,28.08,0,0,1,273.56,31.55Z" style="fill:#afd8c8"/><path d="M275.67,60a.35.35,0,0,0-.43.25c-.35,1.33-.61,2.42-.82,3.43a.36.36,0,0,0,.28.41.38.38,0,0,0,.15,0,.37.37,0,0,0,.26-.27c.2-1,.46-2.08.81-3.39A.35.35,0,0,0,275.67,60Z" style="fill:#afd8c8"/><path d="M283.12,84.9a.35.35,0,0,0-.38.58,27.66,27.66,0,0,0,3.09,1.74.34.34,0,0,0,.24,0,.39.39,0,0,0,.23-.19.36.36,0,0,0-.16-.47A27.3,27.3,0,0,1,283.12,84.9Z" style="fill:#afd8c8"/><path d="M278.2,49.06a.36.36,0,0,0-.39.31c-.13,1.06-.33,2.18-.6,3.42a.35.35,0,0,0,.26.41.33.33,0,0,0,.17,0,.35.35,0,0,0,.25-.26c.28-1.26.48-2.4.62-3.49A.36.36,0,0,0,278.2,49.06Z" style="fill:#afd8c8"/><path d="M264.31,21.88l-1.09-.58a.36.36,0,0,0-.47.16.34.34,0,0,0,.16.47l1.07.56c.65.36,1.3.75,1.92,1.17a.32.32,0,0,0,.28.05.35.35,0,0,0,.11-.63Q265.33,22.44,264.31,21.88Z" style="fill:#afd8c8"/><path d="M167.28,186.05c.53-.24,1.05-.49,1.56-.74h-2.78a.27.27,0,0,1-.07.08l-.23.2h.85A.64.64,0,0,1,167.28,186.05Z" style="fill:#01888b"/><path d="M172.17,185.31a41.63,41.63,0,0,1-5.13,2.57.86.86,0,0,1,.2.27c.5,0,1,.07,1.51.09a.8.8,0,0,1,.26,1.52c-3.44,1.43-6.86,1.2-10.52,1.14a.71.71,0,0,1-.69-.84,16.73,16.73,0,0,1-7.5-1.34.8.8,0,0,1,.13-1.54,23.33,23.33,0,0,1,7.35-.27.75.75,0,0,1,.64-.79c1-.16,1.92-.27,2.87-.35-.33-.17-.68-.32-1-.46H128.18a20.76,20.76,0,0,1,5.58,12c2.36,18.41,2.28,28.86,2.28,28.86l58.26-.34s.16-14.13,1.93-28.68c.42-3.42,6.81-12.78,10-16.73Z" style="fill:#01888b"/><path d="M157.53,188.47c-.87-.08-1.75-.13-2.63-.13A17.76,17.76,0,0,0,157.53,188.47Z" style="fill:#01888b"/><path d="M278.93,246.65h-6.39c-.84.09-1.79.33-2,1.06a4.32,4.32,0,0,0-.09,1c.22.26,8.69,0,8.69,0l0,0A1.35,1.35,0,0,0,278.93,246.65Z" style="fill:#12375a"/><polygon points="270.5 248.69 279.19 248.65 279.12 248.99 270.48 248.99 270.5 248.69" style="fill:#212b53"/><polygon points="276.4 246.65 275.83 246.65 276.01 247.43 276.56 247.43 276.4 246.65" style="fill:#fff"/><polygon points="275.17 246.65 274.59 246.65 274.77 247.43 275.33 247.43 275.17 246.65" style="fill:#fff"/><path d="M279.37,244.53l-.44,2.12h0a2.08,2.08,0,0,1-1.71,0l-.1,0-.31-2.12Z" style="fill:#f7b58e"/><path d="M293.86,246.65h-6.39c-.84.09-1.79.33-2,1.06a4.32,4.32,0,0,0-.09,1c.22.26,8.69,0,8.69,0l0,0A1.35,1.35,0,0,0,293.86,246.65Z" style="fill:#212b53"/><polygon points="285.43 248.69 294.12 248.65 294.05 248.99 285.41 248.99 285.43 248.69" style="fill:#212b53"/><polygon points="291.33 246.65 290.76 246.65 290.94 247.43 291.5 247.43 291.33 246.65" style="fill:#fff"/><polygon points="290.1 246.65 289.52 246.65 289.7 247.43 290.26 247.43 290.1 246.65" style="fill:#fff"/><path d="M293.58,244.53l.28,2.12h0a2.08,2.08,0,0,1-1.71,0l-.1,0-1-2.12Z" style="fill:#f7b58e"/><path d="M284.05,173l5.26,3.43-1.62,4.16c0,.06-.06.11-.08.17h-.46a4,4,0,0,0-3.35,2,7,7,0,0,1-2.49-.65,2.56,2.56,0,0,1-1.17-.88C279.58,178.27,284.05,173,284.05,173Z" style="fill:#f7b58e"/><path d="M277.36,174.05s-.64,6.1.65,10c-.6.52-2.81,2.89-3.51-.18s.78-10.89.78-10.89Z" style="fill:#f7b58e"/><polygon points="280.52 173.62 281.75 174.41 281.31 175.34 279.98 174.75 280.52 173.62" style="fill:#212b53"/><path d="M281.25,174.73c-.13.28-.14.55,0,.6s.3-.14.42-.42.14-.56,0-.61S281.37,174.44,281.25,174.73Z" style="fill:#212b53"/><path d="M265.58,169.11v0a12.17,12.17,0,0,1,1.19-2.15,10.23,10.23,0,0,0,1.15-1.88l12.79,8.37-.83,1.56-14.3-5.29A3.74,3.74,0,0,0,265.58,169.11Z" style="fill:#053c5e"/><polygon points="285.21 182.75 285.67 185.62 281.61 185.62 281.31 182.1 285.21 182.75" style="fill:#f39f85"/><path d="M274.71,189.87s-4.8-1.53-6.31-3.58,1-13.32,1-13.32l-.33-2a1.89,1.89,0,0,1,1.85-2.19h1.28a.73.73,0,0,1,.68,1l-1.69,3.8s-1.27,8.52.51,9.17a20.33,20.33,0,0,0,4.51.94Z" style="fill:#f7b58e"/><path d="M283.73,182.75,285,180l-.8-.5a1.51,1.51,0,0,1-.63-1.77l.88-2.58s-2.5-.31-2.43-2.64c0-1.2,1.65-1.21,1.65-1.21a2.42,2.42,0,0,0,2,1.2,4,4,0,0,1,3.69,2.29c.82,1.43.46,3.67-.26,5.35a4.88,4.88,0,0,1-3.89,2.6Z" style="fill:#12375a"/><path d="M288.62,205.77A91.13,91.13,0,0,1,287.1,218a11,11,0,0,0,.37,5.6c2.87,8.52,6.89,21.33,6.89,21.33h-3.57s-8.11-15.14-10.2-22.65a100.35,100.35,0,0,1-2.44-9.9l2.48-6.56Z" style="fill:#212b53"/><path d="M285.63,178.73A1.17,1.17,0,0,1,285,180c-.52.27-1.05.14-1.2-.29a1.15,1.15,0,0,1,.67-1.27C285,178.17,285.49,178.3,285.63,178.73Z" style="fill:#f7b58e"/><path d="M277,205.77h11.67v-15a6.35,6.35,0,0,0-5.76-6.32l-8.11-1s-1,1.46-3.61,4.86a27.42,27.42,0,0,0,6.89,2.88Z" style="fill:#ffd147"/><path d="M288.62,205.77s-1.65,6-7.73,12.65a7.86,7.86,0,0,0-2.27,6.07l1.26,20.39h-3.63s-4.42-16.93-3.47-25.28A38.3,38.3,0,0,1,277,205.77Z" style="fill:#053c5e"/><path d="M267.54,167.72c-.63,1.31-1.48,2.2-1.9,2s-.26-1.42.37-2.72,1.48-2.19,1.9-2S268.17,166.42,267.54,167.72Z" style="fill:#63c0c4"/><path d="M277.86,171.56l-.1.05a1.61,1.61,0,0,1-1.22.07l-.07,0a2.18,2.18,0,0,1-1.39-1.4h0a.41.41,0,0,1,.47-.52l.81.17a1.25,1.25,0,0,1,.77.52Z" style="fill:#f7b58e"/><g style="clip-path:url(#clip-path)"><path d="M173.44,54.05A12.55,12.55,0,0,0,163,57.35V28.73c0-4.13-3.35-4.28-7.48-4.28H86.31a7.48,7.48,0,0,0-7.48,7.48v69.4c0,4,.07,7.3,4.1,7.3h28.95a12.56,12.56,0,1,1,16.45,0H163V75.73a12.61,12.61,0,1,0,10.43-21.68Z" style="fill:#ffd147"/><path d="M107.72,97.78A12.57,12.57,0,0,0,111,108.21H81.3c-3.52,0-3.19,2.86-3.19,6.39v70.31a7.48,7.48,0,0,0,7.49,7.48h69.21c4.14,0,7.49-.15,7.49-4.28V159.34a12.55,12.55,0,1,1,0-16.45V108.21H129.4a12.61,12.61,0,1,0-21.68-10.43Z" style="fill:#212b53"/><path d="M215.29,114.62a12.65,12.65,0,0,1,3.86,13.12c-1.66,5.87-7.85,10.09-13.83,8.92s-10-6.83-9.55-13.31a12.65,12.65,0,0,1,5.78-9.73L170,111.34a3.88,3.88,0,0,0-4.16,3.6l-2.11,29a12.74,12.74,0,1,0-1.39,19.24l-1.77,24.4a7.48,7.48,0,0,0,6.92,8l69.09,5a7.48,7.48,0,0,0,8-6.92l5.24-72.28a4.28,4.28,0,0,0-4-4.58Z" style="fill:#63c0c4"/><path d="M238.28,25.19H169.06c-4.13,0-7.48.16-7.48,4.29v29.2c2.56-2.55,6.21-4.72,10.19-4.32,5.84.58,10.58,4.55,11.23,10.38a12.61,12.61,0,0,1-21.42,10.39v34.25h34.36a12.62,12.62,0,1,0,16.09,0h29.45c4.13,0,4.28-3.35,4.28-7.49V32.68A7.48,7.48,0,0,0,238.28,25.19Z" style="fill:#01888b"/></g><polygon points="181.65 235 177.42 245.21 153.85 245.34 148.64 235.18 181.65 235" style="fill:#01888b"/><path d="M195.9,197.42l-.68,22.3c.05,8.35-.58,16-7.25,16.05l-46.7.21c-6.67,0-7.37-7.57-7.42-15.93l-.12-22.29Z" style="fill:#00666b"/><path d="M241.66,244.55l-1.56.27c-.33-1.94-5.2-11.15-5.59-15.93a107.17,107.17,0,0,0-1.68-11.22l5.24-1.56s1.33,0-.13,10.82C241.22,231.23,242.09,241,241.66,244.55Z" style="fill:#f39f85"/><path d="M237.8,212.18s-1.23,7.4-2.94,15.32c1.79,4.78-.93,18.12-1,18.07-.21-.19-1.15,1-1.15,1s-2-11.78-2.43-17.09-.54-11.78-.54-11.78Z" style="fill:#f7b58e"/><path d="M234.1,244.82a1.78,1.78,0,0,1,.61,1.44c-.14.81-.33,2.7-.33,2.7h-.77l0-1.76c0-.12-1.64,1.76-1.92,1.76h-4.05s-.27-1.19,2.11-1.57A8.66,8.66,0,0,0,234.1,244.82Z" style="fill:#053c5e"/><path d="M239.92,243.48l.11,1.68a1.6,1.6,0,0,1-.28,1,6.16,6.16,0,0,1-1.22,1.26c1.18.38,2.24-.94,2.81-1.81a2.09,2.09,0,0,0,.3-1.44l-.2-1.32Z" style="fill:#f39f85"/><path d="M241.66,244.41s1,.09,1.21.88.66,2.38.66,2.38l-.57.45-.79-1.58a24.43,24.43,0,0,1-2,2.42h-4.43s0-1.47,2.77-1.54C241.08,247.36,241.66,244.41,241.66,244.41Z" style="fill:#212b53"/><polygon points="217.96 166.1 222.88 178.95 225.98 176.65 219.05 164.97 217.96 166.1" style="fill:#f7b58e"/><path d="M218.57,162.22a2,2,0,0,1,.44,1.35l.22,1.86-.25.29-.87.77c0-.39.07,0,.07,0l-1.4-2.44s-1.69-1.08.44-2.68a.6.6,0,0,1,.7-.05A1.56,1.56,0,0,1,218.57,162.22Z" style="fill:#f7b58e"/><polygon points="232.83 182.1 236 182.1 234.74 178.38 232.26 179.9 232.83 182.1" style="fill:#f39f85"/><path d="M228.62,186.11l.06-.26c-3.14-4-5.8-6.9-5.8-6.9l2.66-3,6.07,5.75h1.78a3.57,3.57,0,0,1,4.5.58c.76.79,1.27,2.94.76,5.2-1.41,6.25-.3,9.56-.3,9.56l-8.18,3s-.19-5.44-.32-9.25h0a4.22,4.22,0,0,0-.66-2.09A3.76,3.76,0,0,1,228.62,186.11Z" style="fill:#01888b"/><path d="M231.72,171.68l5.2,1.82-.52,3.88a.76.76,0,0,1,0,.16l-.3.07H236a3.54,3.54,0,0,0-2.43,2.43,6.08,6.08,0,0,1-2.25,0,2.16,2.16,0,0,1-1.18-.51C229,177.13,231.72,171.68,231.72,171.68Z" style="fill:#f7b58e"/><path d="M231.84,175c1.4.68,1.07,7.89,1.31,12.8a5.58,5.58,0,0,0,4.73,5.22c1.85.3,3.88.35,5.11-.35-.81-.66-5.19-7.09-3.78-15.61.18-1.12.2-4.25-1.69-5.94-2.09-1.88-6.42.57-6.42.57S229.92,174.05,231.84,175Z" style="fill:#212b53"/><path d="M230,196.83a60.59,60.59,0,0,0-1.09,8.84c0,1.81.45,13.21.45,13.21s7.77.57,9.28.57c.37-9.35,2.5-9.64,2.5-14a12.38,12.38,0,0,0-1.72-5.4,7.86,7.86,0,0,1-1.07-3l-.06-.18Z" style="fill:#053c5e"/><polygon points="125.55 247.82 85.15 122.23 87.45 122.23 127.85 247.82 125.55 247.82" style="fill:#ffd147"/><polygon points="104.66 247.82 64.26 122.23 66.56 122.23 106.96 247.82 104.66 247.82" style="fill:#ffd147"/><polygon points="97.92 154.84 97.92 156.72 76.27 156.7 75.9 154.83 97.92 154.84" style="fill:#ffd147"/><polygon points="93.44 142.67 93.44 144.55 71.79 144.53 71.42 142.66 93.44 142.67" style="fill:#ffd147"/><polygon points="89.74 130.5 89.74 132.38 68.09 132.36 67.72 130.49 89.74 130.5" style="fill:#ffd147"/><polygon points="101.86 167.17 101.86 169.04 80.21 169.03 79.84 167.16 101.86 167.17" style="fill:#ffd147"/><polygon points="105.56 179.5 105.56 181.37 83.91 181.35 83.54 179.48 105.56 179.5" style="fill:#ffd147"/><polygon points="109.39 192.3 110.26 194.17 88.61 194.16 88.24 192.29 109.39 192.3" style="fill:#ffd147"/><polygon points="113.44 205.11 114.32 206.98 92.67 206.97 92.3 205.09 113.44 205.11" style="fill:#ffd147"/><polygon points="117.24 217.63 118.12 219.5 96.47 219.49 96.1 217.62 117.24 217.63" style="fill:#ffd147"/><polygon points="120.39 230.42 121.27 232.29 99.62 232.28 99.25 230.41 120.39 230.42" style="fill:#ffd147"/><polygon points="24.85 247.82 65.25 122.23 62.95 122.23 22.55 247.82 24.85 247.82" style="fill:#053c5e"/><polygon points="45.74 247.82 86.14 122.23 83.84 122.23 43.44 247.82 45.74 247.82" style="fill:#053c5e"/><polygon points="52.48 154.84 52.48 156.72 74.13 156.7 74.5 154.83 52.48 154.84" style="fill:#053c5e"/><polygon points="56.95 142.67 56.95 144.55 78.6 144.53 78.97 142.66 56.95 142.67" style="fill:#053c5e"/><polygon points="60.66 130.5 60.66 132.38 82.3 132.36 82.67 130.49 60.66 130.5" style="fill:#053c5e"/><polygon points="48.54 167.17 48.54 169.04 70.18 169.03 70.55 167.16 48.54 167.17" style="fill:#053c5e"/><polygon points="44.84 179.5 44.84 181.37 66.48 181.35 66.85 179.48 44.84 179.5" style="fill:#053c5e"/><polygon points="41.01 192.3 40.13 194.17 61.78 194.16 62.15 192.29 41.01 192.3" style="fill:#053c5e"/><polygon points="36.95 205.11 36.08 206.98 57.72 206.97 58.09 205.09 36.95 205.11" style="fill:#053c5e"/><polygon points="33.15 217.63 32.28 219.5 53.92 219.49 54.29 217.62 33.15 217.63" style="fill:#053c5e"/><polygon points="30 230.42 29.13 232.29 50.77 232.28 51.14 230.41 30 230.42" style="fill:#053c5e"/><polygon points="80.34 55.62 79.17 58.22 75.73 56.61 78.7 52.33 80.34 55.62" style="fill:#f39f85"/><path d="M84.51,49s-.76,6.74-2.29,7.39-3.35-1.63-3.35-1.63l-1.72-4,5.47-2.36Z" style="fill:#f7b58e"/><path d="M87,47.66S85.83,50,82.45,49c-1,0-1.46,1-1.73,1.83s-.42.23-1.2.91l-1.38,2s-3.16-5.94,1.1-7.73S87,47.66,87,47.66Z" style="fill:#212b53"/><path d="M79.76,50.66a.84.84,0,0,1,.9.55c.17.39,0,.78-.28.87a.84.84,0,0,1-.89-.56C79.32,51.13,79.44,50.74,79.76,50.66Z" style="fill:#f7b58e"/><path d="M74.35,56.33c-8.5,5-5.26,25.83-5.26,25.83H82s.15-5.44.32-11.18c.13-4.35.54-8.88-.63-11.36C80.07,56.22,76.46,55.08,74.35,56.33Z" style="fill:#01888b"/><path d="M78.78,69.81s1.93,6.68,4.52,8.9,10,8.2,10,8.2l2.45-.51-8.19-9.88-3-9.6Z" style="fill:#f7b58e"/><polygon points="78.15 70.43 85.26 67.54 81.7 59.63 77.01 62.06 78.15 70.43" style="fill:#01888b"/><path d="M66.24,127.42a11.39,11.39,0,0,0,4.69,2.16c.72.18,1.49-.06,1.49,1.12h-4l-3.29-.57v.57H63.4s-.49-2.9.55-3.28Z" style="fill:#212b53"/><path d="M65.89,125.34l.35,2.08h0a2,2,0,0,1-2.17.08l-.12-.08.17-2.08Z" style="fill:#f7b58e"/><path d="M69.09,82.16s-1.27,4.35-1.53,15A14.91,14.91,0,0,1,66,103.3c-3.71,7.69-2,22.56-2,22.56h2.56L76.78,89.33l-3.61-7.17Z" style="fill:#212b53"/><path d="M80.2,128.68a11.37,11.37,0,0,0,4.68,2.15c.72.19,1.49-.06,1.49,1.13h-4l-3.29-.57V132H77.35s-.49-2.91.55-3.28Z" style="fill:#212b53"/><path d="M79.85,126.59l.35,2.09h0a2,2,0,0,1-2.18.07l-.12-.07.17-2.09Z" style="fill:#f7b58e"/><path d="M93.33,86.91l1.94,2.87c.88,1.1,3.13.65,4.54-.06a.32.32,0,0,0,0-.54,45.81,45.81,0,0,0-4.48-2.93Z" style="fill:#f7b58e"/><path d="M82,82.16l-1.27,45.06H78s-3.8-12.53-3-21.18a14,14,0,0,0-1-6.89,38.93,38.93,0,0,1-3.38-17Z" style="fill:#053c5e"/><path d="M16.46,246.36s.57.8,3.28,1.49c.6.15,1.24.26,1.24,1.24H18.31l-2.74-.47v.47H14.09s-.41-2.42.45-2.73Z" style="fill:#212b53"/><path d="M16.6,244.63l-.14,1.73h0a1.67,1.67,0,0,1-1.82.06l-.1-.06v-1.73Z" style="fill:#f7b58e"/><path d="M2.72,246.71s.58.8,3.29,1.49c.6.15,1.24.25,1.24,1.24H4.57L1.84,249v.48H.36S0,247,.81,246.71Z" style="fill:#212b53"/><path d="M2.86,245l-.14,1.74h0a1.67,1.67,0,0,1-1.81.06l-.1-.06V245Z" style="fill:#f7b58e"/><path d="M17.69,201.94,17,245.57H13.84S9,210.35,10,201.94,17.69,201.94,17.69,201.94Z" style="fill:#212b53"/><path d="M14.33,201.93s-1.11,13.4-3.65,20.82-7.13,22.82-7.13,22.82H.26s5.49-32.18,4.24-43.64h9.83Z" style="fill:#12375a"/><path d="M17.19,179.73s3.92,9.13,4.91,9.13c.8,0-.3-7.46-.3-7.46h3.29s4.12,12.79.84,15.12-10.49-6.61-10.49-6.61Z" style="fill:#63c0c4"/><path d="M5.51,203.09,6.7,206c.57,1.15,2.67,1.18,4.07.81a.28.28,0,0,0,.13-.47,40.62,40.62,0,0,0-3.44-3.48Z" style="fill:#f7b58e"/><path d="M15.44,177.84s2,1.39,2,3v21.11H5.5V182.19s.25-4.39,4.54-4.39S15.44,177.84,15.44,177.84Z" style="fill:#63c0c4"/><polygon points="17.29 201.94 17.29 182.98 17.69 182.99 17.69 201.94 17.29 201.94" style="fill:#fff"/><path d="M11.1,173.13v5a3,3,0,0,0,2.32,1.13c1.5,0,1.5-1.08,1.5-1.08V175l-2.22-.57Z" style="fill:#f39f85"/><path d="M15.11,175.92a1.84,1.84,0,0,0,1.11-.29c1.33-2.12-.19-7.82-.19-7.82l-4.82.86-.15,3.83a3.21,3.21,0,0,0,1.2,2.63h0A5.14,5.14,0,0,0,15.11,175.92Z" style="fill:#f7b58e"/><path d="M13.48,168.77a10.27,10.27,0,0,0,3.28,0c1.69-.3.61-2.15.61-2.15a6.61,6.61,0,0,1-3.46.24c-1.49-.22-1.9-.51-2.85,0-1.3.69-1,3-1,3l.72,5h.27s.06-3,.06-4c.28-.46.59-.46.82-.35a.75.75,0,0,1,.4.69v5.16s3.29,1.42,4.13,1.17.28-4.09.28-4.09a1.53,1.53,0,0,0-1.71.42c-.75.83-1.64,0-1.64,0Z" style="fill:#212b53"/><path d="M24.46,181.4l-.12-.63a5.25,5.25,0,0,0-2.93-3.58H20l.43,3,2,1.24Z" style="fill:#f7b58e"/><path d="M11.53,170.44a.85.85,0,0,1,.79.79.74.74,0,0,1-.55.91.85.85,0,0,1-.79-.8A.73.73,0,0,1,11.53,170.44Z" style="fill:#f7b58e"/><path d="M21,179.83l2.71,1.57s-1.7,0-1.73,0L19.13,179s.21-.42.86-.06A3.29,3.29,0,0,1,21,179.83Z" style="fill:#f7b58e"/><path d="M6.78,179.13S0,186.65,0,191.17s5.5,12.46,5.5,12.46l2.72-.79S5.77,193,5.77,190.38s5-6.46,5-6.46" style="fill:#63c0c4"/><path d="M6,190.38c0,2.25,2,10.49,2.47,12.41l-.4.1c-.58-2.37-2.46-10.3-2.46-12.51,0-2.69,4.9-6.46,5.11-6.62l.24.32C10.87,184.12,6,187.89,6,190.38Z" style="fill:#fff"/><path d="M19.21,174.91a7.17,7.17,0,0,0,1.24,5.25.78.78,0,0,0,.5.29,2.15,2.15,0,0,0,.94-.16.86.86,0,0,0,.57-.41.4.4,0,0,0,0-.39c-.37-.54-1.49-2.41-1-4.07A2.9,2.9,0,0,0,19.21,174.91Z" style="fill:#f49b42"/><path d="M22.14,180.19a.54.54,0,0,0,.32-.31.4.4,0,0,0,0-.39c-.37-.54-1.49-2.41-1-4.07a2.51,2.51,0,0,0-1.07-.49C20.32,176.75,20.71,178,22.14,180.19Z" style="fill:#f9b646"/><path d="M20.81,177.31c.09.42.29.73.46.7s.22-.4.14-.82-.29-.73-.45-.7S20.73,176.89,20.81,177.31Z" style="fill:#f49b42"/><polygon points="20.92 176.51 21.1 176.47 21.08 176.55 20.97 176.6 20.92 176.51" style="fill:#f49b42"/><polygon points="21.23 178.01 21.44 177.97 21.2 177.93 21.23 178.01" style="fill:#e7365e"/><path d="M21,177.28c.09.42.29.73.46.7s.22-.4.14-.82-.29-.73-.45-.7S20.87,176.86,21,177.28Z" style="fill:#ffd147"/><path d="M18.47,172.45h-.32A1.09,1.09,0,0,0,17,173.51v.85a1.09,1.09,0,0,0,1.11,1.06h.32Z" style="fill:#ffd147"/><path d="M28.29,173.28c0,2.31-.53,4.18-1.18,4.18s-1.18-1.87-1.18-4.18.53-4.17,1.18-4.17S28.29,171,28.29,173.28Z" style="fill:#212b53"/><polygon points="25.88 171.75 26.81 172.35 26.81 173.71 25.85 174.58 25.51 172.82 25.88 171.75" style="fill:#fff"/><path d="M25.93,173.28c0-1.93.37-3.56.88-4h0a19.09,19.09,0,0,1-8.52,3.23v2.94s6.21-.35,8.52,1.9h0C26.3,176.85,25.93,175.22,25.93,173.28Z" style="fill:#f6a505"/><path d="M26.94,173c0,.37-.06.68-.13.68s-.13-.31-.13-.68.06-.68.13-.68S26.94,172.65,26.94,173Z" style="fill:#ffd147"/><path d="M23,179.24a3.13,3.13,0,0,1-1.52.25c-.79,0-1.14-1-1.28-1.5,0-.18-.09-.45.15-.56l1.26-.18Z" style="fill:#f7b58e"/><polygon points="93.53 186.46 97.04 193.08 93.17 192.89 92.9 186.24 93.53 186.46" style="fill:#f7b58e"/><polygon points="88.01 183.52 91.25 183.52 92.6 204.5 86.78 204.5 88.01 183.52" style="fill:#fff"/><path d="M82.05,245.12a1.71,1.71,0,0,0-.66,1.43c.15.81.36,2.69.36,2.69h.82l0-1.76c0-.11,1.77,1.76,2.07,1.76H89s.29-1.19-2.27-1.57A9.48,9.48,0,0,1,82.05,245.12Z" style="fill:#053c5e"/><path d="M83.94,244.32l.59,1.54a2,2,0,0,0,.81,1,7.79,7.79,0,0,0,2,.93c-1.19,1-3.08-.05-4.16-.8a2.62,2.62,0,0,1-1-1.53l-.25-1.16Z" style="fill:#f7b58e"/><path d="M90.37,245.12a1.69,1.69,0,0,0-.66,1.43c.15.81.36,2.69.36,2.69h.82l0-1.76c0-.11,1.77,1.76,2.07,1.76H97.3s.29-1.19-2.27-1.57A9.42,9.42,0,0,1,90.37,245.12Z" style="fill:#053c5e"/><path d="M92.26,244.32l.59,1.54a1.94,1.94,0,0,0,.81,1,7.54,7.54,0,0,0,2,.93c-1.18,1-3.07-.05-4.15-.8a2.64,2.64,0,0,1-1.06-1.53l-.24-1.16Z" style="fill:#f7b58e"/><path d="M85.52,204.5s-.55,3.14,2.59,18.55c-2.54,8,1.53,21.48,1.53,21.48h3l2-40Z" style="fill:#01888b"/><path d="M90.9,183.52,92,209l3.49-1.49A37.5,37.5,0,0,1,94,196.07c-.54-4.8,2.19-2.27-1.15-11.52A3.61,3.61,0,0,0,90.9,183.52Z" style="fill:#00666b"/><path d="M91.35,180.89,91,183a1.37,1.37,0,0,1-2.07.9l-1.43-.9L90,177.27Z" style="fill:#f39f85"/><path d="M82.67,204.5s-3.89,3.14-.75,18.55c-2.54,8-.3,21.48-.3,21.48h2.66l7.49-40Z" style="fill:#63c0c4"/><path d="M88,181.37s-3.28,1.84-4.3,3.48-1.3,5.14-1.4,8.31c-.13,4.36-2.23,15.82-2.23,15.82h8.78L89.08,184Z" style="fill:#01888b"/><path d="M94.48,174.46c-2-.51-3.9,1.53-3.9,1.53l-1.5,8-2.3-3.54s-.13-4.82,2.1-8c1.59-1.93,4.64-1.37,6.19.51a4.75,4.75,0,0,1,.83,3.33c-.1,1.56-.54,10.5-.54,10.5l-4.55-3.37a22,22,0,0,1,.54-2.57C92.1,178.05,95.81,174.79,94.48,174.46Z" style="fill:#212b53"/><path d="M90,175.87a.71.71,0,0,1,.85.44.61.61,0,0,1-.21.87.72.72,0,0,1-.85-.44A.61.61,0,0,1,90,175.87Z" style="fill:#f7b58e"/><path d="M92.12,181.27a1.61,1.61,0,0,0,1,.13c1.73-1.26,2.35-6.26,2.35-6.26l-1.37-1.45-2.72.6-1.35,3a2.76,2.76,0,0,0,.11,2.47h0A4.42,4.42,0,0,0,92.12,181.27Z" style="fill:#f7b58e"/><path d="M94.93,174.35c-.14,1.51-4.35,1.64-4.35,1.64l-.22-2.05,2.46-1.35,1.94,1.17A1.32,1.32,0,0,1,94.93,174.35Z" style="fill:#212b53"/><path d="M94.84,174.64a2.89,2.89,0,0,0,.43,1.55l.34-.61v-.52l-.33-.41S95,174.08,94.84,174.64Z" style="fill:#212b53"/><path d="M84.61,184.85c-4.25.5-2.24,11.47-1.33,16a1.9,1.9,0,0,0,2.44,1.44c3.69-1.16,9.1-6,9.1-6L94,195.17l-7.18,1.68S89.54,184.28,84.61,184.85Z" style="fill:#f7b58e"/><path d="M93.11,192.6l-1.38,8.59a.41.41,0,0,0,.4.48h5.5a.41.41,0,0,0,.4-.35l1.36-8.59a.41.41,0,0,0-.4-.48H93.52A.43.43,0,0,0,93.11,192.6Z" style="fill:#053c5e"/><path d="M99.21,196.4a3.48,3.48,0,0,0-.09-1.11c-.13-.82-.1-2.09-.93-1.45a4.17,4.17,0,0,0-.87,2,2.42,2.42,0,0,0,.52,1.81l.57,1.24A3.54,3.54,0,0,0,99.21,196.4Z" style="fill:#f7b58e"/><path d="M95.62,195.59a.42.42,0,1,0,.42-.42A.42.42,0,0,0,95.62,195.59Z" style="fill:url(#_裼隯澵_胙琅韃炅_3)"/></g></g></svg>