<svg xmlns="http://www.w3.org/2000/svg" xmlns:xlink="http://www.w3.org/1999/xlink" viewBox="0 0 452.1 306.08"><defs><linearGradient id="linear-gradient" x1="89.26" y1="255.33" x2="452.1" y2="255.33" gradientUnits="userSpaceOnUse"><stop offset="0" stop-color="#d6edff"/><stop offset="0.38" stop-color="#d9eeff"/><stop offset="0.64" stop-color="#e2f2ff"/><stop offset="0.86" stop-color="#f1f9ff"/><stop offset="1" stop-color="#fff"/></linearGradient><radialGradient id="radial-gradient" cx="84.48" cy="-84.41" r="206.73" gradientTransform="translate(90.47 168.8) scale(1.2 1.08)" gradientUnits="userSpaceOnUse"><stop offset="0" stop-color="#f6f7fc"/><stop offset="0.31" stop-color="#f3f6fc"/><stop offset="0.51" stop-color="#ebf2fc"/><stop offset="0.68" stop-color="#dcebfc"/><stop offset="0.83" stop-color="#c7e1fc"/><stop offset="0.97" stop-color="#acd4fc"/><stop offset="1" stop-color="#a6d1fc"/></radialGradient><linearGradient id="linear-gradient-2" x1="348.67" y1="79.14" x2="385.47" y2="79.14" gradientUnits="userSpaceOnUse"><stop offset="0" stop-color="#a6d1fc"/><stop offset="0.03" stop-color="#acd4fc"/><stop offset="0.17" stop-color="#c7e1fc"/><stop offset="0.32" stop-color="#dcebfc"/><stop offset="0.49" stop-color="#ebf2fc"/><stop offset="0.69" stop-color="#f3f6fc"/><stop offset="1" stop-color="#f6f7fc"/></linearGradient><linearGradient id="linear-gradient-3" x1="69" y1="21.04" x2="123.2" y2="21.04" xlink:href="#linear-gradient-2"/><linearGradient id="linear-gradient-4" x1="64.57" y1="302.99" x2="127.11" y2="302.99" xlink:href="#linear-gradient"/><linearGradient id="linear-gradient-5" x1="155.17" y1="301.28" x2="197.69" y2="301.28" xlink:href="#linear-gradient"/><linearGradient id="linear-gradient-6" x1="351.45" y1="285.73" x2="419.65" y2="285.73" xlink:href="#linear-gradient"/><linearGradient id="linear-gradient-7" x1="304.64" y1="258.03" x2="372.83" y2="258.03" xlink:href="#linear-gradient"/></defs><g style="isolation:isolate"><g id="レイヤー_2" data-name="レイヤー 2"><g id="レイヤー_1-2" data-name="レイヤー 1"><ellipse cx="270.68" cy="255.33" rx="181.42" ry="12.38" style="mix-blend-mode:multiply;fill:url(#linear-gradient)"/><g style="opacity:0.43"><path d="M42.48,251.37h340.3c-12.64-21.87-51.61-48.2-51-84.62.73-45.59,34.77-66.09,30.71-84-15.71-69-93.18,20.49-186-15.61-137.27-53.38-90.39,80-121.33,110C23.8,207.57,46.76,208.06,42.48,251.37Z" style="fill:url(#radial-gradient)"/></g><path d="M385.47,85a3,3,0,0,0-4.47-.87,4.19,4.19,0,0,0-6-1.72,6.77,6.77,0,0,0-5.74-3.18,6.26,6.26,0,0,0-1.31.13,5.2,5.2,0,0,0,.13-1.12,5,5,0,1,0-9.91,0c0,.05,0,.11,0,.16a5,5,0,0,0-3.61,4,4.58,4.58,0,0,0-1.74-.35,4.44,4.44,0,0,0-4.19,3Z" style="fill:url(#linear-gradient-2)"/><path d="M123.2,29.67a4.42,4.42,0,0,0-6.58-1.29,6.21,6.21,0,0,0-5.55-3.45,6.08,6.08,0,0,0-3.25.93,9.94,9.94,0,0,0-8.45-4.7,9.5,9.5,0,0,0-1.93.2,7.59,7.59,0,0,0,.19-1.65,7.29,7.29,0,1,0-14.58,0c0,.08,0,.16,0,.25a7.26,7.26,0,0,0-5.32,5.85A6.58,6.58,0,0,0,69,29.67Z" style="fill:url(#linear-gradient-3)"/><path d="M127.14,238.23l46.42-12.75-19.75-94.16L137.3,133.5l-6,.78h0l-14.2,1.88a6.33,6.33,0,0,0-.06-.86,6.79,6.79,0,0,0-.55-1.86c4.9-4.46,12.29-12.2,13.76-19.4a31.34,31.34,0,0,0,.64-6.9c-.12-8.41-3.6-15.81-9-18C115,86.35,107.64,93,105.4,103.94a30.6,30.6,0,0,0,.14,10.16,19.61,19.61,0,0,0-4-6.14,18.38,18.38,0,0,0-4.81-3.32c-6.19-2.89-12.85-1.21-16.42,4.81-4.52,7.63-2.36,19.34,4.84,26.15,2.26,2.14,5.72,3.3,9.41,3.89L70.5,143.14,78.19,239l17.55-.25,0,.17,12.54-.17,0-.17,18-.26,0,.11.4-.11h.41ZM112.25,114.32c1.21-5.93,1.61-11.32,4.2-12.87a3.29,3.29,0,0,1,3-.36c3.45,1.41,2.77,8.37,1.09,16.61-.92,4.48-3.35,9.87-5.38,13.85a6.89,6.89,0,0,0-3.61-1.9C111.36,124.82,111.36,118.68,112.25,114.32Zm-24.86,6.46a6.88,6.88,0,0,1,.82-3.91c2.27-3.83,7.11-.45,12.52,4.67a42.49,42.49,0,0,1,6.43,8.73,7.75,7.75,0,0,0-.79.46,6.77,6.77,0,0,0-3,5.21,32.84,32.84,0,0,1-8.11-5.19C91.38,127.06,87.58,124.61,87.39,120.78Z" style="fill:#b3deff"/><path d="M298.09,239.34l53.62-.57,4.54-103.42-18.42-2.25-6.68-.83v0l-15.86-1.93a6.36,6.36,0,0,0,.09-3c6.52-3.3,16.62-9.33,20.19-16.43a33.33,33.33,0,0,0,2.59-7c2.17-8.79.46-17.45-4.78-21.22-6.65-4.79-16.44.09-21.88,10.89a32.2,32.2,0,0,0-2.63,10.62,20.65,20.65,0,0,0-2.59-7.47A20,20,0,0,0,302,92c-5.89-4.71-13.54-4.78-19.05.51-7,6.7-7.86,19.49-2,28.55,1.85,2.84,5.27,5,9.09,6.62l-27-2.79-18,101.9,19,4.55,0,.18,13.59,3.25,0-.18,19.55,4.67,0,.11h.47l.45.11Zm18-133c2.94-5.84,4.84-11.35,8.07-12.25a3.76,3.76,0,0,1,3.33.44c3.35,2.41.7,9.47-3.38,17.59-2.22,4.42-6.33,9.36-9.61,13a7.68,7.68,0,0,0-3.37-3C312.2,117,313.89,110.58,316.05,106.29Zm-28.62-.08a7.38,7.38,0,0,1,2-3.85c3.51-3.37,7.81,1.48,12.24,8.29a45.26,45.26,0,0,1,4.54,10.84,8.36,8.36,0,0,0-1,.27,7.34,7.34,0,0,0-4.65,4.6,36.31,36.31,0,0,1-7.34-7.62C290,113.84,286.59,110.25,287.43,106.21Z" style="fill:#b3deff"/><path d="M282.89,110.29a4.84,4.84,0,0,0,4.82,2.36l.44-2a3.72,3.72,0,0,1-3.74-2.36C284.59,109.45,282.89,110.29,282.89,110.29Z" style="fill:#ffcba2"/><path d="M364.2,135a34.23,34.23,0,0,1,9.67-3.12l.16-2.09c-4.84-1.85-10,1.64-10,1.64C366,131.72,364.2,135,364.2,135Z" style="fill:#ffcba2"/><path d="M225.17,178.45A24.55,24.55,0,0,1,218,185l1.13,2.34c5.65.44,8.33-5.07,8.33-5.07C225.45,182.59,225.17,178.45,225.17,178.45Z" style="fill:#ffcba2"/><path d="M328.42,79.92s6.69-2.93,13-2.63l.34-3.52c-6.28-4.49-13.29,0-13.29,0C331,74.91,328.42,79.92,328.42,79.92Z" style="fill:#ffcba2"/><path d="M276.75,187a4.85,4.85,0,0,0,4.83,2.36l.44-2a3.71,3.71,0,0,1-3.74-2.36C278.46,186.13,276.75,187,276.75,187Z" style="fill:#ffcba2"/><path d="M286.51,141.48a34.09,34.09,0,0,1,9.67-3.12l.15-2.09c-4.83-1.85-10,1.64-10,1.64C288.31,138.24,286.51,141.48,286.51,141.48Z" style="fill:#ffcba2"/><path d="M205.78,111.74a24.82,24.82,0,0,1-7.16,6.6l1.12,2.33c5.66.44,8.34-5.07,8.34-5.07C206.06,115.88,205.78,111.74,205.78,111.74Z" style="fill:#ffcba2"/><path d="M404.27,152a24.66,24.66,0,0,1-7.16,6.6l1.13,2.33c5.65.44,8.34-5.08,8.34-5.08C404.55,156.17,404.27,152,404.27,152Z" style="fill:#ffcba2"/><path d="M230.61,132.09s-6.69,2.93-13,2.63l-.34,3.51c6.28,4.5,13.28,0,13.28,0C228,137.1,230.61,132.09,230.61,132.09Z" style="fill:#ffcba2"/><path d="M303.55,179.51a12.19,12.19,0,0,1-4.7,1l-.12,1.27c2.27,1.62,4.8,0,4.8,0C302.61,181.32,303.55,179.51,303.55,179.51Z" style="fill:#ffcba2"/><path d="M194.78,138.42a9.94,9.94,0,0,1-2.88,2.66l.45.93a3.69,3.69,0,0,0,3.36-2C194.89,140.09,194.78,138.42,194.78,138.42Z" style="fill:#ffcba2"/><path d="M398,127.06a10.08,10.08,0,0,1-2.89,2.65l.46.94a3.68,3.68,0,0,0,3.35-2C398.1,128.72,398,127.06,398,127.06Z" style="fill:#ffcba2"/><path d="M221.31,155.94a13.63,13.63,0,0,1-5.23,1.06l-.14,1.41c2.53,1.81,5.35,0,5.35,0C220.26,158,221.31,155.94,221.31,155.94Z" style="fill:#ffcba2"/><path d="M341.71,161a16.35,16.35,0,0,1-4.71,4.35l.74,1.54c3.72.29,5.49-3.35,5.49-3.35C341.9,163.74,341.71,161,341.71,161Z" style="fill:#ffcba2"/><path d="M346.76,145a8.89,8.89,0,0,1-3.44.7l-.09.93a3.31,3.31,0,0,0,3.52,0C346.07,146.35,346.76,145,346.76,145Z" style="fill:#ffcba2"/><path d="M25.83,178.31a27.89,27.89,0,0,1,2.52,7.82l1.69.13c1.5-3.91-1.33-8.06-1.33-8.06C28.45,179.78,25.83,178.31,25.83,178.31Z" style="fill:#ffcba2"/><path d="M70.31,149.39a27.1,27.1,0,0,1,2.13,10.5l2.84.27c3.64-5.07,0-10.73,0-10.73C74.37,151.49,70.31,149.39,70.31,149.39Z" style="fill:#ffcba2"/><path d="M12,210.7a19.9,19.9,0,0,1-5.33-5.78l-1.89.91c-.35,4.57,4.1,6.73,4.1,6.73C8.69,210.93,12,210.7,12,210.7Z" style="fill:#ffcba2"/><path d="M32.22,205.62a8,8,0,0,1-2.15-2.33l-.76.37A3,3,0,0,0,31,206.37C30.87,205.71,32.22,205.62,32.22,205.62Z" style="fill:#ffcba2"/><path d="M4.77,160.14a13.17,13.17,0,0,1-3.51-3.82l-1.25.6c-.23,3,2.71,4.44,2.71,4.44C2.57,160.29,4.77,160.14,4.77,160.14Z" style="fill:#ffcba2"/><path d="M17.7,164.22a7.31,7.31,0,0,1-.57-2.79l-.75-.07a2.68,2.68,0,0,0,0,2.85C16.62,163.66,17.7,164.22,17.7,164.22Z" style="fill:#ffcba2"/><ellipse cx="95.84" cy="302.99" rx="31.27" ry="3.09" style="mix-blend-mode:multiply;fill:url(#linear-gradient-4)"/><path d="M197.69,301.28c0,1.16-9.52,2.1-21.26,2.1s-21.26-.94-21.26-2.1,9.52-2.1,21.26-2.1S197.69,300.12,197.69,301.28Z" style="mix-blend-mode:multiply;fill:url(#linear-gradient-5)"/><path d="M419.65,285.73c0,1.15-15.26,2.09-34.1,2.09s-34.1-.94-34.1-2.09,15.27-2.1,34.1-2.1S419.65,284.57,419.65,285.73Z" style="mix-blend-mode:multiply;fill:url(#linear-gradient-6)"/><path d="M372.83,258c0,1.16-15.26,2.1-34.09,2.1s-34.1-.94-34.1-2.1,15.26-2.1,34.1-2.1S372.83,256.87,372.83,258Z" style="mix-blend-mode:multiply;fill:url(#linear-gradient-7)"/><path d="M253.84,53.69c-18.36,13.65-25.63,27.46-25.63,27.46s23.18.37,33.17-7.16S275.7,50.21,275.7,50.21,263.86,46.25,253.84,53.69Z" style="fill:#ee8037"/><path d="M234.18,77.32c6.2-4.58,27.16-8.25,33.38-15.18s8-12,8-12,2.75,10.86,6.9,17.07,4.29,16.42-8.77,20.89-21.87.36-27.78,3.85S234.18,77.32,234.18,77.32Z" style="fill:#ee8037"/><path d="M234.18,77.32c6.2-4.58,27.16-8.25,33.38-15.18s8-12,8-12,2.75,10.86,6.9,17.07,4.29,16.42-8.77,20.89-21.87.36-27.78,3.85S234.18,77.32,234.18,77.32Z" style="fill:#ee8037;mix-blend-mode:multiply"/><path d="M165.46,52.66c13.42,14.81,17.78,27.8,17.78,27.8s-22-1.94-29.26-10.1-6.57-24.14-6.57-24.14S158.13,44.58,165.46,52.66Z" style="fill:#ee8037"/><path d="M165.46,52.66c13.42,14.81,17.78,27.8,17.78,27.8s-22-1.94-29.26-10.1-6.57-24.14-6.57-24.14S158.13,44.58,165.46,52.66Z" style="fill:#ee8037;mix-blend-mode:multiply"/><path d="M181.78,78.9c-6.31-13.1-21.92-16.58-28.22-22.39-5.54-5.12-6.15-10.29-6.15-10.29s-2.88,7.77-7.56,11.85c-5.32,4.64-1.5,14.4,3.23,19.86,8.61,9.93,18.53,4.46,22.85,8.61S181.78,78.9,181.78,78.9Z" style="fill:#ee8037"/><path d="M222.24,29.61c-12.22,33.64-13,56.57-13,56.57s28.65-22.37,35.22-40.8-.55-41.24-.55-41.24A47.21,47.21,0,0,0,222.24,29.61Z" style="fill:#ee8037"/><path d="M210.48,38.57c6.26,36.47,1,58.36,1,58.36S187.29,66.46,184,46.52s7.25-40.09,7.25-40.09S207.06,18.65,210.48,38.57Z" style="fill:#ee8037"/><path d="M210.48,38.57c6.26,36.47,1,58.36,1,58.36S187.29,66.46,184,46.52s7.25-40.09,7.25-40.09S207.06,18.65,210.48,38.57Z" style="fill:#ee8037;mix-blend-mode:multiply"/><path d="M208.86,85.62c-2.14-12.29-20.29-43.4-20.29-57.81S191.43,6.5,191.43,6.5s-12.86,5.95-22.86,5.95S149,21.28,158.29,42.6s22.14,29.38,25,40.33S208.86,85.62,208.86,85.62Z" style="fill:#ee8037"/><path d="M210.56,82.59c3.38-24.82,22.91-43.78,29.07-57.9,5.43-12.42,4.25-20.55,4.25-20.55s6.86,8.84,14.7,10.68c8.91,2.09,7.57,19.79,3.36,32-7.66,22.22-23.05,23-27.22,32.93S210.56,82.59,210.56,82.59Z" style="fill:#ee8037"/><path d="M210.56,82.59c3.38-24.82,22.91-43.78,29.07-57.9,5.43-12.42,4.25-20.55,4.25-20.55s6.86,8.84,14.7,10.68c8.91,2.09,7.57,19.79,3.36,32-7.66,22.22-23.05,23-27.22,32.93S210.56,82.59,210.56,82.59Z" style="fill:#ee8037;mix-blend-mode:multiply"/><polygon points="230.22 258.82 107.28 253.23 107.28 86.34 230.22 75.85 230.22 258.82" style="fill:#fcc840"/><polygon points="314.96 252.53 230.22 258.82 230.22 75.85 314.96 86.34 314.96 252.53" style="fill:#fcc840"/><polygon points="230.22 80.75 107.28 87.94 107.28 119.7 230.22 127.52 314.96 122.66 314.96 87.94 230.22 80.75" style="fill:#e3a20a;mix-blend-mode:multiply"/><polygon points="230.68 120.53 104.8 119.31 104.8 83.05 230.68 75.85 230.68 120.53" style="fill:#fcc840"/><polygon points="317.45 119.16 230.68 120.53 230.68 75.85 317.45 83.05 317.45 119.16" style="fill:#fcc840"/><polygon points="314.96 252.53 230.22 258.82 230.22 127.52 314.96 122.66 314.96 252.53" style="fill:#f7d079;mix-blend-mode:multiply"/><polygon points="317.45 119.16 230.68 120.53 230.68 75.85 317.45 83.05 317.45 119.16" style="fill:#f7d079;mix-blend-mode:multiply"/><polygon points="177.39 256.42 145.16 254.96 145.16 80.75 177.39 78.9 177.39 256.42" style="fill:#ee8037"/><polygon points="177.39 123.54 145.16 122.36 145.16 119.7 177.39 120.08 177.39 123.54" style="fill:#d16119;mix-blend-mode:multiply"/><polygon points="266.3 256.15 289.71 254.41 289.07 80.75 266.3 78.9 266.3 256.15" style="fill:#ee8037"/><polygon points="266.3 256.15 289.71 254.41 289.07 80.75 266.3 78.9 266.3 256.15" style="fill:#f4a97f;mix-blend-mode:multiply"/><polygon points="266.3 119.97 289.22 119.61 289.22 125.59 266.3 126.34 266.3 119.97" style="fill:#d16119;mix-blend-mode:multiply"/><line x1="275.7" y1="87.86" x2="311.07" y2="256.65" style="fill:none;stroke:#323232;stroke-linecap:round;stroke-miterlimit:10;stroke-width:5.236400000000001px"/><line x1="300.18" y1="91.51" x2="338.33" y2="258.03" style="fill:none;stroke:#323232;stroke-linecap:round;stroke-miterlimit:10;stroke-width:5.236400000000001px"/><line x1="278.95" y1="102.13" x2="303.14" y2="102.91" style="fill:none;stroke:#323232;stroke-linecap:round;stroke-miterlimit:10;stroke-width:2.6182000000000003px"/><line x1="281.29" y1="112.93" x2="305.48" y2="113.71" style="fill:none;stroke:#323232;stroke-linecap:round;stroke-miterlimit:10;stroke-width:2.6182000000000003px"/><line x1="283.62" y1="123.72" x2="307.82" y2="124.5" style="fill:none;stroke:#323232;stroke-linecap:round;stroke-miterlimit:10;stroke-width:2.6182000000000003px"/><line x1="285.96" y1="134.52" x2="310.16" y2="135.3" style="fill:none;stroke:#323232;stroke-linecap:round;stroke-miterlimit:10;stroke-width:2.6182000000000003px"/><line x1="288.3" y1="145.32" x2="312.5" y2="146.1" style="fill:none;stroke:#323232;stroke-linecap:round;stroke-miterlimit:10;stroke-width:2.6182000000000003px"/><line x1="290.64" y1="156.12" x2="314.84" y2="156.9" style="fill:none;stroke:#323232;stroke-linecap:round;stroke-miterlimit:10;stroke-width:2.6182000000000003px"/><line x1="292.98" y1="166.91" x2="317.18" y2="167.69" style="fill:none;stroke:#323232;stroke-linecap:round;stroke-miterlimit:10;stroke-width:2.6182000000000003px"/><line x1="295.32" y1="177.71" x2="319.52" y2="178.49" style="fill:none;stroke:#323232;stroke-linecap:round;stroke-miterlimit:10;stroke-width:2.6182000000000003px"/><line x1="297.66" y1="187.9" x2="321.86" y2="188.68" style="fill:none;stroke:#323232;stroke-linecap:round;stroke-miterlimit:10;stroke-width:2.6182000000000003px"/><line x1="300.38" y1="198.44" x2="324.58" y2="199.22" style="fill:none;stroke:#323232;stroke-linecap:round;stroke-miterlimit:10;stroke-width:2.6182000000000003px"/><line x1="302.72" y1="208.63" x2="326.92" y2="209.41" style="fill:none;stroke:#323232;stroke-linecap:round;stroke-miterlimit:10;stroke-width:2.6182000000000003px"/><line x1="305.45" y1="219.18" x2="329.65" y2="219.96" style="fill:none;stroke:#323232;stroke-linecap:round;stroke-miterlimit:10;stroke-width:2.6182000000000003px"/><line x1="307.79" y1="229.37" x2="331.98" y2="230.15" style="fill:none;stroke:#323232;stroke-linecap:round;stroke-miterlimit:10;stroke-width:2.6182000000000003px"/><line x1="307.79" y1="238.69" x2="333.62" y2="239.47" style="fill:none;stroke:#323232;stroke-linecap:round;stroke-miterlimit:10;stroke-width:2.7050300000000003px"/><line x1="310.29" y1="248.88" x2="336.11" y2="249.66" style="fill:none;stroke:#323232;stroke-linecap:round;stroke-miterlimit:10;stroke-width:2.7050300000000003px"/><path d="M67.49,126.29a3.2,3.2,0,0,0-.94-.81,1.92,1.92,0,0,0-.74-1.86c-1.4-.91-2.91.26-4,1.25l-1.13-.13c-1.2-1.65-2.09-3.39-3.8-4a6,6,0,0,0-3.13,0,4.18,4.18,0,0,0-1.19-1.46,6.08,6.08,0,0,0-2-.83,5,5,0,0,1-2.73-2.6.76.76,0,0,0-.13-.17,3.08,3.08,0,0,0-.82-1.53.71.71,0,0,0-.84-.09.92.92,0,0,0-.48.59,10.32,10.32,0,0,0-.13,1.22c0,.21,0,.4,0,.57a30.94,30.94,0,0,0,1.24,4.67s0,.06,0,.08c.39.6.75,1.23,1.15,1.84a14.64,14.64,0,0,0,1.93,2.25,8.79,8.79,0,0,1,.36,1.76,4,4,0,0,0,.93,2,2.35,2.35,0,0,0,2.79.6l.31.33a5.07,5.07,0,0,0,3.07,1.31c2.16,0,4.31-.15,6.46-.16a1.09,1.09,0,0,1,.26,0l.54,0a5,5,0,0,0,2.89-2.07A2.51,2.51,0,0,0,67.49,126.29Z" style="fill:#b4c0cf"/><path d="M57.35,117.31a1.4,1.4,0,0,0-.56-.64.59.59,0,0,0,0-.13,1.07,1.07,0,0,0-1-1.05,2.05,2.05,0,0,0-1.3.43.71.71,0,0,0-.25.3l-.23-.06a.62.62,0,0,0-.69.25,1.48,1.48,0,0,0-1.26.74c-.44.91.63,1.7,1.37,1.94a3.19,3.19,0,0,0,2.47-.2,1.55,1.55,0,0,0,1.07-.2A1.09,1.09,0,0,0,57.35,117.31Z" style="fill:#b4c0cf"/><path d="M31,110.3a.74.74,0,0,0-.77-.37,3.17,3.17,0,0,0-1.5.87.8.8,0,0,0-.2.07,4.93,4.93,0,0,1-3.69.76,6.67,6.67,0,0,0-2.12-.34,4.37,4.37,0,0,0-1.78.61,6.05,6.05,0,0,0-2.67-1.63c-1.78-.38-3.46.62-5.34,1.38-.5-.21-1-.45-1.48-.71s-1.27-.64-2-1a3,3,0,0,0-3.11-.61,2.51,2.51,0,0,0-1.4,2.38,5,5,0,0,0,1.36,3.29l1.08.72a2.13,2.13,0,0,0-.31.29,2,2,0,0,0,0,2.49,2.1,2.1,0,0,0,2.56.61,3.12,3.12,0,0,0,1.2-.91c1.69.82,2.87,1.65,4.84,1.27a5,5,0,0,0,2.11-1,3.38,3.38,0,0,0,2.5-.36A17.8,17.8,0,0,0,24.68,117c.66-.29,1.3-.64,1.95-.94l0-.08a30.78,30.78,0,0,0,3.53-3.31l.33-.46c.19-.35.38-.72.54-1.1A1,1,0,0,0,31,110.3Z" style="fill:#b4c0cf"/><path d="M51.43,113.49l-.09.54c-.07.33-.16.8-.29,1.37-.26,1.15-.67,2.76-1.24,4.64-.29.94-.62,1.95-1,3s-.79,2.16-1.24,3.29-1,2.28-1.49,3.44-1.11,2.31-1.72,3.45c-.3.57-.6,1.14-.91,1.71l-.86,1.6c-.58,1.07-1.12,2.11-1.7,3.13l-1.67,2.93c-.53.93-1,1.82-1.49,2.61l-3.14,5.31-2.75-1.38s.9-2.28,2.26-5.69c.34-.85.68-1.77,1.05-2.74l1.16-3.06c.41-1.06.79-2.2,1.2-3.34l.6-1.72.31-.86.08-.22h0s0,.08,0,0v-.08l0-.1.12-.43c.31-1.13.58-2.27.83-3.39s.44-2.24.62-3.32.31-2.12.43-3.11.19-1.93.26-2.8c.12-1.72.15-3.15.15-4.13,0-.48,0-.85,0-1.1,0-.1,0-.17,0-.23v-.11Z" style="fill:#6486db"/><path d="M43,111.68l-.18.47c-.11.29-.28.72-.5,1.26-.43,1.07-1.08,2.56-1.92,4.31-.42.88-.89,1.83-1.41,2.81s-1.09,2-1.72,3.08-1.3,2.14-2,3.21c-.38.54-.73,1.08-1.14,1.61L32.91,130l-.55.74-.6.76c-.39.52-.8,1-1.21,1.5-.8,1-1.66,1.91-2.48,2.8s-1.64,1.71-2.44,2.44-1.54,1.47-2.26,2.08S22,141.51,21.43,142l-1.52,1.26-1.33,1.09-2.92-3.25,1.15-1.2,1.31-1.37c.5-.54,1-1.16,1.64-1.82s1.23-1.41,1.87-2.19,1.3-1.63,2-2.5,1.31-1.79,1.92-2.76c.31-.48.62-1,.91-1.46l.45-.74.47-.79c.33-.55.56-1,.81-1.53s.49-1,.73-1.52c.46-1,.87-2,1.26-3.06.76-2,1.36-4,1.83-5.65s.81-3.09,1-4.07c.1-.48.18-.86.23-1.12s.07-.37.07-.37Z" style="fill:#6486db"/><path d="M50,77.53c-5.66-1.66-11-.43-12,2.76l-7.71,26.23,20.5,6,7.71-26.23C59.49,83.13,55.66,79.19,50,77.53Z" style="fill:#1d5098"/><path d="M161.29,182.46c2.18.78,3.09,1.71,6.76,2.25s11.15,1.26,13.43,9.53c2.5,9.08,15.37,7.4,10,15.61-3.1,4.74-15.11,3.65-22.1-9.87-2.71-5.24-9.05-1.4-10.58-5.51s-3.27-2.44-3.27-2.44-3.38-.4-2.17-4S154.93,180.19,161.29,182.46Z" style="fill:#0f3871"/><rect x="48.67" y="252.42" width="2.69" height="3.97" transform="translate(-44.44 12.95) rotate(-10.24)" style="fill:#f4ab8e"/><rect x="89.79" y="294.64" width="3.76" height="5.26" style="fill:#f4ab8e"/><rect x="79.85" y="199.24" width="4.93" height="9.26" style="fill:#f4ab8e"/><path d="M84.69,194.76a3.94,3.94,0,0,0-.6,0c-2.49,0-4.52,2.39-4.52,5.33s2,5.33,4.52,5.33l.6,0Z" style="fill:#5fa8b8;mix-blend-mode:multiply"/><path d="M87.41,199.24c0,2.94-.61,5.33-4.52,5.33-2.5,0-4.52-2.39-4.52-5.33s2-5.33,4.52-5.33S87.41,196.3,87.41,199.24Z" style="fill:#f4ab8e"/><path d="M58.65,187.83a1.38,1.38,0,0,1-.14,1.93h0a1.37,1.37,0,0,1-1.89-.41l-1.95-2.6a1.38,1.38,0,0,1,.14-1.93h0a1.37,1.37,0,0,1,1.89.41Z" style="fill:#f4ab8e"/><path d="M58.52,188.11a.46.46,0,0,1-.22.6h0a.47.47,0,0,1-.54-.36l-.59-2.76a.46.46,0,0,1,.22-.61h0a.46.46,0,0,1,.53.36Z" style="fill:#f4ab8e"/><path d="M101.44,203.71a1.37,1.37,0,0,0,1,1.68h0a1.38,1.38,0,0,0,1.53-1.18l.64-3.18a1.39,1.39,0,0,0-.95-1.69h0a1.39,1.39,0,0,0-1.54,1.19Z" style="fill:#f4ab8e"/><path d="M101.68,203.9a.45.45,0,0,0,.46.45h0a.47.47,0,0,0,.33-.55l-.65-2.75c0-.28-.24-.48-.46-.45h0a.45.45,0,0,0-.33.55Z" style="fill:#f4ab8e"/><path d="M84.34,238s0,.27,0,.76,0,1.13,0,1.95c0,1.65-.19,4-.55,6.78a49.36,49.36,0,0,1-2.19,9.66,28.08,28.08,0,0,1-2.56,5.5,16.66,16.66,0,0,1-4.76,5.13,13.17,13.17,0,0,1-7,2.27H66l-.16,0-.31,0-1.23-.13-.61-.07c-.18,0-.5-.08-.73-.12l-1.51-.3-.73-.15-.68-.23-1.33-.45a10,10,0,0,1-1.26-.55c-.41-.2-.82-.39-1.21-.6a17,17,0,0,1-3.92-3.1,16.47,16.47,0,0,1-2.42-3.35,17.78,17.78,0,0,1-1.21-2.87,15.58,15.58,0,0,1-.5-1.95c0-.23-.07-.43-.09-.55l0-.24,3.94-.64,0,.06.13.34a10.83,10.83,0,0,0,.61,1.32,12.31,12.31,0,0,0,1.24,1.89,11,11,0,0,0,4.9,3.45c.28.09.57.15.85.23a4.92,4.92,0,0,0,.88.21l.92.13.46.07h1.81l.62,0,1.23-.09.32,0h.06l.39-.1a4.69,4.69,0,0,0,2.36-1.36c1.23-1.29,2.08-3.78,2.46-6.37a39,39,0,0,0,.3-7.54c-.12-2.29.09-7.5.09-7.5Z" style="fill:#0f3871"/><path d="M91.8,236.87l.17.64c.12.49.28,1.22.5,2.14l.16.73c0,.23.08.47.12.73.09.5.18,1,.28,1.64s.2,1.2.31,1.86.17,1.33.25,2c.17,1.41.38,2.95.54,4.56s.25,3.31.39,5.06q.11,1.32.21,2.67c0,.9.06,1.81.1,2.72.07,1.83.14,3.69.21,5.55s.07,3.71.07,5.54v5.35c0,1.73,0,3.41,0,5s-.1,3.08-.15,4.46c-.18,5.53-.31,9.21-.31,9.21H88.94l-.6-9.07c-.09-1.36-.18-2.84-.29-4.39s-.28-3.19-.44-4.88-.34-3.43-.52-5.21-.33-3.57-.6-5.35-.49-3.57-.73-5.32l-.36-2.61c-.15-.85-.3-1.68-.45-2.51-.29-1.64-.57-3.23-.84-4.74s-.64-2.88-.92-4.17c-.14-.64-.28-1.26-.41-1.84s-.3-1.1-.44-1.61-.26-1-.38-1.41c-.06-.21-.12-.42-.17-.62s-.11-.34-.17-.49l-.47-1.45-.24-.61Z" style="fill:#0f3871"/><path d="M93.34,240.13l-23-.36s3.31-10.86,4.06-15c.82-4.55,2.38-18.34,2.38-18.34L88,206.08s1.83,16.7,2,21.13S93.34,240.13,93.34,240.13Z" style="fill:#fcc840"/><path d="M88,206.11l.12.23.38.69a24.14,24.14,0,0,0,1.56,2.41,14.6,14.6,0,0,0,2.57,2.8,5.62,5.62,0,0,0,1.51.87,2.07,2.07,0,0,0,1.31.09,3.75,3.75,0,0,0,1.38-.85c.22-.25.45-.48.67-.75s.42-.56.61-.87l.54-.91c.16-.33.31-.64.47-.95.31-.61.53-1.25.78-1.8l.57-1.6c.17-.47.28-.91.4-1.26l.33-1.1,3,.74-.19,1.21c-.06.39-.11.86-.23,1.41s-.22,1.15-.37,1.83-.34,1.4-.6,2.18l-.41,1.21L101.9,213c-.19.44-.45.88-.69,1.33s-.6.9-.94,1.35a8.32,8.32,0,0,1-3.15,2.43,7.47,7.47,0,0,1-4.48.35A11.37,11.37,0,0,1,89.19,217a21.43,21.43,0,0,1-4.25-3.51,32.25,32.25,0,0,1-2.37-2.77l-.62-.84-.23-.34Z" style="fill:#fcc840"/><polygon points="58.63 187.22 82.67 212.72 77.03 217.82 56.09 189.51 58.63 187.22" style="fill:#fcc840"/><path d="M83.28,196.53s.48,5.13-2.29,5.13c0,0,1.72,2.82-1.27,2.82-5.65,0-2.1-8.12-2.1-8.12s.66-2.93,5.69-2.93,5.12,5.72,4.1,6.75C87.41,200.18,87.65,196.53,83.28,196.53Z" style="fill:#0f3871"/><path d="M84.79,206.19c0,.5-1.11.91-2.47.91s-2.47-.41-2.47-.91,1.11-.92,2.47-.92S84.79,205.68,84.79,206.19Z" style="fill:#f4ab8e"/><path d="M51.6,252.43l-.93-5-4.33.8c-2.39.43-4.24,1.28-4.13,1.88s2.14.74,4.53.31l.51-.1.53,2.81Z" style="fill:#0f3871"/><path d="M94.42,301.6h-.57l-.06-3.15-4.29.08.1,5.56,4.86-.05c2.68,0,4.84-.61,4.83-1.29S97.1,301.56,94.42,301.6Z" style="fill:#0f3871"/><rect x="189.14" y="241.61" width="3.97" height="2.69" transform="translate(-81.94 387.83) rotate(-79.76)" style="fill:#f4ab8e"/><rect x="169.14" y="265.83" width="3.76" height="5.26" transform="translate(-103.69 429.26) rotate(-87.84)" style="fill:#f4ab8e"/><rect x="156.36" y="187.79" width="4.93" height="9.26" style="fill:#f4ab8e"/><path d="M156.86,183.16a4.38,4.38,0,0,0-.52,0v10.6l.52,0c2.5,0,4.52-2.38,4.52-5.33S159.36,183.16,156.86,183.16Z" style="fill:#5fa8b8;mix-blend-mode:multiply"/><path d="M153.74,187.79c0,3-.17,5.33,4.52,5.33,2.49,0,4.52-2.38,4.52-5.33s-2-5.33-4.52-5.33S153.74,184.85,153.74,187.79Z" style="fill:#f4ab8e"/><path d="M177.86,185.21a1.39,1.39,0,0,0,.14,1.94h0a1.39,1.39,0,0,0,1.9-.41l1.94-2.6a1.37,1.37,0,0,0-.14-1.93h0a1.37,1.37,0,0,0-1.89.41Z" style="fill:#f4ab8e"/><path d="M178,185.49a.46.46,0,0,0,.23.6h0a.46.46,0,0,0,.53-.35l.6-2.77a.47.47,0,0,0-.23-.6h0a.47.47,0,0,0-.53.36Z" style="fill:#f4ab8e"/><path d="M139.7,192.26a1.36,1.36,0,0,1-.95,1.68h0a1.38,1.38,0,0,1-1.54-1.18l-.64-3.18a1.37,1.37,0,0,1,1-1.68h0a1.38,1.38,0,0,1,1.53,1.18Z" style="fill:#f4ab8e"/><path d="M139.47,192.46a.46.46,0,0,1-.46.44h0a.45.45,0,0,1-.33-.55l.65-2.75a.45.45,0,0,1,.46-.45h0a.48.48,0,0,1,.33.55Z" style="fill:#f4ab8e"/><path d="M168.9,227.77s.32,5.28.21,7.57a41.55,41.55,0,0,0,.71,7.61c.38,2.59,1.24,5.08,2.47,6.37a4.58,4.58,0,0,0,2.36,1.36l.38.1h.05c-.09,0,.22,0-.2,0h.22l.31,0,1.24.09.61,0h.48l.88,0h.45l.46-.07.93-.13a5.82,5.82,0,0,0,.87-.2l.85-.23A10.92,10.92,0,0,0,185,248.8a11.3,11.3,0,0,0,2.05-2,13.41,13.41,0,0,0,1.24-1.89,10.83,10.83,0,0,0,.61-1.32q.08-.22.12-.33l0-.07,3.94.64,0,.24c0,.13,0,.32-.09.55a14.43,14.43,0,0,1-.49,2,17.56,17.56,0,0,1-1.22,2.87,16.09,16.09,0,0,1-2.42,3.35,16.83,16.83,0,0,1-3.92,3.1c-.39.22-.79.4-1.21.6a9.47,9.47,0,0,1-1.26.56l-1.33.45-.67.22-.74.15-1.5.3c-.24,0-.55.11-.73.12l-.62.07-1.23.13-.31,0h-.56l-.86,0a13.27,13.27,0,0,1-7-2.26,16.93,16.93,0,0,1-4.76-5.14,28.67,28.67,0,0,1-2.56-5.5,49.36,49.36,0,0,1-2.19-9.66c-.36-2.8-.5-5.13-.55-6.78,0-.82,0-1.48,0-2s0-.75,0-.75Z" style="fill:#5e92d8"/><path d="M160.27,228.92s-.06.14-.16.42-.27.74-.46,1.34c-.38,1.18-.89,2.92-1.38,5-.24,1.06-.48,2.21-.68,3.43s-.38,2.51-.52,3.84-.21,2.7-.19,4.07a30.72,30.72,0,0,0,.26,4.08c.11.66.19,1.34.35,2,.08.32.14.65.22,1l.28.92a6.22,6.22,0,0,0,.31.89l.33.87c.28.53.51,1.1.82,1.59a12.16,12.16,0,0,0,1,1.42l.51.66.56.57c.19.19.36.39.56.57l.6.48c.2.16.38.33.58.48l.62.39a8.69,8.69,0,0,0,1.2.7l1.15.57c.78.27,1.44.56,2,.72l1.86.48-.82,5.62-2.37-.33c-.76-.12-1.68-.38-2.74-.63-.52-.17-1.07-.37-1.66-.58a12.05,12.05,0,0,1-1.81-.78l-1-.47c-.32-.18-.63-.39-1-.59l-1-.62c-.32-.23-.63-.49-.95-.74l-1-.79-.9-.9a18.29,18.29,0,0,1-1.71-2,10.66,10.66,0,0,1-.77-1.09c-.24-.37-.5-.75-.73-1.13l-.65-1.19a11.56,11.56,0,0,1-.59-1.23L150,256.7c-.17-.42-.31-.84-.46-1.27-.33-.86-.54-1.72-.78-2.58a40.12,40.12,0,0,1-1-5.18c-.22-1.71-.3-3.37-.35-5s0-3.15.08-4.6.19-2.83.33-4.09c.27-2.52.64-4.6.93-6.07.14-.74.27-1.32.36-1.73l.17-.66Z" style="fill:#5e92d8"/><path d="M147.8,228.69l23.06-.37s-3.32-10.85-4.07-15c-.82-4.55-2.38-18.35-2.38-18.35l-11.28-.34s-1.84,16.71-2,21.13S147.8,228.69,147.8,228.69Z" style="fill:#0f3871"/><path d="M159.05,198.7l-.23.31c-.15.19-.35.46-.63.79a28.14,28.14,0,0,1-2.43,2.59,19.51,19.51,0,0,1-1.87,1.56,14.67,14.67,0,0,1-2.42,1.48,9.21,9.21,0,0,1-3.16.95,7.39,7.39,0,0,1-3.64-.5,8.72,8.72,0,0,1-2.82-2c-.38-.39-.67-.8-1-1.2l-.79-1.23c-.22-.41-.43-.82-.63-1.21s-.35-.8-.52-1.18c-.35-.76-.56-1.49-.81-2.16s-.38-1.29-.54-1.84-.26-1-.36-1.42c-.18-.78-.29-1.23-.29-1.23l3-.74.44,1.11c.15.36.29.8.52,1.27s.44,1,.73,1.58.58,1.18,1,1.76c.19.29.36.61.57.9s.42.56.63.85l.69.77c.25.19.49.44.73.61a3.4,3.4,0,0,0,1.33.59,2.09,2.09,0,0,0,1-.18,5.3,5.3,0,0,0,1.21-.71,10.32,10.32,0,0,0,1.26-1.15,15,15,0,0,0,1.12-1.31,19.3,19.3,0,0,0,1.5-2.23c.17-.28.29-.5.36-.64a.59.59,0,0,0,.05-.12l0-.07Z" style="fill:#0f3871"/><path d="M172.44,199.7c.17-.13.35-.26.55-.43l.27-.24.19-.18a13.05,13.05,0,0,0,1.63-1.95c.46-.64.87-1.27,1.26-1.9s.76-1.24,1.11-1.84c.69-1.19,1.31-2.32,1.82-3.28l0-.08a10.93,10.93,0,0,0-3.12-2.73l-.53.65c-.65.84-1.41,1.82-2.25,2.82-.42.5-.84,1-1.27,1.53s-.88,1-1.32,1.45c-.22.23-.43.41-.64.6a2.2,2.2,0,0,1-.28.22l-.13.1,0,0h0l.07-.07h0l0,0-.11.08-.2.17-.1,0-.22.12a4.11,4.11,0,0,1-.52.25,7.23,7.23,0,0,1-2.14.44,11.46,11.46,0,0,1-1.72-.09c-.4-.07-.59-.11-.47-.07l-.14,1.47c2,.23,4,.71,5.25,3.13q.28.54.57,1.05c.58-.24,1.07-.46,1.37-.62S172.08,200,172.44,199.7Z" style="fill:#0f3871"/><path d="M172.54,200.51c.17-.13.35-.28.55-.46l.28-.25.19-.19a14,14,0,0,0,1.65-2.08c.47-.68.88-1.35,1.28-2s.76-1.32,1.11-2c.7-1.27,1.32-2.46,1.84-3.49l.05-.09a11.44,11.44,0,0,0-3.16-2.9l-.53.69c-.66.9-1.44,1.94-2.28,3-.43.53-.85,1.09-1.29,1.62s-.89,1.08-1.33,1.54c-.22.26-.44.44-.65.65s-.19.15-.28.23l-.13.1,0,0h0s.13-.13.07-.06h0l0,0-.1.09-.21.18c-.05,0-.06,0-.1.06l-.22.13c-.17.1-.35.18-.52.26a6.6,6.6,0,0,1-2.17.46,10.32,10.32,0,0,1-1.73-.09l-.48-.08-.14,1.57c2,.24,4.41.67,5.67,3.25.19.38.39.75.58,1.11a6.14,6.14,0,0,0,1-.57A12.87,12.87,0,0,0,172.54,200.51Z" style="fill:#5fa8b8;mix-blend-mode:multiply"/><path d="M180.51,186.56s-.63,1.27-1.63,3.12c-.51.93-1.1,2-1.78,3.16-.34.57-.69,1.16-1.08,1.76s-.78,1.21-1.23,1.83a12.89,12.89,0,0,1-1.59,1.87l-.19.18-.26.22c-.19.16-.36.29-.54.42a9.12,9.12,0,0,1-1.07.67,74.84,74.84,0,0,1-7.61,2.83l.74-7.66c-.12,0,.07,0,.46.07a10.82,10.82,0,0,0,1.67.09,7.13,7.13,0,0,0,2.09-.42,3.38,3.38,0,0,0,.51-.24l.21-.12a.88.88,0,0,0,.1-.05l.2-.16.1-.08,0,0h0c.07-.06-.08.07-.06.06h0l0,0,.12-.09a2.22,2.22,0,0,0,.27-.21c.21-.19.41-.35.63-.58.42-.42.86-.9,1.28-1.39s.83-1,1.24-1.47c.82-1,1.57-1.9,2.2-2.71,1.31-1.6,2.15-2.69,2.15-2.69Z" style="fill:#0f3871"/><path d="M157.56,184.41a16.41,16.41,0,0,1,2.55,4.47c.4,1.14-.82,1.73,1.31,4.15,5.65,0,2.1-8.12,2.1-8.12s-.65-2.93-5.69-2.93-5.12,5.73-4.09,6.75C153.74,188.73,153.11,184.41,157.56,184.41Z" style="fill:#0f3871"/><path d="M156.36,194.74c0,.51,1.1.92,2.46.92s2.47-.41,2.47-.92-1.1-.92-2.47-.92S156.36,194.23,156.36,194.74Z" style="fill:#f4ab8e"/><path d="M189.54,241l.94-5,4.32.8c2.39.44,4.24,1.28,4.13,1.89s-2.14.74-4.53.3l-.51-.1-.53,2.81Z" style="fill:#0f3871"/><path d="M175.24,271.38q0-.3,0-.57l-3.15-.18.24-4.28,5.56.31-.23,4.85c-.14,2.67-.8,4.82-1.48,4.78S175.1,274.06,175.24,271.38Z" style="fill:#0f3871"/><path d="M159,187.78a1.7,1.7,0,0,0,.58,2.28,1.63,1.63,0,0,0,2.08-1,1.7,1.7,0,0,0-.57-2.28A1.64,1.64,0,0,0,159,187.78Z" style="fill:#5fa8b8;mix-blend-mode:multiply"/><path d="M158.45,187.65a1.49,1.49,0,1,0,2.08-1A1.66,1.66,0,0,0,158.45,187.65Z" style="fill:#f4ab8e"/><rect x="301.76" y="168" width="2.69" height="3.97" transform="translate(-35.67 92.54) rotate(-16.41)" style="fill:#f4ab8e"/><rect x="320.42" y="179.29" width="2.89" height="4.05" transform="translate(-32.86 78.14) rotate(-13.18)" style="fill:#f4ab8e"/><path d="M325.67,138.52a1.2,1.2,0,0,1,.88-1.45h0a1.2,1.2,0,0,1,1.3,1.07l.48,2.79a1.21,1.21,0,0,1-.88,1.45h0a1.21,1.21,0,0,1-1.31-1.07Z" style="fill:#f4ab8e"/><path d="M325.88,138.35c0-.24.22-.41.41-.38h0a.4.4,0,0,1,.27.49l-.63,2.39a.4.4,0,0,1-.42.37h0a.39.39,0,0,1-.27-.48Z" style="fill:#f4ab8e"/><path d="M292.55,104.65a1.2,1.2,0,0,1-1,1.38h0a1.2,1.2,0,0,1-1.23-1.16l-.28-2.82a1.2,1.2,0,0,1,1-1.38h0a1.22,1.22,0,0,1,1.24,1.16Z" style="fill:#f4ab8e"/><path d="M292.32,104.8a.4.4,0,0,1-.43.35h0a.4.4,0,0,1-.24-.51l.8-2.33a.4.4,0,0,1,.44-.35h0a.41.41,0,0,1,.24.5Z" style="fill:#f4ab8e"/><path d="M319.62,135.27s0,.17,0,.49-.06.81-.11,1.42c-.08,1.24-.18,3-.24,5.19,0,1.08-.05,2.25-.05,3.48s0,2.55.06,3.89.11,2.73.21,4.13.23,2.82.39,4.23c.1.7.2,1.4.29,2.1l.36,2.05c.28,1.46.55,2.9.81,4.29s.51,2.71.72,4,.42,2.49.61,3.61.34,2.13.48,3l.36,2.34c.2,1.3.31,2,.31,2l-3.4.79s-.24-.71-.64-1.94c-.21-.62-.47-1.36-.76-2.22s-.6-1.84-1-2.88-.76-2.17-1.19-3.36-.87-2.45-1.37-3.77-1-2.63-1.51-4l-.81-2.21c-.25-.75-.49-1.5-.74-2.24-.46-1.5-.89-3-1.26-4.49s-.73-3-1-4.38-.57-2.8-.81-4.11-.44-2.55-.62-3.7c-.36-2.29-.6-4.22-.76-5.58-.07-.69-.13-1.23-.17-1.6s-.05-.59-.05-.59Z" style="fill:#fbc900"/><path d="M325.49,139.07s-.42-1.94-1.12-4.84c-.36-1.44-.78-3.13-1.27-4.91-.25-.88-.52-1.79-.81-2.7-.15-.45-.29-.91-.45-1.34-.08-.21-.16-.44-.24-.64l-.13-.3-.06-.15,0-.07s.09.18.05.09h0v0l0,0a10.36,10.36,0,0,0-.68-1.1l-.8-1.2-1.65-2.33-3-4.11c-1.79-2.4-3-4-3-4l4.3-3.15s.29.41.82,1.12,1.26,1.72,2.12,3,1.88,2.68,2.92,4.26c.51.81,1.05,1.64,1.59,2.48.27.44.55.88.82,1.33s.74,1.26.88,1.59l.11.24,0,.1.07.22.13.43c.1.29.15.54.22.82.14.54.24,1,.35,1.56.21,1,.38,2,.54,3,.31,1.89.55,3.65.75,5.15s.28,2.78.37,3.66.12,1.39.12,1.39Z" style="fill:#5e92d8"/><rect x="306.61" y="102.49" width="4.31" height="6.66" transform="translate(-4.43 13.92) rotate(-2.56)" style="fill:#f4ab8e"/><path d="M311.17,139.93l-.05,0,0,0-.09.08c-.13.12-.35.32-.63.61a26.64,26.64,0,0,0-2.2,2.68c-.41.6-.86,1.26-1.28,2a23.47,23.47,0,0,0-1.23,2.35,26.1,26.1,0,0,0-1.05,2.65,24.52,24.52,0,0,0-.76,2.86c-.1.49-.19,1-.26,1.47s-.12,1-.17,1.48a28.63,28.63,0,0,0-.08,2.92,26.78,26.78,0,0,0,.23,2.76c.05.44.11.86.2,1.28s.14.81.23,1.19c.19.76.33,1.47.54,2.08s.33,1.17.51,1.6c.31.88.5,1.38.5,1.38l-4.47,2.15s-.29-.54-.78-1.48c-.27-.47-.52-1.07-.84-1.74s-.62-1.47-1-2.33c-.17-.44-.31-.9-.48-1.38s-.31-1-.45-1.49a30.84,30.84,0,0,1-.74-3.33,32.29,32.29,0,0,1-.42-3.65c0-.63-.06-1.27-.05-1.91s0-1.28.06-1.92a37.42,37.42,0,0,1,.46-3.83,35.22,35.22,0,0,1,2.05-7c.42-1,.88-2,1.33-2.87a34,34,0,0,1,2.5-4.11c.35-.48.65-.87.87-1.14l.15-.19.15-.17.1-.1Z" style="fill:#fbc900"/><path d="M305.9,112.07l-.2.37c-.12.22-.3.55-.54,1-.47.83-1.16,2-2.1,3.36a26.23,26.23,0,0,1-3.73,4.42,9.6,9.6,0,0,1-3.15,2,4.93,4.93,0,0,1-2.39.29,3,3,0,0,1-1.73-.92,4.48,4.48,0,0,1-.73-1.11,9.05,9.05,0,0,1-.59-1.87c-.12-.58-.19-1.14-.26-1.68-.12-1.09-.18-2.13-.22-3.13-.08-2-.1-3.82-.12-5.38,0-3.13-.12-5.18-.12-5.18l2.71-.18s.31,2.11.68,5.23c.19,1.56.39,3.38.68,5.26.14.94.3,1.9.52,2.81.1.45.71.68,1.19.12a23.19,23.19,0,0,0,2.5-3.82c.67-1.26,1.17-2.36,1.5-3.13.16-.38.28-.68.37-.88s.1-.28.1-.28Z" style="fill:#5e92d8"/><path d="M299,137.39l21.78-1s-1.45-8.26-1.87-12.24-2.14-16-2.14-16l-16.46,1s-.09,12.1-.07,15.87S299,137.39,299,137.39Z" style="fill:#5e92d8"/><path d="M305.41,171l1.4,4.88-4.24,1.23c-2.33.68-4.37.76-4.54.17s1.58-1.63,3.92-2.31l.5-.14-.79-2.76Z" style="fill:#0f3871"/><path d="M320.24,185.38l.48-.09-.56-2.62,3.55-.76,1,4.61-4,.9c-2.22.48-4.12.42-4.24-.14S318,185.87,320.24,185.38Z" style="fill:#0f3871"/><path d="M304.3,102.07c-.53,2.51-.45,4.66,2.89,5.37,2.13.46,4.29-1.21,4.83-3.72s-.75-4.92-2.88-5.38S304.84,99.55,304.3,102.07Z" style="fill:#f4ab8e"/><path d="M312.13,99.05c-.27,1.26-2.16,1.92-4.22,1.48s-3.51-1.82-3.24-3.07,2.15-1.92,4.21-1.48S312.4,97.8,312.13,99.05Z" style="fill:#0f3871"/><path d="M311,98.16s2.78.61,2.45,2.65-.94,4.35-2.71,5c-1.38.47-7.26,0-3.68-6.24C307.55,98.66,311,98.16,311,98.16Z" style="fill:#0f3871"/><rect x="362.27" y="275.18" width="3.08" height="4.55" transform="translate(-55.81 95.08) rotate(-13.84)" style="fill:#f4ab8e"/><rect x="406.14" y="256.25" width="3.31" height="4.64" transform="translate(15.55 540.18) rotate(-68.05)" style="fill:#f4ab8e"/><path d="M398.76,184.9a1.38,1.38,0,0,0,1,1.66h0a1.37,1.37,0,0,0,1.5-1.22l.56-3.19a1.38,1.38,0,0,0-1-1.66h0a1.36,1.36,0,0,0-1.5,1.22Z" style="fill:#f4ab8e"/><path d="M398.83,185.72a.47.47,0,0,0,.47.43h0a.46.46,0,0,0,.32-.56l-.72-2.73a.46.46,0,0,0-.47-.44h0a.46.46,0,0,0-.32.56Z" style="fill:#f4ab8e"/><path d="M351.9,187a1.38,1.38,0,0,1-1.19,1.53h0a1.38,1.38,0,0,1-1.35-1.39l-.18-3.24a1.39,1.39,0,0,1,1.19-1.53h0a1.38,1.38,0,0,1,1.35,1.39Z" style="fill:#f4ab8e"/><path d="M351.63,187.15a.45.45,0,0,1-.52.38h0a.46.46,0,0,1-.24-.59l1-2.64a.46.46,0,0,1,.52-.37h0a.45.45,0,0,1,.25.59Z" style="fill:#f4ab8e"/><path d="M378.53,231.18l-.07,0a1.77,1.77,0,0,0-.26.15c-.26.15-.67.41-1.19.76a39.5,39.5,0,0,0-4.15,3.32A32.53,32.53,0,0,0,368,241a20.24,20.24,0,0,0-3.2,7.45l-.17,1-.09,1v.06c0-.08,0,0,0,0v1.17c0,.42,0,.84,0,1.26,0,1.7,0,3.27,0,4.85.05,3.16.14,6.13.24,8.67.18,5.1.36,8.49.36,8.49l-4,.51s-.71-3.35-1.69-8.39c-.48-2.52-1-5.47-1.59-8.65-.26-1.6-.57-3.31-.81-5-.12-.85-.25-1.71-.38-2.57l-.16-1.51-.07-1.53a29.37,29.37,0,0,1,2.36-11.59,42.89,42.89,0,0,1,4.95-8.75,50.86,50.86,0,0,1,4.53-5.41c.6-.63,1.1-1.11,1.47-1.45l.45-.41.18-.15Z" style="fill:#6486db"/><rect x="373.03" y="183.19" width="4.93" height="7.63" style="fill:#f4ab8e"/><path d="M386.47,229.5l-.05.07-.18.31c-.18.29-.43.74-.75,1.33a48.18,48.18,0,0,0-2.33,5,27.31,27.31,0,0,0-1.86,7,10.18,10.18,0,0,0,.12,3.18,4,4,0,0,0,1.14,2.13l0,0-.16-.1h0l0,0,.14.1.24.16a0,0,0,0,1,0,0s0,0,.07,0a7.27,7.27,0,0,0,.73.35,17.51,17.51,0,0,0,2,.64c1.46.39,3.05.7,4.61,1,3.13.58,6.19,1.09,8.83,1.69a48.68,48.68,0,0,1,6.45,1.85c.78.29,1.39.56,1.81.75l.64.31-2.27,5.2-.51-.17c-.33-.11-.83-.26-1.48-.42a41.21,41.21,0,0,0-5.74-1c-2.46-.27-5.41-.43-8.69-.65-1.65-.12-3.38-.25-5.26-.52a25.22,25.22,0,0,1-3-.6,15.57,15.57,0,0,1-1.68-.55,5,5,0,0,1-.52-.23l-.56-.27-.32-.17-.14-.08,0,0h0l-.19-.12-.1-.06a13.33,13.33,0,0,1-5.07-5.9,19.26,19.26,0,0,1-1.53-6.6,30.46,30.46,0,0,1,.17-5.65,45.51,45.51,0,0,1,.8-4.73,62,62,0,0,1,1.92-6.73c.28-.8.52-1.42.7-1.87l.21-.52.09-.21Z" style="fill:#6486db"/><path d="M370.87,195.28l-.3.32-.81.85c-.71.71-1.73,1.72-3,2.85a37.3,37.3,0,0,1-4.78,3.63,17.51,17.51,0,0,1-3.24,1.63,9.27,9.27,0,0,1-2,.52,7.16,7.16,0,0,1-1.16.07l-.61,0-.19,0h-.07l-.1,0-.12,0-.25-.07c-.16-.06-.35-.12-.47-.18l-.36-.19a4.72,4.72,0,0,1-.61-.43,5.6,5.6,0,0,1-.89-1,8.16,8.16,0,0,1-1-1.87,18.94,18.94,0,0,1-.94-3.42,48.25,48.25,0,0,1-.63-5.83c-.09-1.69-.11-3.09-.12-4.07v-1.53l3.11-.07s.06.54.19,1.49.31,2.28.6,3.87a42.7,42.7,0,0,0,1.25,5.2,12.52,12.52,0,0,0,1,2.44,2.51,2.51,0,0,0,.55.7c.07.05.12.05.11,0a.48.48,0,0,0-.08-.1l-.09-.06a.78.78,0,0,0-.24-.11l-.14,0h.26l-.23,0h0l.08,0,.26-.09a5.94,5.94,0,0,0,.82-.37,12.6,12.6,0,0,0,2-1.37,34.34,34.34,0,0,0,3.61-3.46c1-1.12,1.83-2.12,2.38-2.81.27-.35.47-.62.62-.8a1.14,1.14,0,0,1,.35-.29Z" style="fill:#0f3871"/><path d="M384.53,190.14s.22.27.33.44l.52.78a32.11,32.11,0,0,0,2.06,2.67,18.26,18.26,0,0,0,3.31,3.1,6.12,6.12,0,0,0,1.91,1,2.62,2.62,0,0,0,.85.11h0l.19,0c.09,0,0,0,0,0h0a1.23,1.23,0,0,0,.28-.12,4.67,4.67,0,0,0,1.43-1.47,12.77,12.77,0,0,0,1.15-2.24,24.58,24.58,0,0,0,1.28-4.59c.26-1.4.38-2.6.46-3.44s.09-1.33.09-1.33l3.11.07s0,.52.08,1.44.07,2.23,0,3.83a27.14,27.14,0,0,1-.85,5.54,16.31,16.31,0,0,1-1.21,3.23,9.07,9.07,0,0,1-2.78,3.36,6.65,6.65,0,0,1-1.27.7l-.47.16-.41.11-.18.05h0l-.19,0h-.08l-.17,0a8.31,8.31,0,0,1-2.5-.05,12.27,12.27,0,0,1-3.88-1.4,24.72,24.72,0,0,1-4.95-3.66,40,40,0,0,1-2.86-2.95c-.33-.37-.58-.68-.76-.9l-.28-.36Z" style="fill:#0f3871"/><path d="M366.4,278.77l1.36,5.67-4.91,1.19c-2.71.66-5.05.64-5.21-.05s1.89-1.78,4.6-2.44l.58-.13-.76-3.2Z" style="fill:#0f3871"/><path d="M410.55,262.77c.07-.18.15-.35.22-.51l-2.82-1.2,1.63-3.83,5,2.11s-1.64,4-1.79,4.35c-1,2.4-2.32,4.14-2.93,3.88S409.54,265.17,410.55,262.77Z" style="fill:#0f3871"/><path d="M375.64,178.23a4.31,4.31,0,0,0-3.92,1.36H373v9l.54.13c2.45.48,4.9-1.47,5.46-4.36S378.09,178.71,375.64,178.23Z" style="fill:#5fa8b8;mix-blend-mode:multiply"/><path d="M371.22,182.17c-.57,2.89-.43,5.34,3.41,6.1,2.45.48,4.89-1.47,5.46-4.35s-.95-5.62-3.4-6.11S371.79,179.28,371.22,182.17Z" style="fill:#f4ab8e"/><path d="M371.25,179.06c-1.26.85.89,2.22,2.23,2.49s4.12-.41,4.63.36-1,4.48-.24,5.59,3.22-4.31,3-6C380.6,179.1,378.21,174.4,371.25,179.06Z" style="fill:#0f3871"/><path d="M373.49,175.43c.93.52,1.66,2.26,3.43,2.78s-.75,1.62-2.56,1.6-3.49-.11-3.49-.11S371.83,174.5,373.49,175.43Z" style="fill:#0f3871"/><path d="M55.88,95.47l0,.06a12.6,12.6,0,0,0,.91,1.19A9.54,9.54,0,0,0,58,97.88a4.88,4.88,0,0,0,1.41.79c.46.17.89.11.9,0s-.08,0-.13,0-.06,0-.08-.14a2.74,2.74,0,0,0-.09-.51,2.08,2.08,0,0,0-.08-.26l-.09-.27-.05-.15,0-.07v0c0,.17,0,0,0,.08h0a12.74,12.74,0,0,0-.9-1.72,13.26,13.26,0,0,0-1.07-1.52c-.37-.47-.75-.89-1.11-1.27l-.06-.06-.75,2.53Z" style="fill:none"/><path d="M55.92,95.25l.75-2.53-.18-.17C56.31,93.42,56.12,94.34,55.92,95.25Z" style="fill:#1d5098"/><path d="M35.07,93.85h0S35.08,93.81,35.07,93.85Z" style="fill:#1d5098"/><path d="M55.92,95.25c.2-.91.39-1.83.57-2.7l.18.17,1.66-5.67c-.33-.36-.57-.6-.57-.6l-1.27-.35L55,85.25a3,3,0,0,0-.26.36l-2.45-.68.39-1.54v0c1.71-.09,2.4-1.41,2.85-3.08A17,17,0,0,0,50,77.53c-.41-.12-.82-.22-1.22-.31-.39,1.68-.32,4.79.42,4.35l-.59,2.35-2-.55a3.38,3.38,0,0,0-.28-.79l-1.73.1s0,.06,0,.14l-.9-.25s-3,1.46-4.21,2.14a37.52,37.52,0,0,0-3.41,2.15L33,97.45a5.48,5.48,0,0,0,1.84.66l.31,0h-.09v.72a7.19,7.19,0,0,0,1.52.07A8.32,8.32,0,0,0,38,98.75c-.55.4-.9.62-.9.62l-.63,2.55s.39-.19,1-.55c-.71,2.12-1.59,4.59-2.31,6.58l15.63,4.6Zm-20.85-1.4s0,0,0,0Zm4.79.25a7.73,7.73,0,0,1-1.36.43,6.39,6.39,0,0,1-1.9.17,2.83,2.83,0,0,1-1.51-.43c-.13-.12-.13-.16-.11-.16s0,0,0,0L35,94v0h0l0-.07a4.44,4.44,0,0,1,1.16-1.38A15.49,15.49,0,0,1,38,91.2a31,31,0,0,1,3.4-1.77C40.9,91,40.36,92.59,39.86,94.1Z" style="fill:#5fa8b8;mix-blend-mode:multiply"/><path d="M35,94.12v0S35,94.11,35,94.12Z" style="fill:#5fa8b8"/><path d="M361.19,228.94l26.48.88s-1.24-11.63-1.51-17.23-1.63-22.45-1.63-22.45l-18.9.42s-.72,16.9-.9,22.16S361.19,228.94,361.19,228.94Z" style="fill:#0f3871"/><rect x="46.03" y="79.34" width="5.88" height="3.8" transform="translate(-41.8 108.78) rotate(-75.79)" style="fill:#f4ab8e"/><path d="M51.72,115.25,31.79,110.9s3.12-8.45,4.39-12.58,5.46-16.45,5.46-16.45l14,3.88S53,98.51,52.15,102.47,51.72,115.25,51.72,115.25Z" style="fill:#fbc900"/><path d="M52.89,99.66a18.22,18.22,0,0,1-1.13-5.31c-.2-4.43,2.64-8.95,2.64-8.95l-1.52-.85S51.14,86.4,50.16,93c-.58,3.85,1.07,7.63,2.55,10.12A7,7,0,0,0,52.89,99.66Z" style="fill:#5574b2"/><path d="M55.62,97.51a8.47,8.47,0,0,1-1.27-1.19H52.2v-3.2l-.06,0,.14-.61a1,1,0,0,0-.33-.62,1.06,1.06,0,0,0-1-1A1.36,1.36,0,0,0,49.8,92.2L50,93.59a1.65,1.65,0,0,0,.06.32l-.25.09.12.3c.08.19.18.48.34.84s.36.79.62,1.28a16,16,0,0,0,1,1.61,12.57,12.57,0,0,0,1.48,1.76,9.07,9.07,0,0,0,1,.85V98.1h2.21A5.88,5.88,0,0,1,55.62,97.51Z" style="fill:#5fa8b8;mix-blend-mode:multiply"/><path d="M52.29,92.74a1.06,1.06,0,0,1-.63,1.35h0a1.06,1.06,0,0,1-1.25-.82L49.84,92a1.36,1.36,0,0,1,.8-1.53h0a1.07,1.07,0,0,1,1.25.82Z" style="fill:#f4ab8e"/><path d="M52.34,93.23a.23.23,0,0,1-.23.3h0a.4.4,0,0,1-.35-.32l-.15-1.72a.23.23,0,0,1,.23-.3h0c.16,0,.45.36.48.52Z" style="fill:#f4ab8e"/><path d="M55.67,85.75S57.84,88,58.6,89.07c.39.54.78,1.14,1.16,1.79A18.75,18.75,0,0,1,60.84,93a18.38,18.38,0,0,1,.85,2.47l0,.1v0l0,.08,0,.14.06.31a7.78,7.78,0,0,1,.1.81,5.66,5.66,0,0,1-.11,1.67,4,4,0,0,1-.87,1.75,3.46,3.46,0,0,1-1.76,1.07,4.73,4.73,0,0,1-3.27-.48,8.11,8.11,0,0,1-2.1-1.57,11.46,11.46,0,0,1-1.4-1.71,16.72,16.72,0,0,1-.93-1.56c-.24-.48-.43-.9-.58-1.25s-.25-.63-.33-.82l-.11-.29,2.24-.86.12.25c.09.15.2.39.37.68s.38.63.63,1A10.75,10.75,0,0,0,54.74,96,8.91,8.91,0,0,0,56,97.18a4.63,4.63,0,0,0,1.41.79c.46.17.88.11.89,0s-.08,0-.13,0-.06,0-.07-.14a3,3,0,0,0-.1-.51,1.34,1.34,0,0,0-.08-.26l-.09-.27,0-.15,0-.07v0c0,.17,0,0,0,.08h0a12.74,12.74,0,0,0-.9-1.72,14.58,14.58,0,0,0-1.06-1.52,16.05,16.05,0,0,0-1.12-1.27,12.1,12.1,0,0,0-1.93-1.49Z" style="fill:#fbc900"/><path d="M42.51,82s1.3,5.22-.5,9.31-7,7.38-7,7.38l-.63,2.55s8.46-4.08,9.79-10.63.06-8.71.06-8.71Z" style="fill:#5574b2"/><g style="mix-blend-mode:multiply"><path d="M44.47,90.37a1.17,1.17,0,0,0-1.6.06,1,1,0,0,0-.76.26L41.39,92l-.13-.13-.2.2c-.13.12-.32.3-.58.52A10.32,10.32,0,0,1,38.17,94a9.42,9.42,0,0,1-1.7.57,7.12,7.12,0,0,1-1.9.17,3.35,3.35,0,0,1-1-.18v2.89H33v.72a7.25,7.25,0,0,0,1.52.07,9.72,9.72,0,0,0,2.79-.57,11.73,11.73,0,0,0,2.19-1,12.72,12.72,0,0,0,2.72-2.21c.28-.3.49-.55.63-.73l.21-.26,0,0,.15-.14,1.28-1A1.54,1.54,0,0,0,44.47,90.37Z" style="fill:#5fa8b8"/></g><path d="M41.52,91a1.21,1.21,0,0,0-.11,1.69h0a1.19,1.19,0,0,0,1.68-.12l1.28-1a1.54,1.54,0,0,0,0-2h0a1.19,1.19,0,0,0-1.68.12Z" style="fill:#f4ab8e"/><path d="M41.2,91.44a.26.26,0,0,0,.06.42h0a.47.47,0,0,0,.53-.12l1.09-1.62a.26.26,0,0,0-.06-.43h0a1,1,0,0,0-.77.26Z" style="fill:#f4ab8e"/><path d="M42.43,87.15s-1.7,1-2.83,1.46a32.25,32.25,0,0,0-3.67,1.89,14.79,14.79,0,0,0-1.79,1.28A4.26,4.26,0,0,0,33,93.16l0,.07h0s.06-.19,0-.09v0l0,.07,0,.16s0,0,0,0,0,0,0,0,0,0,.11.16a2.91,2.91,0,0,0,1.51.44,7.16,7.16,0,0,0,1.9-.17,9.42,9.42,0,0,0,1.7-.57,10,10,0,0,0,2.31-1.47c.25-.21.45-.39.58-.52l.2-.19L43,92.7l-.21.27c-.14.17-.35.42-.63.73a12.72,12.72,0,0,1-2.72,2.21,11.73,11.73,0,0,1-2.19,1,10.14,10.14,0,0,1-2.79.57,7.41,7.41,0,0,1-1.67-.09,5.53,5.53,0,0,1-1.94-.72A4.06,4.06,0,0,1,29,94.45a4.51,4.51,0,0,1-.16-.78l0-.39a3.55,3.55,0,0,1,0-.46l0-.22,0-.19,0-.16v-.11l.06-.23.09-.27a7.29,7.29,0,0,1,.95-1.81,12.29,12.29,0,0,1,1.1-1.3,18.8,18.8,0,0,1,2.21-1.92,37.56,37.56,0,0,1,4-2.6c1.2-.68,4.21-2.14,4.21-2.14Z" style="fill:#fbc900"/><path d="M31.92,147.55l-2.68,4.95,4.29,2.33c2.36,1.29,4.55,1.86,4.87,1.26s-1.32-2.13-3.69-3.43l-.51-.27,1.51-2.79Z" style="fill:#0f3871"/><path d="M17.61,146.47l-.46-.51L20,143.42l-3.45-3.88-5,4.48,3.87,4.42c2.15,2.44,4.39,4,5,3.42S19.76,148.91,17.61,146.47Z" style="fill:#0f3871"/><path d="M51.53,79.76l1.87-2.14a3,3,0,0,0-2.09-2.49c-1.68-.42-3.49,1-4,3.21s.35,4.32,2,4.75a4.6,4.6,0,0,0,1.1.14Z" style="fill:#5fa8b8;mix-blend-mode:multiply"/><path d="M53.49,79.35c-.56,2.2-1.46,3.87-4.38,3.13-1.86-.48-2.93-2.64-2.37-4.84s2.52-3.59,4.38-3.12S54.05,77.15,53.49,79.35Z" style="fill:#f4ab8e"/><path d="M53.64,76.79H54a10.21,10.21,0,0,0-.63-1.11H47.42v3.45c.46-1,.84-2.33,1.25-2.52.66-.3,2.18,1.31,3.16,1.69a3.68,3.68,0,0,0,1.81.18Z" style="fill:#5fa8b8;mix-blend-mode:multiply"/><path d="M54.5,77.18c.59,1-1.35,1.25-2.38,1s-2.73-1.65-3.34-1.28-.79,3.44-1.68,4-.81-4.06-.13-5.15C48,74.12,51.19,71.64,54.5,77.18Z" style="fill:#0f3871"/><path d="M48.67,78.35c.17.55.21,1-.36,1.19-.36.11-.78-.25-1-.81s0-1.08.36-1.19S48.51,77.79,48.67,78.35Z" style="fill:#f4ab8e"/><polygon points="32.84 111.13 51.11 115.12 50.73 116.73 32.84 111.13" style="fill:#5fa8b8;mix-blend-mode:multiply"/><polygon points="148.63 228.69 168.93 228.35 169.06 230.91 148.63 228.69" style="fill:#5fa8b8;mix-blend-mode:multiply"/><polygon points="300.95 137.31 319.53 136.47 319.35 139.22 300.95 137.31" style="fill:#5fa8b8;mix-blend-mode:multiply"/><polygon points="362.8 229 386.24 229.88 384.61 232.9 362.8 229" style="fill:#5fa8b8;mix-blend-mode:multiply"/><polygon points="71.7 239.79 92.57 240.12 93.03 242.75 71.7 239.79" style="fill:#5fa8b8;mix-blend-mode:multiply"/><path d="M150.38,205.9a15.37,15.37,0,0,0,1.64-.75l.25-3Z" style="fill:#5fa8b8;mix-blend-mode:multiply"/><path d="M90,217.46a7.91,7.91,0,0,1-.85-.47l-.47-4.09Z" style="fill:#5fa8b8;mix-blend-mode:multiply"/><polygon points="319.73 121.6 317.33 112.22 318.34 119.64 319.73 121.6" style="fill:#5fa8b8;mix-blend-mode:multiply"/><polygon points="299.11 121.39 300.23 116.14 300.23 120.31 299.11 121.39" style="fill:#5fa8b8;mix-blend-mode:multiply"/><polygon points="385.34 200.71 384.95 195.55 386.35 201.4 385.34 200.71" style="fill:#5fa8b8;mix-blend-mode:multiply"/><polygon points="307.5 107.49 306.68 107.31 306.68 107.73 307.5 107.49" style="fill:#5fa8b8;mix-blend-mode:multiply"/><path d="M23.52,108.47a.63.63,0,0,0-.45-.58,9.19,9.19,0,0,0-1.16-.31l-.09,0a.59.59,0,0,0-.5,0,1.23,1.23,0,0,0-1.35.88c-.35,1.14,1.14,2.07,2,2.29s2.08.09,2.18-.91A1.45,1.45,0,0,0,23.52,108.47Z" style="fill:#b4c0cf"/><path d="M12.93,109.19a.7.7,0,0,0-.08,1.39A.7.7,0,0,0,12.93,109.19Z" style="fill:#b4c0cf"/><path d="M4.39,114.67a.75.75,0,0,0-.73-.07A1,1,0,0,0,3.15,116a1.46,1.46,0,0,0,1.42.71C5.74,116.5,5.41,114.8,4.39,114.67Z" style="fill:#b4c0cf"/><path d="M70.66,124.12a1.27,1.27,0,0,0-1.31-.84.62.62,0,0,0-.65.51l-.09.15a1.56,1.56,0,0,0,.22,1.67,1,1,0,0,0,1.67-.09A1.72,1.72,0,0,0,70.66,124.12Z" style="fill:#b4c0cf"/><path d="M208.51,3.73s2.42,5,9.21,4.51l.84-3.72A7.12,7.12,0,0,1,211.42,0C211.77,2.12,208.51,3.73,208.51,3.73Z" style="fill:#ff9450"/><path d="M345.31,104.05s9.42-4.83,18.46-6l.29-4c-9.22-3.54-19,3.14-19,3.14C348.76,97.86,345.31,104.05,345.31,104.05Z" style="fill:#fbc900"/><path d="M98.33,133.84s-5.89,8.38-13.67,12.6l2.15,4.46c10.79.83,15.91-9.69,15.91-9.69C98.86,141.75,98.33,133.84,98.33,133.84Z" style="fill:#9edeff"/><path d="M313.82,48.59s12.77-5.6,24.79-5l.64-6.71c-12-8.57-25.36.07-25.36.07C318.77,39,313.82,48.59,313.82,48.59Z" style="fill:#0f3871"/><path d="M196.8,150.11s2.43,5,9.22,4.51l.83-3.72a7.12,7.12,0,0,1-7.14-4.52C200.05,148.5,196.8,150.11,196.8,150.11Z" style="fill:#ff9450"/><path d="M215.42,63.27s9.43-4.83,18.46-6l.3-4c-9.23-3.53-19,3.14-19,3.14C218.87,57.08,215.42,63.27,215.42,63.27Z" style="fill:#fbc900"/><path d="M61.31,6.5s-5.9,8.38-13.67,12.59l2.14,4.46c10.8.84,15.92-9.69,15.92-9.69C61.84,14.4,61.31,6.5,61.31,6.5Z" style="fill:#ee8037"/><path d="M419.18,80.05s-5.89,8.38-13.67,12.6l2.15,4.46c10.8.84,15.92-9.69,15.92-9.69C419.72,88,419.18,80.05,419.18,80.05Z" style="fill:#ee8037"/><path d="M108.72,45.34s-12.77,5.6-24.79,5l-.64,6.71c12,8.57,25.35-.07,25.35-.07C103.76,54.92,108.72,45.34,108.72,45.34Z" style="fill:#9edeff"/><path d="M248,135.87a23.19,23.19,0,0,1-9,1.82l-.23,2.42c4.33,3.1,9.16,0,9.16,0C246.16,139.33,248,135.87,248,135.87Z" style="fill:#9edeff"/><path d="M40.31,57.43a19,19,0,0,1-5.5,5.07l.86,1.79c4.35.34,6.41-3.9,6.41-3.9C40.53,60.61,40.31,57.43,40.31,57.43Z" style="fill:#9edeff"/><path d="M431.88,117.09a19,19,0,0,1-5.5,5.07l.86,1.79c4.35.34,6.41-3.9,6.41-3.9C432.09,120.27,431.88,117.09,431.88,117.09Z" style="fill:#9edeff"/><path d="M91,90.87a25.94,25.94,0,0,1-10,2l-.26,2.7c4.82,3.45,10.21,0,10.21,0C89,94.72,91,90.87,91,90.87Z" style="fill:#0f3871"/><path d="M368.42,46.16s-3.88,5.52-9,8.3l1.42,2.94C367.94,58,371.32,51,371.32,51,368.77,51.37,368.42,46.16,368.42,46.16Z" style="fill:#9edeff"/><path d="M363.56,17.85A17.16,17.16,0,0,1,357,19.18L356.81,21c3.18,2.27,6.73,0,6.73,0C362.24,20.39,363.56,17.85,363.56,17.85Z" style="fill:#0f3871"/></g></g></g></svg>