<svg xmlns="http://www.w3.org/2000/svg" viewBox="0 0 325.77 256.01"><g style="isolation:isolate"><g id="レイヤー_2" data-name="レイヤー 2"><g id="レイヤー_1-2" data-name="レイヤー 1"><path d="M54.25,173.9,52,173.52s-.79-17.55-2.64-22.87c0,0-25.29-.6-29-19.25,0,0,19.54-6,29.09,16.46a196.66,196.66,0,0,0-5-33.28s-19.06,3-21.56-13.6c0,0,11.62-5.28,20.23,5.17,0,0-2.52-13-5.5-19.75,0,0-14.4,2-18.47-12.28,0,0,10.56-1.25,17.1,6.45L31.26,66.73s-11.53-9.33-8.09-23c0,0,13.07,6,9.71,21.45l4.73,15s2.34-14,12.48-13.94c0,0,.06,17.23-10.5,19.68,0,0,4.73,13.81,6,23.83,0,0-.28-18.27,15-20.74,0,0,4.26,14.33-13.53,23.79A265.67,265.67,0,0,1,51.31,147s-3.23-18.16,14.55-27.62c0,0,9.48,15.8-13.33,32A125.87,125.87,0,0,1,54.25,173.9Z" style="fill:#7dbf8c"/><path d="M275.27,170.36l2.54-.21s2.43-18.74,4.94-24.28c0,0,27.81,1.44,33.57-18.22,0,0-20.91-8-33.4,15.22a208.24,208.24,0,0,1,8.47-35.22s20.65,4.82,24.89-12.79c0,0-12.28-6.61-22.67,3.86,0,0,3.93-13.75,7.81-20.69,0,0,15.62,3.35,21.36-11.63,0,0-11.48-2.21-19.34,5.5l6.65-14.42s13.49-9,10.93-23.94c0,0-14.88,5.33-12.58,22.17l-6.53,15.68s-1.31-15.22-12.45-16c0,0-1.61,18.45,9.77,22,0,0-6.43,14.4-8.71,25,0,0,1.94-19.55-14.58-23.46,0,0-6,15,12.72,26.6a278.18,278.18,0,0,0-7.75,36.23s5.16-19.19-13.51-30.79c0,0-11.82,16.14,11.77,35.41A131.69,131.69,0,0,0,275.27,170.36Z" style="fill:#7dbf8c"/><path d="M229.8,145.36l2-1.53s-8-16.75-8.88-22.65c0,0,23.7-13.65,18-32.94,0,0-21.52,4.57-19.43,30.38a205.29,205.29,0,0,1-11.81-33.57s19.6-7,13.7-23.82c0,0-13.66,1.1-16.63,15.28,0,0-4.1-13.44-4.6-21.23,0,0,14.66-5.58,11.4-21,0,0-10.64,4.31-13,14.85l-2.21-15.43s6.3-14.65-3.76-25.57c0,0-9.42,12.32,1.46,25l3,16.42s-9.2-11.85-18.78-6.53c0,0,8.51,16.08,19.76,12.89,0,0,2.38,15.3,6.17,25.29,0,0-8.83-17.16-24.54-11.56,0,0,3.09,15.54,24.68,15.14a273.83,273.83,0,0,0,12.94,34s-6-18.58-27.56-18.18c0,0-1.13,19.61,28.6,22.91A129.4,129.4,0,0,0,229.8,145.36Z" style="fill:#7dbf8c"/><path d="M308.7,224.11v-2.44h-.79v.51l-32.37-71.94a1.26,1.26,0,0,0-1.16-.75l-219.25.36a1.27,1.27,0,0,0-1.17.8l-28.38,71.1h-.9v2.49h0v0h0A1.27,1.27,0,0,0,26,225.51l281.49,0A1.27,1.27,0,0,0,308.7,224.11Z" style="fill:#003ca6"/><rect x="54.5" width="220.02" height="157.27" rx="8.72" style="fill:#0087ff"/><rect x="65.38" y="9.47" width="195.84" height="130.51" style="fill:#f1f8ff"/><path d="M307.44,223,26,223a1.28,1.28,0,0,1-1.18-1.75L54,148.12a7.1,7.1,0,0,1,1.17-2.37l219.25-.37a16.86,16.86,0,0,0,1.16,2.33l33.06,73.46A1.27,1.27,0,0,1,307.44,223Z" style="fill:#3888e8"/><polygon points="285.17 191.79 46.67 191.94 62.08 149.78 267.53 149.45 285.17 191.79" style="fill:#5eb5f7"/><path d="M76.13,188.9l-16.14,0a.63.63,0,0,1-.6-.83l1.89-5.78a.63.63,0,0,1,.6-.43l15.81,0a.64.64,0,0,1,.61.8l-1.56,5.78A.62.62,0,0,1,76.13,188.9Z" style="fill:#b9ddff"/><path d="M100.58,188.89H84.42a.64.64,0,0,1-.62-.78l1.43-5.78a.63.63,0,0,1,.61-.48l15.83,0a.63.63,0,0,1,.62.75l-1.09,5.78A.62.62,0,0,1,100.58,188.89Z" style="fill:#b9ddff"/><path d="M205,181.76h-6.83l-17.09,0H174.2l-17.09,0h-6.83l-17.09,0-23.39,0a.62.62,0,0,0-.62.53l-1,5.78a.62.62,0,0,0,.62.73l23.75,0h90.19a.63.63,0,0,0,.62-.76l-1.26-5.8a.63.63,0,0,0-.62-.5Z" style="fill:#b9ddff"/><path d="M247.22,188.78l-16.15,0a.62.62,0,0,1-.61-.49l-1.4-5.79a.64.64,0,0,1,.62-.78l15.81,0a.65.65,0,0,1,.61.45l1.73,5.8A.63.63,0,0,1,247.22,188.78Z" style="fill:#b9ddff"/><path d="M271.65,188.77H255.53a.62.62,0,0,1-.6-.44l-1.87-5.8a.63.63,0,0,1,.6-.82l15.79,0a.64.64,0,0,1,.59.41l2.2,5.8A.64.64,0,0,1,271.65,188.77Z" style="fill:#b9ddff"/><path d="M90.22,172H87.78l-22.67,0a.64.64,0,0,0-.6.44l-1.89,5.77a.63.63,0,0,0,.6.83L86,179h16.4a.64.64,0,0,0,.62-.52l1.09-5.78a.64.64,0,0,0-.62-.75Z" style="fill:#b9ddff"/><path d="M126.09,179l-15.61,0a.64.64,0,0,1-.63-.74l1-5.78a.63.63,0,0,1,.62-.53h15.28a.63.63,0,0,1,.63.7l-.62,5.78A.64.64,0,0,1,126.09,179Z" style="fill:#b9ddff"/><path d="M149.73,179l-15.62,0a.64.64,0,0,1-.63-.69l.49-5.78a.63.63,0,0,1,.63-.58l15.28,0a.63.63,0,0,1,.63.65l-.15,5.79A.62.62,0,0,1,149.73,179Z" style="fill:#b9ddff"/><path d="M173.37,179l-15.62,0a.64.64,0,0,1-.63-.64l0-5.78a.63.63,0,0,1,.63-.63l15.28,0a.62.62,0,0,1,.63.6l.32,5.79A.62.62,0,0,1,173.37,179Z" style="fill:#b9ddff"/><path d="M197,178.94H181.4a.62.62,0,0,1-.63-.58l-.46-5.79a.63.63,0,0,1,.63-.68l15.28,0a.64.64,0,0,1,.63.55l.79,5.79A.64.64,0,0,1,197,178.94Z" style="fill:#b9ddff"/><path d="M220.64,178.92H205a.62.62,0,0,1-.62-.53l-.93-5.79a.63.63,0,0,1,.63-.73l15.26,0a.63.63,0,0,1,.62.5l1.26,5.79A.63.63,0,0,1,220.64,178.92Z" style="fill:#b9ddff"/><path d="M243,171.84H227.3a.64.64,0,0,0-.62.78l1.4,5.8a.63.63,0,0,0,.61.48h16.43l22.78,0a.64.64,0,0,0,.59-.86l-2.2-5.8a.64.64,0,0,0-.59-.41Z" style="fill:#b9ddff"/><path d="M86.36,162.15h-18a.63.63,0,0,0-.6.43l-1.89,5.78a.63.63,0,0,0,.6.83h27a.64.64,0,0,0,.62-.5l1.31-5.77a.64.64,0,0,0-.62-.78Z" style="fill:#b9ddff"/><path d="M115.72,169.15l-15,0a.63.63,0,0,1-.62-.76l1.19-5.78a.63.63,0,0,1,.62-.5l14.69,0a.63.63,0,0,1,.63.72l-.85,5.78A.64.64,0,0,1,115.72,169.15Z" style="fill:#b9ddff"/><path d="M138.57,169.13h-15a.62.62,0,0,1-.62-.71l.71-5.78a.63.63,0,0,1,.63-.55l14.71,0a.62.62,0,0,1,.63.67l-.38,5.79A.63.63,0,0,1,138.57,169.13Z" style="fill:#b9ddff"/><path d="M161.41,169.1l-15,0a.63.63,0,0,1-.63-.66l.25-5.79a.63.63,0,0,1,.63-.6l14.71,0a.63.63,0,0,1,.63.62l.09,5.79A.63.63,0,0,1,161.41,169.1Z" style="fill:#b9ddff"/><path d="M184.25,169.08H169.2a.63.63,0,0,1-.63-.61l-.22-5.78A.63.63,0,0,1,169,162l14.71,0a.63.63,0,0,1,.63.57l.55,5.79A.63.63,0,0,1,184.25,169.08Z" style="fill:#b9ddff"/><path d="M207.08,169.05l-15,0a.64.64,0,0,1-.63-.56l-.68-5.79a.62.62,0,0,1,.62-.71l14.7,0a.64.64,0,0,1,.63.52l1,5.8A.63.63,0,0,1,207.08,169.05Z" style="fill:#b9ddff"/><path d="M229.91,169l-15,0a.63.63,0,0,1-.62-.51l-1.16-5.79a.63.63,0,0,1,.62-.76l14.68,0a.65.65,0,0,1,.62.48l1.49,5.8A.63.63,0,0,1,229.91,169Z" style="fill:#b9ddff"/><path d="M253.22,161.93h-17.5a.63.63,0,0,0-.6.81l1.62,5.79a.62.62,0,0,0,.61.47h26.8a.64.64,0,0,0,.59-.86l-2.2-5.8a.64.64,0,0,0-.59-.41Z" style="fill:#b9ddff"/><path d="M84.1,159.33l-14.42,0a.63.63,0,0,1-.6-.83L71,152.75a.64.64,0,0,1,.6-.44l14.09,0a.63.63,0,0,1,.61.8l-1.56,5.78A.62.62,0,0,1,84.1,159.33Z" style="fill:#b9ddff"/><path d="M106.15,159.3l-14.44,0a.63.63,0,0,1-.62-.78l1.43-5.78a.63.63,0,0,1,.61-.48l14.11,0a.63.63,0,0,1,.62.75l-1.09,5.78A.62.62,0,0,1,106.15,159.3Z" style="fill:#b9ddff"/><path d="M128.2,159.27l-14.47,0a.63.63,0,0,1-.62-.73l1-5.78a.64.64,0,0,1,.63-.53l14.13,0a.63.63,0,0,1,.63.7l-.62,5.78A.64.64,0,0,1,128.2,159.27Z" style="fill:#b9ddff"/><path d="M150.24,159.24l-14.47,0a.63.63,0,0,1-.63-.68l.48-5.79a.63.63,0,0,1,.63-.57l14.14,0a.63.63,0,0,1,.63.65l-.15,5.79A.62.62,0,0,1,150.24,159.24Z" style="fill:#b9ddff"/><path d="M172.28,159.21l-14.48,0a.63.63,0,0,1-.63-.63l0-5.79a.63.63,0,0,1,.63-.63l14.14,0a.63.63,0,0,1,.63.6l.32,5.79A.63.63,0,0,1,172.28,159.21Z" style="fill:#b9ddff"/><path d="M194.32,159.18l-14.47,0a.64.64,0,0,1-.64-.58l-.45-5.79a.63.63,0,0,1,.63-.68l14.13,0a.63.63,0,0,1,.63.55l.79,5.79A.62.62,0,0,1,194.32,159.18Z" style="fill:#b9ddff"/><path d="M216.35,159.16H201.89a.61.61,0,0,1-.62-.53l-.93-5.79a.63.63,0,0,1,.62-.73l14.13,0a.62.62,0,0,1,.61.49l1.26,5.8A.64.64,0,0,1,216.35,159.16Z" style="fill:#b9ddff"/><path d="M238.37,159.13H223.94a.62.62,0,0,1-.62-.48l-1.39-5.8a.64.64,0,0,1,.61-.78l14.1,0a.65.65,0,0,1,.61.45l1.73,5.8A.64.64,0,0,1,238.37,159.13Z" style="fill:#b9ddff"/><path d="M260.4,159.1l-14.41,0a.63.63,0,0,1-.6-.44l-1.86-5.8a.63.63,0,0,1,.6-.83l14.07,0a.64.64,0,0,1,.59.41l2.2,5.8A.64.64,0,0,1,260.4,159.1Z" style="fill:#b9ddff"/><path d="M216.88,219.84H116.43c-4.56,0-8-1.4-7.78-3.13l2.53-16.84c.26-1.73,3.91-3.13,8.15-3.14l93.48-.05c4.24,0,8,1.4,8.3,3.13l3.39,16.88C224.85,218.43,221.44,219.84,216.88,219.84Z" style="fill:#2599ff"/><path d="M119.49,196.72c-4.24,0-7.89,1.41-8.15,3.14l-2.53,16.84c-.26,1.73,3.22,3.13,7.78,3.13H184.5l-39.8-23.11Z" style="fill:#2599ff"/><g style="mix-blend-mode:multiply"><path d="M145,196.73H119.74a15.86,15.86,0,0,0-5.68,1h32.58Z" style="fill:silver"/><path d="M145,196.73l1.69,1H219.1a16,16,0,0,0-5.88-1Z" style="fill:silver"/></g><g style="mix-blend-mode:multiply"><path d="M195.75,223H131.39a1,1,0,0,1-1-1h0a1,1,0,0,1,1-1h64.36a1,1,0,0,1,1,1h0A1,1,0,0,1,195.75,223Z" style="fill:silver"/></g><path d="M166.7,1.41h0A2.74,2.74,0,0,0,164,4.14h0a2.73,2.73,0,0,0,2.73,2.72h0a2.73,2.73,0,0,0,2.72-2.72h0A2.74,2.74,0,0,0,166.7,1.41Z" style="fill:silver"/><path d="M76.13,188.11l-16.14,0a.63.63,0,0,1-.6-.83l1.89-5.78a.63.63,0,0,1,.6-.43l15.81,0a.64.64,0,0,1,.61.8l-1.56,5.78A.62.62,0,0,1,76.13,188.11Z" style="fill:#1e79d3"/><path d="M100.58,188.1H84.42a.64.64,0,0,1-.62-.78l1.43-5.78a.63.63,0,0,1,.61-.48l15.83,0a.63.63,0,0,1,.62.75l-1.09,5.78A.62.62,0,0,1,100.58,188.1Z" style="fill:#1e79d3"/><path d="M205,181h-6.83L181,181H174.2l-17.09,0h-6.83l-17.09,0-23.39,0a.62.62,0,0,0-.62.53l-1,5.78a.62.62,0,0,0,.62.73H132.6l17.49,0h72.7a.63.63,0,0,0,.62-.76l-1.26-5.8a.63.63,0,0,0-.62-.5Z" style="fill:#1e79d3"/><path d="M247.22,188l-16.15,0a.62.62,0,0,1-.61-.49l-1.4-5.79a.64.64,0,0,1,.62-.78l15.81,0a.65.65,0,0,1,.61.45l1.73,5.8A.63.63,0,0,1,247.22,188Z" style="fill:#1e79d3"/><path d="M271.65,188H255.53a.62.62,0,0,1-.6-.44l-1.87-5.8a.63.63,0,0,1,.6-.82l15.79,0a.64.64,0,0,1,.59.41l2.2,5.8A.64.64,0,0,1,271.65,188Z" style="fill:#1e79d3"/><path d="M90.22,171.21H87.78l-22.67,0a.64.64,0,0,0-.6.44l-1.89,5.77a.63.63,0,0,0,.6.83l22.82,0h16.4a.64.64,0,0,0,.62-.52l1.09-5.78a.64.64,0,0,0-.62-.75Z" style="fill:#1e79d3"/><path d="M126.09,178.21l-15.61,0a.64.64,0,0,1-.63-.74l1-5.78a.63.63,0,0,1,.62-.53h15.28a.63.63,0,0,1,.63.7l-.62,5.78A.64.64,0,0,1,126.09,178.21Z" style="fill:#1e79d3"/><path d="M149.73,178.19l-15.62,0a.64.64,0,0,1-.63-.69l.49-5.78a.63.63,0,0,1,.63-.58l15.28,0a.63.63,0,0,1,.63.65l-.15,5.79A.62.62,0,0,1,149.73,178.19Z" style="fill:#1e79d3"/><path d="M173.37,178.17l-15.62,0a.64.64,0,0,1-.63-.64l0-5.78a.63.63,0,0,1,.63-.63l15.28,0a.62.62,0,0,1,.63.6l.32,5.79A.62.62,0,0,1,173.37,178.17Z" style="fill:#1e79d3"/><path d="M197,178.15l-15.61,0a.63.63,0,0,1-.63-.59l-.46-5.79a.63.63,0,0,1,.63-.68h15.28a.63.63,0,0,1,.63.54l.79,5.79A.64.64,0,0,1,197,178.15Z" style="fill:#1e79d3"/><path d="M220.64,178.13H205a.62.62,0,0,1-.62-.53l-.93-5.79a.63.63,0,0,1,.63-.73l15.26,0a.63.63,0,0,1,.62.5l1.26,5.79A.63.63,0,0,1,220.64,178.13Z" style="fill:#1e79d3"/><path d="M243,171.05H227.3a.64.64,0,0,0-.62.78l1.4,5.8a.63.63,0,0,0,.61.48h16.43l22.78,0a.64.64,0,0,0,.59-.86l-2.2-5.8a.64.64,0,0,0-.59-.41Z" style="fill:#1e79d3"/><path d="M86.36,161.36h-18a.63.63,0,0,0-.6.43l-1.89,5.78a.63.63,0,0,0,.6.83h27a.64.64,0,0,0,.62-.49l1.31-5.78a.63.63,0,0,0-.62-.77Z" style="fill:#1e79d3"/><path d="M115.72,168.36l-15,0a.63.63,0,0,1-.62-.76l1.19-5.78a.63.63,0,0,1,.62-.5l14.69,0a.63.63,0,0,1,.63.72l-.85,5.78A.64.64,0,0,1,115.72,168.36Z" style="fill:#1e79d3"/><path d="M138.57,168.34h-15a.62.62,0,0,1-.62-.71l.71-5.78a.64.64,0,0,1,.63-.55l14.71,0a.62.62,0,0,1,.63.67l-.38,5.79A.63.63,0,0,1,138.57,168.34Z" style="fill:#1e79d3"/><path d="M161.41,168.31l-15,0a.63.63,0,0,1-.63-.66l.25-5.79a.63.63,0,0,1,.63-.6l14.71,0a.63.63,0,0,1,.63.62l.09,5.79A.63.63,0,0,1,161.41,168.31Z" style="fill:#1e79d3"/><path d="M184.25,168.29H169.2a.63.63,0,0,1-.63-.61l-.22-5.78a.63.63,0,0,1,.63-.66l14.71,0a.63.63,0,0,1,.63.57l.55,5.79A.63.63,0,0,1,184.25,168.29Z" style="fill:#1e79d3"/><path d="M207.08,168.26l-15,0a.64.64,0,0,1-.63-.56l-.68-5.79a.62.62,0,0,1,.62-.71l14.7,0a.64.64,0,0,1,.63.52l1,5.8A.63.63,0,0,1,207.08,168.26Z" style="fill:#1e79d3"/><path d="M229.91,168.23l-15,0a.63.63,0,0,1-.62-.51L213.11,162a.63.63,0,0,1,.62-.76l14.68,0a.65.65,0,0,1,.62.48l1.49,5.8A.63.63,0,0,1,229.91,168.23Z" style="fill:#1e79d3"/><path d="M253.22,161.14h-9.17l-8.33,0a.62.62,0,0,0-.6.8l1.62,5.8a.62.62,0,0,0,.61.46h26.8a.64.64,0,0,0,.59-.86l-2.2-5.8a.64.64,0,0,0-.59-.41Z" style="fill:#1e79d3"/><path d="M84.1,158.54l-14.42,0a.63.63,0,0,1-.6-.83L71,152a.66.66,0,0,1,.6-.44l14.09,0a.63.63,0,0,1,.61.8l-1.56,5.78A.62.62,0,0,1,84.1,158.54Z" style="fill:#1e79d3"/><path d="M106.15,158.51l-14.44,0a.63.63,0,0,1-.62-.78L92.52,152a.63.63,0,0,1,.61-.48l14.11,0a.63.63,0,0,1,.62.75L106.77,158A.62.62,0,0,1,106.15,158.51Z" style="fill:#1e79d3"/><path d="M128.2,158.48l-14.47,0a.63.63,0,0,1-.62-.73l1-5.78a.64.64,0,0,1,.63-.53l14.13,0a.63.63,0,0,1,.63.7l-.62,5.78A.64.64,0,0,1,128.2,158.48Z" style="fill:#1e79d3"/><path d="M150.24,158.45l-14.47,0a.63.63,0,0,1-.63-.68l.48-5.78a.63.63,0,0,1,.63-.58l14.14,0a.63.63,0,0,1,.63.65l-.15,5.79A.62.62,0,0,1,150.24,158.45Z" style="fill:#1e79d3"/><path d="M172.28,158.42l-14.48,0a.63.63,0,0,1-.63-.63l0-5.79a.63.63,0,0,1,.63-.63l14.14,0a.63.63,0,0,1,.63.6l.32,5.79A.63.63,0,0,1,172.28,158.42Z" style="fill:#1e79d3"/><path d="M194.32,158.4H179.85a.63.63,0,0,1-.64-.58l-.45-5.79a.63.63,0,0,1,.63-.68l14.13,0a.63.63,0,0,1,.63.55l.79,5.79A.64.64,0,0,1,194.32,158.4Z" style="fill:#1e79d3"/><path d="M216.35,158.37H201.89a.61.61,0,0,1-.62-.53l-.93-5.79a.63.63,0,0,1,.62-.73l14.13,0a.62.62,0,0,1,.61.49l1.26,5.8A.63.63,0,0,1,216.35,158.37Z" style="fill:#1e79d3"/><path d="M238.37,158.34l-14.43,0a.64.64,0,0,1-.62-.49l-1.39-5.8a.63.63,0,0,1,.61-.77l14.1,0a.65.65,0,0,1,.61.45l1.73,5.8A.64.64,0,0,1,238.37,158.34Z" style="fill:#1e79d3"/><path d="M260.4,158.31l-14.41,0a.63.63,0,0,1-.6-.44l-1.86-5.8a.63.63,0,0,1,.6-.83l14.07,0a.64.64,0,0,1,.59.41l2.2,5.8A.64.64,0,0,1,260.4,158.31Z" style="fill:#1e79d3"/><rect x="65.09" y="9.3" width="196.9" height="130.84" style="fill:#ebf2fc"/><rect x="65.09" y="9.3" width="196.9" height="16.88" style="fill:#1e79d3"/><path d="M69.24,18.25a4.51,4.51,0,0,0,9,0,4.51,4.51,0,0,0-9,0Z" style="fill:#fafbfd"/><path d="M82,18.25a4.51,4.51,0,0,0,9,0,4.51,4.51,0,0,0-9,0Z" style="fill:#fafbfd"/><path d="M94.71,18.25a4.51,4.51,0,0,0,9,0,4.51,4.51,0,0,0-9,0Z" style="fill:#fafbfd"/><rect x="75.32" y="34.86" width="81.98" height="2.64" style="fill:#7ab0f6"/><rect x="168.21" y="34.86" width="81.98" height="2.64" style="fill:#7ab0f6"/><rect x="168.21" y="70.49" width="50.21" height="2.64" style="fill:#7ab0f6"/><rect x="168.21" y="75.73" width="50.21" height="2.64" style="fill:#7ab0f6"/><rect x="168.21" y="80.97" width="81.98" height="2.64" style="fill:#7ab0f6"/><rect x="75.32" y="41.47" width="177.3" height="2.64" style="fill:#7ab0f6"/><rect x="75.32" y="46.91" width="177.3" height="2.64" style="fill:#7ab0f6"/><rect x="75.32" y="133.4" width="81.98" height="2.64" style="fill:#7ab0f6"/><rect x="168.98" y="133.4" width="81.98" height="2.64" style="fill:#7ab0f6"/><rect x="73.59" y="73.54" width="84.12" height="11.82" style="fill:none;stroke:#7ab0f6;stroke-miterlimit:10"/><rect x="73.59" y="55.47" width="84.12" height="11.82" style="fill:none;stroke:#7ab0f6;stroke-miterlimit:10"/><rect x="73.59" y="92.82" width="84.12" height="11.82" style="fill:none;stroke:#7ab0f6;stroke-miterlimit:10"/><rect x="167.87" y="92.82" width="84.12" height="11.82" style="fill:none;stroke:#7ab0f6;stroke-miterlimit:10"/><rect x="167.87" y="112.1" width="84.12" height="11.82" style="fill:none;stroke:#7ab0f6;stroke-miterlimit:10"/><rect x="73.59" y="112.1" width="84.12" height="11.82" style="fill:none;stroke:#7ab0f6;stroke-miterlimit:10"/><circle cx="175.59" cy="98.72" r="2.26" style="fill:#7ab0f6"/><path d="M183.26,98.72a2.26,2.26,0,1,1,2.26,2.26A2.26,2.26,0,0,1,183.26,98.72Z" style="fill:#7ab0f6"/><circle cx="195.45" cy="98.72" r="2.26" style="fill:#7ab0f6"/><circle cx="175.59" cy="117.68" r="2.26" style="fill:#7ab0f6"/><path d="M183.26,117.68a2.26,2.26,0,1,1,2.26,2.26A2.26,2.26,0,0,1,183.26,117.68Z" style="fill:#7ab0f6"/><circle cx="195.45" cy="117.68" r="2.26" style="fill:#7ab0f6"/><circle cx="205.38" cy="98.72" r="2.26" style="fill:#7ab0f6"/><path d="M213.06,98.72a2.26,2.26,0,1,1,2.25,2.26A2.26,2.26,0,0,1,213.06,98.72Z" style="fill:#7ab0f6"/><circle cx="225.25" cy="98.72" r="2.26" style="fill:#7ab0f6"/><circle cx="240.02" cy="101.1" r="35.45" style="fill:#c1e8fa;mix-blend-mode:multiply"/><path d="M229.07,62.78a39.27,39.27,0,1,0,39.33,62.59l33,21.12c2.18,1.39,8.13,2.6,9.52.43s-2.54-7.08-4.72-8.47l-27.95-17.89-5-3.19a39.28,39.28,0,0,0-44.19-54.59Zm15.48,70.48a32.89,32.89,0,1,1,25.06-39.17A32.88,32.88,0,0,1,244.55,133.26Z" style="fill:#203b70"/><path d="M310.88,147h0a4.67,4.67,0,0,1-6.46,1.42l-26.66-17a4.69,4.69,0,0,1-1.42-6.47h0a4.69,4.69,0,0,1,6.47-1.42l26.65,17.06A4.68,4.68,0,0,1,310.88,147Z" style="fill:#5090cc"/><circle cx="236" cy="80.65" r="8.19" style="fill:#fff"/><path d="M255.73,86.16A4.71,4.71,0,1,1,251,81.44,4.71,4.71,0,0,1,255.73,86.16Z" style="fill:#fff"/><polygon points="285.78 192.08 285.34 198.05 282.35 197.75 282.05 191.63 285.78 192.08" style="fill:#fac5ca"/><polygon points="320.46 200.03 322.65 205.6 319.84 206.63 316.91 201.25 320.46 200.03" style="fill:#fac5ca"/><path d="M286.68,196.41l-4.92.74s-4.93,3.28-6.86,3.43-3.88,1.94-1.94,2.24,14.31-.6,14.31-.6Z" style="fill:#004e4a"/><path d="M302.06,154.93s-16.34,8.66-15.59,16.12.8,21.48.8,21.48l-7-.15s-2.68-23.57-2.68-28,15.08-27.72,15.08-27.72Z" style="fill:#004e4a"/><path d="M323.08,204.71,318,206.65s-.3,3.58-2.23,4-4.93,1.93-4.63,3.13,9-.6,9-.6l5.67-4.47Z" style="fill:#004e4a"/><path d="M308.62,137.15s1.19,29.09,2.38,31.77,12.38,32.66,12.38,32.66l-6.71,1.64s-18.34-31.32-19.39-38.78-5-27.27-5-27.27Z" style="fill:#00848a"/><path d="M288,83.75s-1.93,11.64,5.52,11.64l-.3,8,6.86-3-.44-17.75-9.1-.3Z" style="fill:#fac5ca"/><path d="M293.88,84.19s-8.62.42-8.77-1.22-.21-8.31,7.4-5.78,10.44,2.54,9.69,6.12-2.09,7.9-2.09,7.9l-1.49-.6-.89-3.72s2.23-1,.89-3c-2.45-3.56-2.61,5-2.61,5Z" style="fill:#004e4a"/><path d="M300.26,96.58l-7.45,3.13s-3.15,5.25-3.28,10.05c-.11,4.34,1.46,7.94,1.89,11.47,1,8.46,3.17,7,1.26,12.48-1.79,5.13-3.35,6.92-3.35,6.92L309,139.29,307.48,121Z" style="fill:#ff7a00"/><path d="M279.09,130.44h-1a8.93,8.93,0,0,1-1-.09,11.59,11.59,0,0,1-2-.45,7.8,7.8,0,0,1-1.78-.89,5.9,5.9,0,0,1-1.37-1.36l-.07-.09a1.13,1.13,0,0,0-1.91,1.19,8.34,8.34,0,0,0,1.7,2.26,10.64,10.64,0,0,0,2.28,1.57,14.79,14.79,0,0,0,2.52.95c.43.12.86.22,1.3.3l.67.11c.23,0,.43.06.73.08h.11a1.8,1.8,0,0,0,.21-3.59A1.13,1.13,0,0,0,279.09,130.44Z" style="fill:#fac5ca"/><path d="M300.86,98.22s-7.25-.62-4.11,9.82,5.84,15.64-1.32,18a117,117,0,0,1-17.09,3.77l.6,5.67s27.21-1.52,27.8-9.28.09-20-.66-21.6S302.35,99.12,300.86,98.22Z" style="fill:#ff9a00"/><path d="M294,82.17s11.26-1.07,3.76,6.8,3.39,15.54,5.18,17.51-1.25,9.82,1.61,10.9,17.11,16.29,14.83-2.68S309.26,101.19,307,93.17c-2.59-9.32-3.76-21.9-13.24-16L290,79.32Z" style="fill:#004e4a"/><path d="M298.69,77.4s-3.75-4.64-1.25-5.54,7.87,1.08,5,3.76S298.69,77.4,298.69,77.4Z" style="fill:#004e4a"/><path d="M297.18,75.17s2.94,1.24,4.37,1.1c0,0,1.17,1.78-1,1.5s-4.86-.89-4.52-1.64S296.42,74.9,297.18,75.17Z" style="fill:#ff9a00"/><path d="M130.09,193.88s-8.67-.23-10-6.95l-1.59,3.1s-2.8-2-1.34-4.3,5.15-6.65,11.79-4.94c2.72.69,5.28,1.89,6.6,4a15.73,15.73,0,0,1,1,13.83c-5.13,11.82-3.09,7-10.59,5C122.56,202.74,130,200.52,130.09,193.88Z" style="fill:#25228a"/><path d="M131.08,190.74s.2,9-2.31,9.62l0,4,3.39.77S130,211,123.88,210s-4.71-6.52-4.71-6.52l-3.45-10.69,1.32-4.45,6.92-1.82,3.9-1.46,3.14.79Z" style="fill:#fac5ca"/><path d="M131.44,204.76s7,.88,8.62,4.33S145,219.7,145,219.7l-7.29-1.14L136.58,231l-22-.73-.79-14.14,8.78-6.5s4.69.17,6.43-.8S131.44,204.76,131.44,204.76Z" style="fill:#ff769d"/><path d="M120.05,204.66s-1.26,5.58,6.1,5.2-13.53,10-14,10-5.39,1.21-5.39,1.21,3-9.53,7.25-13.25c1.79-1.56,1.76-2,2.52-2.41A11.91,11.91,0,0,1,120.05,204.66Z" style="fill:#ff769d"/><path d="M121.58,204.63s-5.14-.19-6.49-5.23c-1.08-4-1.13-11.25,1.35-15.43,1.31-2.2,3.56-2.64,4.67-3.13.74-.31,8.2.57,11.07,3.65,2.06,2.2-.15,6.49,0,7.85,0,.4-1-1.76-3-1.92-1-.08-.29-2.35-.56-2.52s-.51,2.52-.83,2.36a5.76,5.76,0,0,0-3.72-.44c-.64.08-1.17.13-1.62.16-.2,0-.31-1.35-.48-1.35s-.4,1.4-.54,1.4c-.73.05-1,.1-1.06.44-1.28,8.38,1.84,10.17,1.84,10.17Z" style="fill:#25228a"/><path d="M136.25,206.74c-1,.8-.55,8.1.55,10.72.53,1.28,2.08,4.82,3.17,5.91s2.19,4.6,1.53,5.91a42.64,42.64,0,0,0-1.63,4.84L140,240s7.88-3.06,7.88-10.51-5.25-16.63-5.25-16.63S138.44,205,136.25,206.74Z" style="fill:#f06494"/><path d="M111.66,239.25c0-.35.26-13.27.26-13.27H140v14.69l-13.54,4.78Z" style="fill:#fff"/><circle cx="125.99" cy="233.41" r="0.97" style="fill:#0b52ff"/><polygon points="106.08 251.46 113.07 251.02 113.34 254.38 105.73 253.94 106.08 251.46" style="fill:#fac5ca"/><path d="M112.54,250.93l.62,4.78s31.5-6.1,34-7.08,15.3-5.93,13.71-10.08-15.13-2.66-25.92,1.23S112.54,250.93,112.54,250.93Z" style="fill:#0b52ff"/><path d="M105.09,254.44s-8.41,1.95-9.56,1.51-4.24-1.86-3.62-4.25,4.86-2.74,7.78-2.21,7.17,1.5,7.17,1.5l.35,2.92Z" style="fill:#25228a"/><polygon points="137.14 254.03 145.72 254.29 145.81 251.11 137.41 249.6 136.34 251.82 137.14 254.03" style="fill:#fac5ca"/><path d="M138.55,248.37l-1.32,6.19s-22-2.39-32.56-6.1S85.38,242.88,90,236.69,138.55,248.37,138.55,248.37Z" style="fill:#2075ff"/><path d="M147.49,250.84s8.41-1.94,9.56-1.5,4.24,1.86,3.62,4.25-4.86,2.74-7.78,2.21-7.17-1.51-7.17-1.51l-.35-2.92Z" style="fill:#25228a"/><path d="M115.78,206.3c1,.8.54,8.1-.55,10.73-.53,1.27-2.08,4.81-3.17,5.91s-2.19,4.59-1.54,5.91a21.68,21.68,0,0,1,1.21,4.05l-.28,6.09s-7.27-2.48-7.27-9.92,5.25-16.64,5.25-16.64S113.59,204.55,115.78,206.3Z" style="fill:#f06494"/><path d="M128.81,204.33l.81,2s-2.32,3.68-.77,5.62c0,0-1.36,2.72.77,4.46,0,0-1.94,4.84.78,6.78a6.48,6.48,0,0,0,.58-6.59s2.32-2.52.58-4.26a3.48,3.48,0,0,0,1.36-3.68l.58-4.07-1.75-2.91Z" style="fill:#25228a"/><path d="M121.58,204.63l-1.45,2.91s1.93,2.32,0,4.26c0,0,2.32,2.71-.59,4.26,0,0,2.33,6.59-.38,7.37-1.18.33-1.36-4.65-.59-7,0,0-2.32-3.88-.38-5,0,0-2.33-3.29-.39-4.26,0,0-1.74-1.55-1.94-6.4s1.94-1.16,1.94-1.16Z" style="fill:#25228a"/><path d="M71.38,85.88c-.51-.29-3.91,4.49-3.91,4.49L67,89.32c-.59-2.29-2-.86-2-.86a37.15,37.15,0,0,1,1.62,4.67,18.92,18.92,0,0,1,.11,2c.12-.2.23-.31.32-.31L70,96.64A19.7,19.7,0,0,0,73.42,91C74.28,88.17,71.89,86.17,71.38,85.88Z" style="fill:#f9c4c9"/><path d="M66.81,95.16c-1.33,2.09-4.51,14.31-4.51,14.31-2.81-5.72-12.75-16.14-12.75-16.14l.08.44s5,6.23,5.78,17c.1,1.32-2.64,3.3-2.58,4.65,2.71,3,9.57,6.82,9.79,7,7.66,5.24,7.4-25.68,7.4-25.68l0,0-2.85-1.79C67,94.85,66.93,95,66.81,95.16Z" style="fill:#ef4d8c"/><path d="M16.21,109.92c.57-5.32.28-7.47,2.58-11.21,3.63-5.89,3.88-3.59,5.32-3.45.68.07,1.86.53,3.07.85l3.13.18c-2.61,1-4.54,9.65-3,12.11.57.94-2.6-.5-.85,2.59.36,4.85.81,10.2,1.3,14.69a12.62,12.62,0,0,1-.75,2.91c-.58.29-3.74,1.15-2.87,2.3s.86,2.73,3.44,1.72a2.42,2.42,0,0,0,1-.81c.07.4.13.79.2,1.13.21,1.13.68,2.9,1.22,4.76-2.68.55-6.95,5.72-9.83-.81.74-.4.41-1,.41-1s-2.44-6.17-2.44-7.9a70.74,70.74,0,0,0-1.15-7.47l-.24.09c-.31-2.13-.57-4.17-.77-6C16.2,114.14,15.88,112.93,16.21,109.92Z" style="fill:#004e4a"/><path d="M41.65,213.52l.36,1.16s2.4,4.92,1.87,5.59-6,.53-6.66-.4.8-4,.8-4l.28-2.34C39.21,213.59,40.67,213.56,41.65,213.52Z" style="fill:#004e4a"/><path d="M51.81,146.69a34.78,34.78,0,0,0,4.53-.83,11.91,11.91,0,0,0,2-.74L77.6,212.23a27.54,27.54,0,0,1-2.76,1l.86,1.72s9.86-1.2,10.26.67.13,4-4.4,3.73a46.7,46.7,0,0,1-9-1.6V214l-1.34.41-22.92-50.8,0-.17Z" style="fill:#004e4a"/><path d="M35.64,94.47c.91.41,4.63,2.21,6,2.84s2.84,1.79,3.68.53c-.42,1.15,1.26.73,1.68.31a14.49,14.49,0,0,0,1.36-5c1.17,3.59,4.58,13.36,5.06,14.9.57,1.87,1.44,5.6,1.44,5.6l.24-.6c0,.29.06.6.1.91-.6-.27,1.72,12.61,1.75,13,.35,5.24-8.33,7.07-11.44,8.75,1.75-1.15-12.86-.35-12.86-.35-.5-.5-1.06-31.34-4.43-37.36.13-1.84,6.06,4.45,5.95,3.41a16,16,0,0,0-2.28-6.57C32,94.46,32.57,93.12,35.64,94.47Z" style="fill:#ff769d"/><path d="M45.61,92a7.62,7.62,0,0,1,.77,3.16c-.15-.93-.53-2.08-.77-3.16Z" style="fill:#ff769d"/><path d="M44.54,96.49l1,.54a1.9,1.9,0,0,0,.25,0,1.83,1.83,0,0,0-.48.84C45.41,97.68,45.11,97.16,44.54,96.49Z" style="fill:#ff769d"/><path d="M43.32,120c-.53.19-.91.25-1,.12A3.79,3.79,0,0,0,43.32,120Z" style="fill:#ff769d"/><path d="M27.73,125.68c-.49-4.49-.94-9.84-1.3-14.69.92,1.64,1.95,3.44,3,5.27C28.83,119.76,28.21,123.3,27.73,125.68Z" style="fill:#ff769d"/><path d="M28.51,131.8c1.71-2.17,3.17-7.83,3.78-10.75,2.8,4.57,5.41,8.4,6.61,8.84,1.71.62,7.86-4,12.7-8a36.41,36.41,0,0,0,4.46-.1c.46,4.09.86,7.56.91,7.77.1.4.63,7.15.9,10.65-1.08.66-9.85,2.7-11.3,2.91s-13.37,0-14.48,1.59c-.47-1.44-1.38-4.33-2.16-7-.54-1.86-1-3.63-1.22-4.76C28.64,132.59,28.58,132.2,28.51,131.8Z" style="fill:#ff769d"/><path d="M33.38,75.62a2,2,0,0,1,0-.24h0C33.41,75.47,33.39,75.54,33.38,75.62Z" style="fill:#f9c4c9"/><path d="M33.27,77.08a5.56,5.56,0,0,1,0-.71.52.52,0,0,0,0,.11C33.3,76.67,33.28,76.87,33.27,77.08Z" style="fill:#f9c4c9"/><path d="M49.32,76.81v0a7.93,7.93,0,0,0-.79-3.24l-.38.57-.31.07a6.12,6.12,0,0,1-3.62.86,14.18,14.18,0,0,1-3.46-.39A5.21,5.21,0,0,0,38.24,78c0,.08-.12,1.34-.11,1.77a4,4,0,0,1-.29,1.64,3.39,3.39,0,0,0-.39-.18c-.52-.18-.71-1-.78-1.54a3.82,3.82,0,0,0,.13-1.1c0-1.24-.61-2.24-1.28-2.22s-1.2,1-1.17,2.28.48,2,1,2.18h0l.82,1,.22.25,0,2.27a.54.54,0,0,1-.65.12A9.74,9.74,0,0,1,34,81.8a6.37,6.37,0,0,1-.68-1.93,12.18,12.18,0,0,1-.08-2.79c0-.21,0-.41,0-.6a.52.52,0,0,1,0-.11h0s0-.08,0-.12c0-.21,0-.41.08-.62s0-.15,0-.23h0V75.3h0c0-.13.06-.27.1-.4s.05-.18.07-.27l.15-.43a2,2,0,0,1,.1-.26,3.82,3.82,0,0,1,.21-.46,1.76,1.76,0,0,1,.09-.2c.1-.2.22-.4.34-.6l.13-.19.28-.39.18-.23.27-.31.21-.23.31-.29.21-.19.4-.32.27-.19.46-.3.27-.14.25-.14a5.3,5.3,0,0,1,.62-.36v0l.17-.06a7.2,7.2,0,0,1,1.68-.56,15.46,15.46,0,0,1,4.77-1,45.14,45.14,0,0,1,6.2,1.79L48.88,73a9.87,9.87,0,0,1,.64,4.26c-.1.42-.17.74-.23,1,0-.5.05-1,0-1.34C49.33,76.87,49.32,76.85,49.32,76.81Z" style="fill:#004e4a"/><path d="M46.38,95.2a3.09,3.09,0,0,1-.12.75,3.5,3.5,0,0,1-.47,1,1.9,1.9,0,0,1-.25,0l-1-.54a17.15,17.15,0,0,0-5-4c-1.91-1-2.54-1.83-2.75-2.38l-.28-5.29,0,0v-.55l0-2.27-.22-.25-.82-1h0c-.56-.19-1-1.09-1-2.18s.49-2.26,1.17-2.28,1.24,1,1.28,2.22a3.82,3.82,0,0,1-.13,1.1c.07.54.26,1.36.78,1.54a3.39,3.39,0,0,1,.39.18,4,4,0,0,0,.29-1.64c0-.43.11-1.69.11-1.77a5.21,5.21,0,0,1,2.52-3.35,14.18,14.18,0,0,0,3.46.39,6.12,6.12,0,0,0,3.62-.86l.31-.07.38-.57a7.93,7.93,0,0,1,.79,3.24v0s0,.06,0,.1c0,.38,0,.84,0,1.34-.22,3.21-.36,8.21-2.31,9.73-.3.23-1.63.34-1.64.68-.06,1.52,0,1.62,0,1.62A7.23,7.23,0,0,0,45.61,92C45.85,93.12,46.23,94.27,46.38,95.2Z" style="fill:#f9c4c9"/><path d="M40.45,147.86c1.52-.14,7.06-.59,11.36-1.17L48.27,163.4l0,.17L42.73,212.3l0,1.18-1,0c-1,0-2.44.07-3.35,0-.46,0-.78-.09-.81-.19-.14-.39-3.2-22.5-2.93-28.49.22-5.07-1.11-29.25-1.53-36.55C34.61,148.71,38.23,148.05,40.45,147.86Z" style="fill:#00848a"/><path d="M32.29,121.05c-.61,2.92-2.07,8.58-3.78,10.75a2.42,2.42,0,0,1-1,.81c-2.58,1-2.58-.57-3.44-1.72s2.29-2,2.87-2.3a12.62,12.62,0,0,0,.75-2.91c.48-2.38,1.1-5.92,1.71-9.42C30.38,117.88,31.34,119.5,32.29,121.05Z" style="fill:#00848a"/><path d="M55.21,112.7l-.12.35-.24.6s-.87-3.73-1.44-5.6c-.48-1.54-3.89-11.31-5.06-14.9a5.6,5.6,0,0,0,0-.57,1.89,1.89,0,0,0-.34-.89c.3-.22,1.57.11,2.95,1,0,0,.15.37.41,1a66.79,66.79,0,0,1,4.18,17.34A4.61,4.61,0,0,1,55.21,112.7Z" style="fill:#00848a"/><path d="M15.34,96.56c1.92-5.24,10.37-6.89,14.79-6.54-1.94,4.67,1.73,5,1.73,5l0-.11c1.15,1.8,2.9,5.31,3.08,15.32,0,1-3.09,13.17-3.22,15C29.68,121.51,30.15,99.41,29.9,99a5.08,5.08,0,0,0-1.47-1.85c-.2-.33-.37-.63-.53-.88q-.36-.08-.72-.18c-1.21-.32-2.39-.78-3.07-.85-1.44-.14-1.69-2.44-5.32,3.45-2.3,3.74-2,5.89-2.58,11.21-.33,3,0,4.22-.3,4.68s-.8.26-2.29.2C10.17,114.66,13.19,102.45,15.34,96.56Z" style="fill:#00848a"/><path d="M18.07,128c0,1.73,2.44,7.9,2.44,7.9s.33.57-.41,1a3.47,3.47,0,0,1-1.17.33c-2.15.28-3.16-6.32-4.3-10.92-1.06-4.22,1-5.29,2-5.66l.24-.09A70.74,70.74,0,0,1,18.07,128Z" style="fill:#00848a"/><path d="M39.53,92.48a17.15,17.15,0,0,1,5,4c.57.67.87,1.19.77,1.35-.84,1.26-2.31.1-3.68-.53s-5.08-2.43-6-2.84c-3.07-1.35-3.65,0-3.76.4l0,.11s-3.67-.29-1.73-5c.05-.13.09-.24.15-.38,2.32-5,6.31-2.52,6.31-2.52l.1,2.42a1.15,1.15,0,0,0,.09.56C37,90.65,37.62,91.52,39.53,92.48Z" style="fill:#ef4d8c"/><path d="M48.35,93.15a14.49,14.49,0,0,1-1.36,5c-.42.42-2.1.84-1.68-.31a1.83,1.83,0,0,1,.48-.84,3.5,3.5,0,0,0,.47-1,3.09,3.09,0,0,0,.12-.75A7.62,7.62,0,0,0,45.61,92l-.22-1.76.24-.74A8.6,8.6,0,0,1,48,91.69a1.89,1.89,0,0,1,.34.89A5.6,5.6,0,0,1,48.35,93.15Z" style="fill:#ef4d8c"/><path d="M46.57,143.13c1.45-.21,10.22-2.25,11.3-2.91l.05,0c.84-.63,1.68,1.9,1.68,2.95a1.87,1.87,0,0,1-1.29,2,11.91,11.91,0,0,1-2,.74,34.78,34.78,0,0,1-4.53.83c-4.3.58-9.84,1-11.36,1.17-2.22.19-5.84.85-7.42.44a2.49,2.49,0,0,1-.36-.13c-.76-.39-.82-2-.67-3.25a.45.45,0,0,1,.09-.2C33.2,143.14,45.16,143.33,46.57,143.13Z" style="fill:#ef4d8c"/><path d="M10.45,146l8.11-5.27-2.36-3.63-6.63,4.31-1.48,1-1.48,1C8.34,145.34,9.83,146.43,10.45,146Z" style="fill:#005ef0"/><path d="M1.17,135l1.49-1,1.48-1,6.63-4.31L8.4,125.13.3,130.41C-.33,130.82.07,132.62,1.17,135Z" style="fill:#0f3872"/><path d="M101.24,78c-.36-.59,1.44-2,1.37-2.79l-10,10.51-2,2.09L89.49,88.9a5.46,5.46,0,0,0,1.79,0c1-.13,2.15-.25,2.72.44a2.11,2.11,0,0,1,.4,1.21l.65-1,7.44-11.36C101.9,78.25,101.4,78.21,101.24,78Z" style="fill:#e5f2fd"/><path d="M86.35,76.79c.36.79-.41,1.81-1.12,2.77a4.19,4.19,0,0,0-1,1.84L86,80.76l2.72-1,13.69-4.93c-.7-.48-3.06.37-3.39-.29a.81.81,0,0,1,.16-.72L86.25,76l-.64.11A1.61,1.61,0,0,1,86.35,76.79Z" style="fill:#ffd4b3"/><path d="M87,82.24a9.32,9.32,0,0,1,3.33,0,1.09,1.09,0,0,1,.59.43,1,1,0,0,1,.12.66,9.15,9.15,0,0,1-1.45,2.94c-.55.93-1,1.8-.6,2.33a.89.89,0,0,0,.52.33l1.08-1.13,2-2.09,10-10.51a.47.47,0,0,0,0-.17.54.54,0,0,0-.15-.15L88.73,79.78l-2.72,1-1.77.64a.72.72,0,0,0,.08.41C84.65,82.41,85.76,82.36,87,82.24Z" style="fill:#f4e7d8"/><path d="M3.62,139.36a36.81,36.81,0,0,0,3,4l1.48-1,1.48-1,6.63-4.31-5.43-8.36-6.63,4.31-1.48,1-1.49,1A37.23,37.23,0,0,0,3.62,139.36Z" style="fill:#003ba4"/><path d="M99,74.56c.33.66,2.69-.19,3.39.29a.54.54,0,0,1,.15.15.47.47,0,0,1,0,.17c.07.8-1.73,2.2-1.37,2.79.16.25.66.29,1.25.18L106,72.72l-6.85,1.12A.81.81,0,0,0,99,74.56Z" style="fill:#ff769d"/><path d="M94,89.3c-.57-.69-1.68-.57-2.72-.44a5.46,5.46,0,0,1-1.79,0l-.77.81-.56.59L24,132.07l2.36,3.63L92.59,92.58l.78-.51,1-1.56A2.11,2.11,0,0,0,94,89.3Z" style="fill:#00beed"/><rect x="16.63" y="134.25" width="9.25" height="4.33" transform="translate(-70.95 33.66) rotate(-33.05)" style="fill:#ebebeb"/><rect x="8.84" y="122.26" width="9.25" height="4.33" transform="translate(-65.68 27.47) rotate(-33.05)" style="fill:#c4c4c4"/><path d="M18.52,123.72l64.2-41.78.1,0,1.42-.51a4.19,4.19,0,0,1,1-1.84c.71-1,1.48-2,1.12-2.77a1.61,1.61,0,0,0-.74-.72l-2.4.39-2,1.3L16.15,120.09Z" style="fill:#04c"/><path d="M88.16,90.3l.56-.59.77-.81a.89.89,0,0,1-.52-.33c-.37-.53,0-1.4.6-2.33A9.15,9.15,0,0,0,91,83.3a1,1,0,0,0-.12-.66,1.09,1.09,0,0,0-.59-.43,9.32,9.32,0,0,0-3.33,0c-1.22.12-2.33.17-2.66-.43a.72.72,0,0,1-.08-.41l-1.42.51-.1,0-64.2,41.78L24,132.07Z" style="fill:#007ee3"/><rect x="12.74" y="125.44" width="9.25" height="9.97" transform="translate(-68.32 30.57) rotate(-33.05)" style="fill:#d9d9d9"/><path d="M43,121.35l-.07,0,1.17,3.87c.53-.07,1.12-.14,1.79-.24l1.32-.19c5.82-.88,4.12-3.3,4.12-4.69s-5.75-.66-5.75-.66,1.3-2.79.85-3c-.22-.1-.9.93-1.57,2.05-.76,1.3-1.51,2.72-1.51,2.72Z" style="fill:#f9c4c9"/><path d="M43.78,126.49c.36-.31.56-.5.56-.5l-.23-.74-1.17-3.87-.43-1.4-10.42,4.38c-1-10.84-1.47-25.86-2.93-27.5a.32.32,0,0,0-.48-.07c-12.95,9.83-4.84,30.93-1.31,36.21a3,3,0,0,0,2.41,1.31C34.17,134.56,41.67,128.33,43.78,126.49Z" style="fill:#ef4d8c"/></g></g></g></svg>