<svg xmlns="http://www.w3.org/2000/svg" viewBox="0 0 380.8 271.2"><g id="レイヤー_2" data-name="レイヤー 2"><g id="レイヤー_1-2" data-name="レイヤー 1"><path d="M248.85,109.31l3.18-.77a27.49,27.49,0,0,0,5.21,7l-1.73,2.82a3.69,3.69,0,0,0,1.24,5.07l4.78,2.89a3.74,3.74,0,0,0,5.1-1.24l1.76-2.87a27.87,27.87,0,0,0,8.56,1.28l.81,3.3a3.72,3.72,0,0,0,4.48,2.71l5.44-1.32a3.68,3.68,0,0,0,2.72-4.45l-.81-3.3a27.81,27.81,0,0,0,7-5.07l2.89,1.75a3.74,3.74,0,0,0,5.1-1.23l2.9-4.76a3.68,3.68,0,0,0-1.24-5.06l-2.84-1.72a27.68,27.68,0,0,0,1.39-8.58L308,95a3.7,3.7,0,0,0,2.73-4.45l-1.33-5.41a3.71,3.71,0,0,0-4.48-2.7l-3.09.75A27.4,27.4,0,0,0,296.62,76l1.61-2.65A3.68,3.68,0,0,0,297,68.31l-4.78-2.89a3.73,3.73,0,0,0-5.1,1.24l-1.58,2.59a27.79,27.79,0,0,0-8.83-1.38L276,64.94a3.71,3.71,0,0,0-4.48-2.7l-5.44,1.32A3.68,3.68,0,0,0,263.34,68l.72,2.92a27.85,27.85,0,0,0-7.2,5.27l-2.61-1.57a3.73,3.73,0,0,0-5.1,1.23l-2.9,4.75a3.69,3.69,0,0,0,1.24,5.07l2.66,1.6A27.38,27.38,0,0,0,248.86,96l-3.09.74a3.7,3.7,0,0,0-2.72,4.46l1.32,5.4A3.72,3.72,0,0,0,248.85,109.31Zm23.73-30.95A17.82,17.82,0,1,1,259.41,99.9,17.94,17.94,0,0,1,272.58,78.36Z" style="fill:#20b3e3"/><path d="M308.8,77.85l1.26-1.28a15.75,15.75,0,0,0,4.5,1.77l0,1.83a2.06,2.06,0,0,0,2.08,2l3.09,0a2,2,0,0,0,2-2.06V78.23a15.63,15.63,0,0,0,4.4-1.88l1.35,1.31a2.06,2.06,0,0,0,2.9,0l2.17-2.2a2,2,0,0,0,0-2.89l-1.35-1.31a15,15,0,0,0,1.8-4.42l1.88,0a2.05,2.05,0,0,0,2-2.06l0-3.08a2.06,2.06,0,0,0-2.07-2l-1.85,0a15.19,15.19,0,0,0-1.86-4.43l1.26-1.29a2,2,0,0,0,0-2.88l-2.21-2.16a2.07,2.07,0,0,0-2.9,0L326,50.18a15.79,15.79,0,0,0-4.54-1.85l0-1.71a2.05,2.05,0,0,0-2.07-2l-3.1,0a2.05,2.05,0,0,0-2,2.06l0,1.68a15.7,15.7,0,0,0-4.56,1.92l-1.19-1.17a2.08,2.08,0,0,0-2.91,0l-2.16,2.2a2,2,0,0,0,0,2.88l1.19,1.17A15.1,15.1,0,0,0,302.83,60h-1.69a2.05,2.05,0,0,0-2,2.06l0,3.08a2.05,2.05,0,0,0,2.07,2l1.72,0a15.25,15.25,0,0,0,2,4.48l-1.23,1.24a2,2,0,0,0,0,2.89l2.22,2.15A2.06,2.06,0,0,0,308.8,77.85Zm2.05-21.43a10,10,0,0,1,14-.15A9.81,9.81,0,0,1,325,70.22a10,10,0,0,1-14,.14A9.81,9.81,0,0,1,310.85,56.42Z" style="fill:#20b3e3"/><path d="M129.94,2.32l-.81,1.2a12.29,12.29,0,0,0-3.8-.76l-.28-1.44A1.64,1.64,0,0,0,123.13,0l-2.44.46a1.64,1.64,0,0,0-1.3,1.92l.28,1.46A12.59,12.59,0,0,0,116.47,6l-1.25-.84a1.65,1.65,0,0,0-2.28.43l-1.39,2A1.63,1.63,0,0,0,112,9.88l1.25.85a12.44,12.44,0,0,0-.79,3.73l-1.47.28a1.63,1.63,0,0,0-1.3,1.91l.46,2.42a1.65,1.65,0,0,0,1.93,1.3l1.45-.28a11.92,11.92,0,0,0,2.11,3.23l-.82,1.19a1.65,1.65,0,0,0,.44,2.27l2.06,1.38a1.65,1.65,0,0,0,2.28-.43l.79-1.16a12.21,12.21,0,0,0,3.84.81l.26,1.35A1.64,1.64,0,0,0,126.4,30l2.44-.46a1.64,1.64,0,0,0,1.3-1.91l-.25-1.32a12.66,12.66,0,0,0,3.31-2.16l1.11.75a1.66,1.66,0,0,0,2.28-.44l1.39-2a1.63,1.63,0,0,0-.44-2.27l-1.11-.75a12,12,0,0,0,.79-3.86l1.33-.25a1.63,1.63,0,0,0,1.3-1.91L139.38,11a1.65,1.65,0,0,0-1.92-1.3l-1.35.26a12.26,12.26,0,0,0-2.19-3.24l.79-1.16a1.64,1.64,0,0,0-.43-2.27l-2.06-1.38A1.65,1.65,0,0,0,129.94,2.32Zm1.47,17.18a8,8,0,0,1-11,2.11,7.87,7.87,0,0,1-2.12-11,8,8,0,0,1,11-2.1A7.86,7.86,0,0,1,131.41,19.5Z" style="fill:#20b3e3"/><path d="M119.67,30.38l0,.8a6.66,6.66,0,0,0-2,.75l-.56-.6a.91.91,0,0,0-1.28,0l-1,.93a.89.89,0,0,0,0,1.27l.56.61a7.14,7.14,0,0,0-.88,1.92l-.84,0a.91.91,0,0,0-.94.87l0,1.36a.91.91,0,0,0,.87.94l.84,0a6.45,6.45,0,0,0,.73,2l-.61.57a.89.89,0,0,0,0,1.27l.93,1a.9.9,0,0,0,1.28,0l.6-.55a6.76,6.76,0,0,0,1.94.91l0,.79a.91.91,0,0,0,.87.94l1.38.06a.91.91,0,0,0,.94-.87l0-.78a6.45,6.45,0,0,0,2-.73l.52.56a.92.92,0,0,0,1.29,0l1-.93a.91.91,0,0,0,0-1.28l-.51-.54a6.89,6.89,0,0,0,.92-2l.74,0a.91.91,0,0,0,.95-.87l.05-1.36a.91.91,0,0,0-.87-.94l-.74,0a6.88,6.88,0,0,0-.77-2l.55-.51a.89.89,0,0,0,0-1.27l-.93-1a.91.91,0,0,0-1.29-.05l-.56.51a6.71,6.71,0,0,0-2-.89l0-.77a.91.91,0,0,0-.88-.94l-1.37-.06A.91.91,0,0,0,119.67,30.38ZM125.41,38a4.4,4.4,0,1,1-4.22-4.54A4.38,4.38,0,0,1,125.41,38Z" style="fill:#20b3e3"/><path d="M277.49,48.54l.64-.24.45-.17s.18-.1.22-.08a9.46,9.46,0,0,0,1.32,2.39l-1,.73a.66.66,0,0,0-.32.47c0,.4.28.67.54.94a10.85,10.85,0,0,0,.92.87.67.67,0,0,0,1,0l.75-1,.07-.09s.22.14.26.16a7.62,7.62,0,0,0,.77.48,9.23,9.23,0,0,0,1.39.65l-.41,1.13a.63.63,0,0,0,0,.55c.19.37.63.45,1,.53s.82.19,1.24.24.79-.1.82-.49.06-.83.08-1.24v-.15l.71,0A6.4,6.4,0,0,0,289,54.2l.63-.1c.09,0,.33-.12.35,0l.14.62.14.64a.55.55,0,0,0,.51.44,6.18,6.18,0,0,0,2.2-.75.61.61,0,0,0,.25-.74c-.05-.11-.12-.21-.17-.31l-.51-.91a9.06,9.06,0,0,0,1.95-1.41c.05,0,.21-.27.27-.22l.19.19.55.54c.12.12.24.29.41.34.43.14.73-.24,1-.52s.54-.71.79-1.08a.82.82,0,0,0,.11-.85c-.12-.22-.47-.33-.68-.45l-.73-.39a8.45,8.45,0,0,0,.89-2.28c0-.08,0-.29.11-.27l.27.06.76.16a.93.93,0,0,0,.57,0c.4-.17.42-.61.47-1s.07-.87.08-1.31-.15-.75-.53-.8a3.69,3.69,0,0,0-.74.05l-.74,0a9.15,9.15,0,0,0-.6-2.67l1.13-.42c.22-.09.41-.17.48-.42a1.39,1.39,0,0,0-.25-1,9.8,9.8,0,0,0-.66-1.13c-.19-.29-.59-.54-.91-.29l-1,.76-.09.06s-.14-.15-.17-.18a8.27,8.27,0,0,0-.61-.7,8.88,8.88,0,0,0-1.18-1l.73-1a.62.62,0,0,0,.17-.55c-.1-.39-.5-.58-.83-.76s-1.71-1.13-2-.31l-.45,1.2,0,.09a1.36,1.36,0,0,1-.28-.08c-.31-.1-.62-.19-.94-.26a9.15,9.15,0,0,0-1.47-.22l.08-1.2a.68.68,0,0,0-.1-.52.9.9,0,0,0-.69-.27,10.66,10.66,0,0,0-1.38.09c-.41,0-1.08.21-1,.76s.19.83.28,1.24c0,.08,0,.1,0,.12-.25.06-.49.12-.74.2s-.62.22-.93.34a6.27,6.27,0,0,0-.58.29c-.09,0-.23.18-.29.07l-.32-.58-.31-.56a.62.62,0,0,0-.86-.18,7.44,7.44,0,0,0-1.3.92c-.29.24-.76.75-.37,1.12s.67.66,1,1a8.32,8.32,0,0,0-1.5,2c0,.07-.09.28-.18.23l-.25-.14-.68-.36a1.11,1.11,0,0,0-.49-.2c-.4,0-.58.37-.72.68s-.33.84-.47,1.28a.89.89,0,0,0,.08.88c.17.2.56.22.81.27l.81.17a8,8,0,0,0-.21,2.39c0,.07.07.34,0,.34l-.26,0-.78.06a1.1,1.1,0,0,0-.57.11c-.32.24-.26.64-.2,1a12.17,12.17,0,0,0,.3,1.33c.09.32.28.68.66.69A.47.47,0,0,0,277.49,48.54Zm3-4.46a7.78,7.78,0,0,1,.76-2.71,7.43,7.43,0,0,1,3.14-3.17,8,8,0,0,1,2.18-.73,6.85,6.85,0,0,1,2.67,0c.37.08.72.19,1.08.3a6.28,6.28,0,0,1,1.31.62,7.15,7.15,0,0,1,3.22,4.19c.09.33.16.66.22,1a6.12,6.12,0,0,1,.06,1.42,6.72,6.72,0,0,1-.5,2.29,7.94,7.94,0,0,1-1.55,2.38,6.88,6.88,0,0,1-1.84,1.38,7.73,7.73,0,0,1-2.09.72,7.91,7.91,0,0,1-2.33.06,7.33,7.33,0,0,1-4.64-2.54c-.27-.35-.52-.71-.76-1.08a6,6,0,0,1-.5-1.09,7.39,7.39,0,0,1-.43-3.09Z" style="fill:#8ce3ff"/><path d="M281.17,45.84A6.78,6.78,0,0,0,283.76,50a7.35,7.35,0,0,0,2.17,1.08,6.92,6.92,0,0,0,2.56.24,6.45,6.45,0,0,0,1.31-.25,4.69,4.69,0,0,0,.79-.29,12.6,12.6,0,0,0,1.13-.64,5.46,5.46,0,0,0,.79-.65,6.75,6.75,0,0,0,2.09-4.68,6.55,6.55,0,0,0-1.77-4.72,6.82,6.82,0,0,0-.61-.59,8,8,0,0,0-1.19-.8,6,6,0,0,0-2.3-.74,6.89,6.89,0,0,0-4.83,1.18,6.3,6.3,0,0,0-1.55,1.54,7.67,7.67,0,0,0-.6,1,5.78,5.78,0,0,0-.5,1.39,7.65,7.65,0,0,0-.18,1.26,8.17,8.17,0,0,0,.1,1.49C281.2,46,281.15,45.73,281.17,45.84Zm1.27,1.25a3,3,0,0,1-.23-.59,3.46,3.46,0,0,1-.19-.7,8.93,8.93,0,0,1-.1-1.37,6.27,6.27,0,0,1,.59-2.36,6.19,6.19,0,0,1,.56-.91,4.27,4.27,0,0,1,.89-1,6.8,6.8,0,0,1,1.72-1,6.18,6.18,0,0,1,2.59-.4,6.29,6.29,0,0,1,2.13.57,5.47,5.47,0,0,1,1.73,1.25,5.93,5.93,0,0,1,1.41,2.47,5.83,5.83,0,0,1-.41,4.22,6.09,6.09,0,0,1-1.66,2,7,7,0,0,1-1.77,1,5.66,5.66,0,0,1-2.12.28,6,6,0,0,1-1.19-.17,6.07,6.07,0,0,1-1.15-.41,5.9,5.9,0,0,1-1.78-1.32,6.16,6.16,0,0,1-1-1.54Z" style="fill:#8ce3ff"/><path d="M202.55,93.17l.64-.24.45-.17s.18-.09.22-.08a9.46,9.46,0,0,0,1.32,2.39l-1,.74a.62.62,0,0,0-.32.46,1.31,1.31,0,0,0,.54.94,11,11,0,0,0,.92.88c.26.22.72.35,1,0l.75-1,.07-.09s.22.14.26.17c.25.17.5.33.77.48a9.18,9.18,0,0,0,1.39.64l-.41,1.13a.65.65,0,0,0,0,.56c.19.36.63.44,1,.52a8.76,8.76,0,0,0,1.24.24c.33,0,.79-.09.82-.49s.06-.82.08-1.24v-.14H213a6.4,6.4,0,0,0,1.07-.06c.21,0,.42-.06.63-.1s.33-.11.35,0l.14.62.14.64a.57.57,0,0,0,.51.45,6.6,6.6,0,0,0,2.2-.75.63.63,0,0,0,.25-.75c-.05-.11-.12-.21-.17-.31l-.51-.91a8.73,8.73,0,0,0,1.95-1.41c.05-.05.21-.27.27-.21l.19.18.55.55c.12.11.24.28.41.33.43.14.73-.23,1-.52s.54-.71.79-1.07a.84.84,0,0,0,.11-.86c-.12-.22-.47-.33-.68-.44l-.73-.39a8.64,8.64,0,0,0,.89-2.29c0-.08,0-.29.11-.27l.27.06.76.16a.93.93,0,0,0,.57,0c.4-.16.42-.61.47-1s.07-.87.08-1.3-.15-.76-.53-.81a4.6,4.6,0,0,0-.74.05l-.74.06a9,9,0,0,0-.6-2.67l1.13-.43c.22-.08.41-.17.48-.42a1.39,1.39,0,0,0-.25-1,9.8,9.8,0,0,0-.66-1.13c-.19-.29-.59-.53-.91-.29l-1,.76-.09.07s-.14-.16-.17-.19c-.19-.24-.4-.47-.61-.7a9.65,9.65,0,0,0-1.18-1l.73-1a.62.62,0,0,0,.17-.55c-.1-.39-.5-.58-.83-.76s-1.71-1.12-2-.3l-.45,1.19,0,.1a2.55,2.55,0,0,1-.28-.08c-.31-.11-.62-.19-.94-.27a10.43,10.43,0,0,0-1.47-.22l.08-1.2a.68.68,0,0,0-.1-.52,1,1,0,0,0-.69-.27,12.79,12.79,0,0,0-1.38.09c-.41,0-1.08.21-1,.76l.28,1.25c0,.08.05.1,0,.12-.25,0-.49.12-.74.19s-.62.22-.93.34a6.27,6.27,0,0,0-.58.29c-.09,0-.23.18-.29.07l-.32-.58-.31-.55a.63.63,0,0,0-.86-.19,7.5,7.5,0,0,0-1.3.93c-.29.23-.76.74-.37,1.11s.67.66,1,1a8.27,8.27,0,0,0-1.5,1.94c0,.07-.09.28-.18.23l-.25-.13-.68-.37a1,1,0,0,0-.49-.19c-.4,0-.58.36-.72.67s-.33.84-.47,1.28a.89.89,0,0,0,.08.88c.17.21.56.22.81.27l.81.18a8,8,0,0,0-.21,2.38c0,.07.07.34,0,.34L203,90l-.78.06a1.11,1.11,0,0,0-.57.12c-.32.24-.26.63-.2,1a12.17,12.17,0,0,0,.3,1.33c.09.32.28.69.66.69A.47.47,0,0,0,202.55,93.17Zm3-4.46a7.67,7.67,0,0,1,.76-2.7,7.32,7.32,0,0,1,1.35-1.86,7.43,7.43,0,0,1,1.79-1.31,7.7,7.7,0,0,1,2.18-.74,6.85,6.85,0,0,1,2.67,0c.37.08.72.19,1.08.3a6.83,6.83,0,0,1,1.31.62,7.15,7.15,0,0,1,3.22,4.19c.09.34.16.66.22,1a6.21,6.21,0,0,1,.06,1.43,6.62,6.62,0,0,1-.5,2.28,7.82,7.82,0,0,1-1.55,2.38,6.88,6.88,0,0,1-1.84,1.38,7.1,7.1,0,0,1-2.09.72,7.91,7.91,0,0,1-2.33.06A7.33,7.33,0,0,1,207.27,94c-.27-.35-.52-.7-.76-1.08a6,6,0,0,1-.5-1.09,7.37,7.37,0,0,1-.43-3.09Z" style="fill:#8ce3ff"/><path d="M206.23,90.48a6.76,6.76,0,0,0,2.59,4.18A7.38,7.38,0,0,0,211,95.75a7.13,7.13,0,0,0,2.56.24,7.23,7.23,0,0,0,1.31-.26,4,4,0,0,0,.79-.29,12.6,12.6,0,0,0,1.13-.64,5.46,5.46,0,0,0,.79-.65,6.75,6.75,0,0,0,2.09-4.68,6.58,6.58,0,0,0-1.77-4.72c-.19-.2-.39-.4-.61-.59a8,8,0,0,0-1.19-.8,6.34,6.34,0,0,0-2.3-.74A6.9,6.9,0,0,0,209,83.81a6.26,6.26,0,0,0-1.55,1.53,7.16,7.16,0,0,0-.6,1,5.55,5.55,0,0,0-.5,1.38,7.81,7.81,0,0,0-.18,1.26,8.34,8.34,0,0,0,.1,1.5C206.26,90.59,206.21,90.36,206.23,90.48Zm1.27,1.25a3.37,3.37,0,0,1-.23-.6,3.29,3.29,0,0,1-.19-.7,8.93,8.93,0,0,1-.1-1.37,6.17,6.17,0,0,1,.59-2.35,5.8,5.8,0,0,1,.56-.92,4.75,4.75,0,0,1,.89-1,6.8,6.8,0,0,1,1.72-1,6.18,6.18,0,0,1,2.59-.4,6.79,6.79,0,0,1,2.13.57,5.47,5.47,0,0,1,1.73,1.25,5.93,5.93,0,0,1,1.41,2.47,5.82,5.82,0,0,1-.41,4.22,6,6,0,0,1-1.66,2,7,7,0,0,1-1.77.95,5.67,5.67,0,0,1-2.12.29,6.05,6.05,0,0,1-2.34-.58,6.1,6.1,0,0,1-1.78-1.33,6.29,6.29,0,0,1-1-1.53Z" style="fill:#8ce3ff"/><path d="M22.2,74.36l.64-.24.44-.17s.19-.1.23-.08a9.16,9.16,0,0,0,1.32,2.39l-1,.73c-.17.13-.31.24-.32.47,0,.4.28.67.53.94s.6.6.93.87.72.36,1,0l.76-1,.06-.09s.23.14.26.16q.38.26.78.48a8.79,8.79,0,0,0,1.39.65l-.42,1.13a.63.63,0,0,0,0,.55c.19.37.63.45,1,.53s.82.19,1.23.24.8-.1.82-.49l.09-1.24v-.15l.7,0A6.52,6.52,0,0,0,33.67,80l.63-.1c.08,0,.32-.12.34,0l.14.62.15.64a.54.54,0,0,0,.51.44,6.13,6.13,0,0,0,2.19-.75.59.59,0,0,0,.25-.74,3.07,3.07,0,0,0-.17-.31l-.5-.91a9.06,9.06,0,0,0,1.95-1.41c.05,0,.21-.27.27-.22l.18.19.55.54a1.15,1.15,0,0,0,.42.34c.42.14.72-.24,1-.53a11.8,11.8,0,0,0,.79-1.07.8.8,0,0,0,.12-.85c-.13-.22-.47-.33-.68-.45L41,75a8.42,8.42,0,0,0,.88-2.28c0-.08,0-.29.11-.27l.27.06.77.16a.9.9,0,0,0,.56,0c.41-.17.43-.61.47-1a11.51,11.51,0,0,0,.08-1.31c0-.32-.14-.76-.52-.8a3.64,3.64,0,0,0-.74,0l-.75,0a9.13,9.13,0,0,0-.59-2.67l1.13-.42c.22-.09.41-.17.48-.42a1.34,1.34,0,0,0-.26-1,8.47,8.47,0,0,0-.65-1.13c-.19-.29-.59-.54-.92-.29l-1,.76-.09.06s-.14-.15-.16-.18a8.37,8.37,0,0,0-.62-.7,7.78,7.78,0,0,0-1.18-1l.73-1a.59.59,0,0,0,.17-.55c-.1-.39-.5-.58-.82-.76s-1.71-1.13-2-.31l-.44,1.2,0,.09a1.3,1.3,0,0,1-.27-.08c-.31-.1-.62-.19-.94-.26a9.27,9.27,0,0,0-1.48-.22l.09-1.2a.64.64,0,0,0-.11-.52.89.89,0,0,0-.69-.27,10.51,10.51,0,0,0-1.37.09c-.42,0-1.09.21-1,.76L30.43,61c0,.08.05.1,0,.12-.25.06-.5.12-.74.2a9.33,9.33,0,0,0-.93.34c-.2.08-.4.19-.59.28s-.22.19-.28.08l-.33-.58-.3-.56a.63.63,0,0,0-.87-.18,7.76,7.76,0,0,0-1.29.92c-.3.24-.76.75-.37,1.12s.66.66,1,1a8.66,8.66,0,0,0-1.5,1.95c0,.07-.09.28-.18.23l-.24-.14-.69-.36a1.12,1.12,0,0,0-.48-.2c-.4,0-.58.37-.72.68a11.52,11.52,0,0,0-.47,1.28.87.87,0,0,0,.07.88c.18.2.57.22.81.27l.81.17a8.35,8.35,0,0,0-.2,2.39c0,.07.06.33,0,.34l-.26,0-.77.06a1.1,1.1,0,0,0-.57.11c-.32.24-.27.64-.21,1s.18.89.3,1.33.28.68.67.69A.51.51,0,0,0,22.2,74.36Zm3-4.46A7.59,7.59,0,0,1,26,67.19a7.21,7.21,0,0,1,1.35-1.85A7.47,7.47,0,0,1,29.13,64a7.82,7.82,0,0,1,2.17-.73,6.91,6.91,0,0,1,2.68,0c.37.08.72.19,1.08.3a6.28,6.28,0,0,1,1.31.62,7.13,7.13,0,0,1,3.21,4.19,8.23,8.23,0,0,1,.22,1,5.62,5.62,0,0,1,.06,1.42,6.48,6.48,0,0,1-.49,2.29,8.14,8.14,0,0,1-1.55,2.38A6.78,6.78,0,0,1,36,76.92a7.73,7.73,0,0,1-2.09.72,7.91,7.91,0,0,1-2.33.06,7.31,7.31,0,0,1-4.63-2.54,13.15,13.15,0,0,1-.76-1.08,5.38,5.38,0,0,1-.5-1.09,7.4,7.4,0,0,1-.44-3.09C25.24,69.79,25.22,70,25.22,69.9Z" style="fill:#20b3e3"/><path d="M25.88,71.66a6.72,6.72,0,0,0,2.58,4.19,7.47,7.47,0,0,0,2.17,1.08,7,7,0,0,0,2.57.24,6.36,6.36,0,0,0,1.3-.25,4.4,4.4,0,0,0,.79-.29A12.6,12.6,0,0,0,36.42,76a5.54,5.54,0,0,0,.8-.65,6.74,6.74,0,0,0,2.08-4.68,6.58,6.58,0,0,0-1.76-4.72,6.77,6.77,0,0,0-.61-.59,8.54,8.54,0,0,0-1.19-.8,6,6,0,0,0-2.3-.74A6.89,6.89,0,0,0,28.61,65a6.13,6.13,0,0,0-1.55,1.54,6.76,6.76,0,0,0-.61,1A5.75,5.75,0,0,0,26,68.91a6.71,6.71,0,0,0-.18,1.26,7.37,7.37,0,0,0,.1,1.49C25.9,71.78,25.86,71.55,25.88,71.66Zm1.27,1.25a3.83,3.83,0,0,1-.24-.59,3.43,3.43,0,0,1-.18-.7,7,7,0,0,1-.1-1.37,6.07,6.07,0,0,1,.58-2.36,7.18,7.18,0,0,1,.56-.91,4.52,4.52,0,0,1,.89-1,6.89,6.89,0,0,1,1.73-1A6.33,6.33,0,0,1,33,64.6a6.42,6.42,0,0,1,2.13.57,5.32,5.32,0,0,1,1.72,1.25,5.72,5.72,0,0,1,1.41,2.47,5.83,5.83,0,0,1-.4,4.22,6.12,6.12,0,0,1-1.67,2,6.8,6.8,0,0,1-1.76.95,5.72,5.72,0,0,1-2.13.28,5.89,5.89,0,0,1-1.18-.17A6.07,6.07,0,0,1,30,75.77a5.66,5.66,0,0,1-1.78-1.32,6.16,6.16,0,0,1-1-1.54Z" style="fill:#20b3e3"/><path d="M2.73,121.42l1.48-.56,1-.39c.09,0,.42-.23.51-.19a21.57,21.57,0,0,0,3.07,5.53l-2.27,1.7a1.39,1.39,0,0,0-.74,1.06c-.07.93.64,1.57,1.23,2.18a29.19,29.19,0,0,0,2.14,2c.61.52,1.66.82,2.23.07l1.74-2.34.15-.21c0-.06.52.32.6.38.59.4,1.17.77,1.79,1.11a21.45,21.45,0,0,0,3.23,1.49l-1,2.61a1.5,1.5,0,0,0-.08,1.29c.44.84,1.46,1,2.3,1.22a24.7,24.7,0,0,0,2.85.54c.77.1,1.83-.22,1.89-1.13l.2-2.86,0-.34s1.49,0,1.63,0a17.11,17.11,0,0,0,2.48-.14c.49-.06,1-.15,1.46-.24.2,0,.75-.26.8,0l.32,1.44.33,1.48a1.3,1.3,0,0,0,1.18,1,14.41,14.41,0,0,0,5.08-1.74A1.4,1.4,0,0,0,39,134.7c-.12-.25-.26-.48-.39-.71l-1.17-2.11a20,20,0,0,0,4.5-3.26c.12-.11.5-.62.63-.49l.43.42,1.27,1.26a2.84,2.84,0,0,0,1,.78c1,.32,1.69-.55,2.24-1.21s1.25-1.63,1.83-2.48a1.9,1.9,0,0,0,.26-2c-.28-.5-1.09-.76-1.56-1L46.29,123a19.93,19.93,0,0,0,2-5.28c0-.18,0-.67.25-.62l.63.13,1.76.38a2.21,2.21,0,0,0,1.32.07c.93-.38,1-1.42,1.08-2.27a27.47,27.47,0,0,0,.18-3c0-.76-.33-1.76-1.21-1.86a8.93,8.93,0,0,0-1.71.1l-1.72.13a20.84,20.84,0,0,0-1.38-6.17l2.62-1c.51-.19.94-.39,1.1-1a3.13,3.13,0,0,0-.58-2.22,21.91,21.91,0,0,0-1.52-2.61c-.44-.67-1.36-1.24-2.11-.67L44.7,98.89l-.21.15c-.06,0-.32-.35-.38-.42A20,20,0,0,0,42.68,97,19.39,19.39,0,0,0,40,94.6l1.69-2.26A1.41,1.41,0,0,0,42,91.06c-.23-.9-1.15-1.33-1.9-1.75-1-.54-4-2.61-4.67-.71l-1,2.76-.08.22a2.89,2.89,0,0,1-.63-.19c-.73-.23-1.44-.44-2.18-.6a20.64,20.64,0,0,0-3.41-.51l.19-2.78a1.5,1.5,0,0,0-.24-1.2,2.15,2.15,0,0,0-1.6-.63,28.14,28.14,0,0,0-3.17.22c-1,.1-2.51.48-2.22,1.75.21,1,.43,1.92.64,2.88,0,.18.12.22-.09.27-.57.13-1.14.28-1.7.45-.73.22-1.46.51-2.16.79-.46.19-.91.44-1.35.66-.21.11-.52.43-.66.18L15,91.51l-.71-1.27a1.45,1.45,0,0,0-2-.42,16.85,16.85,0,0,0-3,2.13c-.69.55-1.76,1.72-.86,2.58.72.79,1.53,1.52,2.3,2.27a20,20,0,0,0-3.47,4.5c-.09.16-.2.64-.42.53l-.56-.31-1.59-.85a2.6,2.6,0,0,0-1.12-.45c-.92,0-1.34.84-1.66,1.57a27.38,27.38,0,0,0-1.09,2.95,2,2,0,0,0,.17,2c.41.47,1.31.5,1.88.63l1.87.39a19.35,19.35,0,0,0-.48,5.52c0,.16.16.78,0,.79l-.6,0-1.8.13a2.4,2.4,0,0,0-1.3.27c-.75.55-.62,1.46-.49,2.25a29.25,29.25,0,0,0,.71,3.08c.2.74.64,1.58,1.53,1.59A1.32,1.32,0,0,0,2.73,121.42Zm7-10.32a17.71,17.71,0,0,1,1.77-6.25,16.93,16.93,0,0,1,7.27-7.33,18,18,0,0,1,5-1.7,16.06,16.06,0,0,1,6.18.09c.86.2,1.67.44,2.5.69a15.05,15.05,0,0,1,3,1.45,16.43,16.43,0,0,1,7.43,9.67,23.63,23.63,0,0,1,.51,2.33,14.58,14.58,0,0,1,.14,3.3,15.2,15.2,0,0,1-1.15,5.28,18.42,18.42,0,0,1-3.58,5.51,16,16,0,0,1-4.27,3.18A16.84,16.84,0,0,1,29.75,129a18.73,18.73,0,0,1-5.39.13,16.79,16.79,0,0,1-10.71-5.87,28.68,28.68,0,0,1-1.76-2.49,14,14,0,0,1-1.16-2.52,17.21,17.21,0,0,1-1-7.15C9.76,110.84,9.71,111.37,9.72,111.1Z" style="fill:#8ce3ff"/><path d="M11.24,115.18a15.49,15.49,0,0,0,6,9.68,17.45,17.45,0,0,0,5,2.51,16.53,16.53,0,0,0,5.94.55,16.35,16.35,0,0,0,3-.59,9.26,9.26,0,0,0,1.82-.67c.9-.46,1.76-.93,2.62-1.47a13.23,13.23,0,0,0,1.83-1.51,15.66,15.66,0,0,0,4.83-10.82A15.3,15.3,0,0,0,38.2,102a16.55,16.55,0,0,0-1.42-1.36A18.43,18.43,0,0,0,34,98.73,14.4,14.4,0,0,0,28.72,97a16.06,16.06,0,0,0-11.18,2.74A14.51,14.51,0,0,0,14,103.31a15.08,15.08,0,0,0-1.41,2.3,13.54,13.54,0,0,0-1.13,3.2,16.06,16.06,0,0,0-.42,2.92,17.31,17.31,0,0,0,.23,3.45Zm2.94,2.89a8.17,8.17,0,0,1-.55-1.37,7.16,7.16,0,0,1-.42-1.62,18.61,18.61,0,0,1-.24-3.16,14.22,14.22,0,0,1,1.36-5.46,13.76,13.76,0,0,1,1.29-2.1,10.63,10.63,0,0,1,2.06-2.23,15.73,15.73,0,0,1,4-2.36,14.16,14.16,0,0,1,6-.91,15.07,15.07,0,0,1,4.93,1.31,12.49,12.49,0,0,1,4,2.89,13.58,13.58,0,0,1,2.33,15.47A14.24,14.24,0,0,1,35,123.17,15.51,15.51,0,0,1,31,125.36,13,13,0,0,1,26,126a15.75,15.75,0,0,1-2.73-.39,15.6,15.6,0,0,1-2.66-.95,13.63,13.63,0,0,1-4.12-3.06,14,14,0,0,1-2.35-3.55C14.08,117.91,14.52,118.72,14.18,118.07Z" style="fill:#8ce3ff"/><path d="M330,107.58l1.48-.55,1-.39c.08,0,.42-.23.51-.2a21.43,21.43,0,0,0,3.06,5.54l-2.27,1.69a1.43,1.43,0,0,0-.74,1.07c-.06.93.65,1.57,1.24,2.18s1.38,1.38,2.13,2,1.67.82,2.23.06l1.75-2.33.15-.21c0-.06.52.32.6.38.59.39,1.17.76,1.79,1.11a20.9,20.9,0,0,0,3.22,1.49l-1,2.61a1.47,1.47,0,0,0-.08,1.29c.43.84,1.45,1,2.29,1.21a25.57,25.57,0,0,0,2.85.55c.77.1,1.84-.22,1.9-1.13s.13-1.91.2-2.86l0-.34s1.49,0,1.63,0a17.19,17.19,0,0,0,2.48-.14c.49-.06,1-.16,1.46-.24.19,0,.75-.26.8,0l.32,1.44.33,1.47a1.29,1.29,0,0,0,1.18,1,14.54,14.54,0,0,0,5.08-1.74,1.39,1.39,0,0,0,.57-1.72,8.06,8.06,0,0,0-.39-.71l-1.17-2.11a20.41,20.41,0,0,0,4.51-3.26c.12-.11.49-.62.62-.49l.43.42,1.28,1.26a2.75,2.75,0,0,0,1,.78c1,.32,1.68-.55,2.24-1.21s1.24-1.63,1.82-2.48a1.89,1.89,0,0,0,.27-2c-.29-.5-1.09-.76-1.57-1l-1.69-.91a20.09,20.09,0,0,0,2-5.28c0-.18,0-.67.25-.62l.63.13,1.76.37a2.18,2.18,0,0,0,1.31.08c.93-.39,1-1.42,1.09-2.27s.15-2,.17-3c0-.76-.33-1.76-1.21-1.86a8.82,8.82,0,0,0-1.7.1l-1.73.13a20.84,20.84,0,0,0-1.38-6.17l2.62-1c.51-.19.94-.39,1.1-1a3.1,3.1,0,0,0-.58-2.21A21.84,21.84,0,0,0,376.41,84c-.44-.67-1.36-1.24-2.12-.67L372,85.06l-.2.15c-.07.05-.33-.35-.38-.42a20,20,0,0,0-1.43-1.62,19.47,19.47,0,0,0-2.73-2.4c.57-.75,1.13-1.51,1.69-2.27a1.37,1.37,0,0,0,.4-1.27c-.24-.9-1.16-1.34-1.91-1.75-.95-.54-4-2.61-4.66-.71l-1,2.76-.08.22a3.42,3.42,0,0,1-.64-.19c-.72-.23-1.44-.44-2.18-.6a20.64,20.64,0,0,0-3.41-.51l.19-2.78a1.49,1.49,0,0,0-.23-1.2,2.16,2.16,0,0,0-1.6-.63,25.7,25.7,0,0,0-3.17.22c-1,.09-2.51.47-2.23,1.75l.65,2.88c0,.18.11.22-.09.27-.57.13-1.15.28-1.71.45-.73.22-1.45.51-2.16.79-.46.19-.9.44-1.35.66-.21.11-.52.43-.66.18l-.75-1.36c-.23-.42-.47-.84-.7-1.27a1.45,1.45,0,0,0-2-.42,17.3,17.3,0,0,0-3,2.13c-.69.55-1.76,1.72-.86,2.58.72.79,1.54,1.52,2.3,2.27a19.63,19.63,0,0,0-3.46,4.5c-.1.16-.21.64-.42.52l-.57-.3L332,86.84a2.64,2.64,0,0,0-1.13-.45c-.92,0-1.34.84-1.66,1.57-.42,1-.76,1.94-1.09,3a2,2,0,0,0,.18,2c.41.47,1.3.5,1.87.62l1.88.4a18.66,18.66,0,0,0-.48,5.52c0,.16.15.78,0,.79l-.61,0-1.79.13a2.44,2.44,0,0,0-1.31.27c-.75.55-.62,1.46-.48,2.25a29.21,29.21,0,0,0,.7,3.08c.2.74.64,1.57,1.53,1.59A1,1,0,0,0,330,107.58Zm7-10.31A17.7,17.7,0,0,1,338.74,91,16.93,16.93,0,0,1,346,83.69a18.26,18.26,0,0,1,5-1.7,15.92,15.92,0,0,1,6.19.09c.85.19,1.66.44,2.49.69a14.8,14.8,0,0,1,3,1.45,16.43,16.43,0,0,1,7.43,9.67,23.63,23.63,0,0,1,.51,2.33,14,14,0,0,1,.15,3.3,15.27,15.27,0,0,1-1.16,5.28,18.23,18.23,0,0,1-3.58,5.51,15.71,15.71,0,0,1-4.27,3.18,16.74,16.74,0,0,1-4.82,1.68,18.72,18.72,0,0,1-5.39.13,16.79,16.79,0,0,1-10.71-5.87c-.64-.81-1.2-1.63-1.76-2.49a13.74,13.74,0,0,1-1.15-2.53,17,17,0,0,1-1-7.14C337,97,337,97.54,337,97.27Z" style="fill:#8ce3ff"/><path d="M338.5,101.35a15.55,15.55,0,0,0,6,9.68,17.23,17.23,0,0,0,5,2.5,16.48,16.48,0,0,0,5.93.56,15.43,15.43,0,0,0,3-.6,9,9,0,0,0,1.82-.66,28,28,0,0,0,2.62-1.48,12.56,12.56,0,0,0,1.84-1.5A15.65,15.65,0,0,0,369.53,99a15.21,15.21,0,0,0-4.08-10.91A18.37,18.37,0,0,0,364,86.75a18.8,18.8,0,0,0-2.74-1.85A14.39,14.39,0,0,0,356,83.19a16,16,0,0,0-11.17,2.74,14.55,14.55,0,0,0-3.58,3.55,15.86,15.86,0,0,0-1.4,2.3,13.14,13.14,0,0,0-1.14,3.2,16,16,0,0,0-.41,2.92,17.31,17.31,0,0,0,.23,3.45Zm2.93,2.89a8.17,8.17,0,0,1-.55-1.37,8.31,8.31,0,0,1-.42-1.63,19.61,19.61,0,0,1-.24-3.16,14.17,14.17,0,0,1,1.36-5.45,15.56,15.56,0,0,1,1.29-2.1,10.65,10.65,0,0,1,2.06-2.23,15.73,15.73,0,0,1,4-2.36,14.19,14.19,0,0,1,6-.91,14.83,14.83,0,0,1,4.93,1.31,12.23,12.23,0,0,1,4,2.89,13.58,13.58,0,0,1,2.33,15.47,14.24,14.24,0,0,1-3.85,4.64,15.74,15.74,0,0,1-4.08,2.19,13,13,0,0,1-4.91.66,15.73,15.73,0,0,1-2.74-.39,16.23,16.23,0,0,1-2.66-1,13.59,13.59,0,0,1-4.11-3.06,14.08,14.08,0,0,1-2.36-3.55C341.33,104.08,341.77,104.89,341.43,104.24Z" style="fill:#8ce3ff"/><path d="M144.91,59l2.22-.84,1.55-.58c.13-.05.64-.34.77-.29a32.27,32.27,0,0,0,4.6,8.3l-3.41,2.55a2.13,2.13,0,0,0-1.11,1.6c-.09,1.39,1,2.35,1.86,3.27s2.07,2.07,3.2,3c.92.78,2.5,1.23,3.35.1l2.62-3.51.23-.31c.06-.09.77.48.9.57.88.59,1.75,1.15,2.68,1.66a29.89,29.89,0,0,0,4.84,2.24c-.48,1.31-1,2.62-1.45,3.92a2.22,2.22,0,0,0-.12,1.93c.65,1.26,2.19,1.54,3.45,1.83a36.12,36.12,0,0,0,4.27.81c1.16.15,2.76-.32,2.85-1.69l.3-4.3,0-.51s2.23.06,2.45.07a25.78,25.78,0,0,0,3.72-.21c.73-.1,1.46-.23,2.19-.36.29,0,1.12-.4,1.2-.06l.48,2.15c.16.74.33,1.48.5,2.22a1.92,1.92,0,0,0,1.77,1.54c1.28.17,6.54-1.79,7.62-2.61a2.12,2.12,0,0,0,.87-2.59c-.18-.36-.4-.71-.6-1.06L197,74.66a30.47,30.47,0,0,0,6.76-4.9c.18-.17.74-.93.94-.74l.64.64,1.92,1.89a4.15,4.15,0,0,0,1.43,1.17c1.48.48,2.53-.82,3.36-1.82,1-1.19,1.86-2.44,2.73-3.72a2.83,2.83,0,0,0,.41-3c-.43-.75-1.64-1.15-2.36-1.53l-2.53-1.36a30.13,30.13,0,0,0,3.07-7.93c.06-.28,0-1,.37-.94l1,.2,2.64.57a3.32,3.32,0,0,0,2,.11c1.4-.58,1.47-2.13,1.63-3.41.19-1.5.23-3,.27-4.52,0-1.14-.5-2.64-1.83-2.79a13.71,13.71,0,0,0-2.55.16l-2.59.19a31,31,0,0,0-2.07-9.26l3.93-1.48c.77-.28,1.41-.57,1.65-1.46.32-1.24-.33-2.25-.87-3.32a33.26,33.26,0,0,0-2.27-3.92c-.66-1-2-1.85-3.18-1l-3.51,2.63-.3.23c-.1.08-.49-.53-.58-.63a29.18,29.18,0,0,0-2.14-2.44,29.13,29.13,0,0,0-4.09-3.59l2.54-3.41a2.09,2.09,0,0,0,.59-1.91c-.36-1.36-1.73-2-2.86-2.63-1.43-.8-5.95-3.91-7-1.07l-1.53,4.15-.13.33a5.34,5.34,0,0,1-1-.28c-1.08-.35-2.16-.66-3.27-.91a31.47,31.47,0,0,0-5.12-.76c.1-1.39.19-2.78.29-4.17a2.24,2.24,0,0,0-.36-1.8,3.23,3.23,0,0,0-2.4-1,39.62,39.62,0,0,0-4.75.33c-1.44.14-3.77.72-3.34,2.62l1,4.33c.06.27.18.34-.13.41-.86.19-1.72.42-2.56.67-1.09.33-2.18.76-3.24,1.19-.69.28-1.36.65-2,1-.31.16-.77.64-1,.26l-1.12-2-1.06-1.91a2.19,2.19,0,0,0-3-.64,27.23,27.23,0,0,0-4.48,3.2c-1,.83-2.64,2.58-1.29,3.88,1.08,1.19,2.3,2.28,3.45,3.41a29.38,29.38,0,0,0-5.2,6.75c-.14.25-.31,1-.63.79l-.85-.46L148,27.82a3.71,3.71,0,0,0-1.69-.68c-1.38,0-2,1.26-2.49,2.35a46,46,0,0,0-1.63,4.43A3,3,0,0,0,142.4,37c.61.71,1.95.76,2.81.94l2.82.6a28.83,28.83,0,0,0-.73,8.28c0,.24.24,1.17,0,1.19l-.91.07-2.69.2a3.65,3.65,0,0,0-2,.4c-1.12.83-.93,2.19-.73,3.38A42.92,42.92,0,0,0,142,56.66c.3,1.11,1,2.36,2.3,2.39A1.61,1.61,0,0,0,144.91,59Zm10.5-15.48a26.69,26.69,0,0,1,2.65-9.38,25.35,25.35,0,0,1,10.91-11,27.07,27.07,0,0,1,7.54-2.55,24.15,24.15,0,0,1,9.28.13c1.28.29,2.49.65,3.74,1a22.09,22.09,0,0,1,4.55,2.17A24.73,24.73,0,0,1,205.23,38.4c.31,1.16.57,2.3.77,3.5a21,21,0,0,1,.21,5,22.75,22.75,0,0,1-1.73,7.92,27.76,27.76,0,0,1-5.37,8.28,23.78,23.78,0,0,1-6.41,4.76,25.43,25.43,0,0,1-7.24,2.52,27.76,27.76,0,0,1-8.09.19,25.2,25.2,0,0,1-16.07-8.8A44.21,44.21,0,0,1,158.66,58a21,21,0,0,1-1.74-3.79,25.89,25.89,0,0,1-1.51-10.72C155.46,43.08,155.39,43.87,155.41,43.47Z" style="fill:#8ce3ff"/><path d="M157.69,49.6a23.32,23.32,0,0,0,9,14.52,26.05,26.05,0,0,0,7.53,3.76,24.74,24.74,0,0,0,8.9.83,23.94,23.94,0,0,0,4.52-.89,14.28,14.28,0,0,0,2.74-1c1.35-.69,2.64-1.4,3.93-2.21A20.53,20.53,0,0,0,197,62.35a23.51,23.51,0,0,0,7.24-16.24,22.9,22.9,0,0,0-6.12-16.37,25.83,25.83,0,0,0-2.14-2,28,28,0,0,0-4.11-2.79,21.6,21.6,0,0,0-8-2.56,24,24,0,0,0-16.77,4.11,22.06,22.06,0,0,0-5.37,5.32,23.46,23.46,0,0,0-2.1,3.46A19.78,19.78,0,0,0,158,40a24.07,24.07,0,0,0-.63,4.39,26.5,26.5,0,0,0,.35,5.18C157.77,50,157.62,49.19,157.69,49.6Zm4.4,4.33a13.6,13.6,0,0,1-.82-2.06,11.37,11.37,0,0,1-.63-2.44,28.93,28.93,0,0,1-.36-4.74,21.35,21.35,0,0,1,2-8.18,20.92,20.92,0,0,1,1.94-3.16A16.06,16.06,0,0,1,167.35,30a23.06,23.06,0,0,1,6-3.55,21.59,21.59,0,0,1,9-1.37,22.61,22.61,0,0,1,7.4,2,18.6,18.6,0,0,1,6,4.34,20.4,20.4,0,0,1,3.5,23.22,21.34,21.34,0,0,1-5.78,7,23.16,23.16,0,0,1-6.14,3.29,19.81,19.81,0,0,1-7.37,1,25.8,25.8,0,0,1-4.1-.59,24.64,24.64,0,0,1-4-1.43,20.25,20.25,0,0,1-6.18-4.6,21.37,21.37,0,0,1-3.54-5.32C162,53.69,162.61,54.9,162.09,53.93Z" style="fill:#8ce3ff"/><path d="M292.43,193.4s7.68,12.33,4.81,51.26c-1.72,23.43-3.35,26.54-3.35,26.54H282s4.78-1.87,6.83-32.1c2.17-31.87-4.86-40-4.86-40h0Z" style="fill:#662d91"/><path d="M270.46,163.33s-6.9-15.07,5.92-10.5c2,.71,9.17,18.28,9.8,21.18s6.25,19.39,6.25,19.39L284,199.07s-7.3-3.81-8.72-8.88a36,36,0,0,1-1.42-8.91Z" style="fill:#ffc191"/><path d="M273.46,149.59s5.68,11.59,7.67,18.75c1.19,4.26,3.5,11.62,2.76,12.48-.43.5-2.19-.54-5.5-4.63C276.5,173.87,273.46,149.59,273.46,149.59Z" style="fill:#f7b079"/><path d="M4,176.44a359.91,359.91,0,0,0,16.45,56.31c12,30.84,17.34,38.45,17.34,38.45H51.06S41,260.54,26,222c-11.61-29.77-12-43.42-12-43.42h0Z" style="fill:#ffc191"/><path d="M361.91,150.79s3.1,35.44-9,66.08-17.34,54.33-17.34,54.33H322.27s4.49-19.82,21.23-57.6c12.64-28.55,8.79-62.81,8.79-62.81Z" style="fill:#fff"/><polygon points="2.65 185.33 17.8 185.7 17.81 182.18 2.76 181.18 2.65 185.33" style="fill:#1a1a1a"/><path d="M6.49,179.05a4.46,4.46,0,1,0,5.39,3.36A4.47,4.47,0,0,0,6.49,179.05Z" style="fill:#1a1a1a"/><path d="M6.55,179.66a3.86,3.86,0,1,0,4.65,2.9A3.85,3.85,0,0,0,6.55,179.66Z" style="fill:#fff"/><rect x="7.2" y="178.43" width="0.53" height="0.71" transform="translate(-171.41 183.89) rotate(-89.25)" style="fill:#1a1a1a"/><polygon points="7.57 183.71 9.01 180.64 7.13 183.63 7.57 183.71" style="fill:#1a1a1a"/><path d="M13.34,140.45a3.8,3.8,0,0,0-3.26,1.07c-1.53,1.46-7.91,11.67-7.41,14.6S4,176.44,4,176.44l9.92,2.2s5.38-6.2,4.84-11.44a36.48,36.48,0,0,0-2-8.81Z" style="fill:#ffc191"/><path d="M11.91,143.41a59.21,59.21,0,0,0-4.25,9c-1.29,4.23-1.36,8.73-.35,9.26.58.3,1.83-1.3,3.41-6.31C11.61,152.46,11.91,143.41,11.91,143.41Z" style="fill:#f7b079"/><path d="M23.71,149.37l-4,.56a9.27,9.27,0,0,1-10.43-7.85L6.06,119A9.23,9.23,0,0,1,14,108.66l4-.55A9.27,9.27,0,0,1,28.39,116l3.21,23A9.23,9.23,0,0,1,23.71,149.37Z" style="fill:#333"/><path d="M29.41,148.76l-15.35,2.12a3.7,3.7,0,0,1-4.17-3.13L5.1,113.41a3.68,3.68,0,0,1,3.15-4.14l15.35-2.12a3.7,3.7,0,0,1,4.17,3.14l4.79,34.33A3.67,3.67,0,0,1,29.41,148.76ZM8.3,109.61a3.34,3.34,0,0,0-2.86,3.76l4.8,34.33A3.35,3.35,0,0,0,14,150.54l15.35-2.12a3.34,3.34,0,0,0,2.86-3.75l-4.79-34.33a3.35,3.35,0,0,0-3.78-2.84Z" style="fill:#e6e6e6"/><polygon points="30.28 142.86 11.58 145.44 7.39 115.37 26.08 112.79 30.28 142.86" style="fill:#fff"/><path d="M30.4,143l-18.91,2.61L7.27,115.28l18.9-2.61Zm-18.73,2.37,18.49-2.54L26,112.91,7.51,115.45Z"/><polygon points="15.52 122.89 10.29 123.61 9.49 117.88 14.72 117.16 15.52 122.89" style="fill:#fbb03b"/><polygon points="25.1 116.99 16.41 118.19 16.24 116.95 24.93 115.75 25.1 116.99" style="fill:#00b5e9;opacity:0.67"/><polygon points="25.42 119.27 16.73 120.47 16.56 119.23 25.24 118.03 25.42 119.27" style="fill:#b3b3b3;opacity:0.56"/><polygon points="25.73 121.49 17.04 122.69 16.87 121.45 25.55 120.25 25.73 121.49" style="fill:#b3b3b3"/><polygon points="26.2 124.85 10.74 126.98 10.57 125.74 26.02 123.61 26.2 124.85" style="fill:#00b5e9;opacity:0.67"/><polygon points="17.69 138.49 12.47 139.21 11.67 133.48 16.89 132.76 17.69 138.49" style="fill:#fbb03b;opacity:0.25"/><polygon points="27.27 132.56 18.59 133.75 18.41 132.51 27.1 131.32 27.27 132.56" style="fill:#00b5e9;opacity:0.67"/><polygon points="27.59 134.84 18.91 136.04 18.73 134.8 27.42 133.6 27.59 134.84" style="fill:#b3b3b3;opacity:0.56"/><polygon points="27.9 137.06 19.21 138.26 19.04 137.02 27.73 135.82 27.9 137.06" style="fill:#b3b3b3"/><polygon points="28.57 139.82 12.26 142.07 12.09 140.87 28.4 138.62 28.57 139.82" style="fill:#65c8d0;opacity:0.48"/><polygon points="30.17 142.88 11.69 145.43 11.49 144 29.97 141.45 30.17 142.88" style="fill:#00b5e9"/><polygon points="26.16 114.08 7.67 116.63 7.51 115.45 26 112.91 26.16 114.08" style="fill:#00b5e9"/><path d="M23,146.85a1.58,1.58,0,0,1-3.14.43,1.58,1.58,0,0,1,3.14-.43Z" style="fill:#1a1a1a"/><path d="M12.66,112a.46.46,0,0,1-.4.52.46.46,0,1,1-.13-.92A.46.46,0,0,1,12.66,112Z"/><path d="M19.48,111.34l-5.7.78a.25.25,0,0,1-.28-.21h0a.25.25,0,0,1,.21-.28l5.7-.79a.26.26,0,0,1,.28.22h0A.25.25,0,0,1,19.48,111.34Z"/><ellipse cx="13.01" cy="129.77" rx="1.64" ry="1.63" style="fill:#fbb03b"/><path d="M20.8,128.74A1.64,1.64,0,1,1,19,127.35,1.64,1.64,0,0,1,20.8,128.74Z" style="fill:#fbb03b;opacity:0.63"/><path d="M26.62,127.89a1.64,1.64,0,1,1-1.85-1.39A1.64,1.64,0,0,1,26.62,127.89Z" style="fill:#fbb03b;opacity:0.23"/><path d="M13.18,164.47h.12c1.58.16,3.67,2.69,3.86.84l.73-17.57a3.16,3.16,0,0,0-2.54-3.64l-.12,0A3.19,3.19,0,0,0,12,147.16L9.24,160.69C9.05,162.53,11.6,164.31,13.18,164.47Z" style="fill:#ffc191"/><path d="M12.81,146.86a2.55,2.55,0,0,0,2.12,2.54,2.54,2.54,0,0,0,2.19-2.47,2.21,2.21,0,0,0-2.26-2.08A2,2,0,0,0,12.81,146.86Z" style="fill:#fff0e6;opacity:0.66"/><path d="M221,177.59,269.76,183a5.1,5.1,0,0,0,5.62-4.48l8.42-75.78a5.07,5.07,0,0,0-4.5-5.59l-48.77-5.36a5.1,5.1,0,0,0-5.63,4.48L216.48,172A5.07,5.07,0,0,0,221,177.59Z" style="fill:#fff"/><path d="M254.41,100.67a1.14,1.14,0,1,0-1-1.25A1.14,1.14,0,0,0,254.41,100.67Z" style="fill:#e6e6e6"/><polygon points="278.99 107.79 227.81 102.26 220.65 167.7 271.82 173.24 278.99 107.79" style="fill:#e6e6e6"/><path d="M220.38,167.91,227.6,102l51.65,5.58L272,173.5ZM228,102.52l-7.11,65,50.7,5.49,7.12-65Z" style="fill:#333"/><polygon points="270 170.91 222.89 165.73 225.11 145.8 272.21 150.97 270 170.91" style="fill:#fff"/><polygon points="238.16 164.81 225.59 163.44 226.98 150.95 239.54 152.33 238.16 164.81" style="fill:#00b5e9;opacity:0.56"/><polygon points="253.35 166.48 240.78 165.1 242.17 152.62 254.73 154 253.35 166.48" style="fill:#b3b3b3;opacity:0.56"/><polygon points="247.63 126.41 227.51 124.2 229.71 104.42 249.83 106.63 247.63 126.41" style="fill:#fff"/><polygon points="268.19 168.11 255.62 166.73 257.01 154.25 269.57 155.63 268.19 168.11" style="fill:#ccc;opacity:0.56"/><polygon points="271.94 150.05 248.06 147.43 250.22 127.98 274.11 130.6 271.94 150.05" style="fill:#fff"/><polygon points="247.58 116.31 230.1 114.39 231.04 105.91 248.52 107.83 247.58 116.31" style="fill:#f7931e"/><polygon points="271.85 140.68 250.45 138.33 251.39 129.85 272.8 132.2 271.85 140.68" style="fill:#f7931e;opacity:0.67"/><polygon points="276.3 110.88 252.42 108.25 252.56 106.93 276.45 109.56 276.3 110.88" style="fill:#f15a24;opacity:0.67"/><polygon points="275.98 113.77 252.09 111.14 252.2 110.2 276.08 112.82 275.98 113.77" style="fill:#b3b3b3"/><polygon points="275.72 116.06 251.84 113.44 251.94 112.49 275.83 115.12 275.72 116.06" style="fill:#b3b3b3"/><polygon points="275.48 118.27 251.59 115.64 251.7 114.7 275.58 117.32 275.48 118.27" style="fill:#b3b3b3"/><polygon points="274.5 127.04 250.62 124.42 250.72 123.48 274.61 126.1 274.5 127.04" style="fill:#b3b3b3"/><polygon points="245.87 142.49 226.45 140.36 226.58 139.23 245.99 141.37 245.87 142.49" style="fill:#b3b3b3"/><polygon points="246.69 134.76 227.28 132.63 227.41 131.51 246.82 133.64 246.69 134.76" style="fill:#b3b3b3"/><polygon points="245.57 144.88 226.16 142.75 226.28 141.63 245.69 143.76 245.57 144.88" style="fill:#b3b3b3"/><polygon points="247.36 128.8 227.94 126.67 228.07 125.55 247.48 127.68 247.36 128.8" style="fill:#f15a24;opacity:0.67"/><polygon points="247.03 131.99 227.62 129.86 227.75 128.74 247.16 130.87 247.03 131.99" style="fill:#b3b3b3"/><polygon points="274.33 129.59 250.45 126.97 250.55 126.02 274.43 128.64 274.33 129.59" style="fill:#b3b3b3"/><polygon points="246.11 140.04 226.72 137.91 226.87 136.56 246.26 138.69 246.11 140.04" style="fill:#00b5e9"/><polygon points="269.81 153.45 227.22 148.78 227.37 147.42 269.96 152.1 269.81 153.45" style="fill:#f15a24"/><polygon points="271.7 143.07 250.18 140.71 250.27 139.89 271.79 142.25 271.7 143.07" style="fill:#b3b3b3;opacity:0.44"/><polygon points="271.51 144.79 249.99 142.43 250.08 141.61 271.6 143.97 271.51 144.79" style="fill:#b3b3b3;opacity:0.44"/><polygon points="271.31 146.6 249.79 144.24 249.88 143.42 271.4 145.78 271.31 146.6" style="fill:#b3b3b3;opacity:0.44"/><polygon points="271.11 148.34 249.6 145.98 249.69 145.17 271.2 147.53 271.11 148.34" style="fill:#b3b3b3;opacity:0.44"/><polygon points="247.04 119.56 229.53 117.64 229.62 116.83 247.13 118.75 247.04 119.56" style="fill:#b3b3b3;opacity:0.44"/><polygon points="246.85 121.28 229.34 119.36 229.43 118.55 246.94 120.47 246.85 121.28" style="fill:#b3b3b3;opacity:0.44"/><polygon points="246.65 123.09 229.14 121.17 229.23 120.36 246.74 122.28 246.65 123.09" style="fill:#b3b3b3;opacity:0.44"/><polygon points="246.45 124.84 228.94 122.92 229.03 122.1 246.54 124.02 246.45 124.84" style="fill:#b3b3b3;opacity:0.44"/><path d="M279.48,185.61l-.11,0c-1.41.73-2.42,3.85-3.28,2.2l-7.17-16.09a3.16,3.16,0,0,1,1-4.31l.11-.05a3.18,3.18,0,0,1,4.12,1.68l7.58,11.56C282.6,182.3,280.89,184.88,279.48,185.61Z" style="fill:#ffc191"/><path d="M273.32,169.1a2.18,2.18,0,1,1-4,1.63,2.19,2.19,0,0,1,1.33-2.75A2,2,0,0,1,273.32,169.1Z" style="fill:#fff0e6;opacity:0.66"/><path d="M361.91,150.79h-9.62s-.41-5.48-.71-7c-.78-3.92-2.35-3.86-7.19-6.12s-4.52-4.88-4.52-4.88,13.73-.41,15.54-1.25,1.23-13.59,1.23-17.9.65-4.72,2.1-4.81a.79.79,0,0,1,.8.49,7.33,7.33,0,0,1,.39,2.89c0,.61,0,1.24.05,1.83.44,7.17,3.11,10.79,3.3,14.83s.17,5.94-.82,9.08S361.91,150.79,361.91,150.79Z" style="fill:#ffc191"/><path d="M336.71,106.33h0a2.19,2.19,0,0,1-3.07-.17l-1.84-2a2.16,2.16,0,0,1,.18-3h0a2.18,2.18,0,0,1,3.06.18l1.84,2.05A2.14,2.14,0,0,1,336.71,106.33Z" style="fill:#ffc191"/><path d="M353.14,92H338.26a3.87,3.87,0,0,0-3.7,4v35.18a3.86,3.86,0,0,0,3.7,4h14.88a3.86,3.86,0,0,0,3.7-4V95.94A3.87,3.87,0,0,0,353.14,92Z" style="fill:#4d4d4d"/><path d="M353.14,135.27H338.26a4,4,0,0,1-3.87-4.15V95.94a4,4,0,0,1,3.87-4.16h14.88A4,4,0,0,1,357,95.94v35.18A4,4,0,0,1,353.14,135.27ZM338.26,92.12a3.68,3.68,0,0,0-3.53,3.82v35.18a3.68,3.68,0,0,0,3.53,3.81h14.88a3.68,3.68,0,0,0,3.53-3.81V95.94a3.68,3.68,0,0,0-3.53-3.82Z" style="fill:#e6e6e6"/><path d="M335.55,116h0a2.18,2.18,0,0,1-3.06-.18l-.69-.76a2.16,2.16,0,0,1,.18-3h0a2.18,2.18,0,0,1,3.06.18l.69.76A2.15,2.15,0,0,1,335.55,116Z" style="fill:#ffc191"/><path d="M336.51,124.84h0a2.2,2.2,0,0,1-3.07-.17l-2.92-3.26a2.15,2.15,0,0,1,.17-3h0a2.19,2.19,0,0,1,3.07.18l2.92,3.26A2.14,2.14,0,0,1,336.51,124.84Z" style="fill:#ffc191"/><path d="M338.78,135.9h0a2.19,2.19,0,0,1-3.06-.17L332,131.55a2.16,2.16,0,0,1,.18-3.05h0a2.18,2.18,0,0,1,3.06.18l3.75,4.17A2.16,2.16,0,0,1,338.78,135.9Z" style="fill:#ffc191"/><path d="M335.11,115.45a1.24,1.24,0,1,1,.43-1.87A1.38,1.38,0,0,1,335.11,115.45Z" style="fill:#fff0e6"/><path d="M335.75,123.86a1.4,1.4,0,0,1-1.93,0,1.52,1.52,0,0,1,2.35-1.83A1.36,1.36,0,0,1,335.75,123.86Z" style="fill:#fff0e6"/><path d="M338,134.9a1.24,1.24,0,1,1,.43-1.87A1.37,1.37,0,0,1,338,134.9Z" style="fill:#fff0e6"/><path d="M359.93,112.18a1,1,0,0,1-.42.08,1.36,1.36,0,0,1-1.19-1.51,1.38,1.38,0,0,1,1.22-1.46A7.33,7.33,0,0,1,359.93,112.18Z" style="fill:#fff0e6"/><path d="M347.31,97.2a1.61,1.61,0,1,1-1.61-1.6A1.6,1.6,0,0,1,347.31,97.2Z"/><path d="M345.7,99a1.77,1.77,0,1,1,1.78-1.77A1.78,1.78,0,0,1,345.7,99Zm0-3.2a1.43,1.43,0,1,0,1.44,1.43A1.44,1.44,0,0,0,345.7,95.77Z" style="fill:#666"/><path d="M342.36,97.3a.82.82,0,1,1-.82-.82A.81.81,0,0,1,342.36,97.3Z" style="fill:#fff"/><path d="M168.35,71.62,70.91,81.2c-2.3.23-4.61,0-5.18-.55L43.3,60.11c0-1.84.52-2.78,3.81-3.1L187.05,43.24c3.29-.32,5.12.31,5.44,1.65L173.33,70.07C172.87,70.7,170.65,71.39,168.35,71.62Z" style="fill:#fff"/><path d="M192.54,46l-18,25.39a2.31,2.31,0,0,1-.87.59,14.6,14.6,0,0,1-4.13,1L71.55,82.58a17.85,17.85,0,0,1-1.91.08,6.31,6.31,0,0,1-3.3-.64L43.63,60.65a1.06,1.06,0,0,1-.33-.51v0c-.15-.87,1.53-1.7,4.28-2L188.17,44.31C191.48,44,193.43,44.75,192.54,46Z" style="fill:#1a1a1a"/><path d="M168.51,141.23,86,149.35a11.93,11.93,0,0,1-13-10.68L68.55,94.85a11.91,11.91,0,0,1,10.71-13l82.55-8.12a11.92,11.92,0,0,1,13,10.67l4.37,43.83A11.93,11.93,0,0,1,168.51,141.23Z" style="fill:#fff"/><polygon points="169.55 71.59 70.6 81.33 50.49 60.73 184.97 47.5 169.55 71.59" style="fill:#fff"/><polygon points="183.63 49.58 52.23 62.51 50.49 60.73 184.97 47.5 183.63 49.58" style="fill:#fbb03b"/><polygon points="169.55 71.59 70.6 81.33 69.62 80.33 170.3 70.42 169.55 71.59" style="fill:#fbb03b"/><polygon points="141.44 56.25 94.95 60.82 94.52 59.77 141.64 55.13 141.44 56.25" style="fill:gray"/><polygon points="170.11 55.2 67.84 65.26 67.06 64.28 170.68 54.09 170.11 55.2" style="fill:gray"/><polygon points="94.93 70.58 73.77 72.67 68.75 66.38 91.92 64.1 94.93 70.58" style="fill:#29abe2"/><polygon points="97.86 76.87 78.64 78.76 74.54 73.63 95.39 71.57 97.86 76.87" style="fill:#29abe2;opacity:0.36"/><polygon points="168.23 58.8 95.44 65.96 94.54 63.84 169.44 56.48 168.23 58.8" style="fill:#29abe2;opacity:0.36"/><polygon points="166.66 61.81 96.62 68.7 95.78 66.75 167.78 59.66 166.66 61.81" style="fill:#29abe2;opacity:0.36"/><polygon points="164.17 66.59 98.48 73.06 97.75 71.34 165.15 64.71 164.17 66.59" style="fill:#29abe2;opacity:0.19"/><polygon points="162.89 69.06 99.44 75.3 98.76 73.7 163.8 67.3 162.89 69.06" style="fill:#29abe2;opacity:0.19"/><path d="M162.83,119.75l-74.48,7.33a9.57,9.57,0,0,1-10.46-8.57L76,99.57a9.56,9.56,0,0,1,8.59-10.45l74.48-7.33a9.56,9.56,0,0,1,10.46,8.56l1.89,19A9.56,9.56,0,0,1,162.83,119.75Z" style="fill:#e6e6e6"/><polygon points="160.62 78.19 83.73 85.75 83.3 81.42 160.19 73.86 160.62 78.19"/><path d="M131,142.57l-6.83.67a8.78,8.78,0,0,1-9.6-7.86h0a8.76,8.76,0,0,1,7.88-9.58l6.83-.67a8.76,8.76,0,0,1,9.59,7.85h0A8.77,8.77,0,0,1,131,142.57Z" style="fill:#e6e6e6"/><polygon points="86.36 93.24 79.68 93.9 79.48 91.93 86.17 91.27 86.36 93.24" style="fill:#1a1a1a"/><polygon points="95.11 92.38 88.43 93.04 88.23 91.07 94.91 90.41 95.11 92.38" style="fill:#1a1a1a"/><polygon points="103.86 91.52 97.17 92.18 96.97 90.21 103.66 89.55 103.86 91.52" style="fill:#1a1a1a"/><polygon points="112.6 90.66 105.92 91.32 105.72 89.35 112.4 88.69 112.6 90.66" style="fill:#1a1a1a"/><polygon points="121.34 89.8 114.66 90.46 114.47 88.49 121.15 87.83 121.34 89.8" style="fill:#1a1a1a"/><polygon points="130.09 88.94 123.41 89.59 123.21 87.63 129.89 86.97 130.09 88.94" style="fill:#1a1a1a"/><polygon points="138.84 88.08 132.15 88.73 131.96 86.77 138.64 86.11 138.84 88.08" style="fill:#1a1a1a"/><polygon points="147.58 87.22 140.9 87.87 140.7 85.91 147.38 85.25 147.58 87.22" style="fill:#1a1a1a"/><polygon points="156.33 86.36 149.64 87.01 149.44 85.05 156.13 84.39 156.33 86.36" style="fill:#1a1a1a"/><polygon points="165.07 85.5 158.39 86.15 158.19 84.18 164.88 83.53 165.07 85.5" style="fill:#1a1a1a"/><polygon points="86.72 99.41 80.29 100.04 79.77 94.83 86.2 94.19 86.72 99.41" style="fill:#1a1a1a"/><polygon points="95.12 98.58 88.69 99.22 88.18 94 94.6 93.37 95.12 98.58" style="fill:#1a1a1a"/><polygon points="103.52 97.76 97.1 98.39 96.58 93.17 103 92.54 103.52 97.76" style="fill:#1a1a1a"/><polygon points="111.92 96.93 105.5 97.56 104.98 92.35 111.4 91.71 111.92 96.93" style="fill:#1a1a1a"/><polygon points="120.33 96.1 113.9 96.73 113.38 91.52 119.81 90.89 120.33 96.1" style="fill:#1a1a1a"/><polygon points="128.73 95.28 122.31 95.91 121.79 90.69 128.21 90.06 128.73 95.28" style="fill:#1a1a1a"/><polygon points="137.13 94.45 130.71 95.08 130.19 89.86 136.61 89.23 137.13 94.45" style="fill:#1a1a1a"/><polygon points="145.53 93.62 139.11 94.25 138.59 89.04 145.02 88.41 145.53 93.62" style="fill:#1a1a1a"/><polygon points="153.94 92.8 147.51 93.43 147 88.21 153.42 87.58 153.94 92.8" style="fill:#1a1a1a"/><polygon points="165.61 91.65 155.92 92.6 155.4 87.39 165.09 86.43 165.61 91.65" style="fill:#1a1a1a"/><polygon points="98.99 104.46 92.56 105.09 92.05 99.87 98.47 99.24 98.99 104.46" style="fill:#1a1a1a"/><polygon points="107.39 103.63 100.97 104.26 100.45 99.05 106.87 98.42 107.39 103.63" style="fill:#1a1a1a"/><polygon points="115.79 102.81 109.37 103.44 108.85 98.22 115.27 97.59 115.79 102.81" style="fill:#1a1a1a"/><polygon points="124.2 101.98 117.77 102.61 117.25 97.39 123.68 96.76 124.2 101.98" style="fill:#1a1a1a"/><polygon points="132.6 101.15 126.18 101.78 125.66 96.57 132.08 95.94 132.6 101.15" style="fill:#1a1a1a"/><polygon points="141 100.33 134.58 100.96 134.06 95.74 140.48 95.11 141 100.33" style="fill:#1a1a1a"/><polygon points="149.41 99.5 142.98 100.13 142.46 94.91 148.89 94.28 149.41 99.5" style="fill:#1a1a1a"/><polygon points="157.81 98.67 151.38 99.3 150.87 94.09 157.29 93.45 157.81 98.67" style="fill:#1a1a1a"/><polygon points="166.21 97.84 159.79 98.48 159.27 93.26 165.69 92.63 166.21 97.84" style="fill:#1a1a1a"/><polygon points="102.83 110.49 96.41 111.12 95.89 105.9 102.31 105.27 102.83 110.49" style="fill:#1a1a1a"/><polygon points="111.23 109.66 104.81 110.29 104.29 105.08 110.72 104.44 111.23 109.66" style="fill:#1a1a1a"/><polygon points="119.64 108.83 113.21 109.47 112.69 104.25 119.12 103.62 119.64 108.83" style="fill:#1a1a1a"/><polygon points="128.04 108.01 121.62 108.64 121.1 103.42 127.52 102.79 128.04 108.01" style="fill:#1a1a1a"/><polygon points="136.44 107.18 130.02 107.81 129.5 102.6 135.92 101.96 136.44 107.18" style="fill:#1a1a1a"/><polygon points="144.84 106.35 138.42 106.98 137.9 101.77 144.33 101.14 144.84 106.35" style="fill:#1a1a1a"/><polygon points="153.25 105.53 146.82 106.16 146.31 100.94 152.73 100.31 153.25 105.53" style="fill:#1a1a1a"/><polygon points="166.84 104.19 155.23 105.33 154.71 100.12 166.32 98.97 166.84 104.19" style="fill:#1a1a1a"/><polygon points="106.68 116.57 100.26 117.2 99.74 111.98 106.16 111.35 106.68 116.57" style="fill:#1a1a1a"/><polygon points="115.08 115.74 108.66 116.37 108.14 111.16 114.56 110.52 115.08 115.74" style="fill:#1a1a1a"/><polygon points="123.48 114.91 117.06 115.55 116.54 110.33 122.97 109.7 123.48 114.91" style="fill:#1a1a1a"/><polygon points="131.89 114.09 125.47 114.72 124.95 109.5 131.37 108.87 131.89 114.09" style="fill:#1a1a1a"/><polygon points="140.29 113.26 133.87 113.89 133.35 108.67 139.77 108.04 140.29 113.26" style="fill:#1a1a1a"/><polygon points="148.69 112.43 142.27 113.06 141.75 107.85 148.17 107.22 148.69 112.43" style="fill:#1a1a1a"/><polygon points="167.57 110.58 150.67 112.24 150.15 107.02 167.05 105.36 167.57 110.58" style="fill:#1a1a1a"/><polygon points="98.13 123.7 91.71 124.33 91.19 119.11 97.61 118.48 98.13 123.7" style="fill:#1a1a1a"/><polygon points="132.51 120.31 100.11 123.5 99.59 118.29 131.99 115.1 132.51 120.31" style="fill:#1a1a1a"/><polygon points="140.14 119.56 133.72 120.2 133.2 114.98 139.62 114.35 140.14 119.56" style="fill:#1a1a1a"/><polygon points="148.08 118.78 141.66 119.42 141.14 114.2 147.56 113.57 148.08 118.78" style="fill:#1a1a1a"/><polygon points="161.77 117.44 155.91 118.01 155.4 112.8 161.25 112.22 161.77 117.44" style="fill:#1a1a1a"/><polygon points="155.41 118.06 149.55 118.64 149.29 116.03 155.15 115.45 155.41 118.06" style="fill:#1a1a1a"/><polygon points="168.19 116.81 162.33 117.38 162.07 114.77 167.93 114.2 168.19 116.81" style="fill:#1a1a1a"/><polygon points="90.98 105.25 80.91 106.24 80.39 101.02 90.46 100.03 90.98 105.25" style="fill:#1a1a1a"/><polygon points="94.64 111.29 81.54 112.58 81.02 107.37 94.12 106.08 94.64 111.29" style="fill:#1a1a1a"/><polygon points="98.46 117.37 82.18 118.98 81.66 113.76 97.94 112.16 98.46 117.37" style="fill:#1a1a1a"/><polygon points="90 124.5 82.8 125.21 82.28 119.99 89.48 119.28 90 124.5" style="fill:#1a1a1a"/><path d="M171.74,163.87l-10.64,1s10.43,60.59,3.4,106.32h12.27C182.91,210.32,171.74,163.87,171.74,163.87Z" style="fill:#f15a24"/><path d="M173.51,156.13l-.61-10.85v-.12l-1-10.71a1.59,1.59,0,0,0-3.17.3L169,142h0l-1.71-13.31a1.74,1.74,0,0,0-1.89-1.55h-.05A1.73,1.73,0,0,0,163.7,129l.62,13.13h-.07l-1.91-15.34a1.71,1.71,0,0,0-3.4.32l1,15.17h-.15l-1.49-11.4a1.74,1.74,0,0,0-1.89-1.56h-.06a1.73,1.73,0,0,0-1.56,1.88l1.48,15.51.11,1.2,0,.44-1.78-5.11a1.76,1.76,0,0,0-2.22-1.07l0,0a1.7,1.7,0,0,0-1.09,1.11,1.77,1.77,0,0,0,0,1.09l.32,1c.81,2.53,3,9.09,3.83,10.9,1.08,2.27,2.92,5.24,5.23,4.59l-.05-.05h0v.05l.38,4,10.64-1-.39-4.05A3.33,3.33,0,0,0,173.51,156.13Z" style="fill:#ffc191"/><path d="M171.2,133.9a.9.9,0,0,0-1.25-.15.88.88,0,0,0-.16,1.24.9.9,0,0,0,1.26.16A.89.89,0,0,0,171.2,133.9Z" style="fill:#ffdec7"/><path d="M166.49,128.25a1.14,1.14,0,1,0-.2,1.59A1.12,1.12,0,0,0,166.49,128.25Z" style="fill:#ffdec7"/><path d="M161.58,126.32a1.14,1.14,0,0,0-1.6-.2,1.14,1.14,0,1,0,1.6.2Z" style="fill:#ffdec7"/><path d="M157.56,130.43a1.14,1.14,0,1,0-.2,1.59A1.13,1.13,0,0,0,157.56,130.43Z" style="fill:#ffdec7"/><path d="M153,143.53a1.23,1.23,0,0,0-1.69-.21,1.77,1.77,0,0,0,0,1.09l.32,1a1.21,1.21,0,0,0,1.35-1.88Z" style="fill:#ffdec7"/><path d="M86.08,153.52l10.64,1s-8,70.95-1,116.68h-13C76.65,210.32,86.08,153.52,86.08,153.52Z" style="fill:#f15a24"/><path d="M84.31,145.78l.61-10.85v-.13l1-10.7a1.59,1.59,0,0,1,3.17.3l-.25,7.22h0l1.71-13.3a1.73,1.73,0,0,1,1.89-1.56h0a1.73,1.73,0,0,1,1.56,1.88l-.62,13.12h.07l1.91-15.35a1.71,1.71,0,0,1,3.4.32l-1,15.18H98l1.49-11.4a1.73,1.73,0,0,1,1.89-1.55h.06a1.73,1.73,0,0,1,1.56,1.88l-1.48,15.51-.11,1.2,0,.44,1.78-5.11a1.75,1.75,0,0,1,2.22-1.06h0a1.71,1.71,0,0,1,1.07,2.2l-.32,1c-.81,2.53-3,9.09-3.83,10.91-1.08,2.27-2.92,5.24-5.23,4.58l.05,0h0v0l-.38,4-10.64-1,.39-4.06A3.31,3.31,0,0,1,84.31,145.78Z" style="fill:#ffc191"/><path d="M86.62,123.55a.89.89,0,0,1,1.25-.16.88.88,0,0,1,.15,1.25.9.9,0,0,1-1.25.15A.87.87,0,0,1,86.62,123.55Z" style="fill:#ffdec7"/><path d="M91.33,117.89a1.14,1.14,0,0,1,1.6-.19,1.12,1.12,0,0,1,.2,1.59,1.15,1.15,0,0,1-1.6.2A1.13,1.13,0,0,1,91.33,117.89Z" style="fill:#ffdec7"/><path d="M96.24,116a1.15,1.15,0,0,1,1.6-.2,1.14,1.14,0,1,1-1.4,1.79A1.12,1.12,0,0,1,96.24,116Z" style="fill:#ffdec7"/><path d="M100.26,120.07a1.15,1.15,0,0,1,1.6-.2,1.14,1.14,0,1,1-1.4,1.79A1.12,1.12,0,0,1,100.26,120.07Z" style="fill:#ffdec7"/><path d="M104.81,133.18a1.23,1.23,0,0,1,1.69-.22,1.77,1.77,0,0,1,0,1.09l-.32,1a1.2,1.2,0,0,1-1.35-1.87Z" style="fill:#ffdec7"/><path d="M222.84,196.53,213.66,194s-12,29.85-3.33,77.23h9.87C212.27,230.89,222.84,196.53,222.84,196.53Z" style="fill:#662d91"/><path d="M224.11,192.52c2.31.92,6.16-2.32,7.54-4.54,1.11-1.79,4.09-8.39,5.21-10.88l.43-1a1.79,1.79,0,0,0,.15-1,1.77,1.77,0,0,0-1-1.38l0,0a1.82,1.82,0,0,0-2.41.85l-2.42,5.08.09-.45.26-1.23,3.29-15.85a1.82,1.82,0,0,0-1.41-2.13h0a1.81,1.81,0,0,0-2.13,1.4L228.78,173l-.16,0a5,5,0,0,0-2-1.37,4.2,4.2,0,0,0-2.39.74h-.07s-.73-1.48-1.89-1.58a6,6,0,0,0-2.83.9h0a2.41,2.41,0,0,0-2.08-.53c-1.57.32-2.36,3.38-2.36,3.38a.59.59,0,0,0,0,.13l-1.86,11.14a3.45,3.45,0,0,0,1.81,4l-1.2,4.15,9.18,2.56Z" style="fill:#ffc191"/><path d="M234.41,160.92a1.26,1.26,0,0,0-1.76,0,1.22,1.22,0,0,0,0,1.74,1.24,1.24,0,1,0,1.74-1.77Z" style="fill:#ffdec7"/><path d="M237.44,175.13l-.08-.09a1.24,1.24,0,1,0-.5,2.06l.43-1A1.79,1.79,0,0,0,237.44,175.13Z" style="fill:#ffdec7"/></g></g></svg>