<svg xmlns="http://www.w3.org/2000/svg" viewBox="0 0 419.42 232.09"><g id="レイヤー_2" data-name="レイヤー 2"><g id="レイヤー_1-2" data-name="レイヤー 1"><path d="M312.22,207.05s73,9.51,72.36-4.18c-.42-8.78-14.78-3.28-15.12-9.49s36-2.53,32.84-21.27-95,25.52-95,25.52Z" style="fill:#c8edee"/><path d="M17.83,163.7S6.49,161.62,2.47,155s-3.09-13.51,2.46-10.23C15.47,151,17.83,163.7,17.83,163.7Z" style="fill:#94ebf3"/><path d="M17.83,163.7s11.46-1.23,16-7.53,4.09-13.25-1.68-10.39C21.12,151.21,17.83,163.7,17.83,163.7Z" style="fill:#94ebf3"/><path d="M18,133.85s-9.64-6.32-10.77-14,2.4-13.65,6.24-8.47C20.78,121.23,18,133.85,18,133.85Z" style="fill:#94ebf3"/><path d="M18,133.85s11,3.33,17.63-.73,8.92-10.61,2.49-10.23C25.91,123.63,18,133.85,18,133.85Z" style="fill:#94ebf3"/><path d="M26.29,115.25s-9.76-4.94-11.64-12,.82-13.13,5-8.65C27.56,103.06,26.29,115.25,26.29,115.25Z" style="fill:#94ebf3"/><path d="M26.27,115.24s9.88,3,15.78-.65,8-9.5,2.22-9.15C33.33,106.09,26.27,115.24,26.27,115.24Z" style="fill:#94ebf3"/><path d="M35,98.33S24.8,94.46,22.17,87.6s-.59-13.14,4-9.14C35,86.07,35,98.33,35,98.33Z" style="fill:#94ebf3"/><path d="M35,98.32s10.13,1.9,15.61-2.34,6.92-10.29,1.23-9.33C41.05,88.47,35,98.32,35,98.32Z" style="fill:#94ebf3"/><path d="M38.84,78.25s-8.37-.55-11.83-5-3.37-9.51.91-7.61C36.07,69.27,38.84,78.25,38.84,78.25Z" style="fill:#94ebf3"/><path d="M38.79,78.26s8.7-.91,12.08-5.64,3-10-1.35-7.81C41.21,68.88,38.79,78.26,38.79,78.26Z" style="fill:#94ebf3"/><path d="M35.92,60.31s-6-2.87-7.18-7.15.34-7.94,2.91-5.29C36.54,52.92,35.92,60.31,35.92,60.31Z" style="fill:#94ebf3"/><path d="M40,50.05s-1.25-4.37-.35-7.57c1.1-4,5.32-4,5.23.69A7.57,7.57,0,0,1,40,50.05Z" style="fill:#94ebf3"/><path d="M35.83,60.27s6,1.73,9.53-.5S50,54,46.55,54.22C39.94,54.69,35.83,60.27,35.83,60.27Z" style="fill:#94ebf3"/><path d="M32.79,210a176.06,176.06,0,0,1-12.35-32.65,112.64,112.64,0,0,1-4.16-29.56c.09-11.16,2.52-20.73,7.21-28.43,18.85-30.93,16.19-38.67,13.85-45.5-.18-.54-.37-1.09-.55-1.64-2.52-8-1.28-17.28,3-22.52l.44.36c-4.19,5.1-5.38,14.14-2.92,22,.17.54.36,1.07.55,1.63,2.38,6.94,5.08,14.81-13.91,46-10.51,17.25-7.42,40.81-3,57.54a176.28,176.28,0,0,0,12.3,32.54Z" style="fill:#94ebf3"/><path d="M376.23,187.7s-3.14-3.86-2.61-7.16,2.76-5.32,3.67-2.68C379,182.86,376.23,187.7,376.23,187.7Z" style="fill:#94ebf3"/><path d="M376.23,187.7s4.12,2.81,7.36,2,5.06-3.21,2.36-3.89C380.81,184.52,376.23,187.7,376.23,187.7Z" style="fill:#94ebf3"/><path d="M384.65,177.94s-1.4-4.79.38-7.62,4.61-3.82,4.42-1C389.1,174.56,384.65,177.94,384.65,177.94Z" style="fill:#94ebf3"/><path d="M384.65,177.94s2.7,4.18,6,4.7,5.91-1,3.68-2.67C390.11,176.78,384.65,177.94,384.65,177.94Z" style="fill:#94ebf3"/><path d="M392.58,174.13s-1.82-4.36-.45-7.22,3.95-4.09,4.06-1.45C396.42,170.48,392.58,174.13,392.58,174.13Z" style="fill:#94ebf3"/><path d="M392.58,174.13s2.42,3.74,5.38,4.2,5.28-.89,3.29-2.39C397.47,173.09,392.58,174.13,392.58,174.13Z" style="fill:#94ebf3"/><path d="M400.2,171s-2.29-4.14-1.23-7.14,3.49-4.49,3.89-1.88C403.62,167,400.2,171,400.2,171Z" style="fill:#94ebf3"/><path d="M400.19,171s2.81,3.46,5.8,3.6,5.16-1.45,3-2.72C404.94,169.46,400.19,171,400.19,171Z" style="fill:#94ebf3"/><path d="M407.07,165.48s-2.6-2.53-2.49-5,1.56-4.07,2.43-2.24A9.57,9.57,0,0,1,407.07,165.48Z" style="fill:#94ebf3"/><path d="M407.05,165.46s3.12,2.14,5.56,1.53,3.78-2.42,1.74-2.94A9.73,9.73,0,0,0,407.05,165.46Z" style="fill:#94ebf3"/><path d="M411.14,158.75s-1.16-2.61-.36-4.36,2.33-2.52,2.43-.92A7.51,7.51,0,0,1,411.14,158.75Z" style="fill:#94ebf3"/><path d="M415.34,156.51a7.3,7.3,0,0,1,2-2.59c1.48-1,2.89.16,1.53,1.69A3.27,3.27,0,0,1,415.34,156.51Z" style="fill:#94ebf3"/><path d="M411.12,158.72s1.49,2.25,3.28,2.5,3.16-.6,1.94-1.49A6.94,6.94,0,0,0,411.12,158.72Z" style="fill:#94ebf3"/><path d="M368.44,207.17l-.24,0a76.36,76.36,0,0,1,5.08-14.2c3.25-6.8,8.87-15.47,17.24-18.23,14.87-4.9,16.16-8.19,17.3-11.09.09-.24.18-.47.28-.7,1.42-3.34,4.42-6,7.3-6.56l0,.24c-2.8.51-5.73,3.14-7.11,6.42-.1.23-.19.46-.28.69-1.16,2.95-2.48,6.3-17.45,11.23C374.72,180.15,368.5,206.9,368.44,207.17Z" style="fill:#00cef1"/><path d="M392.93,106.58c-49.77,114.73-104.42,111.2-133.7,97.8a37.65,37.65,0,0,1-21.49-39.88C242.66,132.67,269.76,85.07,392.93,106.58Z" style="fill:#fff"/><path d="M288.13,211.21c-1.84,0-3.69-.08-5.54-.24a71.21,71.21,0,0,1-23.47-6.34,38,38,0,0,1-21.64-40.17,71.4,71.4,0,0,1,7.61-23.1,65.22,65.22,0,0,1,19.58-22.06C291,100.41,334.15,96,393,106.31l.34.06-.14.31c-23.77,54.8-51.15,88.46-81.4,100.06A65.63,65.63,0,0,1,288.13,211.21Zm48.69-109.77c-30.81,0-54.86,6.11-71.84,18.3-18.64,13.37-25,31.75-27,44.81a37.44,37.44,0,0,0,21.33,39.59c12,5.5,30.83,10.32,52.24,2.11,30.05-11.53,57.29-45,81-99.47Q361.79,101.44,336.82,101.44Z" style="fill:#00cef1"/><path d="M392.93,106.58,246.66,185.43Z" style="fill:#fff"/><rect x="236.71" y="145.73" width="166.16" height="0.53" transform="translate(-30.98 169.28) rotate(-28.34)" style="fill:#00cef1"/><path d="M287.07,108.31l-22.49,67.46Z" style="fill:#fff"/><rect x="240.27" y="141.77" width="71.11" height="0.53" transform="translate(53.79 358.74) rotate(-71.55)" style="fill:#00cef1"/><path d="M269.79,173l66.5,18.67Z" style="fill:#fff"/><rect x="302.77" y="147.76" width="0.53" height="69.07" transform="translate(45.6 424.76) rotate(-74.31)" style="fill:#00cef1"/><path d="M321.17,101.75,305.3,153.82Z" style="fill:#fff"/><rect x="286.02" y="127.52" width="54.43" height="0.53" transform="translate(99.51 390.02) rotate(-73.01)" style="fill:#00cef1"/><path d="M314.09,149.07l43.45,20.05Z" style="fill:#fff"/><rect x="335.55" y="135.17" width="0.53" height="47.85" transform="translate(50.65 397.35) rotate(-65.23)" style="fill:#00cef1"/><path d="M343.41,133.27l14.7-31.21Z" style="fill:#fff"/><rect x="333.51" y="117.4" width="34.5" height="0.53" transform="translate(94.74 384.74) rotate(-64.76)" style="fill:#00cef1"/><path d="M347,131.34l29.88,8Z" style="fill:#fff"/><rect x="361.67" y="119.88" width="0.53" height="30.95" transform="translate(137.31 449.78) rotate(-74.96)" style="fill:#00cef1"/><path d="M134.09,30.69a11.45,11.45,0,0,0,10.2-14C142.56,9.18,139,.92,131.9,1c-13.08.13-9.44,12.13-9.44,12.13S109.78-2.14,100.52,4.47s-7,12.08-7,12.08S69.23,7.17,68,18.88C66.94,28.73,109.2,32.8,134.09,30.69Z" style="fill:#fff"/><path d="M245.33,208.12S120,224.45,121.11,200.94c.74-15.06,25.38-5.62,26-16.28s-61.77-4.34-56.37-36.5,163,43.79,163,43.79Z" style="fill:#c8edee"/><path d="M373.3,0c-8.5,0-17.1,4.84-10.47,11.47s.79,9.88-4.95,9.88-12.65,10.48,1.78,10.48,41.91-1.18,41.91-6.92-18.68-3.85-14-8.5S389.9,0,373.3,0Z" style="fill:#fff"/><path d="M209.58,73.34c95.52,45.74,90.82,91.91,78.56,116.28a31.87,31.87,0,0,1-34.42,16.94C226.94,201.4,187.51,177,209.58,73.34Z" style="fill:#fff"/><path d="M259.68,207.38a32.16,32.16,0,0,1-6-.57,60.47,60.47,0,0,1-19.32-7.18,55.22,55.22,0,0,1-18.06-17.27c-15.16-22.88-17.51-59.58-7-109.07l.07-.31.29.14c45.62,21.84,73.25,46.09,82.12,72.07a55.1,55.1,0,0,1,2.66,24.86,60.37,60.37,0,0,1-6.1,19.68A32.21,32.21,0,0,1,259.68,207.38ZM209.76,73.71c-10.44,49.19-8.1,85.65,7,108.37,10.73,16.2,26.07,22.12,37.05,24.23a30.52,30.52,0,0,0,5.92.57,31.68,31.68,0,0,0,28.23-17.37c5-10,9.7-25.77,3.42-44.15C282.53,119.56,255.09,95.46,209.76,73.71Z" style="fill:#00cef1"/><path d="M209.58,73.34l62.13,126.33Z" style="fill:#fff"/><rect x="240.39" y="66.12" width="0.5" height="140.78" transform="translate(-35.54 120.22) rotate(-26.19)" style="fill:#00cef1"/><path d="M207.73,163l56.37,21.16Z" style="fill:#fff"/><rect x="235.66" y="143.5" width="0.5" height="60.21" transform="translate(-9.54 333.45) rotate(-69.42)" style="fill:#00cef1"/><path d="M261.88,179.69,279.77,124Z" style="fill:#fff"/><rect x="241.57" y="151.58" width="58.52" height="0.5" transform="translate(43.46 363.26) rotate(-72.2)" style="fill:#00cef1"/><path d="M203.24,134,246.8,149Z" style="fill:#fff"/><rect x="224.77" y="118.44" width="0.5" height="46.09" transform="translate(17.72 307.86) rotate(-70.91)" style="fill:#00cef1"/><path d="M243.06,141.43l18.33-36.16Z" style="fill:#fff"/><rect x="231.96" y="123.1" width="40.54" height="0.5" transform="translate(28.15 292.53) rotate(-63.11)" style="fill:#00cef1"/><path d="M230.61,116.11l-26-13.43Z" style="fill:#fff"/><rect x="217.39" y="94.79" width="0.5" height="29.22" transform="translate(20.48 252.44) rotate(-62.65)" style="fill:#00cef1"/><path d="M229.09,113,236.82,88Z" style="fill:#fff"/><rect x="219.84" y="100.23" width="26.22" height="0.5" transform="translate(68.21 293.42) rotate(-72.84)" style="fill:#00cef1"/><path d="M207.36,182.74s-9.93,6.33-17.55,4.17-11.72-8-5.28-9.37C196.76,174.87,207.36,182.74,207.36,182.74Z" style="fill:#94ebf3"/><path d="M207.36,182.74s7.73-8.9,6.71-16.76-6.15-12.77-8.49-6.6C201.14,171.09,207.36,182.74,207.36,182.74Z" style="fill:#94ebf3"/><path d="M186.73,160.26s-11.61,2-17.79-3-7.7-11.9-1.23-10.69C180,148.88,186.73,160.26,186.73,160.26Z" style="fill:#94ebf3"/><path d="M186.73,160.26s10.58-5.2,12.7-12.83-.71-14.16-5.26-9.39C185.53,147.1,186.73,160.26,186.73,160.26Z" style="fill:#94ebf3"/><path d="M180,140.57s-10.74,3.09-17.09-.92-8.53-10.4-2.29-10C172.45,130.56,180,140.57,180,140.57Z" style="fill:#94ebf3"/><path d="M180,140.57s9.46-4.65,11.35-11.48-.63-12.66-4.7-8.39C178.89,128.81,180,140.57,180,140.57Z" style="fill:#94ebf3"/><path d="M174.76,121.81s-10.36,4.23-17.1.92-9.59-9.42-3.34-9.64C166.19,112.67,174.76,121.81,174.76,121.81Z" style="fill:#94ebf3"/><path d="M174.74,121.82s8.91-5.64,10.06-12.63-2-12.52-5.58-7.84C172.4,110.24,174.74,121.82,174.74,121.82Z" style="fill:#94ebf3"/><path d="M163.64,104.13s-6.66,5.41-12.35,4.49-9.14-4.77-4.6-6.33C155.31,99.33,163.64,104.13,163.64,104.13Z" style="fill:#94ebf3"/><path d="M163.6,104.17s5.88-6.74,5.12-12.64-4.66-9.55-6.45-4.9C158.88,95.46,163.6,104.17,163.6,104.17Z" style="fill:#94ebf3"/><path d="M149,92.73s-6.46,2-10.35-.35-5.27-6.19-1.5-6C144.29,86.77,149,92.73,149,92.73Z" style="fill:#94ebf3"/><path d="M144.85,82.23s-4-2.4-5.53-5.42c-1.94-3.74,1.16-6.74,4.39-3.13A7.73,7.73,0,0,1,144.85,82.23Z" style="fill:#94ebf3"/><path d="M148.87,92.77s5.71-2.9,6.78-7-.54-7.6-3-5C148.07,85.72,148.87,92.77,148.87,92.77Z" style="fill:#94ebf3"/><path d="M250.59,206.9a181.42,181.42,0,0,1-31.8-15.8,114.89,114.89,0,0,1-23.69-19.23c-7.7-8.42-12.53-17.27-14.38-26.3-7.42-36.29-14.79-40.23-21.29-43.71l-1.56-.85c-7.47-4.26-13-12.05-13.4-19l.58,0c.41,6.73,5.8,14.33,13.11,18.49.51.29,1,.56,1.54.84,6.62,3.55,14.12,7.56,21.59,44.11,4.13,20.23,22.84,35.72,37.8,45.16A180.23,180.23,0,0,0,251,206.41l-.19.55Z" style="fill:#00cef1"/><path d="M65.23,205.47c42-1.17,288,0,303.73,0s35.14,3.27,35.14,9.88S377,225,357.16,225c-145,0-58.13,7.1-146.3,7.1-168.58,0-62.47-7.6-146-7.6-31.05,0-58.82-2.56-58.82-9.14S50.1,205.89,65.23,205.47Z" style="fill:#94ebf3"/><ellipse cx="199.86" cy="210.11" rx="119.18" ry="5.64" style="fill:#00cef1"/><path d="M302.91,172.23v-16.8A28.54,28.54,0,0,1,317.05,131,68.82,68.82,0,0,0,282.29,2.78l-1.67,0a68.81,68.81,0,0,0-33,128.2,28.45,28.45,0,0,1,14.06,24.43v16.8Z" style="fill:#ffd200"/><path d="M225.19,86.13l.19,0a.68.68,0,0,0,.46-.84,67.51,67.51,0,0,1-2.63-18,.68.68,0,1,0-1.35,0,69.07,69.07,0,0,0,2.69,18.39A.66.66,0,0,0,225.19,86.13Z" style="fill:#ffa900"/><path d="M270.69,151.06a.68.68,0,0,0,.67-.68,29.79,29.79,0,0,0-14.73-25.59A67.9,67.9,0,0,1,228.19,92a.68.68,0,0,0-1.25.51A69.29,69.29,0,0,0,256,126,28.46,28.46,0,0,1,270,150.38.68.68,0,0,0,270.69,151.06Z" style="fill:#ffa900"/><path d="M295.4,19.21a.68.68,0,0,0,.65-.52.67.67,0,0,0-.49-.81,55.12,55.12,0,0,0-12.79-1.61.67.67,0,1,0,0,1.34,54,54,0,0,1,12.48,1.58Z" style="fill:#fff"/><path d="M336.81,68.82h0a.67.67,0,0,0,.63-.71,55.42,55.42,0,0,0-34-47.62.68.68,0,0,0-.88.36.67.67,0,0,0,.37.88,54.37,54.37,0,0,1,33.17,46.46A.66.66,0,0,0,336.81,68.82Z" style="fill:#fff"/><path d="M268.85,194.81a9,9,0,0,0,.33,2.12c.7,2.68,3,6.93,10.15,6.75,8.41-.22,13.71-2.86,15.6-6.12a5.55,5.55,0,0,0,.79-2.49c0-.7-.64-1.18-1.82-1.49-3-.79-9.17-.5-14.64,0S268.85,194.81,268.85,194.81Z" style="fill:#004d9a"/><path d="M258.7,183.79a2.14,2.14,0,0,1,.42,1.34,3.57,3.57,0,0,1-.72,2.07c-1,1.53-2.59,2.83-1,6.38a1,1,0,0,0,.07.15c.77,1.62,5.46,2.62,11.67,3.2a241.2,241.2,0,0,0,25.75.63c5.44-.13,9.65-.37,10.94-.6,2.44-.44,3.43-1.8,3.73-3.38a11.26,11.26,0,0,0-.24-4.15c-.49-2.44-3.62-2.44-4.2-5a3.9,3.9,0,0,1-.1-.89,2.89,2.89,0,0,1,1-2.28c1.2-1.12,3-1.85,3-6,0-5.4-3.08-4.65-3.67-6.88a3.31,3.31,0,0,1-.09-1.18,3.78,3.78,0,0,1,.67-2c1.09-1.52,3.09-1.69,3.09-5,0-1.24-2.64-2.39-6.86-3.31a89.17,89.17,0,0,0-9.65-1.41l-2.41-.2c-3.73-.29-7.77-.44-11.85-.41-.82,0-1.63,0-2.45,0a114.64,114.64,0,0,0-13.53,1c-1.58.22-3.11.48-4.57.78-5.47,1.13-1.89,8.81.05,12.26.08.12.15.26.22.38,1,1.75.65,2-.09,2.87a9.4,9.4,0,0,0-2,4.92C255,182.26,257.65,182.4,258.7,183.79Z" style="fill:#0096ca"/><path d="M305.42,168.31A269.8,269.8,0,0,0,258,172.16c.74-.89,1.12-1.13.09-2.88l-.22-.38A277.57,277.57,0,0,1,306,165.09a3.78,3.78,0,0,0-.67,2A3.6,3.6,0,0,0,305.42,168.31Z" style="fill:#004d9a"/><path d="M305.06,183.52a3.38,3.38,0,0,0,.1.88c-24.45-2.22-42.69,1.79-46.76,2.8a3.54,3.54,0,0,0,.72-2.07,2.09,2.09,0,0,0-.42-1.33c5.86-1.37,23.66-4.82,47.35-2.57A2.86,2.86,0,0,0,305.06,183.52Z" style="fill:#004d9a"/><path d="M261.72,61.51a16.66,16.66,0,1,1,22.42,15.64c-.26,6.59-.32,19.19.46,32.78a3.17,3.17,0,0,1-3.12,3.35l-6.19.06a3.17,3.17,0,0,1-3.19-3,322.5,322.5,0,0,1-.58-33.69A16.67,16.67,0,0,1,261.72,61.51Z" style="fill:#ff7100"/><path d="M398.25,206.37l-6.69.06v-.16a.75.75,0,0,1,.56-.66c1.34-.55,1.58-1.31,2.27-2.94,0-.08.09-.15.13-.23a1.58,1.58,0,0,1,2.86.66A20.83,20.83,0,0,1,398.25,206.37Z" style="fill:#003960"/><path d="M397.4,203.34v0a1.58,1.58,0,0,1-3.16,0,1.64,1.64,0,0,1,.15-.67l.13-.23a1.58,1.58,0,0,1,2.86.66A.93.93,0,0,1,397.4,203.34Z" style="fill:#003960"/><path d="M395.38,175.07a3,3,0,1,1-3.48-2.34A3,3,0,0,1,395.38,175.07Z" style="fill:#004077"/><path d="M394,203.14a8.41,8.41,0,0,0,3.53.64c-.52-12.76,3.17-23.51-1.55-29.22l-6.37,1.65C390.55,182.72,391.85,193.46,394,203.14Z" style="fill:#004077"/><path d="M395.35,174.93a3,3,0,1,1-3.58-2.17A3,3,0,0,1,395.35,174.93Z" style="fill:#004077"/><path d="M383.69,146.35l0,.3s0,.06,0,.09l.06.37c0,.17.07.33.11.49a7.82,7.82,0,1,0-.21-1.25Z" style="fill:#004077"/><path d="M383.72,146.65a.28.28,0,0,0,0,.09l.06.37c0,.15,0,.32.08.47,1.63,9.88,3.22,17.79,5.69,28.63h0l5.16,1.35,1.32.34c2.53-7.31,4.11-21.61,3.69-29.35a19.47,19.47,0,0,0-.43-3.5l-15.59,1.6Z" style="fill:#004077"/><circle cx="396.94" cy="109.92" r="3.4" transform="translate(-1.81 6.74) rotate(-0.97)" style="fill:#004077"/><path d="M414.8,122.53a2.84,2.84,0,1,1-4,.21A2.83,2.83,0,0,1,414.8,122.53Z" style="fill:#004077"/><path d="M398.9,107.08c-1.65-.81-3.23-.83-4.49.57a3.55,3.55,0,0,0,.1,5c7.6,9,11.7,8.79,16.52,14.34.89,1,2.78.91,4.18-.65a2.88,2.88,0,0,0-.07-3.63C406.78,111.11,400.49,107.85,398.9,107.08Z" style="fill:#004077"/><path d="M397.25,140.25l-.09.08-1.05-1.25c-.08.07-.14.15-.21.22a.66.66,0,0,1,.14-.2l0,0a.83.83,0,0,1,1.08,0,.1.1,0,0,1,.05,0,.86.86,0,0,1,.13.14s0,0,0,0v0s0,0,0,0A.84.84,0,0,1,397.25,140.25Z" style="fill:#004077"/><path d="M415.26,126.23a2.85,2.85,0,1,1-.77-4A2.85,2.85,0,0,1,415.26,126.23Z" style="fill:#004077"/><path d="M415.68,125.21s0,0,0,.06a3.23,3.23,0,0,1-.71,1.32.6.6,0,0,1-.14.15A164.84,164.84,0,0,1,397.3,140.5l-.12-.14,0,0-1.05-1.25,0,0-.14-.17c5.58-6.55,10.36-12.88,15-16.57a2.59,2.59,0,0,1,3.87.21l.06,0,0,0c.05.05.1.09.15.15s0,0,0,0a.76.76,0,0,1,.08.11s.05,0,.05.06A2.69,2.69,0,0,1,415.68,125.21Z" style="fill:#004077"/><path d="M374.83,206.43h-9.47v-.18a.75.75,0,0,1,.63-.75,6.92,6.92,0,0,0,5.28-3.31,2.15,2.15,0,0,0,.14-.26,1.79,1.79,0,0,1,3.24.74c0,.1,0,.2,0,.3C374.76,204.15,374.85,205.67,374.83,206.43Z" style="fill:#003960"/><path d="M374.67,202.93v0a1.79,1.79,0,0,1-3.57,0,1.72,1.72,0,0,1,.17-.75,2.15,2.15,0,0,0,.14-.26,1.79,1.79,0,0,1,3.24.74A2.45,2.45,0,0,1,374.67,202.93Z" style="fill:#003960"/><path d="M378.69,175.93a3,3,0,1,1-2.86-3.06A3,3,0,0,1,378.69,175.93Z" style="fill:#004d9a"/><path d="M371.45,202.32a14.91,14.91,0,0,0,3.43,1.08c2.36-12.55,7.78-21.22,4.47-27.84l-6.58.17C372.27,182.3,371.58,192.41,371.45,202.32Z" style="fill:#004d9a"/><path d="M383.26,155.2a7.84,7.84,0,0,0,9.55-4.9l.15-.47a7.84,7.84,0,0,0-15-4.65c0,.11-.07.21-.1.32s-.06.2-.08.3-.08.41-.13.62A7.84,7.84,0,0,0,383.26,155.2Z" style="fill:#004d9a"/><path d="M372.81,175.5l5.46,3.89c5.71-6.84,13.52-22.8,14.62-29.08,0-.17.05-.33.07-.48l-12.15-3.23-3-.8c0,.2-.08.41-.13.62C375.68,156.37,374.35,164.39,372.81,175.5Z" style="fill:#004d9a"/><path d="M387.66,86.48c-.71,3-2,10.62,1.62,11.85,2.45.84,7-3,7.63-5.45s3-6-2.79-8.1C389.47,83.07,388.06,84.81,387.66,86.48Z" style="fill:#ffb099"/><path d="M395.21,101.36c-.66-1.16-.75-3.29-.71-4.87a1.77,1.77,0,0,0-1.7-1.87h0a1.77,1.77,0,0,0-1.71,1.87,11,11,0,0,1-.7,4.87C390.43,102.78,395.17,102.78,395.21,101.36Z" style="fill:#ffa085"/><path d="M399.21,86.5a6.18,6.18,0,0,0-1.16-2.87c-1.32-1.52-6.43-1.53-8.08-1.36-1.23.12-1.26-.57-1.87-.16a2.51,2.51,0,0,0-.79,1.32c-.06,1,.47,1.88,1.15,1.8a3.8,3.8,0,0,1,1.85.23c1.5.6,1.69,2.24,1,3.84s-.94,1.9-.87,3.06l.35-.07a2.52,2.52,0,0,1,.87-1.62c.49-.33,1.19.28.83,1.56s-.77,1-1.14,1.88c-.51,1.22,1.5,2.87,4.48,2.49-.12-2.21,2-3.73,2.64-5.76A11.35,11.35,0,0,0,399.21,86.5Z" style="fill:#004077"/><path d="M384.19,108.7a3.17,3.17,0,1,0,.05-.48A3.91,3.91,0,0,0,384.19,108.7Z" style="fill:#004077"/><path d="M393.63,109a3.22,3.22,0,1,0,3.33-3.11A3.22,3.22,0,0,0,393.63,109Z" style="fill:#004077"/><path d="M390.63,108.92a3.22,3.22,0,0,0-5-2.79,13.32,13.32,0,0,0-1.39,2.09,3.91,3.91,0,0,0-.05.48,3.22,3.22,0,1,0,6.44.22Z" style="fill:#004077"/><path d="M378,145.18c.83.47,1.79.95,2.82,1.42a46.94,46.94,0,0,0,12,3.7h.08c0-.17.05-.33.07-.48a7.84,7.84,0,0,0-15-4.65Z" style="fill:#004077"/><path d="M393.63,109a3.22,3.22,0,1,0,3.33-3.11A3.22,3.22,0,0,0,393.63,109Z" style="fill:#004077"/><path d="M389.89,107a3.22,3.22,0,1,1-3.11-3.33A3.22,3.22,0,0,1,389.89,107Z" style="fill:#004d9a"/><path d="M401,147.5a25.13,25.13,0,0,1-5.14.89c-.75-2.72-1.4-7.1-1.4-7.1-.53,4.91-.7,6.12-.73,7.17-4.31,0-12.53-2.93-16.84-5.47a129.55,129.55,0,0,1,5.36-33.51c1.47-5.07,5-9,9.89-8.63s8.48,5,8.24,10.22A258.77,258.77,0,0,0,401,147.5Z" style="fill:#004d9a"/><path d="M399.33,107.28a3.23,3.23,0,1,1-3.11-3.33A3.22,3.22,0,0,1,399.33,107.28Z" style="fill:#004d9a"/><path d="M390.55,108.36a3.4,3.4,0,1,1-1.29-4.63A3.39,3.39,0,0,1,390.55,108.36Z" style="fill:#004077"/><path d="M379.18,126.87A2.85,2.85,0,1,1,378.1,123,2.85,2.85,0,0,1,379.18,126.87Z" style="fill:#004077"/><path d="M390.79,108c.43-1.78.11-3.33-1.53-4.25a3.56,3.56,0,0,0-4.84,1.17c-7.09,9.38-5.78,13-10.15,18.91a3.08,3.08,0,0,0,1.3,4.29,3,3,0,0,0,3.6-.8C388.65,116.61,390.38,109.7,390.79,108Z" style="fill:#004077"/><path d="M373.08,102.34c-.55.24-1.18-.43-1.21-1.44s-1.37-.21-1.7-.7,2.2-1.74,2.62-1S373.93,102,373.08,102.34Z" style="fill:#ffa085"/><path d="M356.74,94.77l3.89.59h0l.86-5.67-3.89-.59a2.38,2.38,0,0,0-2.71,2l-.15,1A2.38,2.38,0,0,0,356.74,94.77Z" style="fill:#ffd200"/><rect x="367.99" y="99.92" width="5.82" height="2.13" transform="translate(120.9 392.98) rotate(-64.66)" style="fill:#ff401b"/><rect x="371.44" y="96" width="1.97" height="3.53" transform="translate(124.66 392.5) rotate(-64.66)" style="fill:#ff5e2b"/><path d="M359.37,83.6l1.24,1.52a17.09,17.09,0,0,0,10.72,6.11h0l-.85,5.64h0a17.11,17.11,0,0,0-12.05,2.67l-1.64,1.08A15.92,15.92,0,0,1,359.37,83.6Z" style="fill:#ff5e2b"/><path d="M369.82,97.18l3.62.55a2.66,2.66,0,0,0,3-2.23l.18-1.19a2.65,2.65,0,0,0-2.23-3l-3.62-.55Z" style="fill:#ffd200"/><path d="M372.36,104.72c-.57,0,.09-1.11-.59-1.44-.27-.13-3.13-.23-3.6-.58-.85-.64,0-.64-.08-1.55s.51-.8.49-1.36.06-.89.69-1.08.22-.56.67-1,1,.09,1.47.61a10.06,10.06,0,0,1,1.26,1.34c1.33,2.09,1.23,3.39,1,4C373.17,104.84,372.8,104.71,372.36,104.72Z" style="fill:#ffb099"/><path d="M374.09,126.58a2.84,2.84,0,1,1,3.74,1.49A2.84,2.84,0,0,1,374.09,126.58Z" style="fill:#004077"/><path d="M371.8,103.75a159.48,159.48,0,0,0,2.14,22.39,2.82,2.82,0,0,0,3.44,2.08c1.52-.38,2.56-1.14,2.35-3.17-.61-5.88-3.35-13.32-5.84-21.56Z" style="fill:#004077"/><path d="M396,102.28l-.54-2.64s-3.37-1.82-6.83,1.76C388.58,101.4,392.75,103.55,396,102.28Z" style="fill:#004077"/><path d="M125.86,129.55a3.1,3.1,0,1,0-.5-4.35A3.09,3.09,0,0,0,125.86,129.55Z" style="fill:#0096ca"/><path d="M141.8,141.28a2.59,2.59,0,1,0-.42-3.64A2.59,2.59,0,0,0,141.8,141.28Z" style="fill:#0096ca"/><path d="M125.53,129.32c-1-1.36-1.23-2.78-.17-4.12a3.25,3.25,0,0,1,4.49-.67c9.2,5.48,9.66,9.19,15.37,12.69,1.06.65,1.24,2.36.05,3.86a2.62,2.62,0,0,1-3.27.48C130.34,135.79,126.46,130.63,125.53,129.32Z" style="fill:#0096ca"/><path d="M142.15,141.51a2.59,2.59,0,1,0-1-3.52A2.58,2.58,0,0,0,142.15,141.51Z" style="fill:#0096ca"/><path d="M141.38,140.86l0,0a2.91,2.91,0,0,0,1.12.79l.17.06A135.09,135.09,0,0,0,162.6,146l.45-2.17c-7.23-3-13.72-6.19-19-7.29a2.37,2.37,0,0,0-3.06,1.77l0,.06v0a1.21,1.21,0,0,0-.05.18,0,0,0,0,0,0,0,.53.53,0,0,0,0,.12.31.31,0,0,0,0,.08A2.44,2.44,0,0,0,141.38,140.86Z" style="fill:#0096ca"/><path d="M138.23,218.34h7.63v-.14a.6.6,0,0,0-.51-.61,5.55,5.55,0,0,1-4.25-2.67l-.12-.21a1.46,1.46,0,0,0-1.19-.62,1.43,1.43,0,0,0-1.42,1.22,1.94,1.94,0,0,1,0,.24C138.28,216.5,138.21,217.73,138.23,218.34Z" style="fill:#003960"/><path d="M138.35,215.52v0a1.44,1.44,0,0,0,2.88,0,1.55,1.55,0,0,0-.13-.61l-.12-.21a1.46,1.46,0,0,0-1.19-.62,1.43,1.43,0,0,0-1.42,1.22A1.64,1.64,0,0,0,138.35,215.52Z" style="fill:#003960"/><path d="M141.12,214.23a13.8,13.8,0,0,1-3.09,1.09c-2.55-11.35-7.77-19.07-5-25.2l6-.29C139.71,195.79,140.68,205.21,141.12,214.23Z" style="fill:#ff401b"/><circle cx="128.95" cy="163.99" r="7.14" transform="translate(-35.26 292.66) rotate(-89.9)" style="fill:#ff401b"/><path d="M136,162.67c1.39,9.41,2.21,16.87,3.09,27.26l-5.17,3.27c-5-6.68-11.51-22.2-11.9-27.61Z" style="fill:#ff401b"/><path d="M107.78,218.46h5.45v-.14a.68.68,0,0,0-.51-.61c-1.21-.5-1.43-1.19-2.06-2.67a1.44,1.44,0,0,0-2.73.38,1.94,1.94,0,0,1,0,.24C107.84,216.62,107.77,217.85,107.78,218.46Z" style="fill:#003960"/><path d="M107.91,215.64v0a1.46,1.46,0,0,0,1.44,1.42,1.44,1.44,0,0,0,1.44-1.44,1.47,1.47,0,0,0-.13-.6l-.12-.21a1.44,1.44,0,0,0-2.61.59A1.5,1.5,0,0,0,107.91,215.64Z" style="fill:#003960"/><path d="M114.51,189.92a2.7,2.7,0,1,0,3.5-1.53A2.7,2.7,0,0,0,114.51,189.92Z" style="fill:#ff5e2b"/><path d="M111.05,214.61a7.81,7.81,0,0,1-3.27,0c2.55-11.35,1.15-20.88,6.32-25.23l5.44,2.53C117.59,197.57,114.51,206.27,111.05,214.61Z" style="fill:#ff5e2b"/><path d="M114.56,189.8a2.7,2.7,0,1,0,3.57-1.36A2.7,2.7,0,0,0,114.56,189.8Z" style="fill:#ff5e2b"/><circle cx="122.78" cy="164.23" r="7.14" transform="translate(-42.43 285.7) rotate(-89.54)" style="fill:#ff5e2b"/><path d="M129.6,166.36c-3.19,9-6,15.93-10.06,25.53l-6.09.46c-1.27-8.24.25-25,2.44-30Z" style="fill:#ff5e2b"/><path d="M121.46,122.19h0c-4.1,1.44-5.47,5.63-5.57,10.09-.26,11.65.08,19.94-1,31.2,5,5,14.94,5.34,21.56,2.94.35-12.91-.46-23.94-4.53-37.85C130.34,123.33,125.52,120.75,121.46,122.19Z" style="fill:#0072bf"/><path d="M121.06,122.86a9.75,9.75,0,0,0,.32-4.33,1.57,1.57,0,0,1,1.39-1.75h0a1.55,1.55,0,0,1,1.61,1.54,9.56,9.56,0,0,0,.92,4.24C125.35,123.81,121.18,124.1,121.06,122.86Z" style="fill:#ffa085"/><path d="M127.48,107.7a5.79,5.79,0,0,1,.58,3.65l-2.37-3.52Z" style="fill:#003960"/><path d="M128.17,110.12c.35,2.74.74,9.49-2.51,10.24-2.22.52-5.84-3.31-6.18-5.48s-2.07-5.51,3.19-6.84C126.89,107,128,108.62,128.17,110.12Z" style="fill:#ffb099"/><path d="M119.4,105.46a14.09,14.09,0,0,1,6.34-2.34,8,8,0,0,0-1.79,1.21,10.6,10.6,0,0,1,6.87.85,13.49,13.49,0,0,1-2.61,1.45,3.62,3.62,0,0,0,2,.09,9.85,9.85,0,0,1-4.22,1.92c-2.38.39-5.09.52-5,2.53a4.42,4.42,0,0,0,.94,2c.71,1.19-.1,1.66-.1,1.66a2,2,0,0,0-1-1.51c-.63-.33-1.65.13-1.34,1.29s1.33,1.44,1.88,2.55-1.1,1.86-1.1,1.86a2.25,2.25,0,0,0-.17-1.82,40.93,40.93,0,0,0-2-3.7C116.93,111.57,116.2,107.6,119.4,105.46Z" style="fill:#003960"/><path d="M89.11,192a2.64,2.64,0,1,0,2.57-2.71A2.63,2.63,0,0,0,89.11,192Z" style="fill:#ffb099"/><path d="M89.4,192l5-.09c.37,5.34.43,13.06.47,21.08h0a4.51,4.51,0,0,0,2.09,3.3,6.62,6.62,0,0,0,1.37.64c-.15,1.37-5.58.9-5.89-2.08a1.7,1.7,0,0,0,.21-.92C91.73,207.59,86.29,198.1,89.4,192Z" style="fill:#ffb099"/><path d="M92.28,218.46H101v-.14a.72.72,0,0,0-.6-.72,8.49,8.49,0,0,1-2.11-.68c-.13.18-.46.33-1.24.2-1.48-.25-4.24-1.15-4.44-2.81-.06.12-.14.25-.23.41C91.57,216.09,92.13,217.36,92.28,218.46Z" style="fill:#003960"/><circle cx="87.24" cy="165.69" r="6.98" transform="translate(-79.04 251.8) rotate(-89.61)" style="fill:#ffb099"/><path d="M94.19,165.13c.38,9.29.42,16.62.2,26.81L89,193.49c-3.42-10.39-6.91-21.84-6.73-27.13Z" style="fill:#ffb099"/><path d="M78.75,191.51A2.64,2.64,0,1,0,82,189.64,2.64,2.64,0,0,0,78.75,191.51Z" style="fill:#ffb099"/><path d="M79.05,191.55l4.8,1.33c-1.16,5.22-3.3,12.64-5.53,20.34h0A4.53,4.53,0,0,0,79.38,217a7.28,7.28,0,0,0,1.13,1c-.53,1.27-5.61-.72-5.05-3.67a1.73,1.73,0,0,0,.46-.82C76.86,207.16,74.34,196.53,79.05,191.55Z" style="fill:#ffb099"/><path d="M75.18,218.46h6.9v-.14a.7.7,0,0,0-.48-.72,6.72,6.72,0,0,1-1.86-.71,2.44,2.44,0,0,1-1.58.26c-1-.13-3-1.21-2.7-2.84,0,.12-.11.25-.19.41C74.62,216.09,75.06,217.36,75.18,218.46Z" style="fill:#003960"/><circle cx="83.47" cy="164.95" r="6.31" transform="translate(-0.52 0.26) rotate(-0.18)" style="fill:#ffb099"/><path d="M89.67,166.57c-1.7,9.15-3.3,16.3-5.79,26.18l-5.58.32c-1-10.89-1.87-22.83-.52-27.95Z" style="fill:#ffb099"/><path d="M80.22,129.61A1.78,1.78,0,1,0,78.29,128,1.77,1.77,0,0,0,80.22,129.61Z" style="fill:#ffa085"/><path d="M98.73,127.93a1.5,1.5,0,1,0-1.62-1.35A1.5,1.5,0,0,0,98.73,127.93Z" style="fill:#ffa085"/><path d="M80.59,129.85c-1.47-.16-2.5-.68-2.59-1.78-.12-1.3,1.08-2.09,2.59-2.37,9.44-1.79,11.36,0,17.28-1a1.86,1.86,0,0,1,2.21,1.75c.08.8-.67,1.4-1.74,1.7C85.35,131.72,82,130,80.59,129.85Z" style="fill:#ffa085"/><path d="M100.5,109.61A.57.57,0,0,0,100,109a.58.58,0,0,0-.65.48.56.56,0,0,0,.48.65A.56.56,0,0,0,100.5,109.61Z" style="fill:#ffa085"/><path d="M100,126.83a1.5,1.5,0,1,0-1.8,1.11A1.5,1.5,0,0,0,100,126.83Z" style="fill:#ffa085"/><path d="M100.49,109.05a112.23,112.23,0,0,1-.38,17.38A1.6,1.6,0,0,1,98.28,128a2.12,2.12,0,0,1-1.68-2c-.66-4.27,1.26-10.76,2.5-17.33Z" style="fill:#ffa085"/><path d="M91,155.72c-5.23-11.35-3-18.91-3-18.91,3-2.12,1.35-6.23,1.35-6.23-3.9-1.2-6.77-4.83-8.93-5.65-1.27-.49-3.12-1.13-4.48.46a8.63,8.63,0,0,0-1.71,3.18,1.82,1.82,0,0,0-.86,1.3,1.8,1.8,0,0,0,.41,1.39c-.25,4.49,1.6,9.4,2.71,12a18.66,18.66,0,0,1,.08,13.53c-3.85,5.16-1.08,12.12-.56,13.91,1.3,4.57-.27,10.87-.27,10.87,11,5.79,23.13-1.29,23.13-1.29C94.24,162.08,92.43,158.81,91,155.72Z" style="fill:#0096ca"/><path d="M76.32,132.67a1.8,1.8,0,1,1-.58-2.49A1.79,1.79,0,0,1,76.32,132.67Z" style="fill:#ffb099"/><path d="M66.38,148.69a1.51,1.51,0,1,1-.49-2.09A1.51,1.51,0,0,1,66.38,148.69Z" style="fill:#ffb099"/><path d="M76.37,133.11c.52-1.41.51-2.58-.43-3.16-1.13-.7-2.39,0-3.33,1.27-5.91,7.76-5.14,10.32-8.8,15.21a1.88,1.88,0,0,0,.58,2.8c.69.43,1.58,0,2.33-.8C75.9,138.28,75.87,134.47,76.37,133.11Z" style="fill:#ffb099"/><path d="M50.52,138.8a.58.58,0,0,1,.58-1,.58.58,0,0,1-.58,1Z" style="fill:#ffb099"/><path d="M64.51,149.26a1.51,1.51,0,1,1,2-.72A1.51,1.51,0,0,1,64.51,149.26Z" style="fill:#ffb099"/><path d="M50.31,138.69A106.78,106.78,0,0,0,64.12,149.1a1.64,1.64,0,0,0,2.37-.5,2,2,0,0,0-.55-2.61c-4.47-3.26-8.88-5.15-14.88-8.3Z" style="fill:#ffb099"/><path d="M75.47,126a11.72,11.72,0,0,0-.74-4.5,1.56,1.56,0,0,1,.82-2.06h0a1.57,1.57,0,0,1,1.8,1.29,11.6,11.6,0,0,0,1.82,4.18C79.51,126.18,75.87,127.26,75.47,126Z" style="fill:#ffa085"/><path d="M77,109.87c3.42,3,3.58,8.51,3.58,8.51.21,6.72-6.53,1.66-7.15,1.15-1.63-1.35-3.07-4.63-2.09-6.58C72.52,110.5,76.19,109.23,77,109.87Z" style="fill:#ffb099"/><path d="M79.4,113.72a13.7,13.7,0,0,0-2.5-3.79c.72,2.09-.79,2.87-2.19,4-3,2.35.35,5.5.63,8.34a16.21,16.21,0,0,1-.53,3.83c-.23,1.62.36,2.57,1.12,3.89a32.89,32.89,0,0,1,2.23,5.34,8.58,8.58,0,0,1,.62,4.59,4.83,4.83,0,0,1-2.92,3.36,2.77,2.77,0,0,1-2.48-.05,3.1,3.1,0,0,1-1.26-2.48c-.07-1,.1-1.92,0-2.89-.08-1.86-1.17-2.37-2.37-3.5s-2.62-2.67-2.67-4.44c0-2,1.54-3.75,1.41-5.72-.1-1.61-1.3-2.9-2-4.36a8.07,8.07,0,0,1,1.34-8.46A9.88,9.88,0,0,1,74,108.11a5.65,5.65,0,0,1,2.58-.09,5,5,0,0,1,2.14,2.26,5.14,5.14,0,0,1,.6,1.74A9.42,9.42,0,0,1,79.4,113.72Z" style="fill:#ff401b"/><path d="M97.66,102.27c.32-.12,1.33,2.8,1.33,2.8l.39.89,1.84,0a6.68,6.68,0,0,1-.38,2.26,3.08,3.08,0,0,0-.42,1.19l-1,.87a1.89,1.89,0,0,0-.63-1.76,1.94,1.94,0,0,1-.69-1.45h0s-.08-1.41-.09-2.12S97.34,102.39,97.66,102.27Z" style="fill:#ffa085"/><path d="M101.35,106.11c-.07.53-.21,1-.45,1s-.18-.46-.33-.46-.17.63-.46.56-.26-.56-.47-.57,0,.62-.39.6-.51-1.2-.51-1.68.12-1,.47-1,.34.51.54.48.24-.39.47-.37.2.48.36.51.29-.3.47-.25S101.42,105.54,101.35,106.11Z" style="fill:#ffa085"/><path d="M99.2,105.73c-.19-.38-1.67.35-1.62,1a2.56,2.56,0,0,0,1.08,1.72c.4.12.93-.13.86-.61a1.17,1.17,0,0,0-.84-.89c-.27,0-.24-.45.19-.59C99.1,106.24,99.34,106,99.2,105.73Z" style="fill:#ffa085"/><path d="M99,107.16h0a.11.11,0,0,0,0-.13,1.88,1.88,0,0,1-.21-.7.09.09,0,0,0-.1-.07.1.1,0,0,0-.08.1,2.23,2.23,0,0,0,.24.77A.09.09,0,0,0,99,107.16Z" style="fill:#ff815b"/><path d="M99.25,107.32a.09.09,0,0,1-.08,0,.08.08,0,0,1,0-.12.07.07,0,0,1,.1,0h0c.12,0,.15-.07.19-.29s0-.32.21-.31.21.16.27.29.1.26.21.29.15-.11.21-.29.11-.28.23-.28.17.14.21.26.06.2.12.2h0c.11,0,.27-.24.36-.92a.09.09,0,1,1,.18,0c-.1.71-.28,1.07-.54,1.07h0c-.2,0-.25-.19-.29-.33l0-.11-.06.15c-.07.18-.18.46-.42.4s-.27-.24-.34-.39-.07-.18-.1-.19a.53.53,0,0,0,0,.16c0,.17-.06.44-.33.44Zm0-.16Z" style="fill:#ff815b"/><path d="M98.74,105.75h0a.1.1,0,0,0,.08-.1.17.17,0,0,1,0-.07,2,2,0,0,1,.06-.52.08.08,0,0,0-.07-.1.07.07,0,0,0-.1.06,2.29,2.29,0,0,0-.06.54v.11A.09.09,0,0,0,98.74,105.75Z" style="fill:#ff815b"/><path d="M99.52,107.89h0a.09.09,0,0,0,.08-.09,1.29,1.29,0,0,0-.91-1,.12.12,0,0,1-.11-.1c0-.11.09-.25.31-.32a.68.68,0,0,0,.4-.35.42.42,0,0,0,0-.36.27.27,0,0,0-.17-.14,1.52,1.52,0,0,0-.94.26.1.1,0,0,0,0,.12.08.08,0,0,0,.12,0,1.37,1.37,0,0,1,.8-.24s.06,0,.06,0a.25.25,0,0,1,0,.22.47.47,0,0,1-.3.24.54.54,0,0,0-.42.5.28.28,0,0,0,.25.26,1.09,1.09,0,0,1,.76.82A.11.11,0,0,0,99.52,107.89Z" style="fill:#ff815b"/><path d="M166.5,144.21a2.56,2.56,0,0,1-.83,1.93c-.91.83-3.71.4-3.71.4l0-.63s.4.55,1.91-.2A30.29,30.29,0,0,0,166.5,144.21Z" style="fill:#ffb099"/><path d="M143.26,136.57l14.85,25.6a.9.9,0,0,0,1.25.33l7.49-4.35a.92.92,0,0,0,.34-1.25l-5.3-9.13a.9.9,0,0,1,.33-1.25l7.23-4.2a.93.93,0,0,1,1.25.33l11.91,20.54a.92.92,0,0,0,1.25.33l8.08-4.69a.92.92,0,0,0,.33-1.25l-21.47-37Z" style="fill:#ff8500"/><path d="M184,161a.58.58,0,0,0,.28-.07l5.22-3a.56.56,0,0,0,.2-.76A.54.54,0,0,0,189,157l-4.75,2.75-10.81-18.63a4,4,0,0,0-2.45-1.87,4,4,0,0,0-3.05.41.54.54,0,0,0-.2.75.55.55,0,0,0,.75.2,2.92,2.92,0,0,1,4,1.06l11.09,19.11A.55.55,0,0,0,184,161Z" style="fill:#ff5e2b"/><path d="M159.5,160a.53.53,0,0,0,.27-.08l1.86-1.08a.54.54,0,0,0,.2-.75.55.55,0,0,0-.75-.2l-1.38.81L155.78,152a.55.55,0,1,0-.95.55l4.19,7.23A.56.56,0,0,0,159.5,160Z" style="fill:#ff5e2b"/><path d="M152.76,148.39a.54.54,0,0,0,.48-.82l-3.71-6.39a.55.55,0,0,0-.95.55l3.71,6.39A.53.53,0,0,0,152.76,148.39Z" style="fill:#ff5e2b"/><path d="M88,172.64l86.75-50.36a2.92,2.92,0,0,0,1.06-4l-3.75-6.48a2.93,2.93,0,0,0-4-1.06L81.31,161.1Z" style="fill:#ffa900"/><path d="M112.23,156.17a.53.53,0,0,0,.27-.08l21-12.16a.56.56,0,0,0,.2-.76.56.56,0,0,0-.75-.2l-21,12.17a.55.55,0,0,0,.28,1Z" style="fill:#ff8500"/><path d="M100.71,162.85a.58.58,0,0,0,.28-.07l5.65-3.29a.55.55,0,0,0-.55-1l-5.66,3.29a.55.55,0,0,0-.2.75A.57.57,0,0,0,100.71,162.85Z" style="fill:#ff8500"/><path d="M109.22,148.41a.54.54,0,0,0,.27-.07l14.83-8.61a.55.55,0,1,0-.55-.95l-14.83,8.61a.55.55,0,0,0-.2.75A.54.54,0,0,0,109.22,148.41Z" style="fill:#ffd234"/><path d="M129.53,136.62a.54.54,0,0,0,.27-.07l39.66-23,2.69,4.64a.55.55,0,0,0,.95-.55l-2.78-4.8a.89.89,0,0,0-.56-.42.92.92,0,0,0-.69.09L129.25,135.6a.55.55,0,0,0-.2.75A.56.56,0,0,0,129.53,136.62Z" style="fill:#ffd234"/><path d="M34.48,180.34l13.6,23.44a29.47,29.47,0,1,0,51-29.6l-13.6-23.44a29.47,29.47,0,0,0-51,29.6Zm11.08-6.43a16.66,16.66,0,1,1,28.81-16.73L88,180.62a16.66,16.66,0,1,1-28.81,16.72Z" style="fill:#ffa900"/><path d="M73.63,216.45a27.18,27.18,0,0,0,13.71-3.72,27.5,27.5,0,0,0,10-37.54.55.55,0,0,0-1,.55,26.36,26.36,0,0,1-45.59,26.47.55.55,0,0,0-1,.55,27.61,27.61,0,0,0,23.81,13.69Z" style="fill:#ff8500"/><path d="M47.68,198.53a.58.58,0,0,0,.28-.07.55.55,0,0,0,.2-.75l-7.54-13a.55.55,0,0,0-.75-.2.56.56,0,0,0-.2.76l7.54,13A.53.53,0,0,0,47.68,198.53Z" style="fill:#ff8500"/><path d="M42.54,158a.54.54,0,0,0,.49-.32,18.67,18.67,0,0,1,33.08-1.52.56.56,0,0,0,.75.2.54.54,0,0,0,.2-.75,19.75,19.75,0,0,0-35,1.61.55.55,0,0,0,.27.73A.59.59,0,0,0,42.54,158Z" style="fill:#ff8500"/><path d="M46.46,142.81a.58.58,0,0,0,.28-.07,26.34,26.34,0,0,1,6.52-2.7A.55.55,0,1,0,53,139a27.43,27.43,0,0,0-6.8,2.81.55.55,0,0,0,.28,1Z" style="fill:#ffd234"/><path d="M83.24,152.58a.52.52,0,0,0,.27-.07.56.56,0,0,0,.2-.75,27.39,27.39,0,0,0-25-13.65.54.54,0,0,0-.52.57.56.56,0,0,0,.57.53,26.3,26.3,0,0,1,24,13.1A.56.56,0,0,0,83.24,152.58Z" style="fill:#ffd234"/><path d="M56.94,199.18a.57.57,0,0,0,.28-.08.55.55,0,0,0,.2-.75l-4.7-8.09a.55.55,0,1,0-.95.55l4.7,8.09A.53.53,0,0,0,56.94,199.18Z" style="fill:#ffd234"/><path d="M73.58,208.74a19.72,19.72,0,0,0,19.61-17.46.55.55,0,0,0-1.09-.13,18.66,18.66,0,0,1-30.65,12,.55.55,0,0,0-.77.07.54.54,0,0,0,.06.77A19.78,19.78,0,0,0,73.58,208.74Z" style="fill:#ffd234"/><path d="M163,145.39c.12.5.38,1.39.86,1.11.13-.08.14-.18.33-.24s.67.08.9-.37.49-.2.77-.77.57,0,.6-.8-.93-1.93-1.18-1.69.4,1,.19,1.09-.87-1-1.21-.73.35.58.11.85-.57-.76-1-.48c-.22.17.5.8.16,1.09s-.36-.78-.69-.49C162.76,144.09,162.89,144.73,163,145.39Z" style="fill:#ffb099"/><path d="M165,146.19a.64.64,0,0,0,.24-.27.57.57,0,0,1,.32-.3.88.88,0,0,0,.45-.47c.11-.22.21-.24.3-.26a.07.07,0,0,0,.05-.08.08.08,0,0,0-.08-.06.56.56,0,0,0-.4.34.73.73,0,0,1-.38.41.67.67,0,0,0-.38.36.66.66,0,0,1-.65.32.68.68,0,0,0-.21,0,.54.54,0,0,0-.25.16.34.34,0,0,1-.09.08.26.26,0,0,1-.29,0,.06.06,0,0,0-.09,0,.07.07,0,0,0,0,.1.38.38,0,0,0,.43,0,.43.43,0,0,0,.12-.11.39.39,0,0,1,.19-.12l.17,0A1,1,0,0,0,165,146.19Z" style="fill:#ffa085"/><circle cx="105.88" cy="141.82" r="2.59" transform="translate(-38.34 244.42) rotate(-88.68)" style="fill:#0096ca"/><path d="M116.87,125.58c1.5-.74,3.65,0,4.8,1.3,1.36,1.51,1.35,3.87.38,4.87-5.43,5.55-11.2,8.66-14.46,12.19-.84.92-2.53.84-3.81-.58a2.61,2.61,0,0,1,0-3.31C111.22,130.16,115.43,126.29,116.87,125.58Z" style="fill:#0096ca"/><path d="M104.83,161.82a4.9,4.9,0,0,0,2,0C107.81,161.56,105,164,104.83,161.82Z" style="fill:#ffb68e"/><path d="M106.31,164.26c-.29.32-.43-.2-.71-.09s.33.48-.17.75c-.32.19-.44-.36-.67-.25s.19.31-.19.52-.49-.45-.72-.37.14.31-.32.43c-.3.08-1.29-1-1.56-1.8a4.14,4.14,0,0,1,.39-2.63c.11,0,1.33-.48,1.39,1,0,.38,1.16-.28,1.58,0C105.93,162.23,106.54,164,106.31,164.26Z" style="fill:#ffb68e"/><circle cx="105.88" cy="141.82" r="2.59" transform="matrix(0.02, -1, 1, 0.02, -37.93, 244.99)" style="fill:#0096ca"/><path d="M104,140l0,0a3.1,3.1,0,0,0-.63,1.21l0,.18A151,151,0,0,0,102,161.71l.17,0h0l1.47.14h0l.21,0c2.06-7.56,4.37-14.4,4.78-19.77a2.37,2.37,0,0,0-2.15-2.81l-.07,0h0a1.08,1.08,0,0,0-.19,0H106A2.43,2.43,0,0,0,104,140Z" style="fill:#0096ca"/><path d="M52.3,137c-.24-.53-.73-1.44-1.22-1.14-.13.08-.13.19-.34.25s-.79-.07-1,.4-.53.22-.73.81-.66,0-.54.84,1.47,2,1.71,1.73-.65-1-.43-1.13,1.22,1.07,1.55.75-.53-.61-.31-.88.83.77,1.23.47c.23-.17-.74-.81-.4-1.12s.57.8.9.49C52.89,138.34,52.61,137.67,52.3,137Z" style="fill:#ffc4a4"/></g></g></svg>